<?xml version="1.0" encoding="utf-8"?>
<!-- Generator: Adobe Illustrator 24.0.1, SVG Export Plug-In . SVG Version: 6.00 Build 0)  -->
<svg version="1.1" id="Layer_1" xmlns="http://www.w3.org/2000/svg" xmlns:xlink="http://www.w3.org/1999/xlink" x="0px" y="0px"
	 viewBox="0 0 1440 262" style="enable-background:new 0 0 1440 262;" xml:space="preserve">
<style type="text/css">
	.st0{fill:#5F7B47;stroke:#979797;}
	.st1{fill-rule:evenodd;clip-rule:evenodd;fill:#FFFFFF;}
	.st2{fill:none;stroke:#B2B2B2;stroke-width:2;}
	.st3{fill-rule:evenodd;clip-rule:evenodd;fill:#CAD49D;}
	.st4{fill:#CAD49D;stroke:#B2B2B2;stroke-width:2;}
	.st5{fill:#CAD49D;}
	.st6{fill-rule:evenodd;clip-rule:evenodd;fill:#D5EFE3;}
	.st7{opacity:9.000000e-02;fill-rule:evenodd;clip-rule:evenodd;enable-background:new    ;}
	.st8{fill-rule:evenodd;clip-rule:evenodd;fill:#D7D8D8;}
	.st9{fill-rule:evenodd;clip-rule:evenodd;fill:#989898;}
	.st10{fill-rule:evenodd;clip-rule:evenodd;fill:#5F7B47;stroke:#CAD49D;}
	.st11{fill-rule:evenodd;clip-rule:evenodd;fill:#999999;}
	.st12{opacity:0.134;enable-background:new    ;}
	.st13{fill:#076351;}
	.st14{fill:#3F0D0D;}
	.st15{fill:#1F1B1B;}
	.st16{fill:#34455C;}
	.st17{fill:#997F5D;}
	.st18{fill:#C6A474;}
	.st19{fill:#5B3D18;}
	.st20{fill:#D7B682;}
	.st21{fill:#952E15;}
	.st22{opacity:0.4;fill:#34455C;enable-background:new    ;}
	.st23{fill:#101923;}
	.st24{fill:#956922;}
	.st25{fill:#2A413D;}
	.st26{fill:#3B6863;}
	.st27{opacity:0.5;fill:#64837F;enable-background:new    ;}
	.st28{fill:#DFAB38;}
	.st29{fill:none;stroke:#000000;stroke-miterlimit:10;}
</style>
<g id="Layer_4">
</g>
<path class="st0" d="M0,192h1440v74.5H0V192z"/>
<path class="st1" d="M572.8,134.5l-7.4,8.2l0.2,57.5l14.8-0.1l-0.2-57.5L572.8,134.5z"/>
<path class="st2" d="M565.4,142.8l7.4-8.2l7.4,8.2l0.2,57.5l-14.8,0.1L565.4,142.8z"/>
<path class="st1" d="M587.6,134.5l-7.4,8.2l0.2,57.5l14.8-0.1l-0.2-57.5L587.6,134.5z"/>
<path class="st2" d="M580.2,142.7l7.4-8.2l7.4,8.2l0.2,57.5l-14.8,0.1L580.2,142.7z"/>
<path class="st1" d="M602.3,134.4l-7.4,8.2l0.2,57.5l14.8-0.1l-0.2-57.5L602.3,134.4z"/>
<path class="st2" d="M595,142.7l7.4-8.2l7.4,8.2l0.2,57.5l-14.8,0.1L595,142.7z"/>
<path class="st3" d="M9.6,136.6l-7.4,8.2l0.2,57.5l14.8-0.1L17,144.7L9.6,136.6z"/>
<path class="st2" d="M2.2,144.8l7.4-8.2l7.4,8.2l0.2,57.5l-14.8,0.1L2.2,144.8z"/>
<path class="st1" d="M24.4,136.5l-7.4,8.2l0.2,57.5l14.8-0.1l-0.2-57.5L24.4,136.5z"/>
<path class="st2" d="M17,144.7l7.4-8.2l7.4,8.2l0.2,57.5l-14.8,0.1L17,144.7z"/>
<path class="st1" d="M39.1,136.5l-7.4,8.2l0.2,57.5l14.8-0.1l-0.2-57.5L39.1,136.5z"/>
<path class="st4" d="M32,202.2l-0.2-57.5l7.4-8.2l7.4,8.2l0.2,57.5H32z"/>
<path class="st1" d="M53.9,136.4l-7.4,8.2l0.2,57.5l14.8-0.1l-0.2-57.5L53.9,136.4z"/>
<path class="st2" d="M46.6,144.6l7.4-8.2l7.4,8.2l0.2,57.5l-14.8,0.1L46.6,144.6z"/>
<path class="st3" d="M68.7,136.4l-7.4,8.2l0.2,57.5l14.8-0.1l-0.2-57.5L68.7,136.4z"/>
<path class="st2" d="M61.3,144.6l7.4-8.2l7.4,8.2l0.2,57.5l-14.8,0.1L61.3,144.6z"/>
<path class="st1" d="M83.4,136.3l-7.4,8.2l0.2,57.5l14.8-0.1l-0.2-57.5L83.4,136.3z"/>
<path class="st2" d="M76.3,202l-0.2-57.5l7.4-8.2l7.4,8.2l0.2,57.5H76.3z"/>
<path class="st3" d="M98.2,136.2l-7.4,8.2l0.2,57.5l14.8-0.1l-0.2-57.5L98.2,136.2z"/>
<path class="st2" d="M90.9,144.5l7.4-8.2l7.4,8.2l0.2,57.5l-14.8,0.1L90.9,144.5z"/>
<path class="st1" d="M113,136.2l-7.4,8.2l0.2,57.5l14.8-0.1l-0.2-57.5L113,136.2z"/>
<path class="st2" d="M105.6,144.4l7.4-8.2l7.4,8.2l0.2,57.5l-14.8,0.1L105.6,144.4z"/>
<path class="st1" d="M128.7,136.1l-7.4,8.2l0.2,57.5l14.8-0.1l-0.2-57.5L128.7,136.1z"/>
<path class="st2" d="M121.6,201.8l-0.2-57.5l7.4-8.2l7.4,8.2l0.2,57.5H121.6z"/>
<path class="st3" d="M143.5,136.1l-7.4,8.2l0.2,57.5l14.8-0.1l-0.2-57.5L143.5,136.1z"/>
<path class="st2" d="M136.4,201.8l-0.2-57.5l7.4-8.2l7.4,8.2l0.2,57.5H136.4z"/>
<path class="st1" d="M158.3,136l-7.4,8.2l0.2,57.5l14.8-0.1l-0.2-57.5L158.3,136z"/>
<path class="st2" d="M150.9,144.3l7.4-8.2l7.4,8.2l0.2,57.5l-14.8,0.1L150.9,144.3z"/>
<path class="st1" d="M173,136l-7.4,8.2l0.2,57.5l14.8-0.1l-0.2-57.5L173,136z"/>
<path class="st4" d="M165.7,144.2l7.4-8.2l7.4,8.2l0.2,57.5l-14.8,0.1L165.7,144.2z"/>
<path class="st1" d="M187.8,135.9l-7.4,8.2l0.2,57.5l14.8-0.1l-0.2-57.5L187.8,135.9z"/>
<path class="st2" d="M180.7,201.6l-0.2-57.5l7.4-8.2l7.4,8.2l0.2,57.5H180.7z"/>
<path class="st1" d="M202.6,135.9l-7.4,8.2l0.2,57.5l14.8-0.1L210,144L202.6,135.9z"/>
<path class="st2" d="M195.2,144.1l7.4-8.2l7.4,8.2l0.2,57.5l-14.8,0.1L195.2,144.1z"/>
<path class="st1" d="M217.3,135.8L210,144l0.2,57.5l14.8-0.1l-0.2-57.5L217.3,135.8z"/>
<path class="st4" d="M210,144l7.4-8.2l7.4,8.2l0.2,57.5l-14.8,0.1L210,144z"/>
<path class="st1" d="M232.1,135.8l-7.4,8.2l0.2,57.5l14.8-0.1l-0.2-57.5L232.1,135.8z"/>
<path class="st2" d="M225,201.5l-0.2-57.5l7.4-8.2l7.4,8.2l0.2,57.5H225z"/>
<path class="st1" d="M246.9,135.7l-7.4,8.2l0.2,57.5l14.8-0.1l-0.2-57.5L246.9,135.7z"/>
<path class="st2" d="M239.5,143.9l7.4-8.2l7.4,8.2l0.2,57.5l-14.8,0.1L239.5,143.9z"/>
<path class="st1" d="M261.7,135.7l-7.4,8.2l0.2,57.5l14.8-0.1l-0.2-57.5L261.7,135.7z"/>
<path class="st2" d="M254.3,143.9l7.4-8.2l7.4,8.2l0.2,57.5l-14.8,0.1L254.3,143.9z"/>
<path class="st1" d="M276.4,135.6l-7.4,8.2l0.2,57.5l14.8-0.1l-0.2-57.5L276.4,135.6z"/>
<path class="st2" d="M269.3,201.3l-0.2-57.5l7.4-8.2l7.4,8.2l0.2,57.5H269.3z"/>
<path class="st1" d="M291.2,135.5l-7.4,8.2l0.2,57.5l14.8-0.1l-0.2-57.5L291.2,135.5z"/>
<path class="st2" d="M283.8,143.8l7.4-8.2l7.4,8.2l0.2,57.5l-14.8,0.1L283.8,143.8z"/>
<path class="st1" d="M306,135.5l-7.4,8.2l0.2,57.5l14.8-0.1l-0.2-57.5L306,135.5z"/>
<path class="st2" d="M298.6,143.7l7.4-8.2l7.4,8.2l0.2,57.5l-14.8,0.1L298.6,143.7z"/>
<path class="st1" d="M320.7,135.4l-7.4,8.2l0.2,57.5l14.8-0.1l-0.2-57.5L320.7,135.4z"/>
<path class="st2" d="M313.6,201.1l-0.2-57.5l7.4-8.2l7.4,8.2l0.2,57.5H313.6z"/>
<path class="st1" d="M335.5,135.4l-7.4,8.2l0.2,57.5l14.8-0.1l-0.2-57.5L335.5,135.4z"/>
<path class="st2" d="M328.1,143.6l7.4-8.2l7.4,8.2l0.2,57.5l-14.8,0.1L328.1,143.6z"/>
<path class="st1" d="M350.3,135.3l-7.4,8.2l0.2,57.5l14.8-0.1l-0.2-57.5L350.3,135.3z"/>
<path class="st2" d="M342.9,143.6l7.4-8.2l7.4,8.2l0.2,57.5l-14.8,0.1L342.9,143.6z"/>
<path class="st1" d="M365,135.3l-7.4,8.2l0.2,57.5l14.8-0.1l-0.2-57.5L365,135.3z"/>
<path class="st2" d="M357.9,201l-0.2-57.5l7.4-8.2l7.4,8.2l0.2,57.5H357.9z"/>
<path class="st1" d="M379.8,135.2l-7.4,8.2l0.2,57.5l14.8-0.1l-0.2-57.5L379.8,135.2z"/>
<path class="st2" d="M372.5,143.5l7.4-8.2l7.4,8.2l0.2,57.5l-14.8,0.1L372.5,143.5z"/>
<path class="st1" d="M394.6,135.2l-7.4,8.2l0.2,57.5l14.8-0.1l-0.2-57.5L394.6,135.2z"/>
<path class="st2" d="M387.2,143.4l7.4-8.2l7.4,8.2l0.2,57.5l-14.8,0.1L387.2,143.4z"/>
<path class="st1" d="M410.3,135.1l-7.4,8.2l0.2,57.5l14.8-0.1l-0.2-57.5L410.3,135.1z"/>
<path class="st2" d="M403.2,200.8l-0.2-57.5l7.4-8.2l7.4,8.2l0.2,57.5H403.2z"/>
<path class="st1" d="M425.1,135.1l-7.4,8.2l0.2,57.5l14.8-0.1l-0.2-57.5L425.1,135.1z"/>
<path class="st2" d="M417.7,143.3l7.4-8.2l7.4,8.2l0.2,57.5l-14.8,0.1L417.7,143.3z"/>
<path class="st1" d="M618.1,134.4l-7.4,8.2l0.2,57.5l14.8-0.1l-0.2-57.5L618.1,134.4z"/>
<path class="st2" d="M610.7,142.6l7.4-8.2l7.4,8.2l0.2,57.5l-14.8,0.1L610.7,142.6z"/>
<path class="st1" d="M632.9,134.3l-7.4,8.2l0.2,57.5l14.8-0.1l-0.2-57.5L632.9,134.3z"/>
<path class="st2" d="M625.7,200l-0.2-57.5l7.4-8.2l7.4,8.2l0.2,57.5H625.7z"/>
<path class="st1" d="M647.6,134.3l-7.4,8.2l0.2,57.5l14.8-0.1l-0.2-57.5L647.6,134.3z"/>
<path class="st2" d="M640.3,142.5l7.4-8.2l7.4,8.2l0.2,57.5l-14.8,0.1L640.3,142.5z"/>
<path class="st1" d="M662.4,134.2l-7.4,8.2l0.2,57.5l14.8-0.1l-0.2-57.5L662.4,134.2z"/>
<path class="st2" d="M655,142.4l7.4-8.2l7.4,8.2l0.2,57.5l-14.8,0.1L655,142.4z"/>
<path class="st1" d="M677.2,134.2l-7.4,8.2l0.2,57.5l14.8-0.1l-0.2-57.5L677.2,134.2z"/>
<path class="st2" d="M670,199.9l-0.2-57.5l7.4-8.2l7.4,8.2l0.2,57.5H670z"/>
<path class="st1" d="M691.9,134.1l-7.4,8.2l0.2,57.5l14.8-0.1l-0.2-57.5L691.9,134.1z"/>
<path class="st2" d="M684.6,142.3l7.4-8.2l7.4,8.2l0.2,57.5l-14.8,0.1L684.6,142.3z"/>
<path class="st3" d="M706.7,134l-7.4,8.2l0.2,57.5l14.8-0.1l-0.2-57.5L706.7,134z"/>
<path class="st2" d="M699.3,142.3l7.4-8.2l7.4,8.2l0.2,57.5l-14.8,0.1L699.3,142.3z"/>
<path class="st1" d="M721.5,134l-7.4,8.2l0.2,57.5l14.8-0.1l-0.2-57.5L721.5,134z"/>
<path class="st2" d="M714.3,199.7l-0.2-57.5l7.4-8.2l7.4,8.2l0.2,57.5H714.3z"/>
<path class="st1" d="M736.2,133.9l-7.4,8.2l0.2,57.5l14.8-0.1l-0.2-57.5L736.2,133.9z"/>
<path class="st2" d="M728.9,142.2l7.4-8.2l7.4,8.2l0.2,57.5l-14.8,0.1L728.9,142.2z"/>
<path class="st1" d="M751,133.9l-7.4,8.2l0.2,57.5l14.8-0.1l-0.2-57.5L751,133.9z"/>
<path class="st2" d="M743.7,142.1l7.4-8.2l7.4,8.2l0.2,57.5l-14.8,0.1L743.7,142.1z"/>
<path class="st1" d="M765.8,133.8l-7.4,8.2l0.2,57.5l14.8-0.1l-0.2-57.5L765.8,133.8z"/>
<path class="st4" d="M758.7,199.5l-0.2-57.5l7.4-8.2l7.4,8.2l0.2,57.5H758.7z"/>
<path class="st1" d="M780.5,133.8l-7.4,8.2l0.2,57.5l14.8-0.1L788,142L780.5,133.8z"/>
<path class="st4" d="M773.2,142l7.4-8.2l7.4,8.2l0.2,57.5l-14.8,0.1L773.2,142z"/>
<path class="st1" d="M795.3,133.7L788,142l0.2,57.5l14.8-0.1l-0.2-57.5L795.3,133.7z"/>
<path class="st2" d="M788,142l7.4-8.2l7.4,8.2l0.2,57.5l-14.8,0.1L788,142z"/>
<path class="st1" d="M810.1,133.7l-7.4,8.2l0.2,57.5l14.8-0.1l-0.2-57.5L810.1,133.7z"/>
<path class="st4" d="M803,199.4l-0.2-57.5l7.4-8.2l7.4,8.2l0.2,57.5H803z"/>
<path class="st1" d="M824.8,133.6l-7.4,8.2l0.2,57.5l14.8-0.1l-0.2-57.5L824.8,133.6z"/>
<path class="st2" d="M817.5,141.9l7.4-8.2l7.4,8.2l0.2,57.5l-14.8,0.1L817.5,141.9z"/>
<path class="st1" d="M839.6,133.6l-7.4,8.2l0.2,57.5l14.8-0.1l-0.2-57.5L839.6,133.6z"/>
<path class="st4" d="M832.3,141.8l7.4-8.2l7.4,8.2l0.2,57.5l-14.8,0.1L832.3,141.8z"/>
<path class="st3" d="M854.4,133.5l-7.4,8.2l0.2,57.5l14.8-0.1l-0.2-57.5L854.4,133.5z"/>
<path class="st2" d="M847.3,199.2l-0.2-57.5l7.4-8.2l7.4,8.2l0.2,57.5H847.3z"/>
<path class="st3" d="M869.2,133.5l-7.4,8.2l0.2,57.5l14.8-0.1l-0.2-57.5L869.2,133.5z"/>
<path class="st2" d="M861.8,141.7l7.4-8.2l7.4,8.2l0.2,57.5l-14.8,0.1L861.8,141.7z"/>
<path class="st1" d="M883.9,133.4l-7.4,8.2l0.2,57.5l14.8-0.1l-0.2-57.5L883.9,133.4z"/>
<path class="st2" d="M876.6,141.6l7.4-8.2l7.4,8.2l0.2,57.5l-14.8,0.1L876.6,141.6z"/>
<path class="st3" d="M899.7,133.3l-7.4,8.2l0.2,57.5l14.8-0.1l-0.2-57.5L899.7,133.3z"/>
<path class="st2" d="M892.6,199l-0.2-57.5l7.4-8.2l7.4,8.2l0.2,57.5H892.6z"/>
<path class="st1" d="M914.4,133.3l-7.4,8.2l0.2,57.5l14.8-0.1l-0.2-57.5L914.4,133.3z"/>
<path class="st5" d="M907.1,141.5l7.4-8.2l7.4,8.2l0.2,57.5l-14.8,0.1L907.1,141.5z"/>
<path class="st3" d="M929.2,133.2l-7.4,8.2l0.2,57.5l14.8-0.1l-0.2-57.5L929.2,133.2z"/>
<path class="st2" d="M921.9,141.5l7.4-8.2l7.4,8.2l0.2,57.5l-14.8,0.1L921.9,141.5z"/>
<path class="st1" d="M944,133.2l-7.4,8.2l0.2,57.5l14.8-0.1l-0.2-57.5L944,133.2z"/>
<path class="st2" d="M936.9,198.9l-0.2-57.5l7.4-8.2l7.4,8.2l0.2,57.5H936.9z"/>
<path class="st1" d="M958.8,133.1l-7.4,8.2l0.2,57.5l14.8-0.1l-0.2-57.5L958.8,133.1z"/>
<path class="st4" d="M951.6,198.8l-0.2-57.5l7.4-8.2l7.4,8.2l0.2,57.5H951.6z"/>
<path class="st1" d="M973.5,133.1l-7.4,8.2l0.2,57.5l14.8-0.1l-0.2-57.5L973.5,133.1z"/>
<path class="st2" d="M966.2,141.3l7.4-8.2l7.4,8.2l0.2,57.5l-14.8,0.1L966.2,141.3z"/>
<path class="st1" d="M988.3,133l-7.4,8.2l0.2,57.5l14.8-0.1l-0.2-57.5L988.3,133z"/>
<path class="st2" d="M980.9,141.3l7.4-8.2l7.4,8.2l0.2,57.5l-14.8,0.1L980.9,141.3z"/>
<path class="st1" d="M1003.1,133l-7.4,8.2l0.2,57.5l14.8-0.1l-0.2-57.5L1003.1,133z"/>
<path class="st4" d="M995.9,198.7l-0.2-57.5l7.4-8.2l7.4,8.2l0.2,57.5H995.9z"/>
<path class="st1" d="M1017.8,132.9l-7.4,8.2l0.2,57.5l14.8-0.1l-0.2-57.5L1017.8,132.9z"/>
<path class="st2" d="M1010.5,141.2l7.4-8.2l7.4,8.2l0.2,57.5l-14.8,0.1L1010.5,141.2z"/>
<path class="st3" d="M1032.6,132.9l-7.4,8.2l0.2,57.5l14.8-0.1L1040,141L1032.6,132.9z"/>
<path class="st2" d="M1025.2,141.1l7.4-8.2l7.4,8.2l0.2,57.5l-14.8,0.1L1025.2,141.1z"/>
<path class="st3" d="M1047.4,132.8l-7.4,8.2l0.2,57.5l14.8-0.1l-0.2-57.5L1047.4,132.8z"/>
<path class="st2" d="M1040.3,198.5L1040,141l7.4-8.2l7.4,8.2l0.2,57.5H1040.3z"/>
<path class="st1" d="M1062.1,132.8l-7.4,8.2l0.2,57.5l14.8-0.1l-0.2-57.5L1062.1,132.8z"/>
<path class="st2" d="M1054.8,141l7.4-8.2l7.4,8.2l0.2,57.5l-14.8,0.1L1054.8,141z"/>
<path class="st1" d="M1076.9,132.7l-7.4,8.2l0.2,57.5l14.8-0.1l-0.2-57.5L1076.9,132.7z"/>
<path class="st2" d="M1069.6,140.9l7.4-8.2l7.4,8.2l0.2,57.5l-14.8,0.1L1069.6,140.9z"/>
<path class="st3" d="M1091.7,132.7l-7.4,8.2l0.2,57.5l14.8-0.1l-0.2-57.5L1091.7,132.7z"/>
<path class="st2" d="M1084.6,198.4l-0.2-57.5l7.4-8.2l7.4,8.2l0.2,57.5H1084.6z"/>
<path class="st1" d="M1106.4,132.6l-7.4,8.2l0.2,57.5l14.8-0.1l-0.2-57.5L1106.4,132.6z"/>
<path class="st2" d="M1099.1,140.8l7.4-8.2l7.4,8.2l0.2,57.5l-14.8,0.1L1099.1,140.8z"/>
<path class="st3" d="M1121.2,132.5l-7.4,8.2l0.2,57.5l14.8-0.1l-0.2-57.5L1121.2,132.5z"/>
<path class="st2" d="M1113.9,140.8l7.4-8.2l7.4,8.2l0.2,57.5l-14.8,0.1L1113.9,140.8z"/>
<path class="st1" d="M1136,132.5l-7.4,8.2l0.2,57.5l14.8-0.1l-0.2-57.5L1136,132.5z"/>
<path class="st2" d="M1128.9,198.2l-0.2-57.5l7.4-8.2l7.4,8.2l0.2,57.5H1128.9z"/>
<path class="st3" d="M1150.8,132.4l-7.4,8.2l0.2,57.5l14.8-0.1l-0.2-57.5L1150.8,132.4z"/>
<path class="st2" d="M1143.4,140.7l7.4-8.2l7.4,8.2l0.2,57.5l-14.8,0.1L1143.4,140.7z"/>
<path class="st1" d="M1165.5,132.4l-7.4,8.2l0.2,57.5l14.8-0.1l-0.2-57.5L1165.5,132.4z"/>
<path class="st2" d="M1158.2,140.6l7.4-8.2l7.4,8.2l0.2,57.5l-14.8,0.1L1158.2,140.6z"/>
<path class="st1" d="M1181.3,132.3l-7.4,8.2l0.2,57.5l14.8-0.1l-0.2-57.5L1181.3,132.3z"/>
<path class="st2" d="M1174.2,198l-0.2-57.5l7.4-8.2l7.4,8.2l0.2,57.5H1174.2z"/>
<path class="st1" d="M1196,132.3l-7.4,8.2l0.2,57.5l14.8-0.1l-0.2-57.5L1196,132.3z"/>
<path class="st2" d="M1188.7,140.5l7.4-8.2l7.4,8.2l0.2,57.5l-14.8,0.1L1188.7,140.5z"/>
<path class="st3" d="M1210.8,132.2l-7.4,8.2l0.2,57.5l14.8-0.1l-0.2-57.5L1210.8,132.2z"/>
<path class="st2" d="M1203.5,140.5l7.4-8.2l7.4,8.2l0.2,57.5l-14.8,0.1L1203.5,140.5z"/>
<path class="st1" d="M1225.6,132.2l-7.4,8.2l0.2,57.5l14.8-0.1l-0.2-57.5L1225.6,132.2z"/>
<path class="st2" d="M1218.5,197.9l-0.2-57.5l7.4-8.2l7.4,8.2l0.2,57.5H1218.5z"/>
<path class="st1" d="M1240.3,132.1l-7.4,8.2l0.2,57.5l14.8-0.1l-0.2-57.5L1240.3,132.1z"/>
<path class="st2" d="M1233,140.4l7.4-8.2l7.4,8.2l0.2,57.5l-14.8,0.1L1233,140.4z"/>
<path class="st1" d="M1255.1,132.1l-7.4,8.2l0.2,57.5l14.8-0.1l-0.2-57.5L1255.1,132.1z"/>
<path class="st2" d="M1247.8,140.3l7.4-8.2l7.4,8.2l0.2,57.5l-14.8,0.1L1247.8,140.3z"/>
<path class="st1" d="M1269.9,132l-7.4,8.2l0.2,57.5l14.8-0.1l-0.2-57.5L1269.9,132z"/>
<path class="st4" d="M1262.8,197.7l-0.2-57.5l7.4-8.2l7.4,8.2l0.2,57.5H1262.8z"/>
<path class="st1" d="M1284.7,132l-7.4,8.2l0.2,57.5l14.8-0.1l-0.2-57.5L1284.7,132z"/>
<path class="st2" d="M1277.5,197.7l-0.2-57.5l7.4-8.2l7.4,8.2l0.2,57.5H1277.5z"/>
<path class="st1" d="M1299.4,131.9l-7.4,8.2l0.2,57.5l14.8-0.1l-0.2-57.5L1299.4,131.9z"/>
<path class="st2" d="M1292.1,140.1l7.4-8.2l7.4,8.2l0.2,57.5l-14.8,0.1L1292.1,140.1z"/>
<path class="st1" d="M1314.2,131.8l-7.4,8.2l0.2,57.5l14.8-0.1l-0.2-57.5L1314.2,131.8z"/>
<path class="st4" d="M1306.8,140.1l7.4-8.2l7.4,8.2l0.2,57.5l-14.8,0.1L1306.8,140.1z"/>
<path class="st1" d="M1329,131.8l-7.4,8.2l0.2,57.5l14.8-0.1l-0.2-57.5L1329,131.8z"/>
<path class="st2" d="M1321.8,197.5l-0.2-57.5l7.4-8.2l7.4,8.2l0.2,57.5H1321.8z"/>
<path class="st1" d="M1343.7,131.7l-7.4,8.2l0.2,57.5l14.8-0.1l-0.2-57.5L1343.7,131.7z"/>
<path class="st5" d="M1336.4,140l7.4-8.2l7.4,8.2l0.2,57.5l-14.8,0.1L1336.4,140z"/>
<path class="st1" d="M1358.5,131.7l-7.4,8.2l0.2,57.5l14.8-0.1l-0.2-57.5L1358.5,131.7z"/>
<path class="st2" d="M1351.2,139.9l7.4-8.2l7.4,8.2l0.2,57.5l-14.8,0.1L1351.2,139.9z"/>
<path class="st3" d="M1373.3,131.6l-7.4,8.2l0.2,57.5l14.8-0.1l-0.2-57.5L1373.3,131.6z"/>
<path class="st2" d="M1366.2,197.3l-0.2-57.5l7.4-8.2l7.4,8.2l0.2,57.5H1366.2z"/>
<path class="st1" d="M1388,131.6l-7.4,8.2l0.2,57.5l14.8-0.1l-0.2-57.5L1388,131.6z"/>
<path class="st2" d="M1380.7,139.8l7.4-8.2l7.4,8.2l0.2,57.5l-14.8,0.1L1380.7,139.8z"/>
<path class="st1" d="M1402.8,131.5l-7.4,8.2l0.2,57.5l14.8-0.1l-0.2-57.5L1402.8,131.5z"/>
<path class="st2" d="M1395.5,139.8l7.4-8.2l7.4,8.2l0.2,57.5l-14.8,0.1L1395.5,139.8z"/>
<path class="st1" d="M1417.6,131.5l-7.4,8.2l0.2,57.5l14.8-0.1l-0.2-57.5L1417.6,131.5z"/>
<path class="st2" d="M1410.5,197.2l-0.2-57.5l7.4-8.2l7.4,8.2l0.2,57.5H1410.5z"/>
<path class="st1" d="M1432.3,131.4l-7.4,8.2l0.2,57.5l14.8-0.1l-0.2-57.5L1432.3,131.4z"/>
<path class="st4" d="M1425,139.7l7.4-8.2l7.4,8.2l0.2,57.5l-14.8,0.1L1425,139.7z"/>
<path class="st1" d="M498.9,134.8l-7.4,8.2l0.2,57.5l14.8-0.1l-0.2-57.5L498.9,134.8z"/>
<path class="st2" d="M491.6,143l7.4-8.2l7.4,8.2l0.2,57.5l-14.8,0.1L491.6,143z"/>
<path class="st1" d="M484.2,134.8l-7.4,8.2l0.2,57.5l14.8-0.1l-0.2-57.5L484.2,134.8z"/>
<path class="st2" d="M476.8,143.1l7.4-8.2l7.4,8.2l0.2,57.5l-14.8,0.1L476.8,143.1z"/>
<path class="st1" d="M469.4,134.9l-7.4,8.2l0.2,57.5l14.8-0.1l-0.2-57.5L469.4,134.9z"/>
<path class="st2" d="M462.1,143.1l7.4-8.2l7.4,8.2l0.2,57.5l-14.8,0.1L462.1,143.1z"/>
<path class="st1" d="M454.6,135l-7.4,8.2l0.2,57.5l14.8-0.1l-0.2-57.5L454.6,135z"/>
<path class="st2" d="M447.3,143.2l7.4-8.2l7.4,8.2l0.2,57.5l-14.8,0.1L447.3,143.2z"/>
<path class="st1" d="M439.9,135l-7.4,8.2l0.2,57.5l14.8-0.1l-0.2-57.5L439.9,135z"/>
<path class="st2" d="M432.8,200.7l-0.2-57.6l7.4-8.3l7.5,8.2l0.2,57.6L432.8,200.7L432.8,200.7z"/>
<path class="st1" d="M477.1,151.1c1,0,1.9,0.4,2.6,1.2s1.1,1.8,1.1,2.9c0,1.1-0.4,2.1-1.1,2.9c-0.7,0.8-1.6,1.2-2.6,1.2"/>
<path class="st2" d="M477.1,151.1c1,0,1.9,0.4,2.6,1.2s1.1,1.8,1.1,2.9c0,1.1-0.4,2.1-1.1,2.9c-0.7,0.8-1.6,1.2-2.6,1.2"/>
<path class="st1" d="M596.1,179.5c-0.5,0-1-0.1-1.4-0.3c-0.5-0.2-0.9-0.5-1.2-0.9s-0.6-0.8-0.8-1.3s-0.3-1-0.3-1.6
	c0-1.1,0.4-2.1,1.1-2.9c0.7-0.8,1.6-1.2,2.6-1.2"/>
<path class="st2" d="M596.1,179.5c-0.5,0-1-0.1-1.4-0.3c-0.5-0.2-0.9-0.5-1.2-0.9s-0.6-0.8-0.8-1.3s-0.3-1-0.3-1.6
	c0-1.1,0.4-2.1,1.1-2.9c0.7-0.8,1.6-1.2,2.6-1.2"/>
<path class="st1" d="M507.1,200.4l59.4-0.2l-0.2-57.6c0,0-7.5-11-29.8-11c-22.3,0.1-29.7,11.2-29.7,11.2L507.1,200.4z"/>
<path class="st2" d="M507.1,200.4l59.4-0.2l-0.2-57.6c0,0-7.5-11-29.8-11c-22.3,0.1-29.7,11.2-29.7,11.2L507.1,200.4z"/>
<path class="st2" d="M551.4,142.6l0.2,57.6"/>
<path class="st2" d="M536.5,137.3l0.3,63"/>
<path class="st2" d="M521.7,142.8l0.2,57.6"/>
<path class="st1" d="M226.3,42L226.3,42L338,41.6v-9h2.2L340.1,15h-2.2V7.9h2.2V0.8l14.2-0.1v7.1h2.2V15h-2.2l0.1,17.6h2.2v9
	l24.1-0.1l32.4-27.4l93.3,77.5c0.3,0.2,0.5,0.6,0.5,1c0.1,0.4,0,0.8-0.3,1.2l-3.3,5c-0.2,0.3-0.6,0.5-0.9,0.6c-0.4,0.1-0.7,0-1-0.3
	l-14.9-12.3l0.3,82.7h2.6l0.1,28.9L237,199.2l-0.1-28.9h2.6l-0.2-53.4h-12.7L226.3,42L226.3,42z"/>
<path class="st6" d="M355.3,51.8c0-1,0.9-1.9,2-1.9s2,0.8,2,1.9v9.4c0,1-0.9,1.9-2,1.9s-2-0.8-2-1.9V51.8z M371.1,40.9
	c0-1.1,0.9-2,2-2s2,0.9,2,2v7c0,1.1-0.9,2-2,2s-2-0.9-2-2V40.9z M241.1,41.3c0-1.1,0.9-1.9,2-1.9s2,0.9,2,1.9l0.2,58.5
	c0,1.1-0.9,1.9-2,1.9s-2-0.9-2-1.9L241.1,41.3z M256.8,41.3c0-1.1,0.9-1.9,2-1.9s2,0.9,2,1.9l0.2,58.5c0,1.1-0.9,1.9-2,1.9
	s-2-0.9-2-1.9L256.8,41.3z M273.6,41.2c0-1.1,0.9-1.9,2-1.9s2,0.9,2,1.9l0.2,58.5c0,1.1-0.9,1.9-2,1.9s-2-0.9-2-1.9L273.6,41.2z
	 M289.3,41.2c0-1.1,0.9-1.9,2-1.9s2,0.9,2,1.9l0.2,58.5c0,1.1-0.9,1.9-2,1.9s-2-0.9-2-1.9L289.3,41.2z M306.1,41.1
	c0-1.1,0.9-1.9,2-1.9s2,0.9,2,1.9l0.2,58.5c0,1.1-0.9,1.9-2,1.9s-2-0.9-2-1.9L306.1,41.1z M321.8,41c0-1.1,0.9-1.9,2-1.9
	s2,0.9,2,1.9l0.2,47.6c0,1.1-0.9,1.9-2,1.9s-2-0.8-2-1.9L321.8,41z M338.6,51.9c0-1.1,0.9-1.9,2-1.9s2,0.9,2,1.9l0.1,23.5
	c0,1.1-0.9,1.9-2,1.9s-2-0.9-2-1.9L338.6,51.9z"/>
<path class="st6" d="M486.4,86.6l0.1,15.2l-61.6-51.3c-1.8-3.2-4.6-5.5-7.8-6.5l-8.2-6.8L380,61.5l-4.7-3.9l37.8-31.9L486.4,86.6
	L486.4,86.6z M458.4,108.7l-37.4,0.1l0.2,50.2l37.4-0.1L458.4,108.7z M388.4,169.8l-0.3-69.5c-11.2-8.8-23.8-9.5-38.3,0.1l0.1,27.1
	c4.9-1.9,9.6-2.5,14.1-1.9l0.1,33.5h5.3l-0.1-32.3c3.3,1.1,6.5,3,9.6,5.4l0.2,37.5L388.4,169.8L388.4,169.8z M391,169.8l0.1,28.9
	h-11.2L391,169.8z M448.6,184.1l-17.3,0.1v7.3l17.3-0.1V184.1z M239.3,116.9h-12.6v-9.3l88.1-0.3l5.8-15.1l5.1,7.4L340.4,87l28.5-24
	l28.6,24l16,13.3l4.7-7L397.8,148l-0.2-45.7l-33.1-27.6l-24,20.3l0.3,75h-2.6l0.1,28.9l-23.7,0.1l-0.2-50.1h-7.6l-5.1-7.4l5.8-15.2
	l-68.2,0.2L239.3,116.9L239.3,116.9z M410.8,51.4c6.9,0,12.5,6.2,12.6,13.9c0,7.7-5.5,13.9-12.4,14c-6.9,0-12.5-6.2-12.6-13.9
	C398.3,57.6,403.9,51.4,410.8,51.4L410.8,51.4z"/>
<path class="st3" d="M452.2,178.9l-18.6,0.1v10.8l18.6-0.1V178.9z M455.7,177l0.1,14.6c0,1.1-0.8,1.9-1.7,1.9l-22.1,0.1
	c-0.9,0-1.7-0.9-1.7-1.9l-0.1-14.6c0-1.1,0.8-1.9,1.7-1.9l22.1-0.1C454.9,175.1,455.7,175.9,455.7,177z M389.9,175.3v-3.4l-40,0.1
	v3.4L389.9,175.3z M389.9,179.2l-40,0.1v3.4l40-0.1V179.2z M389.9,186.4l-40,0.1v3.6l40-0.1V186.4z M462,103.3h-6.6l0.2,53.8h6.6
	L462,103.3z M429.9,103.5h-6.6l0.2,53.8h6.6L429.9,103.5z M451.9,103.4l-18.6,0.1l0.2,53.8l18.6-0.1L451.9,103.4z M463.7,99.5
	c1,0,1.7,0.9,1.7,1.9l0.2,57.6c0,1.1-0.8,1.9-1.7,1.9l-42.2,0.2c-0.9,0-1.7-0.9-1.7-1.9l-0.2-57.6c0-1.1,0.8-1.9,1.7-1.9L463.7,99.5
	L463.7,99.5z M406.3,50.2c-1.9,2.2-3.1,5.2-3.1,8.5c0,1.6,0.3,3.1,0.8,4.6c0.5,1.5,1.4,2.8,2.4,3.9c2,2.2,4.7,3.5,7.6,3.5
	c1.4,0,2.8-0.3,4.1-0.9c1.3-0.6,2.5-1.5,3.5-2.6c1.9-2.2,3.1-5.2,3.1-8.5c0-1.6-0.3-3.1-0.8-4.6s-1.4-2.8-2.4-3.9
	c-2-2.2-4.7-3.5-7.6-3.5c-1.4,0-2.8,0.3-4.1,0.9C408.5,48.2,407.3,49.1,406.3,50.2L406.3,50.2z M413.9,42.8c1.9,0,3.7,0.4,5.4,1.2
	c1.7,0.8,3.3,2,4.6,3.4c1.3,1.5,2.4,3.2,3.1,5.1c0.7,1.9,1.1,4,1.1,6.1s-0.3,4.1-1.1,6.1c-0.7,1.9-1.7,3.7-3.1,5.2
	c-1.3,1.5-2.9,2.7-4.6,3.5s-3.6,1.2-5.4,1.2c-1.9,0-3.7-0.4-5.5-1.2c-1.7-0.8-3.3-2-4.6-3.4c-1.3-1.5-2.4-3.2-3.1-5.1
	s-1.1-4-1.1-6.1s0.3-4.1,1.1-6.1c0.7-1.9,1.7-3.7,3.1-5.2C406.4,44.6,409.9,42.8,413.9,42.8L413.9,42.8z M399.8,90.8l0.3,77.2
	l85.5-0.3l-0.3-80.1L413.7,28l-34.5,29.3L419,90.4c0.3,0.3,0.6,0.6,0.8,1c0.2,0.4,0.3,0.8,0.4,1.3s0,0.9-0.1,1.4
	c-0.1,0.4-0.3,0.9-0.5,1.2l-3.3,5c-0.2,0.4-0.5,0.7-0.9,0.9c-0.4,0.2-0.7,0.4-1.2,0.5c-0.4,0.1-0.8,0-1.2-0.1
	c-0.4-0.1-0.8-0.3-1.1-0.6L399.8,90.8C399.8,90.9,399.8,90.8,399.8,90.8z M340.4,85.3l28-23.7c0.3-0.3,0.7-0.4,1.1-0.4
	s0.7,0.1,1.1,0.4L399,85.4l0.1,0.1l14.5,12.1l2.9-4.4l-41.3-34.4l0,0l-5.9-4.9l-46.9,39.8l3,4.4l14.1-12
	C339.8,85.7,340,85.4,340.4,85.3L340.4,85.3z M349.4,100.3c2.7-2.7,5.9-4.9,9.3-6.4s7.1-2.3,10.8-2.3c3.7,0,7.4,0.7,10.9,2.2
	s6.6,3.6,9.4,6.3c0.4,0.4,0.6,0.9,0.6,1.5l0.3,66.4h6l-0.3-80l-26.9-22.5l-26.7,22.7l0.3,80.1h6l-0.3-66.4
	C348.7,101.2,349,100.7,349.4,100.3L349.4,100.3z M379.8,109.1l-20.3,0.1l0.2,59l20.3-0.1L379.8,109.1z M383.5,168.1L383.5,168.1
	h3.8l-0.3-65.5c-2.3-2.2-4.9-3.9-7.8-5.1c-3.1-1.3-6.3-2-9.6-2c-3.3,0-6.6,0.7-9.6,2c-2.8,1.2-5.5,3-7.7,5.2l0.3,65.5h3.8l-0.3-60.9
	c0-1.1,0.8-1.9,1.7-1.9l23.8-0.1c1,0,1.7,0.9,1.7,1.9L383.5,168.1L383.5,168.1z M363.1,159.4l-0.2-42.8c0-1.1,0.8-1.9,1.7-1.9h10.1
	c1,0,1.7,0.9,1.7,1.9l0.2,42.8c0,0.5-0.2,1-0.5,1.4s-0.8,0.6-1.2,0.6h-10.1C363.8,161.3,363.1,160.5,363.1,159.4z M373,118.5h-6.6
	l0.2,39h6.6L373,118.5z M323.5,133.6l-65.9,0.2l0.1,18.7l65.9-0.2L323.5,133.6z M257.8,175L257.8,175l65.9-0.2l-0.1-18.7l-65.9,0.2
	L257.8,175L257.8,175z M229.1,115.1l110.3-0.4v-5.5l-110.3,0.4L229.1,115.1z M241.7,118.9L241.7,118.9l0.2,49.7h12.4l-0.2-36.7
	c0-1.1,0.8-1.9,1.7-1.9l69.3-0.3c0.9,0,1.7,0.9,1.7,1.9l0.2,36.7h12.4l-0.2-49.7L241.7,118.9L241.7,118.9z M355.4,9.5l-15.2,0.1v3.3
	l15.2-0.1V9.5z M353.1,5.7V2.4h-10.8v3.3H353.1L353.1,5.7z M340.3,50.3l15.2-0.1l-0.1-15.9l-15.2,0.1L340.3,50.3z M353.2,16.7h-10.8
	l0.1,13.8h10.8L353.2,16.7z M372.2,51.4l4.1,3.4L412.7,24c0.3-0.3,0.7-0.4,1.1-0.4s0.7,0.1,1,0.4L488,85l0.1,0.1l14.5,12.1l2.9-4.4
	l-91.9-76.6l-31.3,26.5l-0.1,0.1C382.3,42.9,372.2,51.4,372.2,51.4z M376.2,43.2L376.2,43.2L359,43.3v8.8c0,0.5-0.2,1-0.5,1.4
	s-0.8,0.6-1.2,0.6l-18.6,0.1c-0.9,0-1.7-0.9-1.7-1.9v-8.8l-108.1,0.4l0.3,62l110.3-0.4l-0.1-14.3l-12,10.2c-0.3,0.3-0.7,0.5-1.1,0.6
	s-0.8,0.1-1.2,0.1c-0.4-0.1-0.8-0.2-1.2-0.4c-0.4-0.2-0.7-0.5-0.9-0.9l-3.4-5l0,0l0,0c-0.5-0.8-0.7-1.7-0.6-2.6
	c0-0.5,0.2-0.9,0.4-1.3c0.2-0.4,0.5-0.7,0.8-1l48.2-40.8l0,0l0,0L376.2,43.2L376.2,43.2z M488.3,198.6l-0.1-27l-85.5,0.3l0.1,27
	c0,1.1-0.8,1.9-1.7,1.9c-1,0-1.7-0.9-1.7-1.9l-0.1-27h-6l0.1,27c0,0.5-0.2,1-0.5,1.4s-0.8,0.6-1.2,0.6c-1,0-1.7-0.9-1.7-1.9v-5.1
	l-40,0.1v5.1c0,0.5-0.2,1-0.5,1.4s-0.8,0.6-1.2,0.6c-0.9,0-1.7-0.9-1.7-1.9l-0.1-27h-6l0.1,27c0,1.1-0.8,1.9-1.7,1.9
	c-0.9,0-1.7-0.9-1.7-1.9l-0.1-27h-9.9l0.1,27c0,0.5-0.2,1-0.5,1.4s-0.8,0.6-1.2,0.6c-1,0-1.7-0.9-1.7-1.9l-0.1-20.6l-65.9,0.2
	l0.1,20.6c0,1.1-0.8,1.9-1.7,1.9c-0.9,0-1.7-0.9-1.7-1.9l-0.1-27l-15,0.1l0.1,27c0,0.5-0.2,1-0.5,1.4s-0.8,0.6-1.2,0.6
	c-1,0-1.7-0.9-1.7-1.9l-0.1-28.9c0-1.1,0.8-1.9,1.7-1.9h0.9l-0.2-49.7h-10.9c-1,0-1.7-0.9-1.7-1.9l-0.3-75.2c0-1.1,0.8-1.9,1.7-1.9
	l109.8-0.4v-7.1c0-1.1,0.8-1.9,1.7-1.9h0.5L339,16.7h-0.5c-0.9,0-1.7-0.9-1.7-1.9V7.6c0-1.1,0.8-1.9,1.7-1.9h0.5V0.5
	c0-1.1,0.8-1.9,1.7-1.9l14.2-0.1c0.9,0,1.7,0.9,1.7,1.9v5.2h0.5c1,0,1.7,0.9,1.7,1.9v7.2c0,0.3,0,0.5-0.1,0.7s-0.2,0.4-0.4,0.6
	c-0.2,0.2-0.4,0.3-0.6,0.4s-0.4,0.1-0.7,0.2h-0.5l0.1,13.8h0.5c1,0,1.7,0.9,1.7,1.9v7.1l21.8-0.1l31.9-27c0.3-0.3,0.7-0.4,1.1-0.4
	s0.7,0.1,1.1,0.4L507.9,90c0.3,0.3,0.6,0.6,0.8,1c0.2,0.4,0.3,0.8,0.4,1.3s0,0.9-0.1,1.4c-0.1,0.4-0.3,0.9-0.5,1.2l-3.3,5
	c-0.2,0.4-0.6,0.7-0.9,0.9c-0.4,0.2-0.7,0.4-1.1,0.5s-0.8,0-1.2-0.1c-0.4-0.1-0.8-0.3-1.1-0.6l-12.1-10.1l0.3,77.2h0.9
	c1,0,1.7,0.9,1.7,1.9l0.1,28.9c0,0.5-0.2,1-0.5,1.4s-0.8,0.6-1.2,0.6C489.1,200.5,488.3,199.6,488.3,198.6L488.3,198.6z M368,50.2
	c0.1-0.1,0.2-0.3,0.3-0.4L368,50.2z M412.6,12.4l-0.3,0.4C412.4,12.6,412.5,12.5,412.6,12.4L412.6,12.4z"/>
<path class="st7" d="M481,206.9c-14.7,12.7-2,13,4.2,13.1c0,0-8.6,0,14.8,0.2c18.1,0.1,15.1-7.9,76.2-8.2h1.2l0,0h1.1h1.1l0,0
	c0.4,0,0.8,0,1.2,0c61.1-0.2,58.2,7.8,76.3,7.6c23.4-0.3,14.8-0.3,14.8-0.3c6.3-0.2,19-0.6,4.1-13.2l-1.4-1.1
	c-8.7-7.1-24.7-12.8-35.5-12.8l-121.4,0.4c-10.8,0-26.7,5.9-35.4,13L481,206.9"/>
<path class="st8" d="M679.9,190.8l1.6-21l-25.1-8.5L461,161.5l-6.6,30.8l19.7,5.1h5.3l36.2,4.4l125.3-0.2l34.8-10.2L679.9,190.8
	L679.9,190.8z"/>
<path class="st1" d="M680.6,191.7c1.6-0.1,3.6,0.2,5.1-0.2c1.2-0.3,0.8,0.2,1.1-1.3c1-4.1,1.2-8.6,1.8-12.8c0.3-2.4,0.6-4.2,0.4-6.6
	l-1.6-13.5c-0.3-2.2-1.2-3.2-3.3-3.5c-6.4-1.1-13.1-1.4-19.5-2.1c-8.2-0.9-16.5-1.8-24.7-2.6c-2.2-0.2-4.9-0.1-7-0.7
	c-1.4-0.4-1.9-1.6-3-2.8c-6.6-7.7-14.5-16.9-23.8-20.5c-7.6-3-16.5-3-24.4-3.5c-10.3-0.6-25.8-0.9-36.2-0.4c-6.3,0.3-12.2-0.4-13,9
	c-0.4,4.2,0.6,8.7,0.7,12.9c0,3.5,0,7,0.1,10.4c0.2,9.1,0.4,18.2,1.1,27.3c0.3,3.7,0.4,6.7,2.1,9.9c0.8,1.5,2.1,5.3,3.5,5.9
	c0.9,0.4,2.7,0,3.8,0c2.5,0,5.1,0,7.6-0.1l22.6-0.2l49.4-0.3l7.9-0.1c1,0,3.3,0.5,4.2,0c1.2-0.6,1-4.6,1.2-6.2
	c0.6-4.6,0.9-9.3,3.3-13.3c6.5-10.6,21.4-11.3,31.1-6.1C678.2,174.3,680.4,183.6,680.6,191.7"/>
<path class="st9" d="M631.2,194.7c0.3,0,0.8,0,1.3,0.1c0.6,0.1,1.9,0.2,2.4,0.1c0.3-0.6,0.4-2.6,0.5-3.5c0-0.6,0.1-1.2,0.1-1.6
	c0.1-0.5,0.1-1,0.2-1.5c0.5-4.2,1-8.6,3.3-12.3c3.2-5.2,8.6-8.6,15.2-9.5c5.9-0.9,12.3,0.2,17.4,3c8,4.3,9.8,14.5,10.1,21.1h0.5
	c1.1,0,2.2,0.1,3.1-0.2c0.1,0,0.1,0,0.2,0c0-0.1,0-0.2,0.1-0.3c0.6-2.6,0.9-5.5,1.3-8.4c0.2-1.4,0.3-2.9,0.5-4.3l0.1-0.5
	c0.3-2,0.5-3.7,0.3-5.6l-1.6-13.5c-0.2-1.6-0.7-2.1-2.2-2.3c-4.3-0.7-8.8-1.1-13.1-1.5c-2.1-0.2-4.2-0.4-6.3-0.6
	c-8.2-0.9-16.5-1.8-24.7-2.6c-0.7-0.1-1.4-0.1-2.2-0.1c-1.7-0.1-3.4-0.2-5-0.6c-1.4-0.4-2.2-1.4-2.9-2.4c-0.2-0.2-0.4-0.5-0.6-0.8
	l-0.1-0.1c-6.4-7.4-14.3-16.6-23.2-20.1c-6.3-2.5-13.6-2.9-20.6-3.3c-1.1-0.1-2.3-0.1-3.4-0.2c-10.6-0.7-26.1-0.8-36-0.4
	c-0.5,0-1,0-1.5,0.1c-5.8,0.2-9.6,0.3-10.3,7.7c-0.2,2.3,0,4.7,0.3,7.2c0.2,1.8,0.4,3.7,0.4,5.6c0,1,0,2,0,3c0,2.4,0,4.9,0.1,7.4
	c0.2,10.9,0.5,19.3,1.1,27.2l0.1,0.8c0.2,3.3,0.4,5.9,1.8,8.5c0.2,0.5,0.5,1,0.8,1.7c0.5,1,1.5,3.4,2.1,3.7c0.4,0.2,1.4,0,2.1,0
	c0.4,0,0.9-0.1,1.2-0.1L631.2,194.7L631.2,194.7L631.2,194.7z M541.2,198.2c-0.6,0-1.1-0.1-1.6-0.3c-1.5-0.6-2.5-3-3.4-5
	c-0.3-0.6-0.5-1.1-0.7-1.5c-1.7-3.2-2-6.4-2.2-9.7l-0.1-0.8c-0.6-8-0.9-16.4-1.1-27.4c0-2.5,0-5-0.1-7.4c0-1,0-2,0-3
	c0-1.7-0.2-3.4-0.4-5.3c-0.3-2.6-0.5-5.2-0.3-7.8c0.9-9.9,7.1-10.1,12.6-10.2c0.5,0,1,0,1.5-0.1c10-0.4,25.6-0.3,36.3,0.4
	c1.1,0.1,2.2,0.1,3.4,0.2c7.2,0.4,14.7,0.8,21.4,3.4c9.5,3.7,17.6,13.2,24.2,20.8l0.1,0.1c0.3,0.3,0.5,0.6,0.7,0.9
	c0.7,0.9,1.1,1.3,1.7,1.5c1.3,0.4,2.9,0.5,4.4,0.5c0.8,0,1.6,0.1,2.3,0.2c8.2,0.9,16.5,1.8,24.7,2.6c2.1,0.2,4.2,0.4,6.3,0.6
	c4.4,0.4,8.9,0.8,13.3,1.5c2.7,0.5,4,1.9,4.3,4.7l1.6,13.5c0.3,2.4,0,4.2-0.3,6.4l-0.1,0.5c-0.2,1.4-0.3,2.8-0.5,4.2
	c-0.3,2.9-0.6,5.9-1.3,8.7c-0.1,0.2-0.1,0.4-0.1,0.6c-0.1,0.9-0.6,1.4-1.4,1.5c-0.1,0-0.3,0-0.5,0.1c-1.2,0.3-2.5,0.3-3.8,0.2
	c-0.6,0-1.1,0-1.6,0h-1.3v-1.4c-0.1-5.8-1.4-16-8.8-20c-9.5-5.1-23.6-4.1-29.5,5.6c-2,3.2-2.4,7.1-2.9,11.1c-0.1,0.5-0.1,1-0.2,1.5
	c0,0.3-0.1,0.8-0.1,1.4c-0.1,2.3-0.2,5-1.8,5.8c-0.9,0.5-2.2,0.4-3.7,0.3c-0.4,0-0.8-0.1-1-0.1l0,0l-87.5,0.6c-0.3,0-0.6,0-1,0.1
	C542.2,198.2,541.7,198.2,541.2,198.2"/>
<path class="st6" d="M547.9,161.5c0,2-0.8,3.6-1.8,3.6h-4.3c-1,0-1.8-1.6-1.9-3.6"/>
<path class="st6" d="M545.6,162.3c-1,0-1.8-0.9-1.8-2s0.8-2,1.8-2h1.2c1,0,1.8,0.9,1.8,2c0,0.5-0.2,1-0.5,1.4s-0.8,0.6-1.2,0.6
	H545.6L545.6,162.3z"/>
<path class="st9" d="M542.6,159.7c-0.1,0-0.3,0.1-0.4,0.2s-0.2,0.3-0.2,0.4c0,0.3,0.2,0.6,0.5,0.6h4.1c0.3,0,0.5-0.3,0.5-0.6
	c0-0.2-0.1-0.3-0.2-0.4c-0.1-0.1-0.2-0.2-0.4-0.2H542.6z M542.6,163.7c-0.8,0-1.6-0.3-2.1-1s-0.9-1.5-0.9-2.4s0.3-1.7,0.9-2.4
	c0.6-0.6,1.3-1,2.1-1h4.1c0.8,0,1.5,0.4,2.1,1s0.9,1.5,0.9,2.3c0,0.9-0.3,1.7-0.9,2.3c-0.5,0.6-1.3,1-2.1,1L542.6,163.7L542.6,163.7
	z"/>
<path class="st6" d="M592.6,161.4c0,2-0.8,3.6-1.8,3.6h-4.3c-1,0-1.8-1.6-1.8-3.6"/>
<path class="st6" d="M590.3,162.1c-1,0-1.8-0.9-1.8-2s0.8-2,1.8-2h1.2c1,0,1.8,0.9,1.8,2c0,0.5-0.2,1-0.5,1.4s-0.8,0.6-1.2,0.6
	H590.3L590.3,162.1z"/>
<path class="st9" d="M587.3,159.6c-0.1,0-0.3,0.1-0.4,0.2c-0.1,0.1-0.2,0.3-0.2,0.4c0,0.3,0.2,0.6,0.5,0.6h4.1
	c0.3,0,0.5-0.3,0.5-0.6c0-0.2-0.1-0.3-0.2-0.4c-0.1-0.1-0.2-0.2-0.4-0.2H587.3z M587.3,163.5c-0.8,0-1.6-0.3-2.1-1
	c-0.6-0.6-0.9-1.5-0.9-2.4s0.3-1.7,0.9-2.4c0.6-0.6,1.3-1,2.1-1h4.1c0.8,0,1.5,0.4,2.1,1s0.9,1.5,0.9,2.3c0,0.9-0.3,1.7-0.9,2.3
	c-0.5,0.6-1.3,1-2.1,1L587.3,163.5L587.3,163.5z"/>
<path class="st1" d="M518.3,201.3l20.4,0.1c-2.4-2.9-3-7.9-3.5-11.6c-0.8-5.6-1.2-11.2-1.4-16.9c-0.2-4.3-0.3-8.7-0.3-13
	c0-2.4,0.1-4.6-2.7-5.1c-3.5-0.6-7.5,0-11,0l-66.1,0.2c-1,0-3.4-0.5-4.3,0c-0.8,0.5-0.5,1.7-0.6,2.9l-1.5,23.8
	c-0.1,2.4,1.1,3.1,1.6,5.3c0.4,1.8,0.2,4.1,0.2,6c0,0.5-0.1,2.4,0.2,2.7c0.8,0.9,5.3,0.7,6.4,0.8c6.1,0.7,12.2,1.3,18.3,1.9
	c-0.1-10.9,5.2-21.7,14.7-25.3c7.6-2.8,16.8-2.1,23.1,4C517.6,182.9,518.2,193.3,518.3,201.3"/>
<path class="st9" d="M527.1,156c-1.2,0-2.5,0.1-3.7,0.2c-1.2,0.1-2.5,0.1-3.6,0.1l-66.1,0.2c-0.3,0-0.8,0-1.3-0.1
	c-0.6-0.1-1.9-0.2-2.4-0.1c0,0.2,0,0.6,0,0.8c0,0.3,0,0.7,0,1l-1.5,23.8c-0.1,1,0.2,1.5,0.6,2.4c0.3,0.6,0.7,1.4,1,2.5
	c0.3,1.4,0.3,2.9,0.3,4.4c0,0.7,0,1.3,0,1.8c0,0.2,0,0.4,0,0.7s0,0.8,0,1.2c0.9,0.3,3.1,0.3,4,0.3c0.7,0,1.1,0,1.4,0.1
	c5,0.6,10.2,1.1,16.9,1.7c0.4-11.7,6.5-21.7,15.5-25.1c8.9-3.3,18.2-1.7,24.3,4.3c5.8,5.6,6.8,15.4,7,23.7l16.8,0.1
	c-1.3-2.8-1.8-6.3-2.3-9.2l-0.1-0.8c-0.9-6-1.2-12-1.4-17c-0.2-4.3-0.3-8.7-0.3-13.1v-0.3c0-2.4-0.1-3.1-1.7-3.4
	C529.5,156,528.3,156,527.1,156L527.1,156z M541.5,202.8l-24.4-0.1v-1.4c0-8-0.8-17.8-6.1-23c-5.5-5.3-13.8-6.7-21.9-3.7
	c-7,2.6-14,11-13.9,23.9v1.5l-1.4-0.1c-7.4-0.7-13-1.3-18.3-1.9c-0.2,0-0.7,0-1.2,0c-3.3-0.1-5.1-0.2-5.9-1.1
	c-0.6-0.6-0.6-1.7-0.6-3.2c0-0.2,0-0.4,0-0.5c0-0.6,0-1.3,0-2c0-1.3,0-2.6-0.2-3.7c-0.2-0.7-0.4-1.2-0.7-1.8c-0.5-1-1.1-2.1-0.9-3.9
	l1.5-23.8c0-0.3,0-0.6,0-0.8c0-1,0-2.5,1.3-3.2c0.9-0.5,2.1-0.4,3.8-0.3c0.4,0,0.8,0.1,1,0.1l66.1-0.2c1.1,0,2.3-0.1,3.5-0.1
	c2.6-0.1,5.2-0.3,7.7,0.1c3.8,0.7,3.8,3.8,3.8,6.1v0.3c0,4.4,0.1,8.7,0.3,13c0.2,4.9,0.5,10.8,1.4,16.7l0.1,0.8
	c0.5,3.4,1.1,7.7,3.1,10.1L541.5,202.8L541.5,202.8z"/>
<path class="st6" d="M612.7,134.6c-8.6-5.1-12.8-6.2-15.2-6.7s-11.5-0.9-15.6-1.1c-4-0.1-1.9,4.4-0.8,9.8c1.1,5.4,3.4,6.4,3.4,6.4
	l29.4-0.1c1.2,0,1.9,0,2.5-2.8C616.9,137.2,612.7,134.6,612.7,134.6L612.7,134.6z M568.2,126.9c0,0-25.3-0.1-28.1-0.1
	s-2.6,1.8-2.6,1.8s1.1,10.9,1.3,12.7c0.2,1.9,2.7,1.9,2.7,1.9l29-0.1c4.2,0,3.9-1.6,3.9-1.6s-1.2-10.9-1.5-12.8
	C572.7,127,568.2,126.9,568.2,126.9"/>
<path class="st10" d="M601.1,129.9c-2.8-0.7-13.8-1.5-18.7-1.7c-0.6,0-1,0.1-1.2,0.4c-0.8,1.1-0.1,4.9,0.6,8.7
	c0.3,1.6,0.6,3.3,0.9,5.1c1,6.4,2.8,8.6,3.3,9.1l35.4-0.1c1,0,1.3,0,1.8-3.4c0.5-3-2.7-6.4-4-7.5
	C609.4,132.8,604.4,130.8,601.1,129.9z M585.3,154.3l-0.3-0.1c-0.3-0.2-3.4-2.1-4.8-11.3c-0.3-1.7-0.6-3.4-0.9-5
	c-1-5.2-1.7-8.9-0.1-11c0.7-0.9,1.8-1.4,3.2-1.3c4,0.2,16,0.9,19.2,1.8c3.5,0.9,8.8,3,19,11l0,0c0.2,0.2,5.8,4.8,5,10.2
	c-0.7,4.9-1.9,5.7-4.2,5.7L585.3,154.3L585.3,154.3z M573.2,150.9L573.2,150.9c0-0.2-1.2-17.7-1.5-20.6c-0.1-1.5-2.9-1.8-3.6-1.9
	c-0.7,0-25.3-0.2-28.1-0.2c-0.5,0-0.9,0.1-1.1,0.4c-0.3,0.4-0.3,1-0.3,1c0,0.2,1.1,17.5,1.4,20.4c0.1,1.6,1.2,1.8,1.5,1.9l29-0.1
	c1.7,0,2.3-0.5,2.5-0.7C573.2,151,573.2,150.9,573.2,150.9L573.2,150.9z M541.5,154.7c-1.2-0.1-3.6-1.1-3.9-4.4
	c-0.2-3-1.3-19.8-1.4-20.4c0-0.2-0.1-1.8,0.9-3.1c0.5-0.6,1.4-1.3,2.9-1.3c2.8,0,27.8,0.2,28.1,0.2l0,0c2.1,0.1,5.7,1,6,4.4
	c0.2,2.9,1.4,19.7,1.5,20.6c0,0.3,0.1,1.4-0.7,2.3c-0.8,1.1-2.3,1.7-4.4,1.7L541.5,154.7z"/>
<path class="st1" d="M496.3,176.4c10.8,0,19.6,9.7,19.6,21.7s-8.7,21.8-19.5,21.8s-19.6-9.7-19.6-21.7
	C476.8,186.2,485.5,176.4,496.3,176.4z"/>
<path class="st9" d="M496.3,177.8c-10.1,0-18.3,9.2-18.2,20.5c0,11.2,8.3,20.4,18.4,20.3c10.1,0,18.3-9.2,18.2-20.5
	S506.4,177.7,496.3,177.8L496.3,177.8z M475.6,198.2c-0.1-12.8,9.2-23.2,20.7-23.2s20.8,10.3,20.9,23.1s-9.2,23.2-20.7,23.2
	S475.7,211,475.6,198.2z"/>
<path class="st1" d="M496.4,185.5c6.3,0,11.4,5.6,11.4,12.6s-5,12.7-11.3,12.7s-11.4-5.6-11.4-12.6
	C485,191.2,490.1,185.5,496.4,185.5z"/>
<path class="st9" d="M496.4,186.9L496.4,186.9c-5.6,0-10.1,5.1-10.1,11.3s4.6,11.2,10.2,11.2s10.1-5.1,10.1-11.3
	C506.5,191.9,501.9,186.9,496.4,186.9L496.4,186.9z M483.8,198.2c0-7.7,5.6-14,12.5-14.1c6.9,0,12.6,6.2,12.6,14
	c0,7.7-5.6,14-12.5,14.1C489.5,212.2,483.8,205.9,483.8,198.2z"/>
<path class="st6" d="M494,192.2c3.9,0,7,3.5,7.1,7.8c0,4.3-3.1,7.8-7,7.8s-7-3.5-7.1-7.8C487,195.7,490.2,192.2,494,192.2z"/>
<path class="st11" d="M495.1,189L495.1,189c0-0.2,0-0.4,0.1-0.6c0.1-0.2,0.2-0.3,0.3-0.5c0.1-0.1,0.3-0.2,0.4-0.3
	c0.2-0.1,0.3-0.1,0.5-0.1s0.3,0,0.5,0.1s0.3,0.2,0.4,0.3s0.2,0.3,0.3,0.5c0.1,0.2,0.1,0.4,0.1,0.6c0,0.4-0.1,0.7-0.4,1
	c-0.2,0.3-0.6,0.4-0.9,0.4c-0.2,0-0.3,0-0.5-0.1s-0.3-0.2-0.4-0.3s-0.2-0.3-0.3-0.5C495.1,189.4,495.1,189.2,495.1,189L495.1,189z
	 M495.2,207.2c0-0.4,0.1-0.7,0.4-1c0.2-0.3,0.6-0.4,0.9-0.4s0.7,0.1,0.9,0.4c0.2,0.3,0.4,0.6,0.4,1s-0.1,0.7-0.4,1
	c-0.2,0.3-0.6,0.4-0.9,0.4c-0.2,0-0.3,0-0.5-0.1s-0.3-0.2-0.4-0.3s-0.2-0.3-0.3-0.5C495.2,207.6,495.2,207.4,495.2,207.2
	L495.2,207.2z M487.3,199.2c-0.2-0.3-0.4-0.6-0.4-1s0.1-0.7,0.4-1c0.2-0.3,0.6-0.4,0.9-0.4s0.7,0.1,0.9,0.4c0.2,0.3,0.4,0.6,0.4,1
	s-0.1,0.7-0.4,1c-0.2,0.3-0.6,0.4-0.9,0.4C487.9,199.6,487.6,199.4,487.3,199.2z M503.7,199.1c-0.2-0.3-0.4-0.6-0.4-1s0.1-0.7,0.4-1
	c0.2-0.3,0.6-0.4,0.9-0.4s0.7,0.1,0.9,0.4c0.2,0.3,0.4,0.6,0.4,1s-0.1,0.7-0.4,1c-0.2,0.3-0.6,0.4-0.9,0.4
	C504.2,199.5,503.9,199.4,503.7,199.1z M489.7,190.7c0.1-0.1,0.3-0.2,0.4-0.3c0.2-0.1,0.3-0.1,0.5-0.1s0.3,0,0.5,0.1
	s0.3,0.2,0.4,0.3c0.2,0.3,0.4,0.6,0.4,1s-0.1,0.7-0.4,1c-0.1,0.1-0.3,0.2-0.4,0.3c-0.2,0.1-0.3,0.1-0.5,0.1s-0.3,0-0.5-0.1
	s-0.3-0.2-0.4-0.3C489.2,192.2,489.2,191.3,489.7,190.7z M501.3,205.6c-0.2-0.3-0.4-0.6-0.4-1s0.1-0.7,0.4-1
	c0.1-0.1,0.3-0.2,0.4-0.3c0.2-0.1,0.3-0.1,0.5-0.1s0.3,0,0.5,0.1s0.3,0.2,0.4,0.3s0.2,0.3,0.3,0.5c0.1,0.2,0.1,0.4,0.1,0.5
	s0,0.4-0.1,0.5c-0.1,0.2-0.2,0.3-0.3,0.5c-0.1,0.1-0.3,0.2-0.4,0.3c-0.2,0.1-0.3,0.1-0.5,0.1s-0.3,0-0.5-0.1
	C501.6,205.8,501.4,205.7,501.3,205.6L501.3,205.6z M491.5,205.6c-0.1,0.1-0.3,0.2-0.4,0.3c-0.2,0.1-0.3,0.1-0.5,0.1s-0.3,0-0.5-0.1
	s-0.3-0.2-0.4-0.3s-0.2-0.3-0.3-0.5c-0.1-0.2-0.1-0.4-0.1-0.5c0-0.2,0-0.4,0.1-0.5c0.1-0.2,0.2-0.3,0.3-0.5c0.1-0.1,0.3-0.2,0.4-0.3
	c0.2-0.1,0.3-0.1,0.5-0.1s0.3,0,0.5,0.1s0.3,0.2,0.4,0.3c0.2,0.3,0.4,0.6,0.4,1S491.8,205.3,491.5,205.6L491.5,205.6z M502.6,193
	c-0.2,0.1-0.3,0.1-0.5,0.1s-0.3,0-0.5-0.1s-0.3-0.2-0.4-0.3c-0.5-0.6-0.5-1.4,0-2c0.1-0.1,0.3-0.2,0.4-0.3c0.2-0.1,0.3-0.1,0.5-0.1
	s0.3,0,0.5,0.1s0.3,0.2,0.4,0.3c0.2,0.3,0.4,0.6,0.4,1s-0.1,0.7-0.4,1C502.9,192.8,502.8,192.9,502.6,193z M499.6,199.5
	c0.1,0.1,0.2,0.2,0.2,0.4c0,0.1,0,0.3-0.1,0.4c-0.1,0.1-0.2,0.2-0.3,0.3c-0.1,0-0.3,0-0.4,0s-0.1-0.1-0.2-0.2c0-0.1-0.1-0.1-0.1-0.2
	c0-0.1,0-0.2,0-0.2s0-0.2,0.1-0.2s0.1-0.1,0.1-0.2c0.1,0,0.1-0.1,0.2-0.1s0.1,0,0.2,0C499.5,199.4,499.6,199.5,499.6,199.5
	L499.6,199.5z M493.7,195.7c0.1,0.1,0.2,0.2,0.2,0.4c0,0.1,0,0.3-0.1,0.4c-0.1,0.1-0.2,0.2-0.3,0.3c-0.1,0-0.3,0-0.4,0
	s-0.1-0.1-0.2-0.2c0-0.1-0.1-0.1-0.1-0.2c0-0.1,0-0.2,0-0.2s0-0.2,0.1-0.2c0-0.1,0.1-0.1,0.1-0.2c0.1,0,0.1-0.1,0.2-0.1s0.1,0,0.2,0
	C493.6,195.7,493.6,195.7,493.7,195.7L493.7,195.7z M497.6,194.6c0.1-0.1,0.2-0.2,0.3-0.3s0.3,0,0.4,0.1s0.2,0.2,0.2,0.4
	c0,0.1,0,0.3,0,0.4c0,0.1-0.1,0.1-0.1,0.2c-0.1,0-0.1,0.1-0.2,0.1s-0.1,0-0.2,0s-0.1,0-0.2-0.1c-0.1,0-0.1-0.1-0.2-0.2
	c0-0.1-0.1-0.1-0.1-0.2s0-0.2,0-0.2C497.6,194.7,497.6,194.6,497.6,194.6L497.6,194.6z M494.6,200.9c0.1,0,0.3,0,0.4,0.1
	s0.2,0.2,0.2,0.4c0,0.1,0,0.3,0,0.4c0,0.1-0.1,0.1-0.1,0.2c-0.1,0-0.1,0.1-0.2,0.1s-0.1,0-0.2,0s-0.1,0-0.2-0.1
	c-0.1,0-0.1-0.1-0.2-0.2c0-0.1-0.1-0.1-0.1-0.2c0-0.1,0-0.2,0-0.2c0-0.1,0-0.2,0.1-0.2C494.3,201,494.4,200.9,494.6,200.9z
	 M499.5,196.6c0.1,0,0.3,0,0.4,0.1s0.2,0.2,0.2,0.3s0,0.3,0,0.4c-0.1,0.1-0.2,0.2-0.3,0.3c-0.1,0-0.1,0-0.2,0s-0.1,0-0.2-0.1
	c-0.1,0-0.1-0.1-0.2-0.2c0-0.1-0.1-0.1-0.1-0.2c0-0.1,0-0.2,0-0.2c0-0.1,0-0.2,0.1-0.2c0-0.1,0.1-0.1,0.1-0.2
	S499.5,196.6,499.5,196.6L499.5,196.6z M493,198.6L493,198.6c0.1,0,0.3,0,0.4,0.1s0.2,0.2,0.2,0.4c0,0.1,0,0.3,0,0.4
	s-0.2,0.2-0.3,0.3c-0.1,0-0.3,0-0.4-0.1s-0.2-0.2-0.2-0.4c0-0.1,0-0.3,0-0.4C492.7,198.7,492.8,198.6,493,198.6L493,198.6z
	 M495,194.6c0-0.1,0-0.2,0-0.2c0-0.1,0-0.2,0.1-0.2c0-0.1,0.1-0.1,0.1-0.2c0.1,0,0.1-0.1,0.2-0.1s0.1,0,0.2,0s0.1,0,0.2,0.1
	c0.1,0,0.1,0.1,0.2,0.2c0,0.1,0.1,0.1,0.1,0.2c0,0.1,0,0.2,0,0.2c0,0.1,0,0.2-0.1,0.2c0,0.1-0.1,0.1-0.1,0.2c-0.1,0-0.1,0.1-0.2,0.1
	s-0.1,0-0.2,0s-0.1,0-0.2-0.1c-0.1,0-0.1-0.1-0.2-0.2C495,194.8,495,194.7,495,194.6L495,194.6z M496.8,201.9c0-0.1,0-0.2,0-0.2
	c0-0.1,0-0.2,0.1-0.2c0-0.1,0.1-0.1,0.1-0.2s0.1-0.1,0.2-0.1s0.1,0,0.2,0s0.1,0,0.2,0.1c0.1,0,0.1,0.1,0.2,0.2
	c0,0.1,0.1,0.1,0.1,0.2c0,0.1,0,0.3-0.1,0.4s-0.2,0.2-0.3,0.3c-0.1,0-0.3,0-0.4-0.1C496.9,202.2,496.8,202.1,496.8,201.9
	L496.8,201.9z M494.1,197.1c0.1-0.3,0.3-0.6,0.5-0.9c0.2-0.3,0.5-0.5,0.8-0.6s0.6-0.2,1-0.2c1.4,0,2.5,1.2,2.5,2.8
	c0,0.4-0.1,0.7-0.2,1.1c-0.1,0.3-0.3,0.6-0.5,0.9s-0.5,0.5-0.8,0.6s-0.6,0.2-1,0.2c-1.4,0-2.5-1.2-2.5-2.8
	C493.9,197.8,494,197.4,494.1,197.1z"/>
<path class="st1" d="M658.7,175.8c10.8,0,19.6,9.7,19.6,21.7s-8.7,21.8-19.5,21.8s-19.6-9.7-19.6-21.7S647.9,175.8,658.7,175.8z"/>
<path class="st9" d="M658.7,177.2c-10.1,0-18.3,9.2-18.2,20.5c0,11.2,8.3,20.4,18.4,20.3c10.1,0,18.3-9.2,18.2-20.5
	S668.8,177.1,658.7,177.2L658.7,177.2z M638,197.6c-0.1-12.8,9.2-23.2,20.7-23.2s20.8,10.3,20.9,23.1c0.1,12.8-9.2,23.2-20.7,23.2
	C647.4,220.7,638.1,210.4,638,197.6z"/>
<path class="st1" d="M658.7,184.9c6.3,0,11.4,5.6,11.4,12.6s-5,12.7-11.3,12.7s-11.4-5.6-11.4-12.6
	C647.4,190.6,652.5,184.9,658.7,184.9z"/>
<path class="st9" d="M658.7,186.3L658.7,186.3c-5.6,0-10.1,5.1-10.1,11.3s4.6,11.2,10.2,11.2s10.1-5.1,10.1-11.3
	S664.3,186.3,658.7,186.3L658.7,186.3z M646.2,197.6c0-7.7,5.6-14,12.5-14.1c6.9,0,12.6,6.2,12.6,14c0,7.7-5.6,14-12.5,14.1
	C651.9,211.6,646.2,205.3,646.2,197.6z"/>
<path class="st6" d="M656.4,191.6c3.9,0,7,3.5,7.1,7.8c0,4.3-3.1,7.8-7,7.8s-7-3.5-7.1-7.8C649.4,195.1,652.5,191.6,656.4,191.6z"/>
<path class="st11" d="M657.5,188.4L657.5,188.4c0-0.2,0-0.4,0.1-0.6c0.1-0.2,0.2-0.3,0.3-0.5c0.1-0.1,0.3-0.2,0.4-0.3
	c0.2-0.1,0.3-0.1,0.5-0.1s0.3,0,0.5,0.1s0.3,0.2,0.4,0.3c0.1,0.1,0.2,0.3,0.3,0.5s0.1,0.4,0.1,0.6c0,0.4-0.1,0.7-0.4,1
	c-0.2,0.3-0.6,0.4-0.9,0.4c-0.2,0-0.3,0-0.5-0.1s-0.3-0.2-0.4-0.3c-0.1-0.1-0.2-0.3-0.3-0.5C657.5,188.8,657.5,188.6,657.5,188.4
	L657.5,188.4z M657.6,206.7c0-0.4,0.1-0.7,0.4-1c0.2-0.3,0.6-0.4,0.9-0.4c0.3,0,0.7,0.1,0.9,0.4c0.2,0.3,0.4,0.6,0.4,1
	s-0.1,0.7-0.4,1c-0.2,0.3-0.6,0.4-0.9,0.4c-0.2,0-0.3,0-0.5-0.1s-0.3-0.2-0.4-0.3c-0.1-0.1-0.2-0.3-0.3-0.5
	C657.6,207,657.6,206.8,657.6,206.7L657.6,206.7z M649.7,198.6c-0.2-0.3-0.4-0.6-0.4-1s0.1-0.7,0.4-1c0.2-0.3,0.6-0.4,0.9-0.4
	c0.3,0,0.7,0.1,0.9,0.4c0.2,0.3,0.4,0.6,0.4,1s-0.1,0.7-0.4,1s-0.6,0.4-0.9,0.4S650,198.8,649.7,198.6z M666.5,198.8
	c-0.2-0.1-0.3-0.2-0.4-0.3c-0.1-0.1-0.2-0.3-0.3-0.5s-0.1-0.4-0.1-0.5c0-0.2,0-0.4,0.1-0.6c0.1-0.2,0.2-0.3,0.3-0.5
	c0.1-0.1,0.3-0.2,0.4-0.3c0.2-0.1,0.3-0.1,0.5-0.1s0.3,0,0.5,0.1s0.3,0.2,0.4,0.3c0.1,0.1,0.2,0.3,0.3,0.5s0.1,0.4,0.1,0.6
	c0,0.4-0.1,0.7-0.4,1c-0.2,0.3-0.6,0.4-0.9,0.4C666.8,198.9,666.6,198.9,666.5,198.8z M652.1,190.1c0.1-0.1,0.3-0.2,0.4-0.3
	c0.2-0.1,0.3-0.1,0.5-0.1s0.3,0,0.5,0.1s0.3,0.2,0.4,0.3c0.2,0.3,0.4,0.6,0.4,1s-0.1,0.7-0.4,1c-0.1,0.1-0.3,0.2-0.4,0.3
	s-0.3,0.1-0.5,0.1s-0.3,0-0.5-0.1s-0.3-0.2-0.4-0.3C651.6,191.6,651.6,190.7,652.1,190.1z M663.7,205c-0.2-0.3-0.4-0.6-0.4-1
	s0.1-0.7,0.4-1c0.1-0.1,0.3-0.2,0.4-0.3c0.2-0.1,0.3-0.1,0.5-0.1s0.3,0,0.5,0.1s0.3,0.2,0.4,0.3c0.1,0.1,0.2,0.3,0.3,0.5
	s0.1,0.4,0.1,0.5c0,0.2,0,0.4-0.1,0.5c-0.1,0.2-0.2,0.3-0.3,0.5c-0.1,0.1-0.3,0.2-0.4,0.3c-0.2,0.1-0.3,0.1-0.5,0.1s-0.3,0-0.5-0.1
	C664,205.2,663.8,205.1,663.7,205L663.7,205z M653.5,205.3c-0.2,0.1-0.3,0.1-0.5,0.1s-0.3,0-0.5-0.1s-0.3-0.2-0.4-0.3
	c-0.2-0.3-0.4-0.6-0.4-1s0.1-0.7,0.4-1c0.1-0.1,0.3-0.2,0.4-0.3c0.2-0.1,0.3-0.1,0.5-0.1s0.3,0,0.5,0.1s0.3,0.2,0.4,0.3
	c0.2,0.3,0.4,0.6,0.4,1s-0.1,0.7-0.4,1C653.8,205.1,653.7,205.2,653.5,205.3z M665,192.4c-0.2,0.1-0.3,0.1-0.5,0.1s-0.3,0-0.5-0.1
	s-0.3-0.2-0.4-0.3c-0.5-0.6-0.5-1.4,0-2c0.1-0.1,0.3-0.2,0.4-0.3c0.2-0.1,0.3-0.1,0.5-0.1s0.3,0,0.5,0.1s0.3,0.2,0.4,0.3
	c0.2,0.3,0.4,0.6,0.4,1s-0.1,0.7-0.4,1C665.3,192.2,665.2,192.3,665,192.4z M662,198.9c0.1,0.1,0.2,0.2,0.2,0.4c0,0.1,0,0.3-0.1,0.4
	c-0.1,0.1-0.2,0.2-0.3,0.3c-0.1,0-0.3,0-0.4,0c-0.1,0-0.1-0.1-0.2-0.1c0-0.1-0.1-0.1-0.1-0.2c0-0.1,0-0.2,0-0.2c0-0.1,0-0.2,0.1-0.2
	c0-0.1,0.1-0.1,0.1-0.2c0.1,0,0.1-0.1,0.2-0.1c0.1,0,0.1,0,0.2,0C661.9,198.9,662,198.9,662,198.9L662,198.9z M656.1,195.2
	c0.1,0.1,0.2,0.2,0.2,0.4c0,0.1,0,0.3-0.1,0.4c-0.1,0.1-0.2,0.2-0.3,0.3c-0.1,0-0.3,0-0.4,0c-0.1,0-0.1-0.1-0.2-0.2
	c0-0.1-0.1-0.1-0.1-0.2c0-0.1,0-0.2,0-0.2c0-0.1,0-0.2,0.1-0.2s0.1-0.1,0.1-0.2c0.1,0,0.1-0.1,0.2-0.1c0.1,0,0.1,0,0.2,0
	C656,195.1,656,195.1,656.1,195.2L656.1,195.2z M660,194c0-0.1,0.1-0.1,0.1-0.2c0.1,0,0.1-0.1,0.2-0.1c0.1,0,0.1,0,0.2,0
	c0.1,0,0.1,0,0.2,0.1c0.1,0,0.1,0.1,0.2,0.2c0,0.1,0.1,0.1,0.1,0.2c0,0.1,0,0.2,0,0.2c0,0.1,0,0.2-0.1,0.2c-0.1,0.1-0.2,0.2-0.3,0.3
	c-0.1,0-0.3,0-0.4-0.1c-0.1-0.1-0.2-0.2-0.2-0.4C659.9,194.3,660,194.1,660,194L660,194z M656.7,200.5c0.1-0.1,0.2-0.2,0.3-0.3
	c0.1,0,0.3,0,0.4,0.1c0.1,0.1,0.2,0.2,0.2,0.4c0,0.1,0,0.3,0,0.4c0,0.1-0.1,0.1-0.1,0.2c-0.1,0-0.1,0.1-0.2,0.1c-0.1,0-0.1,0-0.2,0
	c-0.1,0-0.1,0-0.2-0.1c-0.1,0-0.1-0.1-0.2-0.2c0-0.1-0.1-0.1-0.1-0.2c0-0.1,0-0.2,0-0.2C656.6,200.7,656.6,200.6,656.7,200.5
	L656.7,200.5z M661.9,196c0.1,0,0.3,0,0.4,0.1c0.1,0.1,0.2,0.2,0.2,0.3s0,0.3,0,0.4c-0.1,0.1-0.2,0.2-0.3,0.3c-0.1,0-0.1,0-0.2,0
	s-0.1,0-0.2-0.1c-0.1,0-0.1-0.1-0.2-0.2s-0.1-0.1-0.1-0.2c0-0.1,0-0.2,0-0.2c0-0.1,0-0.2,0.1-0.2s0.1-0.1,0.1-0.2
	S661.9,196,661.9,196L661.9,196z M655.4,198L655.4,198c0.1,0,0.3,0,0.4,0.1c0.1,0.1,0.2,0.2,0.2,0.3s0,0.3,0,0.4
	c-0.1,0.1-0.2,0.2-0.3,0.3c-0.1,0-0.1,0-0.2,0c-0.1,0-0.1,0-0.2-0.1c-0.1,0-0.1-0.1-0.2-0.2c0-0.1-0.1-0.1-0.1-0.2
	c0-0.1,0-0.2,0-0.2c0-0.1,0-0.2,0.1-0.2c0-0.1,0.1-0.1,0.1-0.2C655.2,198,655.3,198,655.4,198L655.4,198z M657.4,194.1
	c0-0.1,0-0.2,0-0.2c0-0.1,0-0.2,0.1-0.2c0-0.1,0.1-0.1,0.1-0.2c0.1,0,0.1-0.1,0.2-0.1c0.1,0,0.1,0,0.2,0c0.1,0,0.1,0,0.2,0.1
	c0.1,0,0.1,0.1,0.2,0.2c0,0.1,0.1,0.1,0.1,0.2c0,0.1,0,0.2,0,0.2c0,0.1,0,0.2-0.1,0.2c0,0.1-0.1,0.1-0.1,0.2c-0.1,0-0.1,0.1-0.2,0.1
	c-0.1,0-0.1,0-0.2,0c-0.1,0-0.1,0-0.2-0.1c-0.1,0-0.1-0.1-0.2-0.2C657.4,194.2,657.4,194.1,657.4,194.1L657.4,194.1z M659.2,201.4
	c0-0.1,0-0.2,0-0.2c0-0.1,0-0.2,0.1-0.2c0-0.1,0.1-0.1,0.1-0.2c0.1,0,0.1-0.1,0.2-0.1c0.1,0,0.1,0,0.2,0c0.1,0,0.1,0,0.2,0.1
	c0.1,0,0.1,0.1,0.2,0.2c0,0.1,0.1,0.1,0.1,0.2c0,0.1,0,0.2,0,0.2c0,0.1,0,0.2-0.1,0.2c0,0.1-0.1,0.1-0.1,0.2c-0.1,0-0.1,0.1-0.2,0.1
	c-0.1,0-0.1,0-0.2,0c-0.1,0-0.1,0-0.2-0.1c-0.1,0-0.1-0.1-0.2-0.2C659.2,201.5,659.2,201.4,659.2,201.4L659.2,201.4z M656.3,197.6
	c0-0.4,0.1-0.7,0.2-1.1c0.1-0.3,0.3-0.6,0.5-0.9c0.2-0.3,0.5-0.5,0.8-0.6s0.6-0.2,1-0.2c1.4,0,2.5,1.2,2.5,2.8
	c0,0.4-0.1,0.7-0.2,1.1c-0.1,0.3-0.3,0.6-0.5,0.9c-0.2,0.3-0.5,0.5-0.8,0.6s-0.6,0.2-1,0.2C657.4,200.3,656.3,199.1,656.3,197.6"/>
<path class="st1" d="M692.4,187.8c-0.3,2.6-2.4,5-4.8,5.2l-2.8,0.3c-2.4,0.2-4.3-1.7-4.2-4.4l0.3-10.4c0.1-2.6,2-4.8,4.2-4.8
	l6.3,0.1c1.2,0,2.1,2.2,1.8,4.8L692.4,187.8z"/>
<path class="st9" d="M692.1,178.6c0.2-2-0.4-3.2-0.6-3.3l-6.3-0.1l0,0c-1.6,0-2.9,1.5-2.9,3.4L682,189c0,0.9,0.3,1.7,0.8,2.2
	c0.5,0.6,1.3,0.8,2,0.7l2.8-0.3c1.8-0.2,3.5-2,3.7-4L692.1,178.6L692.1,178.6z M684.5,194.7c-1.3,0-2.5-0.5-3.5-1.5
	c-1.1-1.1-1.6-2.6-1.6-4.3l0.3-10.4c0.1-3.4,2.5-6.1,5.4-6.1h0.1l6.3,0.1c0.7,0,1.4,0.4,1.9,1c0.9,1.1,1.3,3.1,1.1,5.3l-0.9,9.1
	c-0.3,3.3-3,6.1-5.9,6.4l-2.8,0.3C684.8,194.7,684.7,194.7,684.5,194.7L684.5,194.7z"/>
<path class="st1" d="M445.3,184.3l0.8,7.8c0.3,2.6,2.4,5,4.8,5.2l2,0.2c2.4,0.2,4.2-1.8,4.2-4.4l-0.3-9c-0.1-2.6-1.9-4.8-3.9-4.7
	c-2.1,0-4.7,0.1-5.9,0.1C445.7,179.5,445,181.7,445.3,184.3L445.3,184.3z"/>
<path class="st9" d="M452.8,180.7L452.8,180.7l-5.9,0.1c-0.2,0.2-0.7,1.4-0.5,3.3l0.8,7.8c0.2,2,1.9,3.8,3.7,4l2,0.2
	c0.8,0.1,1.5-0.2,2-0.8s0.8-1.4,0.8-2.2l-0.3-9C455.4,182.3,454.2,180.7,452.8,180.7L452.8,180.7z M453.2,198.8c-0.2,0-0.3,0-0.5,0
	l-2-0.2c-2.9-0.3-5.6-3.2-5.9-6.4l-0.8-7.8c-0.2-2.2,0.1-4.3,1-5.4c0.5-0.6,1.1-1,1.8-1l5.9-0.1c2.8,0,5.1,2.7,5.2,6.1l0.3,9
	c0.1,1.7-0.5,3.2-1.5,4.3C455.8,198.3,454.6,198.8,453.2,198.8"/>
<path class="st1" d="M447.4,175c-0.7-0.1-1.1-1.2-1-2.6l0.7-10.6c0.1-1.4,0.7-2.5,1.4-2.4l2.9,0.2c0.7,0.1,1.1,1.2,1,2.6l0.2,10.8
	c-0.1,1.4-0.7,2.5-1.4,2.4L447.4,175L447.4,175z"/>
<path class="st9" d="M451.2,172.9l-0.2-10.8V162c0-0.6-0.1-1-0.1-1.2l-2.4-0.2c-0.1,0.2-0.2,0.6-0.3,1.1l-0.7,10.6
	c0,0.6,0.1,1,0.1,1.2l3.3,0.3C451.1,173.8,451.2,173.5,451.2,172.9L451.2,172.9z M451.2,176.8c-0.1,0-0.1,0-0.2,0l-3.8-0.4
	c-1.4-0.1-2.3-1.9-2.1-4.1l0.7-10.6c0.1-2.2,1.3-3.8,2.7-3.7l2.9,0.2c0.8,0.1,1.5,0.7,1.8,1.6c0.3,0.7,0.4,1.5,0.3,2.4l0.2,10.7v0.1
	v0.1C453.6,175.2,452.5,176.8,451.2,176.8L451.2,176.8z"/>
<path class="st1" d="M683.8,170.9c-1,0-1.8-0.8-1.8-2l-0.3-8.6c0-1.1,0.7-2.1,1.7-2.1l4.2-0.2c1,0,1.8,0.8,1.8,2l1.7,8.6
	c0,1.1-0.7,2.1-1.7,2.1L683.8,170.9"/>
<path class="st9" d="M689.8,168.7L689.8,168.7l-1.6-8.5V160c0-0.4-0.2-0.6-0.5-0.6l-4.2,0.2c-0.1,0-0.1,0-0.2,0.1
	c-0.1,0-0.1,0.1-0.1,0.1c-0.1,0.1-0.2,0.3-0.2,0.5l0.3,8.6c0,0.4,0.2,0.6,0.5,0.6l5.5-0.2c0.2,0,0.3-0.1,0.3-0.2
	C689.7,169.1,689.8,168.9,689.8,168.7L689.8,168.7z M683.8,172.3L683.8,172.3c-1.6,0-2.9-1.4-3-3.3l-0.3-8.6c0-0.9,0.2-1.8,0.8-2.4
	c0.3-0.3,0.6-0.6,0.9-0.8c0.4-0.2,0.7-0.3,1.1-0.3l4.2-0.2c1.6-0.1,3,1.3,3.1,3.1l1.6,8.5v0.2c0,0.9-0.2,1.8-0.8,2.4
	c-0.3,0.3-0.6,0.6-0.9,0.8c-0.4,0.2-0.8,0.3-1.2,0.3l-5.5,0.2C683.9,172.3,683.8,172.3,683.8,172.3L683.8,172.3z"/>
<path class="st6" d="M684.1,169.4c-0.4,0-0.8-0.4-0.8-0.8l-0.1-3.7c0-0.5,0.3-0.9,0.7-0.9l1.8-0.1c0.4,0,0.8,0.4,0.8,0.8l0.7,3.7
	c0,0.5-0.3,0.9-0.7,0.9L684.1,169.4L684.1,169.4z M635.8,184l0.6-0.1c-0.5,2.6-0.9,6.6-1,9.1c-0.2,2.5-0.5,2.9-0.5,2.9l-0.6,1
	c0,0-91.7,2.5-94-0.5c-3.2-4.3-4.1-9.5-4.1-9.5l-0.4-2.5L635.8,184L635.8,184z"/>
<path class="st9" d="M583.6,196.6L583.6,196.6l-2.5-0.3c1.8-18.4-0.5-30.7-2.9-43.7c-1.7-9.2-3.4-18.7-3.6-30.4h2.5
	c0.1,11.4,1.9,20.8,3.5,29.8C583.1,164.7,585.4,177.8,583.6,196.6L583.6,196.6z M628.9,197L628.9,197l-2.4-0.8
	c4.6-17.8,4.4-30.3,4.1-43.6c0-1.2-0.1-2.4-0.1-3.6l2.5-0.1c0,1.2,0.1,2.4,0.1,3.6C633.3,165.5,633.6,178.8,628.9,197L628.9,197z"/>
<path class="st1" d="M541.1,203.2c-1,0-1.8-0.9-1.8-2v-2.6c0-1.1,0.8-2,1.8-2l96-0.3c1,0,1.8,0.9,1.8,2v2.6c0,1.1-0.8,2-1.8,2
	L541.1,203.2"/>
<path class="st9" d="M637.1,197.7l-96,0.3c-0.1,0-0.3,0.1-0.4,0.2c-0.1,0.1-0.2,0.3-0.2,0.4v2.6c0,0.3,0.2,0.6,0.5,0.6l96-0.3
	c0.3,0,0.5-0.3,0.5-0.6v-2.6c0-0.2-0.1-0.3-0.2-0.4C637.4,197.7,637.3,197.7,637.1,197.7L637.1,197.7z M541.1,204.6
	c-0.8,0-1.6-0.3-2.1-1c-0.6-0.6-0.9-1.5-0.9-2.4v-2.6c0-0.9,0.3-1.7,0.9-2.4c0.6-0.6,1.3-1,2.1-1l96-0.3c0.8,0,1.6,0.3,2.1,1
	c0.6,0.6,0.9,1.5,0.9,2.4v2.6c0,0.9-0.3,1.7-0.9,2.4c-0.6,0.6-1.3,1-2.1,1L541.1,204.6L541.1,204.6z"/>
<path class="st6" d="M518.2,186.9c0.7,2.8,1.3,13.1,1.3,13.1l17.1,0.1c-1.3-0.5-3.2-13.2-3.2-13.2L518.2,186.9z M457.9,195.5
	c0.6-1.4,0-11.5,0-11.5l14.9-0.3c1.3,0,2.3,1.4,1.9,2.8c-1.1,3.9-2.2,10.5-2.2,10.5L457.9,195.5z M628.3,156.3
	c0.8-0.9,1.2-2,1.2-3.3c0-1.2-0.4-2.4-1.2-3.3l0,0c-0.8-0.9-1.8-1.3-2.9-1.3c-1.1,0-2.2,0.5-2.9,1.4l-3.2,3.6
	c-0.8,0.9-1.2,2-1.2,3.3c0,1.2,0.4,2.4,1.2,3.3l0,0c0.8,0.9,1.8,1.3,2.9,1.3c1.1,0,2.2-0.5,2.9-1.4L628.3,156.3"/>
<path class="st1" d="M617.9,147c-0.2-1,0.4-2.1,1.4-2.3l7.6-1.7c1-0.2,1.9,0.4,2.1,1.5l0.9,4.6c0.2,1-0.5,2.1-1.4,2.3l-7.3,3.2
	c-1,0.2-1.9-0.4-2.1-1.5L617.9,147"/>
<path class="st9" d="M620.8,153.1l7.2-3.2l0.2-0.1c0.3-0.1,0.5-0.4,0.5-0.7l-0.9-4.6c0-0.1,0-0.1-0.1-0.2c0-0.1-0.1-0.1-0.1-0.1
	c-0.1,0-0.1-0.1-0.2-0.1c-0.1,0-0.2,0-0.2,0l-7.6,1.7c-0.3,0.1-0.5,0.4-0.5,0.7l1.1,6C620.3,153,620.5,153.1,620.8,153.1
	L620.8,153.1z M620.8,155.9c-1.4,0-2.7-1.1-3-2.6l-1.1-6c-0.3-1.8,0.7-3.5,2.4-3.9l7.6-1.7c0.8-0.2,1.6,0,2.3,0.4
	c0.3,0.2,0.6,0.5,0.9,0.9c0.2,0.4,0.4,0.8,0.5,1.2l0.9,4.6c0.3,1.7-0.7,3.5-2.3,3.9l-7.3,3.2l-0.2,0.1
	C621.2,155.9,621,155.9,620.8,155.9L620.8,155.9z"/>
<path class="st9" d="M539.9,174.3c1.6,0,2.9,1.3,2.9,2.9c0,1.6-1.3,2.9-2.9,3c-1.6,0-2.9-1.3-2.9-2.9
	C537,175.6,538.3,174.3,539.9,174.3z"/>
<path class="st12" d="M623.3,241.7c0-2.2-14.7-4.1-32.9-4.3s-32.9,1.5-33,3.7s14.7,4.1,32.9,4.3
	C608.6,245.6,623.3,243.9,623.3,241.7z"/>
<g id="l1">
	<g>
		<path class="st13" d="M108.2,103.5c2-1.3,4.1-0.4,5.5,0.9c2.2-1.3,4.4-1.2,6.4-2.4c3.4-2.1,9.1-1.2,8.8,2.9c6.6-0.6,7.4,3.9,5.2,8
			c2.1,1,3.7,3.1,4.2,4.9c0.6,2.3-0.9,2.9-1.8,4.6c-0.8,1.6-0.3,2.7-2.3,4c-1,0.7-4.9,2.6-6,1.2c-1.1,4.9-20.9,8.6-19.8,3
			c-1.5,0-3.4,0.8-5,0.4c-1.9-0.5-2.8-2.3-3-3.7c-0.2-1.4-0.1-1-1-2.3c-0.8-1.1-1.5-2.6-0.6-3.8c-2.3-0.5-4.2-1.5-4.8-3.4
			c-0.4-1.2-0.6-2.9,1.3-3.1c-0.7-2-2.5-3-1-5.2c1.3-1.8,3.7-3.5,5.8-4.7c3.1-1.7,6.6-1.8,10-1.1L108.2,103.5z"/>
		<path class="st13" d="M96,49.3c1-5.6-9.9-8.9-14.6-5.3c-2.4-5.3-7.3-8.3-14.4-9.1c-8.4-1-21.5,2.8-20.8,11.3
			c-12.8,3-13.9,10.3-8.8,19c-6.1,1.4-9.9,3.8-7.7,9.2c-8.4-0.2-15.9,9.4-8.9,14.4c-2.8,0.1-3,3.3-2.2,4.9
			c-10.8,4.9,4.1,20.4,14.1,15.8c1.6,4.6,3.5,7.3,9.3,9.4c4.7,1.7,13.8,4.1,17.8,0.3c3.8,2.9,7.2,5,12.9,4.6
			c3.3-0.3,3.8-0.9,6.3-2.4c1.1-0.6,0.6-1.5,2-1.6c0.6,0,3,1.9,3.8,2.2c2,0.6,4.5,0.8,6.6,0.5c3.2-0.4,6.1-1.6,6.5-4.6
			c7.7,2.6,15.4,1.2,16.1-6.7c4.4-0.2,9-0.3,11-4.3c1-1.9-0.3-4.4,0.4-5.8c1.2-2.4,4.4-2.8,4.2-6.1c-0.2-2.6-2.2-3.5-4.6-4.9
			c4.1-1.6,6.9-3.8,6.5-7.8c-0.4-4.1-3.5-4.8-7.6-6.2c1.9-2.2,5.1-3.9,3.8-7c-1.5-3.6-6.7-2.8-9.7-4.3c5.3-5.7-1.3-6.8-7.5-7.1
			c5.1-3.5-0.2-7-4.7-8.2c-2-0.5-10.5-0.2-9.6,0.3L96,49.3z"/>
		<path class="st14" d="M69.9,116.5c5.3,0.1,8.8-3.2,11.7-6.3c3.3-3.5,6.8-6.6,8.6-10.8c1.1-2.5,3-6.7,1.4-9.1
			c-0.3-0.4-1.3-0.7-1.7-1.2c-0.6-0.7-0.8-1.6-1.1-2.4c-0.7-1.6-1.5-2.9-2.7-4.3c2.5,2.2,4.7,10.9,10,5.9c4.6-4.3,6.3-10.2,6.7-15.7
			c4.8-0.7-3.1,13.6-4.3,15.3c-1.6,2.3-3.2,3.8-3.9,6.3c-0.8,3-2.6,6-3.5,9c3.6-0.1,6.6,0,9.8-1.6c2.8-1.4,7.6-3.9,8.2-6.7
			c3.1,2.5-4.9,6.2-7,7.3c-1.7,0.9-3.7,1.6-5.6,2.1c-1.6,0.4-4.7,0.2-6.1,0.8c-1.3,0.5-2.5,2.9-3.4,3.8c-1.4,1.5-2.9,3-4.5,4.3
			c-2.7,2.4-5.8,4.1-9,6c-1.4,0.8-2.5,1.9-3.8,2.8c-0.1-1.9,0-3.9,0-5.9v0.4H69.9z"/>
		<path class="st14" d="M40.8,78.9c0,7.7,4.8,18.1,11.2,24c4.3,4,10.8,9.1,17.4,10.4c0.2-1.3-0.3-2.6-0.5-3.8
			c-6-1.3-12.6-3.9-16.1-8.7c2.5-1.6,3.1-4.5,3.1-7c-0.8,1-3.2,5.9-4.8,5.6c-1.6-0.2-3.4-5.8-4.1-6.9c-2.5-4.2-4.5-9-6.2-13.3
			C40.8,79.2,40.8,78.9,40.8,78.9z"/>
		<path class="st14" d="M45.7,93.4c-1.6,2.7-8.9,0.3-11.1-0.6c-3.8-1.6-8.3-4-10.4-6.9c-0.1,1.8,1.7,2.3,3,3.6
			c1.3,1.3,2.5,2.2,4.4,2.9c0.9,0.4,1.8,0.4,1.8,1.3c-0.1,1-1.9,2-3,2.4c-2.4,0.9-6,1-8.4,0.4c2.1,2.3,9.7,0.3,11.6-1.3
			c0.9-0.8,1-0.8,2.3-0.6c1.1,0.2,2.1,0.4,3.2,0.5c2,0.2,4,0.5,6.1,0.6c0.7,0,2.1,0.2,2.3-0.4c0.1-0.5-1.4-1.8-1.9-2L45.7,93.4z"/>
		<path class="st14" d="M99.3,86.1c5,0,9.6-2.3,13.2-5c3-2.2,4.4-4.4,5.7-7.3c0,1.2,0.2,2-0.4,3.1s-1.4,2-2.3,2.9
			c-1.7,1.7-3.9,3.2-6.1,4.4c-2,1.1-4.7,1.9-7,2.5c-1.2,0.3-1.7,0.4-2.5,1.1c-0.6,0.6-2.2,2.3-3.2,2.3c-0.1,0-0.3,0.1-0.4,0.1
			c-0.4-1.4,1.7-3,2.5-4.1H99.3z"/>
		<path class="st14" d="M68.8,80.6c0.6,2.6,1.1,5.3,1.1,8c0,3.9-2.2,7.2-2.6,11c-0.6,5.6,2,10.3,0.6,15.9c-1.3,5.2-0.7,10.7-0.7,16
			c0,6.3-0.4,12.6-0.4,18.9c0,12.1-0.4,24.2-0.4,36.3c0,4.2,0,8.4,0,12.6c0,1.9-1.4,9.1,0,10.4c0,0.1,0.1,0.2,0.1,0.2
			c3.6,0.2,8-0.3,8-0.3c-4.9-6.3,0,5.3,0-2c0-11.8-2.5-47.3-1.9-59.1c0.4-7.8,1.7-15.6,1.2-23.5c-0.3-5.4,1.6-11.8-1.1-16.6
			c-1.5-2.7-2.6-5.1-2.8-8c-0.1-3.3,1.6-5.8,1.9-8.9c0.7-6.1-2-11.2-1.9-17.1c-1.3,2.1-1.3,5.3-1.2,7.6v-1.4H68.8z"/>
		<path class="st14" d="M70.7,150.5c2.1-3.3,2.3-8,6.3-11.1c2.1-1.6,5-2.6,7.5-3.8c3.2-1.6,6.6-3.1,9.4-5.1
			c4.4-3.1,8.2-8.3,10.5-12.5c1.3-2.4,2.5-5.7,2.5-8.3c0.3-0.1,0.8-0.1,1.1,0c0.5,2.8-1.6,6.3-2.8,8.9c-1.3,3-3,5.8-5.4,8.4
			c-4.4,4.9-11.3,7.4-17.1,10.9c-3.5,2.1-6.2,4.9-7.5,8.3c-0.8,2-1.1,4.3-1.7,6.4c-0.7,2.4-1.2,5.7-2.7,7.8c-1.9-2.7-1.5-7-0.9-10.1
			L70.7,150.5z"/>
		<path class="st14" d="M89.9,113c-1.7,3.4,1.3,8.8,2.5,12.1c0.9,2.5,0.3,4.7-0.4,7.2c0.6-1.3,3.1-1.7,4.6-2
			c3.1-0.5,5.9-1.2,8.8-2.3c4-1.6,12.6-5.2,13.2-9.1c-1.7,0.6-2.8,2.5-4.4,3.4c-1.9,1.2-3.9,2.1-5.9,3.1c-3.9,2-8.4,3.7-12.8,4.1
			c0.2-1.4-1.2-3-1.5-4.4c-0.4-1.4-1.2-3.3-1.2-4.8c0-2,3.1-3.7,4.3-5.6c1.4-2.1,2.1-4.4,2.3-6.7c-1.1,3.3-3.4,8.9-7.6,10.4
			c-0.1-1.5-0.3-5.8-2.7-5.3L89.9,113z"/>
		<path class="st13" d="M31.4,99.7c-2-1.3-4.1-0.4-5.5,0.9c-2.1-1.3-4.4-1.2-6.4-2.4c-3.4-2.1-9.1-1.2-8.8,2.9
			c-6.6-0.6-7.4,3.9-5.2,8c-2.1,1-3.7,3.1-4.2,4.9c-0.6,2.3,0.9,2.9,1.8,4.6c0.8,1.6,0.3,2.7,2.3,4c1,0.7,4.9,2.6,6,1.2
			c1.1,4.8,20.9,8.6,19.7,3c1.5,0,3.4,0.8,5,0.4c1.9-0.5,2.8-2.3,3-3.7c0.2-1.4,0.1-1,1-2.3c0.8-1.1,1.5-2.6,0.6-3.8
			c2.3-0.4,4.2-1.5,4.8-3.4c0.4-1.2,0.6-2.9-1.3-3.1c0.7-2,2.5-3,1-5.2c-1.3-1.8-3.7-3.5-5.8-4.7c-3.1-1.7-6.6-1.8-9.9-1.1
			L31.4,99.7z"/>
		<path class="st14" d="M68.9,146.8c-2.1-3.3-2.3-8-6.3-11.1c-2.1-1.6-5-2.6-7.5-3.8c-3.2-1.6-6.6-3.1-9.4-5.1
			c-4.4-3.1-8.2-8.3-10.5-12.5c-1.3-2.4-2.6-5.7-2.5-8.3c-0.3-0.1-0.8-0.1-1.1,0c-0.5,2.8,1.6,6.3,2.8,8.9c1.3,3,3,5.8,5.4,8.4
			c4.4,4.9,11.3,7.4,17.1,10.9c3.5,2.1,6.2,4.9,7.5,8.3c0.8,2,1.1,4.3,1.7,6.4c0.7,2.4,1.2,5.7,2.7,7.8c1.9-2.7,1.5-7,0.9-10.1
			L68.9,146.8z"/>
		<path class="st14" d="M49.8,109.2c1.7,3.4-1.3,8.8-2.5,12.1c-0.9,2.5-0.3,4.7,0.4,7.2c-0.6-1.3-3.1-1.7-4.6-2
			c-3.1-0.5-5.9-1.2-8.8-2.3c-4-1.6-12.6-5.2-13.2-9.1c1.7,0.6,2.8,2.5,4.4,3.4c1.9,1.2,3.9,2.1,5.9,3.1c3.9,2,8.4,3.7,12.8,4.1
			c-0.2-1.4,1.2-3,1.5-4.4c0.4-1.4,1.2-3.3,1.2-4.8c0-2-3.1-3.7-4.3-5.6c-1.4-2.1-2.1-4.4-2.3-6.7c1.1,3.3,3.4,8.9,7.6,10.4
			c0.1-1.5,0.3-5.8,2.7-5.3L49.8,109.2z"/>
	</g>
	<g>
		<path class="st13" d="M628.3,199.6c1.4-0.6,2.8-0.2,3.8,0.4c1.5-0.6,3-0.5,4.4-1.1c2.4-0.9,6.2-0.5,6,1.3c4.5-0.3,5,1.7,3.5,3.5
			c1.4,0.4,2.5,1.3,2.9,2.2c0.4,1-0.6,1.3-1.2,2c-0.5,0.7-0.2,1.2-1.6,1.8c-0.7,0.3-3.4,1.1-4.1,0.5c-0.8,2.1-14.3,3.8-13.6,1.3
			c-1.1,0-2.3,0.4-3.4,0.2c-1.3-0.2-1.9-1-2.1-1.6c-0.2-0.6-0.1-0.4-0.7-1c-0.6-0.5-1-1.1-0.4-1.7c-1.6-0.2-2.9-0.7-3.3-1.5
			c-0.3-0.5-0.4-1.3,0.9-1.4c-0.5-0.9-1.7-1.3-0.7-2.3c0.9-0.8,2.5-1.5,4-2.1c2.1-0.7,4.5-0.8,6.8-0.5L628.3,199.6z"/>
		<path class="st13" d="M619.9,175.8c0.7-2.5-6.8-3.9-10-2.3c-1.6-2.3-5-3.6-9.9-4c-5.8-0.4-14.8,1.2-14.3,5c-8.8,1.3-9.5,4.5-6,8.3
			c-4.2,0.6-6.8,1.7-5.3,4c-5.8-0.1-10.9,4.1-6.1,6.3c-2,0.1-2.1,1.4-1.5,2.1c-7.4,2.2,2.8,8.9,9.7,6.9c1.1,2,2.4,3.2,6.4,4.1
			c3.3,0.8,9.5,1.8,12.2,0.1c2.6,1.3,5,2.2,8.8,2c2.3-0.1,2.6-0.4,4.3-1c0.7-0.3,0.4-0.7,1.4-0.7c0.4,0,2,0.8,2.6,1
			c1.4,0.3,3.1,0.4,4.6,0.2c2.2-0.2,4.2-0.7,4.4-2c5.3,1.1,10.6,0.5,11-3c3-0.1,6.2-0.1,7.5-1.9c0.7-0.8-0.2-1.9,0.3-2.6
			c0.8-1.1,3.1-1.2,2.9-2.7c-0.1-1.1-1.5-1.5-3.1-2.1c2.8-0.7,4.7-1.7,4.5-3.4c-0.3-1.8-2.4-2.1-5.2-2.7c1.3-0.9,3.5-1.7,2.6-3.1
			c-1.1-1.6-4.6-1.2-6.6-1.9c3.6-2.5-0.9-3-5.1-3.1c3.5-1.6-0.1-3.1-3.2-3.6c-1.4-0.2-7.2-0.1-6.6,0.1L619.9,175.8z"/>
		<path class="st14" d="M602,205.3c3.6,0.1,6-1.4,8.1-2.8c2.3-1.5,4.6-2.9,5.9-4.7c0.8-1.1,2.1-2.9,1-4c-0.2-0.2-0.9-0.3-1.1-0.5
			c-0.4-0.3-0.5-0.7-0.8-1.1c-0.5-0.7-1-1.3-1.8-1.9c1.7,1,3.2,4.8,6.9,2.6c3.2-1.9,4.3-4.5,4.6-6.9c3.3-0.3-2.1,6-3,6.7
			c-1.1,1-2.2,1.7-2.7,2.8c-0.6,1.3-1.8,2.6-2.4,4c2.5,0,4.6,0,6.8-0.7c1.9-0.6,5.2-1.7,5.7-2.9c2.1,1.1-3.3,2.7-4.8,3.2
			c-1.2,0.4-2.5,0.7-3.8,0.9c-1.1,0.2-3.2,0.1-4.2,0.4c-0.9,0.2-1.7,1.3-2.3,1.7c-1,0.7-2,1.3-3.1,1.9c-1.9,1-4,1.8-6.2,2.6
			c-1,0.4-1.7,0.8-2.6,1.2C601.9,206.9,602,206,602,205.3L602,205.3z"/>
		<path class="st14" d="M582,188.8c0,3.4,3.3,7.9,7.7,10.5c2.9,1.7,7.4,4,11.9,4.5c0.1-0.6-0.2-1.1-0.3-1.7
			c-4.1-0.6-8.7-1.7-11.1-3.8c1.7-0.7,2.1-2,2.2-3.1c-0.6,0.4-2.2,2.6-3.3,2.5s-2.3-2.5-2.8-3C584.5,192.9,583.2,190.8,582,188.8
			L582,188.8z"/>
		<path class="st14" d="M585.3,195.2c-1.1,1.2-6.1,0.1-7.6-0.3c-2.6-0.7-5.7-1.7-7.1-3c-0.1,0.8,1.2,1,2.1,1.6c0.9,0.6,1.7,1,3,1.3
			c0.6,0.2,1.3,0.2,1.2,0.6c0,0.4-1.3,0.9-2,1c-1.6,0.4-4.1,0.4-5.8,0.2c1.4,1,6.7,0.1,8-0.6c0.6-0.3,0.7-0.4,1.6-0.3
			c0.7,0.1,1.5,0.2,2.2,0.2c1.4,0.1,2.8,0.2,4.2,0.3c0.5,0,1.5,0.1,1.6-0.2C586.7,195.8,585.6,195.2,585.3,195.2L585.3,195.2z"/>
		<path class="st14" d="M622.1,192c3.4,0,6.6-1,9-2.2c2.1-1,3-1.9,3.9-3.2c0,0.5,0.1,0.9-0.3,1.4c-0.4,0.5-0.9,0.9-1.6,1.3
			c-1.2,0.7-2.6,1.4-4.2,1.9c-1.4,0.5-3.2,0.8-4.8,1.1c-0.8,0.1-1.1,0.2-1.7,0.5c-0.4,0.2-1.5,1-2.2,1c-0.1,0-0.2,0-0.2,0.1
			c-0.2-0.6,1.2-1.3,1.7-1.8h0.4V192z"/>
		<path class="st14" d="M601.2,189.6c0.4,1.1,0.8,2.3,0.8,3.5c0,1.7-1.5,3.1-1.8,4.8c-0.4,2.4,1.4,4.5,0.4,7c-0.9,2.3-0.5,4.7-0.5,7
			c0,2.8-0.3,5.5-0.3,8.3c0,5.3-0.3,10.6-0.3,15.9c0,1.8,0,3.7,0,5.5c0,0.8-1,4,0,4.5c0,0,0,0.1,0.1,0.1c2.4,0.1,5.5-0.1,5.5-0.1
			c-3.3-2.8,0,2.3,0-0.9c0-5.2-1.7-20.7-1.3-25.9c0.3-3.4,1.2-6.8,0.8-10.3c-0.2-2.4,1.1-5.2-0.7-7.3c-1-1.2-1.8-2.2-1.9-3.5
			c-0.1-1.4,1.1-2.6,1.3-3.9c0.5-2.7-1.4-4.9-1.3-7.5c-0.9,0.9-0.9,2.3-0.8,3.3V189.6z"/>
		<path class="st14" d="M602.5,220.2c1.5-1.5,1.6-3.5,4.3-4.9c1.4-0.7,3.4-1.1,5.1-1.6c2.2-0.7,4.5-1.4,6.5-2.2
			c3-1.4,5.7-3.6,7.2-5.5c0.9-1,1.7-2.5,1.7-3.6c0.2,0,0.5,0,0.7,0c0.4,1.2-1.1,2.7-1.9,3.9c-0.9,1.3-2.1,2.6-3.7,3.7
			c-3,2.1-7.8,3.2-11.7,4.8c-2.4,0.9-4.3,2.1-5.2,3.6c-0.5,0.9-0.7,1.9-1.2,2.8c-0.5,1.1-0.9,2.5-1.8,3.4c-1.3-1.2-1-3.1-0.6-4.4
			H602.5z"/>
		<path class="st14" d="M615.7,203.7c-1.2,1.5,0.9,3.8,1.7,5.3c0.6,1.1,0.2,2.1-0.3,3.1c0.4-0.6,2.2-0.7,3.2-0.9c2.1-0.2,4-0.5,6-1
			c2.8-0.7,8.6-2.3,9.1-4c-1.2,0.3-1.9,1.1-3,1.5c-1.3,0.5-2.7,0.9-4.1,1.4c-2.7,0.9-5.8,1.6-8.8,1.8c0.2-0.6-0.8-1.3-1-1.9
			c-0.2-0.6-0.8-1.5-0.8-2.1c0-0.9,2.1-1.6,2.9-2.4c0.9-0.9,1.4-1.9,1.6-2.9c-0.7,1.5-2.3,3.9-5.2,4.5c0-0.6-0.2-2.5-1.9-2.3
			L615.7,203.7z"/>
		<path class="st13" d="M575.5,197.9c-1.4-0.6-2.8-0.2-3.8,0.4c-1.5-0.6-3-0.5-4.4-1.1c-2.4-0.9-6.2-0.5-6,1.3
			c-4.5-0.3-5,1.7-3.5,3.5c-1.4,0.4-2.5,1.3-2.9,2.2c-0.4,1,0.6,1.3,1.2,2c0.5,0.7,0.2,1.2,1.6,1.8c0.7,0.3,3.4,1.1,4.1,0.5
			c0.8,2.1,14.3,3.8,13.6,1.3c1.1,0,2.3,0.4,3.4,0.2c1.3-0.2,1.9-1,2.1-1.6c0.2-0.6,0.1-0.4,0.7-1c0.6-0.5,1-1.1,0.4-1.7
			c1.6-0.2,2.9-0.7,3.3-1.5c0.3-0.5,0.4-1.3-0.9-1.4c0.5-0.9,1.7-1.3,0.7-2.3c-0.9-0.8-2.5-1.5-4-2.1c-2.1-0.7-4.5-0.8-6.8-0.5
			L575.5,197.9z"/>
		<path class="st14" d="M601.3,218.6c-1.5-1.5-1.6-3.5-4.3-4.9c-1.4-0.7-3.4-1.1-5.1-1.6c-2.2-0.7-4.5-1.4-6.5-2.2
			c-3-1.4-5.7-3.6-7.2-5.5c-0.9-1-1.8-2.5-1.7-3.6c-0.2,0-0.5,0-0.7,0c-0.4,1.2,1.1,2.7,1.9,3.9c0.9,1.3,2.1,2.6,3.7,3.7
			c3,2.1,7.8,3.2,11.7,4.8c2.4,0.9,4.3,2.1,5.2,3.6c0.5,0.9,0.7,1.9,1.2,2.8c0.5,1.1,0.9,2.5,1.8,3.4c1.3-1.2,1-3.1,0.6-4.4H601.3z"
			/>
		<path class="st14" d="M588.2,202.1c1.2,1.5-0.9,3.8-1.7,5.3c-0.6,1.1-0.2,2.1,0.3,3.1c-0.4-0.6-2.2-0.7-3.2-0.9
			c-2.1-0.2-4-0.5-6-1c-2.8-0.7-8.6-2.3-9.1-4c1.2,0.3,2,1.1,3,1.5c1.3,0.5,2.7,0.9,4.1,1.4c2.6,0.9,5.8,1.6,8.8,1.8
			c-0.2-0.6,0.8-1.3,1-1.9c0.2-0.6,0.8-1.5,0.8-2.1c0-0.9-2.1-1.6-2.9-2.4c-0.9-0.9-1.4-1.9-1.6-2.9c0.7,1.5,2.3,3.9,5.2,4.5
			c0-0.6,0.2-2.5,1.9-2.3L588.2,202.1z"/>
	</g>
	<path class="st0" d="M1413.8,134.7c1.7-1,3.5-0.3,4.7,0.7c1.8-1,3.7-0.9,5.4-1.9c2.9-1.6,7.7-1,7.5,2.2c5.7-0.5,6.3,3,4.4,6.1
		c1.8,0.8,3.2,2.4,3.6,3.8c0.5,1.8-0.8,2.2-1.5,3.6c-0.6,1.2-0.3,2.1-1.9,3.1c-0.9,0.5-4.2,2-5.1,1c-1,3.7-17.8,6.7-16.9,2.4
		c-1.3,0-2.9,0.6-4.2,0.3c-1.6-0.4-2.4-1.8-2.6-2.8c-0.2-1.1-0.1-0.8-0.9-1.8c-0.7-0.9-1.3-2-0.5-2.9c-1.9-0.3-3.6-1.2-4.1-2.6
		c-0.3-0.9-0.5-2.2,1.1-2.4c-0.6-1.5-2.2-2.3-0.8-4c1.1-1.4,3.1-2.7,5-3.6c2.7-1.3,5.6-1.4,8.5-0.9L1413.8,134.7z"/>
	<path class="st0" d="M1403.3,92.8c0.8-4.3-8.5-6.9-12.5-4.1c-2-4.1-6.3-6.4-12.3-7c-7.2-0.8-18.4,2.2-17.8,8.7
		c-11,2.3-11.9,8-7.5,14.7c-5.2,1.1-8.5,2.9-6.5,7.1c-7.2-0.1-13.6,7.3-7.6,11.1c-2.4,0.1-2.6,2.5-1.9,3.8
		c-9.2,3.8,3.5,15.7,12.1,12.2c1.3,3.6,3,5.6,8,7.3c4.1,1.3,11.8,3.2,15.2,0.2c3.2,2.2,6.2,3.9,11,3.5c2.8-0.2,3.2-0.7,5.4-1.8
		c0.9-0.5,0.5-1.2,1.7-1.2c0.5,0,2.5,1.5,3.3,1.7c1.7,0.5,3.9,0.6,5.7,0.4c2.7-0.3,5.3-1.3,5.5-3.5c6.6,2,13.2,1,13.8-5.2
		c3.8-0.2,7.7-0.2,9.4-3.3c0.8-1.5-0.3-3.4,0.4-4.5c1-1.9,3.8-2.2,3.6-4.7c-0.1-2-1.9-2.7-3.9-3.8c3.5-1.2,5.9-3,5.6-6
		c-0.3-3.2-3-3.7-6.5-4.8c1.6-1.7,4.4-3,3.3-5.4c-1.3-2.8-5.8-2.2-8.3-3.3c4.5-4.4-1.1-5.3-6.4-5.5c4.4-2.7-0.2-5.4-4-6.4
		c-1.7-0.4-9-0.2-8.2,0.2L1403.3,92.8z"/>
	<path class="st14" d="M1381,144.8c4.5,0.1,7.5-2.5,10-4.9c2.8-2.7,5.8-5.1,7.4-8.3c0.9-1.9,2.6-5.2,1.2-7c-0.2-0.3-1.1-0.6-1.4-0.9
		c-0.5-0.5-0.7-1.3-1-1.9c-0.6-1.2-1.3-2.2-2.3-3.3c2.2,1.7,4,8.4,8.6,4.5c4-3.4,5.4-7.9,5.7-12.1c4.1-0.5-2.7,10.5-3.7,11.8
		c-1.4,1.8-2.7,2.9-3.3,4.9c-0.7,2.4-2.2,4.6-3,7c3.1-0.1,5.7,0,8.4-1.3c2.4-1.1,6.5-3,7-5.2c2.6,1.9-4.2,4.8-6,5.6
		c-1.5,0.7-3.1,1.3-4.8,1.6c-1.4,0.3-4,0.2-5.2,0.6c-1.1,0.4-2.1,2.2-2.9,3c-1.2,1.2-2.5,2.3-3.9,3.4c-2.4,1.8-5,3.2-7.7,4.7
		c-1.2,0.6-2.1,1.5-3.2,2.2c-0.1-1.5,0-3,0-4.5v0.1H1381z"/>
	<path class="st14" d="M1356.1,115.7c0,6,4.1,14,9.6,18.5c3.7,3.1,9.3,7.1,14.9,8c0.2-1-0.3-2-0.4-3c-5.2-1-10.8-3-13.8-6.8
		c2.1-1.2,2.7-3.5,2.7-5.4c-0.7,0.8-2.8,4.5-4.1,4.4c-1.4-0.2-2.9-4.5-3.5-5.4C1359.3,122.7,1357.7,119.1,1356.1,115.7L1356.1,115.7
		L1356.1,115.7z"/>
	<path class="st14" d="M1360.3,126.9c-1.4,2.1-7.6,0.2-9.5-0.5c-3.2-1.2-7.1-3.1-8.9-5.4c-0.1,1.4,1.4,1.8,2.6,2.8
		c1.1,1,2.2,1.7,3.7,2.3c0.8,0.3,1.6,0.3,1.5,1c-0.1,0.8-1.6,1.5-2.5,1.8c-2.1,0.7-5.1,0.8-7.2,0.3c1.8,1.8,8.3,0.2,9.9-1
		c0.7-0.6,0.9-0.6,2-0.5c0.9,0.1,1.8,0.3,2.7,0.4c1.7,0.2,3.5,0.4,5.2,0.5c0.6,0,1.8,0.2,2-0.3c0.1-0.4-1.2-1.4-1.6-1.6
		L1360.3,126.9z"/>
	<path class="st14" d="M1406.1,121.3c4.3,0,8.2-1.8,11.3-3.9c2.6-1.7,3.8-3.4,4.9-5.7c0,0.9,0.2,1.6-0.3,2.4s-1.2,1.5-2,2.2
		c-1.5,1.3-3.3,2.5-5.2,3.4c-1.7,0.8-4,1.5-6,1.9c-1,0.2-1.4,0.3-2.2,0.9c-0.6,0.4-1.9,1.8-2.8,1.8c-0.1,0-0.2,0.1-0.3,0.1
		c-0.3-1.1,1.4-2.3,2.2-3.2L1406.1,121.3L1406.1,121.3z"/>
	<path class="st14" d="M1380,117c0.5,2,1,4.1,1,6.2c0,3-1.8,5.5-2.2,8.5c-0.5,4.3,1.7,7.9,0.5,12.3c-1.1,4-0.6,8.3-0.6,12.4
		c0,4.9-0.3,9.7-0.3,14.6c0,9.4-0.3,18.7-0.3,28c0,3.3,0,6.5,0,9.8c0,1.4-1.2,7,0,8c0,0.1,0,0.1,0.1,0.2c3,0.1,6.8-0.2,6.8-0.2
		c-4.2-4.9,0,4.1,0-1.5c0-9.1-2.2-36.6-1.6-45.7c0.3-6,1.4-12.1,1-18.2c-0.3-4.2,1.3-9.1-0.9-12.8c-1.3-2.1-2.3-3.9-2.4-6.2
		c-0.1-2.5,1.3-4.5,1.7-6.9c0.6-4.7-1.7-8.7-1.6-13.2c-1.1,1.6-1.1,4.1-1,5.9V117H1380z"/>
	<path class="st14" d="M1381.7,171.1c1.8-2.6,2-6.2,5.4-8.6c1.8-1.2,4.3-2,6.4-2.9c2.7-1.2,5.6-2.4,8-4c3.7-2.4,7-6.4,9-9.7
		c1.1-1.8,2.2-4.4,2.2-6.4c0.3-0.1,0.7-0.1,0.9,0c0.5,2.2-1.4,4.8-2.4,6.9c-1.1,2.3-2.6,4.5-4.6,6.5c-3.8,3.8-9.7,5.7-14.6,8.4
		c-3,1.6-5.3,3.8-6.4,6.4c-0.7,1.6-0.9,3.3-1.5,4.9c-0.6,1.9-1.1,4.4-2.3,6c-1.6-2.1-1.3-5.4-0.8-7.8L1381.7,171.1z"/>
	<path class="st14" d="M1398.1,142c-1.5,2.6,1.1,6.8,2.2,9.4c0.8,2,0.3,3.6-0.4,5.5c0.5-1,2.7-1.3,4-1.5c2.6-0.4,5-0.9,7.5-1.8
		c3.5-1.2,10.7-4,11.3-7.1c-1.5,0.5-2.4,1.9-3.8,2.7c-1.6,0.9-3.3,1.6-5.1,2.4c-3.3,1.5-7.2,2.9-10.9,3.2c0.2-1.1-1-2.3-1.3-3.4
		c-0.3-1.1-1.1-2.6-1.1-3.7c0-1.5,2.6-2.9,3.7-4.3c1.2-1.6,1.8-3.4,1.9-5.2c-0.9,2.6-2.9,6.9-6.5,8c-0.1-1.1-0.3-4.5-2.3-4.1
		L1398.1,142z"/>
	<path class="st0" d="M1348.1,131.8c-1.7-1-3.5-0.3-4.7,0.7c-1.8-1-3.7-0.9-5.4-1.9c-2.9-1.6-7.7-1-7.5,2.2c-5.7-0.5-6.3,3-4.4,6.1
		c-1.8,0.8-3.2,2.4-3.6,3.8c-0.5,1.8,0.8,2.2,1.5,3.6c0.7,1.2,0.3,2.1,1.9,3.1c0.9,0.5,4.2,2,5.1,1c1,3.7,17.8,6.7,16.9,2.4
		c1.3,0,2.9,0.6,4.2,0.3c1.6-0.4,2.4-1.8,2.6-2.8c0.2-1.1,0.1-0.8,0.9-1.8c0.7-0.9,1.3-2,0.5-2.9c1.9-0.3,3.6-1.2,4.1-2.6
		c0.3-0.9,0.5-2.2-1.1-2.4c0.6-1.5,2.2-2.3,0.8-4c-1.1-1.4-3.1-2.7-5-3.6c-2.7-1.3-5.6-1.4-8.5-0.9L1348.1,131.8z"/>
	<path class="st14" d="M1380.2,168.2c-1.8-2.6-2-6.2-5.4-8.6c-1.8-1.2-4.3-2-6.4-2.9c-2.7-1.2-5.6-2.4-8-4c-3.7-2.4-7-6.4-9-9.7
		c-1.1-1.8-2.2-4.4-2.2-6.4c-0.3-0.1-0.7-0.1-0.9,0c-0.5,2.2,1.4,4.8,2.4,6.9c1.1,2.3,2.6,4.5,4.6,6.5c3.8,3.8,9.7,5.7,14.6,8.4
		c3,1.6,5.3,3.8,6.4,6.4c0.7,1.6,0.9,3.3,1.5,4.9c0.6,1.9,1.1,4.4,2.3,6c1.6-2.1,1.3-5.4,0.8-7.8L1380.2,168.2z"/>
	<path class="st14" d="M1363.8,139.1c1.5,2.6-1.1,6.8-2.2,9.4c-0.8,2-0.3,3.6,0.4,5.5c-0.5-1-2.7-1.3-4-1.5c-2.6-0.4-5-0.9-7.5-1.8
		c-3.5-1.2-10.7-4-11.3-7.1c1.5,0.5,2.4,1.9,3.8,2.7c1.6,0.9,3.3,1.6,5.1,2.4c3.3,1.5,7.2,2.9,10.9,3.2c-0.2-1.1,1-2.3,1.3-3.4
		c0.3-1.1,1.1-2.6,1.1-3.7c0-1.5-2.6-2.9-3.7-4.3c-1.2-1.6-1.8-3.4-1.9-5.1c0.9,2.6,2.9,6.9,6.5,8c0.1-1.1,0.3-4.5,2.3-4.1
		L1363.8,139.1z"/>
	<path class="st15" d="M1250.7,177.9c3.9-2.7,4.4-8.5,4.9-13.1c0.4-3.9-1.9-8.7,2.4-9.8c7.6-2,6.2,10,5.9,15.6
		c-0.2,3.9-1.7,8.5-4.9,10.6c-2.8,1.8-9,2.1-9.1-2.9L1250.7,177.9z"/>
	
		<rect x="1227.1" y="177.7" transform="matrix(1.713192e-03 -1 1 1.713192e-03 1046.2494 1433.2231)" class="st15" width="27.7" height="29.8"/>
	
		<rect x="1216.2" y="192.4" transform="matrix(1.713192e-03 -1 1 1.713192e-03 1019.5983 1438.7136)" class="st15" width="28.4" height="32.6"/>
	<path class="st16" d="M1237.3,172.1L1237.3,172.1c0,0-12,1-13.9,2.5c-2.6,2.1-7.7,29.4-7.7,29.4l7.2,1.2c0,0,5-21.3,6.1-23.1
		c0.3-0.4,0.8-1.6,1.3-1.6c5.6,0.6,19.5,3.3,22-0.8c4-6.4,3.1-9.2,3.1-9.4l-0.2-0.9L1237.3,172.1z"/>
	<path class="st17" d="M1237.2,152.4c-1.5,0.6-2,3.2-3.2,4.3c-0.6,0.6-1.6,1.1-2.4,1.5c-2.2,1.1-4.6,2-6.9,3.2
		c-1,0.5-1.9,1.1-2.9,1.6c-0.6,0.4-2.4,1.7-3,1.7c-0.5,0-4.6-2.2-4.2,0.2c1.3,0.5,2.5,0.5,3.7,1.3c1.4,0.9,1.6,0.6,3.2-0.2
		c3.6-1.8,7.4-3.3,11.1-4.6c0.8-0.3,2.3-0.5,2.9-1.1c0.7-0.7,1-2.4,1.4-3.2C1237.5,155.5,1238.1,153.9,1237.2,152.4L1237.2,152.4z"
		/>
	
		<rect x="1241.3" y="129.2" transform="matrix(0.9988 -4.947225e-02 4.947225e-02 0.9988 -5.0877 61.758)" class="st18" width="7.4" height="8.9"/>
	<path class="st19" d="M1236.9,123.3c-0.6,0.3,0,2.1,0.1,2.6c0.5,0,1.1,0.1,1.6,0.1c0-0.2,0-0.5,0.1-0.7c0.2,0.2,0.2,0.4,0.3,0.7
		c0.3-0.1,0.6,0,0.9-0.2c-0.2-0.3-0.1-0.9,0-1.3s0.4-0.9,0.1-1.3c-0.7-1.3-2.6-0.6-3.2,0.3L1236.9,123.3z"/>
	<path class="st20" d="M1237.6,135.2c3.5,0.2,7.9-1.5,9.5-4.7c1.6-3.4,0.4-7.7-2.4-10c-2.5-2.1-6.7-0.3-7.7,2.5
		c-0.5,1.5-0.2,2.6-0.1,4c0.1,1.2-0.9,2-0.8,3.2c0.5,0.3,0.7,0.4,0.9,0.9c0.1,0.2-0.1,0.6-0.1,0.8c0.1,0.2,0.4,0.3,0.4,0.5
		c0.3,0.9-0.3,2.2,0.4,2.9L1237.6,135.2z"/>
	<path class="st18" d="M1244.8,127c0-0.5,0.8-1.1,1.2-0.8c0.5,0.2,0.4,1.1,0.4,1.5c-0.1,1-0.7,2-1.3,2.7c0.8-0.8,1.8-2.2,1.8-3.4
		c0-0.6-0.3-1.1-0.9-1.2c-0.9-0.2-1.2,1-1.2,1V127z"/>
	<path class="st21" d="M1255.9,170.7c-0.6-7.6-2.9-23.9-3.7-29.4c-0.3-1.8-2.3-3.8-2.3-3.8s-4.4-0.6-7.3,0.8l-1.1,0.1
		c-5.1,3.8-3.6,12.9-3.8,14.6c-0.6,4.1-1.3,14-2.1,19.3C1241.5,172.4,1250,171.1,1255.9,170.7z"/>
	<path class="st21" d="M1241.9,138.8c-0.9,0.8-1.6,1.8-2.1,2.9c-0.6,1.3-1.2,2.9-1.4,4.3c-0.2,1.3-0.3,2.7,0.2,3.9
		c0.7,1.6,1.5,3.3,2.9,4.5c1.4,1.1,3.7,1.1,5.3,0.5c2-0.7,4.1-2.1,4.6-4.1c0.6-2.7,0.9-5.9,0.2-8.6c-0.4-1.5-2.3-4.1-4.2-4.3
		c-1-0.1-2.4-0.1-3.4,0C1243.3,138.1,1242.4,138.3,1241.9,138.8L1241.9,138.8z"/>
	<path class="st18" d="M1251.7,145.8l-10.1-5.7l-6,18.7c0,0-5.2,1.5-8.9,3.7c-2.2,1.3-7,3.8-7,3.8l0.5,2.5c0,0,5.6-0.9,8-1.5
		c2.9-0.7,8.5-2.8,8.5-2.8s2.5-0.6,2.9-1.2C1242,158.9,1251.7,145.8,1251.7,145.8z"/>
	<path class="st18" d="M1219.8,166.2c-1.6-0.2-3.1-1.7-4.8-1.4c-1.7,0.3-1.9,2.1-1.8,3.5c0.7,0,1.1-0.6,1.9-0.6
		c0.8,0.1,1.2,0.8,1.8,1.2c1.4,1,2.6,0.2,4.1-0.2c0-0.7-0.5-2.4-0.9-2.5H1219.8z"/>
	<path class="st21" d="M1242.3,139.3c-1.2,0.5-1.8,1.7-2.4,2.7c-0.4,0.8-0.8,1.1-0.2,1.7c0.5,0.5,9.9,5.3,10.4,5.4
		c0.4-1.3,1.6-2.1,1.7-3.5c0.1-1.3,0.1-2.7-0.4-3.9c-1.2-3-4.8-3.3-7.7-2.8c-0.6,0.1-1.2,0.2-1.8,0.5L1242.3,139.3z"/>
	<path class="st22" d="M1248.3,139.1c1.2,3.1-3.3,5.4-5.8,5.8c1,0.9,2.5,1.7,3.8,2.2c0.8,0.3,2.7,1.8,3.4,1.3
		c1.2-0.8,1.3-3.4,1.3-4.5c0.1-1.5,0.1-3.2-1.2-4.2C1249.4,139.3,1248.7,139.1,1248.3,139.1L1248.3,139.1z"/>
	<path class="st23" d="M1240.3,119.9c-1.3-0.1-3.2,1.9-3.4,3c-0.3,1.8,1.9-0.2,2.7-0.4c0.2,0.5-0.2,1.3,0.3,1.5
		c0.6,0.3,1.3-0.5,1.9-0.5c-0.1,0.6-0.4,1.2-0.5,1.9c-0.1,0.7-0.1,2.4,0.7,2.8c0.5,0.3,1.3-1.2,1.7-1.6c0.7-0.6,2.2-1.2,2.8-0.2
		c0.7,1-0.5,1.8,0.1,2.7c0.3,0.5,0.8,0.3,1.1,0.8c0.3,0.6,0.1,1.4,0.7,2c0.1,0.1,0.1,0.3,0.3,0.3c0.3-0.6,0.9-1,1.3-1.5
		c0.4-0.6,0.8-1.3,1.2-1.9c0.9-1.5,1.4-3.2,0.8-4.9c-0.6-1.8-1.5-3.7-3.3-4.7s-4.3-1.2-6.2-0.7c-0.6,0.2-1.2,0.4-1.7,0.8
		c-0.4,0.3-1,1-1.5,1L1240.3,119.9z"/>
	<path class="st16" d="M1249.8,130.8c1.7-1.3,2.4-4.1,2.4-6.4c0-4.1-3.5-7.5-7.6-7.6c-3.4,0-6.3,2.2-7.2,5.2
		C1241.6,123.9,1246.3,127.8,1249.8,130.8z"/>
	<path class="st16" d="M1231.3,120.5c0.9,0,1.8,0.6,2.6,0.9c0.9,0.3,1.8,0.6,2.6,1c1.7,0.6,3.3,1.2,4.8,2.1c1.7,1,3.4,2.2,4.9,3.5
		c0.9,0.8,1.9,1.2,3,1.7c-0.1-0.7-1.5-1.8-2.1-2.3c-0.8-0.9-1.7-1.7-2.6-2.5c-1.2-1.3-2.6-2.6-4.1-3.5c-0.5-0.3-1-0.7-1.5-1
		s1.5,0.5,0.9,0.6c-1.1,0.3-0.3,0.3-1.3,0c-0.8-0.2-6.1-1.4-6.9-1.4c-0.3,0-0.2-0.1-0.4,0.2c-0.2,0.2-0.2,0.8,0,0.6L1231.3,120.5z"
		/>
	<path class="st24" d="M1247.3,123.2c0.6,0.1,1.3,1,1.7,1.4c0.4,0.5,0.6,1.1,1,1.6c0.1-0.2,0.6-0.4,0.6-0.6c0-0.1-0.2-0.5-0.3-0.6
		c-0.2-0.4-0.5-0.9-0.9-1.2c-0.3-0.3-0.6-0.6-0.9-0.9C1248,122.5,1247.9,123,1247.3,123.2L1247.3,123.2z"/>
	
		<rect x="1218.9" y="202.9" transform="matrix(1.713192e-03 -1 1 1.713192e-03 1004.2762 1447.2062)" class="st25" width="16.1" height="35.5"/>
	<path class="st26" d="M1220.8,228.7c-3.9,0-71.4-0.1-71.4-0.1s0-8.2,0-8.3l0.1-36.1c8.8,0,58.3,0.1,58.3,0.1
		c3.8,7.3,9.1,16.8,12.1,21.6L1220.8,228.7z"/>
	<path class="st27" d="M1162,199.3c-1.3,0-2.6,0.2-3.7,0.6l1.1,19.2c1.2,0.4,0.2,0.9,1.5,0.9c5.8,0,11.6-5.1,11.6-10.6
		C1172.5,203.8,1167.8,199.3,1162,199.3z"/>
	<path class="st15" d="M1195.5,230.2c0,10.1-8.2,18.2-18.4,18.2c-10.1,0-18.3-8.2-18.3-18.3s8.2-18.2,18.4-18.2
		C1187.3,212,1195.5,220.2,1195.5,230.2z"/>
	<path class="st21" d="M1186.8,230.2c0,5.1-4.4,9.3-9.7,9.3c-5.3,0-9.7-4.2-9.7-9.3c0-5.2,4.4-9.3,9.7-9.3
		C1182.5,220.9,1186.8,225.1,1186.8,230.2z"/>
	<path class="st15" d="M1180.2,230.2c0,1.7-1.4,3.1-3.1,3.1s-3.1-1.4-3.1-3.1c0-1.7,1.4-3.1,3.1-3.1
		C1178.8,227.1,1180.3,228.5,1180.2,230.2z"/>
	<path class="st15" d="M1298.2,217.2c0,17.3-14.2,31.4-31.6,31.3c-17.4,0-31.5-14.1-31.5-31.4s14.2-31.4,31.6-31.3
		C1284.1,185.8,1298.2,199.9,1298.2,217.2z"/>
	<path class="st21" d="M1283.3,217.2c0,8.9-7.5,16-16.7,16s-16.6-7.2-16.6-16.1c0-8.9,7.5-16,16.7-16
		C1275.8,201.1,1283.3,208.3,1283.3,217.2z"/>
	<path class="st15" d="M1272,217.1c0,3-2.4,5.3-5.4,5.3s-5.4-2.4-5.4-5.4s2.4-5.3,5.4-5.3C1269.6,211.8,1272,214.2,1272,217.1z"/>
	<path class="st26" d="M1298.5,207.7c0,17.1-1.9-18.1-30.1-18.2c-31.5-0.1-33.3,35.1-33.3,18.1c0-17.1,14.2-30.9,31.8-30.8
		C1284.3,176.8,1298.5,190.7,1298.5,207.7z"/>
	<path class="st26" d="M1215.4,169.9c-0.4-0.3-0.9-0.3-1.1,0.1l-9.7,17.5c0.5,0.3,1,0.7,1.5,1.1l9.7-17.6
		C1216,170.7,1215.8,170.2,1215.4,169.9z"/>
	<path class="st15" d="M1223,174.5c-0.2,0.4-0.7,0.5-1,0.3l-16.4-10.6c-0.3-0.2-0.5-0.7-0.3-1.1l0,0c0.2-0.4,0.7-0.5,1-0.3
		l16.4,10.6C1223,173.6,1223.2,174.1,1223,174.5L1223,174.5z"/>
	<path class="st15" d="M1160.7,209.4c0,5.9,0.8,10.7-0.5,10.7s-4.3-4.8-4.3-10.7s2.1-9.7,3.4-9.7S1160.7,203.5,1160.7,209.4z"/>
	<path class="st28" d="M1157.4,203.3c-1.1,1.2-0.8,4.2-0.8,5.7c0,0.7,0.6,5.7,1.7,4.2c0.4-0.5,0.3-2.4,0.3-3c0-1,0-2.1,0-3.2
		c-0.1-1.2,0.1-3.1-1.2-3.5V203.3z"/>
	
		<rect x="1153.2" y="173.5" transform="matrix(1.713192e-03 -1 1 1.713192e-03 986.8339 1338.6765)" class="st26" width="21.5" height="3.2"/>
	
		<rect x="1184.2" y="184" transform="matrix(1.713192e-03 -1 1 1.713192e-03 988.4099 1393.7689)" class="st25" width="16.2" height="35.7"/>
	<path class="st26" d="M1176.5,207.4c-0.4,0-0.7-0.5-0.6-1.2l0,0c0-0.7,0.3-1.2,0.7-1.2l31.7,0.1c0.4,0,0.7,0.5,0.7,1.2l0,0
		c0,0.7-0.3,1.2-0.7,1.2L1176.5,207.4z"/>
	<path class="st26" d="M1176.5,203c-0.4,0-0.7-0.5-0.6-1.2l0,0c0-0.7,0.3-1.2,0.7-1.2l31.7,0.1c0.4,0,0.7,0.5,0.7,1.2l0,0
		c0,0.7-0.3,1.2-0.7,1.2L1176.5,203z"/>
	<path class="st26" d="M1176.5,198.4c-0.4,0-0.6-0.5-0.6-1.2l0,0c0-0.7,0.3-1.2,0.7-1.2l31.7,0.1c0.4,0,0.7,0.5,0.7,1.2l0,0
		c0,0.7-0.3,1.2-0.7,1.2L1176.5,198.4z"/>
</g>
<g id="Layer_6">
</g>
<g id="guy">
</g>
<g id="tires-b">
</g>
<g id="tire_front">
	<path class="st29" d="M193.4-307.8c-0.1,0.2-0.5,0-1.2-0.4C192.5-308.1,193-308,193.4-307.8z"/>
	<path class="st29" d="M193.4-307.8c-0.1,0.2-0.5,0-1.2-0.4C192.5-308.1,193-308,193.4-307.8z"/>
</g>
</svg>
