<?xml version="1.0" encoding="utf-8"?>
<!-- Generator: Adobe Illustrator 24.0.1, SVG Export Plug-In . SVG Version: 6.00 Build 0)  -->
<svg version="1.0" xmlns="http://www.w3.org/2000/svg" xmlns:xlink="http://www.w3.org/1999/xlink" x="0px" y="0px"
	 viewBox="0 0 1366 768">
<style type="text/css">
	.st0{fill:#7DE9F4;stroke:#000000;stroke-width:0.25;stroke-miterlimit:10;}
	.st1{fill:#FCF0CA;}
	.st2{fill:none;stroke:#000000;stroke-width:0.25;stroke-miterlimit:10;}
	.st3{fill:#A78265;stroke:#000000;stroke-width:0.25;stroke-miterlimit:10;}
	.st4{fill:#A78265;}
	.st5{fill:#5D615E;}
	.st6{fill:#FFFFFF;}
	.st7{fill:#A2BC52;stroke:#000000;stroke-width:0.25;stroke-miterlimit:10;}
	.st8{fill:#60714F;stroke:#000000;stroke-width:0.25;stroke-miterlimit:10;}
	.st9{fill:#97AB99;stroke:#000000;stroke-width:0.25;stroke-miterlimit:10;}
	.st10{fill:#A6B660;}
	.st11{fill:#C4AA8E;}
	.st12{fill:#F6EED7;}
	.st13{fill:#DAC5A4;}
	.st14{fill:#EBDAB0;}
	.st15{fill:#607C48;}
	.st16{fill:#FFFFFF;stroke:#000000;stroke-miterlimit:10;}
	.st17{fill:#96948C;stroke:#000000;stroke-width:0.25;stroke-miterlimit:10;}
	.st18{fill:#FFFFFF;stroke:#000000;stroke-width:0.25;stroke-miterlimit:10;}
	.st19{fill:#889F49;stroke:#000000;stroke-width:0.25;stroke-miterlimit:10;}
	.st20{fill:#BDD777;stroke:#000000;stroke-width:0.25;stroke-miterlimit:10;}
	.st21{fill:#BDD777;}
	.st22{fill:#ABA18D;}
	.st23{opacity:0.86;fill:#ABA18D;}
	.st24{stroke:#000000;stroke-miterlimit:10;}
	.st25{opacity:0.62;stroke:#000000;stroke-miterlimit:10;}
	.st26{fill:#1A2A36;stroke:#000000;stroke-width:0.25;stroke-miterlimit:10;}
	.st27{opacity:0.76;fill:#705849;}
	.st28{fill:#F3A578;stroke:#000000;stroke-width:0.25;stroke-miterlimit:10;}
	.st29{stroke:#000000;stroke-width:0.25;stroke-miterlimit:10;}
	.st30{opacity:0.76;fill:#BEA783;}
	.st31{opacity:0.76;fill:#DBB08A;}
	.st32{fill:#070000;stroke:#000000;stroke-width:0.25;stroke-miterlimit:10;}
	.st33{fill:#9E0A0A;stroke:#000000;stroke-width:0.25;stroke-miterlimit:10;}
	.st34{fill:#606060;}
	.st35{fill:#0A0909;stroke:#000000;stroke-width:0.25;stroke-miterlimit:10;}
	.st36{fill:#840814;stroke:#000000;stroke-width:0.25;stroke-miterlimit:10;}
</style>
<g id="background">
	<rect class="st0" width="1024" height="768"/>
</g>
<g id="house">
	<path class="st1" d="M700.03,370.56c-1.4-27.71-2.8-55.41-4.2-83.12c3.97-3.46,7.94-6.93,11.9-10.39
		c28.14-0.69,56.28-1.38,84.41-2.07c6.87,0.69,13.74,1.38,20.62,2.07c-1.17,29.78-2.33,59.57-3.5,89.35
		c-10.04,1.22-20.43,2.25-31.15,3.04C750.21,371.5,724.07,371.64,700.03,370.56z"/>
	<path class="st2" d="M1138.72,420.94"/>
	<path class="st1" d="M789.84,166.81c77.89,1.25,155.79,2.5,233.68,3.75c0,123.99,0,247.97,0,371.96
		c-5.83-13.33-11.67-26.67-17.5-40c-9.46-6.45-18.91-12.91-28.37-19.36c-13.88-4.11-27.77-8.22-41.65-12.33
		c-32.21-34.81-64.42-69.61-96.63-104.42c-0.23-25.11-0.47-50.22-0.7-75.33c12.37-1.39,24.74-2.77,37.11-4.16
		c1.65-5.5,3.3-11.01,4.95-16.51c2.13-5.23,4.25-10.45,6.38-15.68C854.68,225.42,822.26,196.11,789.84,166.81z"/>
	<rect x="838.01" y="411.54" class="st3" width="185.51" height="17.44"/>
	<polygon class="st3" points="918.03,444.54 1023.64,439.11 1024,443 918.39,448.43 	"/>
	<polygon class="st3" points="918.6,456.3 1019.97,451.09 1019.77,448.94 918.39,454.14 	"/>
	<polygon class="st3" points="920.04,464.09 1021.03,458.9 1021.99,469.18 921,474.36 	"/>
	<path class="st4" d="M869.71,236.53c18.41-0.61,37.41-0.97,56.95-1.04c33.89-0.12,66.23,0.65,96.86,2.08c0,15.47,0,30.94,0,46.41
		c-49.25,0.98-98.49,1.96-147.74,2.94C873.75,270.13,871.73,253.33,869.71,236.53z"/>
	<path class="st5" d="M678.93,371.42c54.03-1.08,108.06-2.15,162.09-3.23c9.02,25.21,18.04,50.41,27.05,75.62
		c-59.28,0.87-118.57,1.73-177.85,2.6C686.46,421.41,682.7,396.42,678.93,371.42z"/>
	<path class="st5" d="M915.69,479.14c7.47-1.87,14.95-3.74,22.42-5.61c-22.35-25.08-44.7-50.17-67.05-75.25
		c-52.17,6.45-104.34,12.9-156.5,19.35c4.36,20.78,8.72,41.55,13.08,62.33C790.32,479.68,853,479.41,915.69,479.14z"/>
	<path class="st1" d="M402.08,377.94c1.83-35.02,3.67-70.04,5.5-105.06c33.31-12.05,59.64-23.56,78.7-32.54
		c9.9-4.66,18.66-9.11,36.2-18c32.13-16.29,42.06-22.18,50.82-27.9c9.72-6.35,16.55-11.53,21.26-15.13
		c17.4-13.28,25.61-21.87,39.21-34.07c8.7-7.81,21.81-19.1,39.32-32.34c25.96,21.74,51.93,43.48,77.89,65.22
		c-38.57,28.75-77.13,57.49-115.7,86.24c6.05,6.11,12.1,12.22,18.15,18.33c3.48,2.56,6.96,5.12,10.43,7.69
		c4.08,3.01,8.17,6.02,12.25,9.02c-2.02,28.21-4.03,56.41-6.05,84.62C580.74,381.98,491.41,379.96,402.08,377.94z"/>
	<path class="st6" d="M419.87,267.09c9.2-3.46,21.1-8.11,34.74-13.93c15.83-6.76,38.65-17.07,64.85-31.09
		c17.99-9.63,37.8-21.13,58.53-34.73c29.24-24.81,58.49-49.63,87.73-74.44c24.04,20.95,48.08,41.91,72.12,62.86
		c-6.77,5.02-13.54,10.04-20.31,15.07c-18.67-16.62-37.34-33.25-56.02-49.87c-32.68,27.71-65.35,55.41-98.03,83.12
		c-24.51,12.99-49.01,25.97-73.52,38.96c-23.53,4.66-47.07,9.33-70.6,13.99C419.54,273.71,419.7,270.4,419.87,267.09z"/>
	<path class="st7" d="M164.93,323.85c10.17-14.74,20.45-26.25,27.46-24.98c13,2.35,10.09,47.82,11.3,47.79
		c0.71-0.02-1.23-15.7,5.97-33.94c3.74-9.47,11.19-22.78,16.34-22.17c0.85,0.1,2.89,0.73,4.43,6.23
		c6.03,21.42,3.63,112.82-1.63,112.21c-5.85-0.68,8.22-112.04,21.01-112.21c2.47-0.03,4.46,4.09,5.83,7.27
		c17.56,40.78,10.25,107.32,6.77,107.02c-4.43-0.39-0.24-108.86,22.41-111.17c8.97-0.92,21.82,14.73,25.21,29.09
		c4.51,19.15-9.31,25.19-11.2,46.75c-2.5,28.44,19.61,39.74,12.6,49.87c-7.24,10.47-42.08,14.65-154.04-7.27
		C159.9,386.85,162.42,355.35,164.93,323.85z"/>
	<path class="st4" d="M2.64,592.65c31.3-2.64,79.92-10.32,127.08-35.07c22.99-12.06,51.58-26.91,50.41-44.42
		c-1.77-26.57-70.93-42.9-75.47-43.94c-10.81-2.47-18.73-3.14-34.58-4.49c-37.69-3.2-61.17-5.2-69.65,7.07
		c-2.98,4.31-1.07,5.99-0.44,36.2c0.4,19.11-0.37,18.64,0,37.02C0.23,556.69,0.87,572.96,2.64,592.65z"/>
	<path class="st8" d="M0.44,6.42c3.33-8.71,6.65-9.37,9.98-3.13c3.33,6.59,6.65,8.46,9.98,3.13c3.33-0.11,6.65,2.88,9.98,3.3
		c3.33,9.34,6.65,2.49,9.98-3.3c3.33-0.02,6.65-3.37,9.98,4.17c3.33-0.56,6.65-9.94,9.98-4.17c1.4,0.94,2.8,1.19,4.2,4.11
		c1.4,7.33,2.8,4.07,4.2,7.27c1.4-5.33,2.8,2.11,4.2,3.86c1.4,5.04,2.8,10.53,4.2,7.52c-1.75,8.83-3.5,6.41-5.25,8.06
		c-1.75,3.12-3.5,5.23-5.25,4.4c-1.75,8.22-3.5,7.53-5.25,8.57c-1.75,9.53-3.5,0.05-5.25,3.9c3.24-8.43,6.48-12.08,9.72-6.64
		c3.24-8.43,6.48-3.82,9.72-3.49c3.24,3.25,6.48-4.4,9.72-2.58c3.24,0.1,6.48-10.8,9.72-7.55c-1.75-6.05-3.5,5.48-5.25,5.14
		c-1.75-8.64-3.5,12.55-5.25,10.45c-1.75,7.94-3.5,10.65-5.25,8.83c-1.75,2.46-3.5,3.3-5.25,6.75c2.54-1.69,5.08-5.49,7.61-9.07
		c2.54-1.76,5.08-6.06,7.61-1.06c2.54,3.02,5.08-12.33,7.61-4.94c2.54,0.44,5.08-4.59,7.61-5.19c-1.62-1.11-3.24-0.4-4.86,5.76
		c-1.62,5.89-3.24,7.56-4.86,10.22c-9.72,15.97-19.43,31.95-29.15,47.92c43.69-49.23,59.42-66.45,59.87-66.24
		c0.93,0.45-66.99,74.93-55.67,81.82c7.35,4.47,45.2-21.34,48.31-18.7c1.48,1.26-6.95,7.28-17.4,17.94
		c-5.23,5.33-10.96,11.82-16.21,19.46c-3.52-1.89-8.16,7.15-11.18,19.39c-3.02-8.47-4.41,14.2-1.42,14.11
		c3.34-3.78,11.39,0.11,20.81-7.98c9.43-6.03,20.23-9,29.08-19.85c8.85-6.13,15.73-10.56,17.32-9.58c1.29,0.79-1.5,4.77-6.69,10.69
		c-5.19,3.24-12.78,6.74-21.1,22.39c-4.16,0.35-8.49,3.45-12.8,8.25c-4.31,4.8-8.58,11.31-12.62,18.45
		c-4.04,1.84-7.83,11.15-11.18,14.15c-3.35-5.83-6.24,0.07-8.48,9.49c-2.24-1.05-3.81,5.6-4.52,9.04c-0.7-1.39-0.54-5.33,0.71,4.16
		c2.01,4.89,7.1,11.68,13.67-0.46c3.28,8.27,6.93,1.71,10.75-2.37c3.82-4.16,7.8-0.87,11.74-6.95c3.94-13.57,7.85-17.88,11.52-8.69
		c3.67,0.21,7.1-13.8,10.09-8.03c2.45-11.71,4.45-3.51,6.13-8.36c1.68,0.03,3.03-8.54,4.18-7.36c1.16-2.86,2.12-6.55,3.02-9.21
		s1.73-4.29,2.62-3.06c1.79-0.8,3.83-7.92,7.16-5.52c4.02,2.52,9.06,2.08,13.33,5.18c4.27,3.5,7.77,8.38,8.73,13.52
		c0.63,3.4,0.05,6.44-1.77,9.64c-1.82,3.33-4.88,3.79-9.21,10.6c-2.17,4.25-4.65,6.44-7.46,6.68c-2.81,1.15-5.94,19.35-9.39,8.02
		c-3.46,18.74-7.24,13.76-11.35,9.87c-4.11-2.46-8.56-0.06-13.34,12.07c-4.69,6.55-11.82,11.7-17.49,16.7
		c-5.67,0.95-9.89,13.83-8.77,11.36c0.97-0.13,5.73,0.11,12.4-5.81c6.66-6.63,15.22-14.8,23.79-15.25
		c8.57-16.01,17.14-0.44,23.81-15.24c6.68-1.27,11.47-2.55,12.47-5.78c0.99,3.86-1.95-5.29-6.86,9.36
		c-4.91,2.91-11.79,17.1-18.69,18.06c-6.9,5.83-13.81,4.88-18.78,17.99c-4.97,6.64-8,0.61-7.14,9.14c0.89-3.97,5.56-5.37,12.17-6.62
		c6.61,9.15,15.16-18,23.82-16.65c8.66,2.46,17.43-8.95,24.47-16.31c7.04-1.06,12.35-8.06,14.11-5.61c1.18,0.04,0.87-2.14-0.76,6.59
		c-1.63,7.87-4.59,18.08-8.73,13.45c-4.14,14.83-9.46,8.04-15.8,17.26c-6.35,6.05-13.72,12.23-21.97,18.03
		c-17.39,12.22-33.89,19.39-42.41,23.86c-4.26,2.23-6.52,3.79-5.9,4.97c0.89,9.3,7.04,1.96,15.91,0.05
		c8.86-5.75,20.44-6.43,32.16-5.64c11.73-2.95,23.6,2.34,33.07-4.79c9.47-0.73,16.53-0.23,18.63,2.59
		c1.93,2.59-0.56,6.19-5.75,12.03c-5.2-0.06-13.1,9.81-22.02,17.5c-8.92,8.75-18.84,4.28-28.07,18.42
		c-9.23,8.69-17.77,11.46-23.91,14.79c-6.14,6.05-9.88,2.29-9.52,6.62c0.42-1.25,6.08-1.7,14.43-6.86
		c8.35-10.57,19.4,0.95,30.59-16.26c11.19-10.48,22.52-12.9,31.45-15.61c8.93-5.55,15.45-13.37,17.01-4.92
		c1.32,7.97-1.06-6.08-5.67,9.28c-4.61,8.48-11.44,1.03-19,17.73c-7.56,9.88-15.86,17.98-23.41,20.57
		c-7.55,1.81-14.35,11.75-18.91,17.8c-4.56,4.85-6.88,8.3-5.48,9.43c1.63,1.31,7.83-0.95,16.35-4.97
		c8.52-12.85,19.37-10.81,30.31-15.53c10.94-12.88,21.98-10.48,30.88-15.22c14.65-7.79,17.21-5,18.05-4.03
		c3.83,4.44-14.47,26.34-26.07,40.22c-9.39,11.24-6.58,6.62-24.17,26.33c-17.11,19.17-21.28,25.24-28.34,24.77
		c-6.93-0.46-11.02-6.85-22.24-6.38c-2.68,0.11-3.52,0.52-7.11,0.54c-7.18,0.04-11.86-1.56-16.15-2.63
		c-3.26-0.81-10.83-1.29-25.98-2.26c-6.52-0.41-13.7-0.87-17.96-0.97c-9.65-0.22-24.79,0.94-45.17,8.43c0-138.8,0-277.6,0-416.4
		c0-4.08,0-8.16,0-12.25s0-8.16,0-12.25c0-1.19,0,0,0-11.08C0.44,15.23,0.44,8.36,0.44,6.42z"/>
	<path class="st9" d="M326.55,421.44c-4.7-1.09-16.65-4.56-23.93-15.38c-9.84-14.63-4.29-32.52-2-39.88
		c8.55-27.55,25.47-26.17,29.71-44.71c7.33-32.05-30.99-61.97-23.11-66.24c4.27-2.31,14.09,7.25,22.06,4.68
		c10.63-3.44,1.57-23.17,9.45-49.87c7.04-23.85,24.44-42.54,30.46-41.3c5.31,1.09,0.84,17.5,8.4,19.48
		c7.92,2.08,20.24-13.96,24.16-12.47c6.32,2.41-20.83,46.03-13.65,49.09c5.87,2.51,32.34-23.14,34.66-21.82
		c2.45,1.4-28.11,29.52-18.91,38.18c4.68,4.4,16.52,0.84,19.96,5.45c4.5,6.04-11.29,18.24-10.5,18.7
		c1.06,0.62,27.8-22.16,28.36-21.82c0.57,0.34-28.6,23.1-22.06,30.39c4.87,5.43,27.47-0.04,28.36,2.34
		c1.02,2.73-29.44,8.43-29.41,16.36c0.03,6.6,21.11,8.9,21.01,14.81c-0.15,8.42-43.18,15.28-43.06,15.58
		c0.11,0.29,38-10.43,44.11-3.9c7.29,7.79-37.52,32.77-29.41,45.98c5.44,8.86,32.26,8.38,51.46,7.01
		c-1.92,5.04-5.49,12.45-12.19,19.41c-1.71,1.78-9.01,9.12-23.08,14.53C409.33,413.01,373.38,419.36,326.55,421.44z"/>
	<path class="st10" d="M0.25,769.93c-0.4-33.18-0.65-66.37-0.76-99.55c-0.08-25.53-0.08-51.06,0-76.6
		c25.78-2.71,46.7-7.01,61.25-10.51c4.59-1.11,53.44-11.74,98.11-43.06c12.19-8.55,20.43-16.18,21.3-26.22
		c0.98-11.26-7.77-20.2-9.47-21.87c-12.75-12.55-29.63-11.12-32.53-17.22c-2.9-6.12,8.8-18.69,73.19-47.03
		c32.31,2.45,64.62,4.91,96.93,7.36c21.71,20.26,43.41,40.52,65.12,60.78c22.5,13.31,45,26.63,67.5,39.94
		c29.66,7.73,59.33,15.45,88.99,23.18c35.24,3.78,71.31,7.18,108.18,10.13c136.77,10.95,265.79,14.25,385.46,12.47
		c0.02,63,0.04,125.99,0.06,188.99C682.47,770.46,341.36,770.2,0.25,769.93z"/>
	<path class="st11" d="M721.04,481.22c29.06-1.56,58.12-3.12,87.17-4.68c38.51,0.19,77.03,0.39,115.54,0.58
		c1.73-0.81,3.69-1.6,5.87-2.31c3.66-1.19,7.03-1.83,9.88-2.17c7.92,0.68,19.71,2.53,32.91,8.05c9.33,3.9,22.57,9.44,34.06,22.96
		c14.15,16.64,16.72,34.89,17.53,41.19c1.28,9.99,0.48,18.42-0.48,24.16c-145.87-4.5-291.75-9-437.62-13.51
		C630.94,530.74,675.99,505.98,721.04,481.22z"/>
	<path class="st12" d="M725.23,559.8c24.97,0.77,49.94,1.54,74.91,2.31c3.27-2.2,6.55-4.41,9.82-6.61c-3.5-8.49-7-16.97-10.5-25.46
		c-20.54-4.85-41.08-9.7-61.62-14.55c-11.34,0.57-16.64,4.44-18.2,5.71c-10.14,8.26-4.2,22.12-2.1,27.01
		C719.79,553.48,722.98,557.4,725.23,559.8z"/>
	<path class="st12" d="M739.94,509.79c0-7.45,0-14.89,0-22.34c15.64-1.21,31.28-2.42,46.91-3.64c4.45-2.28,8.9-4.56,13.35-6.84
		c9.11,0.16,18.21,0.32,27.32,0.47c1.15,8.53,2.3,17.06,3.45,25.59c0.58,1.21,4.43,9.72-2.1,17.66
		c-5.81,7.07-17.49,10.82-29.41,9.35c-11.54-1.37-27.58-4.46-44.11-11.95C749.39,515.4,744.28,512.55,739.94,509.79z"/>
	<path class="st12" d="M830.97,503.03c20.07,0.35,40.14,0.69,60.22,1.04c2.33,5.02,4.67,10.04,7,15.07
		c-5.13,4.16-10.27,8.31-15.4,12.47c-17.97-3.64-35.94-7.27-53.91-10.91c1.13-0.59,5.02-2.77,6.3-6.75
		C837.09,507.98,831.43,503.39,830.97,503.03z"/>
	<path class="st2" d="M994.11,534.2"/>
	<path class="st12" d="M891.18,504.07c6.77-1.04,13.54-2.08,20.31-3.12c10.5-1.04,21.01-2.08,31.51-3.12
		c1.63,3.29,3.27,6.58,4.9,9.87c12.84-0.87,25.67-1.73,38.51-2.6c5.6,5.54,11.2,11.08,16.8,16.62c-6.54,4.33-13.07,8.66-19.61,12.99
		c-11.44-3.64-22.87-7.27-34.31-10.91c-3.27,2.6-6.54,5.19-9.8,7.79c-16.9-1.62-33.8-3.25-50.7-4.87c2.74-3.36,5.49-6.72,8.23-10.08
		C895.08,512.46,893.13,508.27,891.18,504.07z"/>
	<path class="st12" d="M832.37,482.77c8.32-0.88,14.91-2.1,19.61-3.12c4.37-0.95,7.01-1.7,9.11-0.64c3.54,1.77,3.92,6.68,2.79,9.99
		c-2.04,6.02-11.08,13.49-21.01,11.43C834.4,498.68,828.54,490.65,832.37,482.77z"/>
	<path class="st12" d="M917.19,481.64c1.69,6.08,3.39,12.17,5.08,18.25c6.91-0.68,13.82-1.37,20.73-2.05
		c1.63,3.29,3.27,6.58,4.9,9.87c11.67-2.08,23.34-4.16,35.01-6.23c-2.56-6.5-5.11-13-7.67-19.5
		C955.89,481.86,936.54,481.75,917.19,481.64z"/>
	<path class="st13" d="M394.51,459.22c9.96,3.35,19.92,6.7,29.87,10.04c9.8,8.89,19.61,17.78,29.41,26.67
		c23.18-1.96,46.37-3.93,69.55-5.89c20.38,7.04,40.77,14.08,61.15,21.13c12.45-1.62,24.9-3.23,37.34-4.85
		c6.07,3.58,12.14,7.16,18.2,10.74c2.96,1.04,5.91,2.08,8.87,3.12c-21.01,11.78-42.01,23.55-63.02,35.33
		c-31.59-6.35-63.17-12.7-94.76-19.05c-11.51-7.04-23.03-14.08-34.54-21.13c-24.74-8.89-49.48-17.78-74.22-26.67
		C386.42,478.85,390.47,469.04,394.51,459.22z"/>
	<path class="st14" d="M382.38,488.66c-1.71,3.23-3.42,6.46-5.13,9.7c16.34,10.74,32.68,21.47,49.01,32.21
		c12.59,4.64,25.19,9.28,37.78,13.92c21.95,4.89,43.9,9.77,65.84,14.66c29.55,2.84,59.1,5.68,88.65,8.52
		c41.14,2.86,82.27,5.72,123.41,8.58c11.99,0.83,60.44,3.22,124.77,4.84c17.57,0.44,32.39,0.71,43.24,0.88
		c16.06,0.51,32.52,0.81,49.36,0.85c22.06,0.06,43.47-0.33,64.2-1.07c0-4.24,0-8.49,0-12.73c-27.52-0.85-55.04-1.7-82.57-2.55
		c-50.89-1.57-101.78-3.14-152.67-4.71c-67.46-2.08-134.92-4.16-202.38-6.25c-31.59-6.35-63.17-12.7-94.76-19.05
		c-11.51-7.04-23.03-14.08-34.54-21.13C431.86,506.44,407.12,497.55,382.38,488.66z"/>
	<path class="st15" d="M394.69,462.47c5.21,2.15,10.41,4.3,15.62,6.45c2.6,1.08,5.21,4.83,7.81,7.25c1.3,20.24,2.6-4.56,3.91,5.35
		c1.3-7.57,2.6-15.18,3.91-6.15c2.56,15.6,5.13-3.06,7.69,7.91c1.28,14.91,2.56,9.83,3.84,13.86c1.28,0.71,2.56-16.19,3.84-4.64
		c1.28-15.88,2.56-1.11,3.84-3.4c1.28-1.11,2.56,13.13,3.84,12.66c2.56,9.84,5.13-6.34,7.69,7.86c4.04-6.3,8.08-5.65,12.12-3.14
		c4.04,3.33,8.08-20.91,12.12,0.62c2.02-9.41,4.04-1.17,6.06,0.99c2.02-8.14,4.04-3.17,6.06-1.72c4.04,5.44,8.08-9.57,12.12-1.79
		c2.02,1.77,4.04-2.85,6.06,4.9c2.02-10.15,4.04,2.52,6.06-5.3c1.01,9.94,2.02,3.53,3.03,6.09c1.01,1.73,2.02,3.86,3.03-11.53
		c2.02-9.37,4.04-22.14,6.06,3.31c3.55,2.12,7.11,8.88,10.66,4.24c1.78-1.7,3.55-12.64,5.33-7.42c1.78,19.83,3.55,4.2,5.33,12.23
		c3.55,21.99,7.11,5.27,10.66,4.52c1.78-2.61,3.55-1.98,5.33-5.85c1.78-2.62,3.55,6.12,5.33,10.38c3.55,0.72,7.11-0.48,10.66,4.52
		c3.55-0.8,7.11,1.8,10.66,4.52c1.63-7.47,3.25,1.82,4.88,11.41c1.63,1.04,3.25-1.08,4.88-12.56c1.63-4.87,3.25-2.06,4.88-6.12
		c1.63,6,3.25,3.15,4.88,4.16c3.25,13.19,6.51,1.88,9.76,2.77c3.25,5.29,6.51,0.81,9.76-5.89c4.07-5.6,8.14,9.57,12.21,8.06
		c2.03-7.28,4.07,13.28,6.1,5.89c2.03-7.36,4.07,24.46,6.1,2.16c1.51-8.74,3.08-4.43,4.72-10.35c1.63-12.04,3.32-6.36,5.05,4.47
		c1.74-2.95,3.52-2.79,5.34-8.34c1.82,4.26,3.68,9.25,5.58,4.67c3.78-13.89,7.69-0.43,11.65-7.24c0.99-10.8,1.98,1.93,2.98-9.69
		c0.5,14,1,12.16,1.5,10.35c0.5,4.14,1-21.72,1.5-8.55c0.5-2.47,1-0.57,1.5-11.35c0.5,4.17,1-23.48,1.5-1.04
		c0.25-11.5,0.5-23.35,0.75-13.23c0.25,1.98,0.5,7.28,0.75,14.83c0.25,5.47,0.5-0.69,0.75-1.56c0.25,5.21,0.5,8.27,0.75,13.53
		c2,15.6,4,0.91,5.98-1.07c1.99,4.78,3.96,5.12,5.91-7.72c0.98,10.27,1.95-0.41,2.91,0.71c0.96-12.25,1.92-2.74,2.87-0.3
		c0.95-3.96,1.89,8.37,2.83,4.67c0.94,1.11,1.86-17.39,2.78-15.14c1.12,4.74,2.18-21.52,3.19,7.32c0.5-2.14,0.99,1.79,1.47-1.45
		c0.48,3.49,0.94-4.17,1.39-15.66c0.22,0.89,0.45,16.35,0.66,5.48c0.22-3.56,0.43,3.27,0.65-15.49c0.42-9.92,0.84,3.29,1.24-0.69
		c0.8,33.38,1.55,10.33,2.26,8.26c1.42-19.16,2.67,8.45,3.77-0.42c0.28-19.12,0.55,9.61,0.81-9.29c0.07,23.35,0.13,2.94,0.19,6.92
		c0.06,3.09,0.13,14.07,0.19-12.91c0.13-0.43,0.25-14.98,0.37-2.69c0.49,5.28,0.95-18.94,1.39,6.6c0.37,12.15,0.72,7.24,1.04,7.25
		c0.32,12.51,0.62-6.22,0.9-1.69c0.28-9.17,0.53-15.46,0.76-7.51c0.12,16.21,0.23,13.88,0.33,7.89c0.11-1.52,0.21-7.73,0.3-14.03
		c0.19-0.25,0.37,8.85,0.52,8.39c0.08,8.88,0.15,24.81,0.22,4.29c0.07-19.51,0.13-9.61,0.19-13.56c0.24-24.03,0.41,3.44,0.53-10.51
		c0.06,6.06,0.11,2.56,0.14,7.09c0.03-17.23,0.06-7.34,0.07-8.92c0.02,3.99,0-8.63-0.05-10.48c-0.03-15.03-0.06,7.68-0.1-13.29
		c-0.04-2.58-0.08,6.19-0.13,3.89c-0.1,2.84-0.22,7.84-0.34,7.15c-0.95-20.92-1.89,14.84-2.84,8.4c-0.95-4.32-1.89-24.51-2.84-6.87
		c-0.95,3.25-1.89,2-2.84,2.55c-0.47-1.49-0.95-8.22-1.42-12.85c-0.24-0.91-0.47-1.92-0.71-7.78c-0.24-4.05-0.47,7.86-0.71,7.54
		c-0.95,12.43-1.89,0.8-2.84-3.84c-0.95,6.17-1.89-16.97-2.84-8.2c-0.95,0.53-1.89,16.19-2.84,10.54
		c-0.24-13.55-0.47,6.26-0.71,2.58c-0.24-14.18-0.47,4.68-0.71,1.39c-0.12,2.28-0.24-7.13-0.35-4.81c-0.12-6.86-0.24,8.24-0.35,7.21
		c-0.12,0.98-0.24,3.62-0.35,2.96c-0.06-0.33-0.12-1.11-0.18-3.52c-0.06,2.24-0.12,0.79-0.18-13.33c0-9.03,0-13.9,0-1.96
		c0,11.93,0,11.27,0-9.05c0-7.76,0-10.06,0-11.01c-1.69-2.53-3.38,0.35-5.07,6.07c-1.69-1.34-3.38,5.23-5.06-10.49
		c-1.69-4.8-3.38,0.09-5.06-12.21c-1.69-1.73-3.38,3.32-5.06,1.5c-3.38,3.04-6.75,3-10.13-8.18c-1.69-5.31-3.38-12.25-5.06-10.19
		c-1.69,3.5-3.38,7.09-5.06,3.24c-1.69-1.84-3.38,2.87-5.06,4.9c-1.69-5.43-3.38,3.36-5.07-9.87c-3.38-15.81-6.75,0.07-10.13-10.15
		c-1.01,5.51-2.01,32.85-3.02,12.87c-1.01-6.96-2.01,2.99-3.02-0.78c-2.01,1.43-4.03-0.8-6.04-10.51c-2.01-8.13-4.03,4.55-6.04,6.92
		c-2.01-12.01-4.03,5.52-6.04-7.67c-4.03,12.67-8.06,3.67-12.08,1.59c-4.03-0.25-8.06-0.89-12.08-0.75
		c-16.11,0.56-32.22,1.11-48.33,1.67c-3.34-0.22-6.67,0.09-10.01,0.14c-3.34-13.52-6.67-2.11-10.01-1.47
		c-1.67-6.13-3.34-5.59-5,6.38c-1.67-9.91-3.34-3.84-5-6.41c-1.67-2.5-3.34,18.21-5,5.83c-1.67-2.6-3.34,0.1-5-7.13
		c-1.67,0.59-3.34,6.28-5,3.01c-0.83,5.21-1.67,10.09-2.5,8.13c-0.83,8.72-1.67,6.54-2.5-6.89c-3.34-0.12-6.67,11.89-10.01-5.58
		c-3.47,13.56-6.99,11.69-10.56,7.48c-1.78,10.05-3.58,9.21-5.38,9.71c-1.81,6.37-3.63,11.64-5.46-5.18
		c-1.83-3.2-3.67-1.67-5.53-2.38c-1.85,7.74-3.72-0.62-5.6,11.05c-3.76-0.01-7.56,12.95-11.41,3.35c-3.82,2.06-7.61,6.99-11.38,8.16
		c-1.89,7.04-3.77,9.31-5.64,9.63c-1.87-17.92-3.74-11.74-5.6-6.34c-1.86,2.6-3.72,3.11-5.57,11.05c-1.85,3.58-3.69,5.54-5.53-4.14
		c-3.67,5.8-7.32-1.53-10.94,3.67c-2.26,3-4.52,6.01-6.77,9.01c-2.26,3-4.52,6.01-6.77,9.01c-4.52,6.01-9.03,12.01-13.55,18.02
		C391.93,443.94,393.31,453.2,394.69,462.47z"/>
	<path class="st10" d="M288.57,433.74c11.14,0.29,15.81-2,18.02-4.13c4.78-4.59,1.56-11.75,5.19-12.75
		c2.05-0.56,4.22,1.39,6.99,2.78c5.68,2.87,11.92,2.43,29.65,0.23c22.39-2.78,33.58-4.18,36.74-5.27
		c13.25-4.57,21.01-11.17,27.31-8.75c2.16,0.83,3.33,2.41,3.98,3.66c-7.94,8.6-15.88,17.2-23.83,25.8
		c0.63,7.97,1.26,15.93,1.89,23.9c-5.76,13.05-11.51,26.09-17.27,39.14C347.68,476.82,318.13,455.28,288.57,433.74z"/>
	<ellipse class="st12" cx="884.71" cy="547.16" rx="21.18" ry="8.35"/>
	<ellipse class="st12" cx="974.61" cy="547.16" rx="28.6" ry="8.35"/>
	<ellipse class="st12" cx="838.33" cy="542.23" rx="9.47" ry="7.03"/>
	<ellipse class="st12" cx="683.22" cy="539.92" rx="34.31" ry="8.31"/>
	<ellipse class="st12" cx="708.96" cy="511.49" rx="8.58" ry="13.65"/>
	<path class="st6" d="M630.71,258.87c47.15-36.02,94.29-72.04,141.44-108.06c40.61,36.71,81.22,73.42,121.83,110.13
		c0,6.93,0,13.85,0,20.78c-20.33-17.23-40.91-35.23-61.62-54.03c-21.12-19.17-41.18-38.07-60.22-56.63
		c-41.54,35.15-83.09,70.31-124.63,105.46C641.91,270.65,636.31,264.76,630.71,258.87z"/>
	<path class="st16" d="M663.07,372.07c12.32-0.5,24.64-1.01,36.96-1.51c-1.4-27.71-2.8-55.41-4.2-83.12
		c3.97-3.46,7.94-6.93,11.9-10.39c26.37-0.87,52.75-1.73,79.12-2.6c8.64,0.87,17.27,1.73,25.91,2.6
		c-1.17,29.78-2.33,59.57-3.5,89.35c10.04,0,20.07,0,30.11,0c-0.23-25.11-0.47-50.22-0.7-75.33c12.37-1.39,24.74-2.77,37.11-4.16
		c1.65-5.5,3.3-11.01,4.95-16.51c-6.98-6.07-13.96-12.14-20.93-18.21c-62.28,0.93-124.55,1.86-186.83,2.79
		c-8.48,7.18-16.97,14.36-25.45,21.53c7,5.37,14,10.74,21.01,16.1c-0.64,9.35-1.28,18.71-1.93,28.06
		C665.42,337.82,664.24,354.95,663.07,372.07z"/>
	<g>
		<path class="st2" d="M539.7,343.58v0.11h12.34v-0.05C547.93,343.62,543.81,343.6,539.7,343.58z M571.21,288.88v0.1
			c4.13,0.05,8.24,0.09,12.35,0.13v-0.23H571.21z"/>
		<path class="st17" d="M635.55,286.06c-50.34-0.36-100.67-0.7-151-1.06c0.64,22.25,1.28,44.5,1.92,66.75
			c50.32,0.55,100.65,1.11,150.97,1.67C636.81,330.97,636.18,308.52,635.55,286.06z M610.85,343.95c-19.61-0.1-39.2-0.2-58.81-0.32
			v0.05H539.7v-0.11c-10.78-0.06-21.57-0.11-32.35-0.17c-1.26-18.37-2.52-36.75-3.8-55.12c22.56,0.23,45.11,0.47,67.66,0.7v-0.1
			h12.35v0.23c9.1,0.09,18.2,0.19,27.29,0.28V343.95z"/>
		<path class="st3" d="M610.85,289.4v54.55c-19.61-0.1-39.2-0.2-58.81-0.32v-54.75H539.7v54.69c-10.78-0.06-21.57-0.11-32.35-0.17
			c-1.26-18.37-2.52-36.75-3.8-55.12c22.56,0.23,45.11,0.47,67.66,0.7v54.7h12.35v-54.57C592.67,289.21,601.76,289.31,610.85,289.4z
			"/>
		<path class="st18" d="M552.04,288.88v54.75c-4.11-0.02-8.23-0.04-12.34-0.06v-54.69H552.04z"/>
		<path class="st2" d="M552.04,343.64v0.05H539.7v-0.11C543.81,343.6,547.93,343.62,552.04,343.64z"/>
		<path class="st18" d="M583.56,289.12v54.57h-12.35v-54.7C575.34,289.04,579.45,289.08,583.56,289.12z"/>
		<path class="st2" d="M583.56,288.88v0.23c-4.11-0.04-8.23-0.08-12.35-0.13v-0.1H583.56z"/>
	</g>
	<g>
		<path class="st2" d="M886.23,227.24v0.12h7.06v-0.05C890.93,227.29,888.59,227.27,886.23,227.24z M904.28,172.56v0.1
			c2.36,0.05,4.72,0.09,7.08,0.13v-0.23H904.28z"/>
		<path class="st17" d="M941.12,169.73c-28.82-0.35-57.66-0.7-86.48-1.05c0.37,22.24,0.74,44.49,1.1,66.74
			c28.82,0.56,57.65,1.12,86.47,1.67C941.85,214.64,941.49,192.18,941.12,169.73z M926.98,227.63c-11.23-0.1-22.46-0.2-33.69-0.32
			v0.05h-7.06v-0.12c-6.17-0.05-12.35-0.11-18.53-0.17c-0.73-18.36-1.45-36.74-2.18-55.11c12.92,0.23,25.83,0.47,38.75,0.7v-0.1
			h7.08v0.23c5.21,0.09,10.42,0.19,15.63,0.28V227.63z"/>
		<path class="st3" d="M926.98,173.08v54.55c-11.23-0.1-22.46-0.2-33.69-0.32v-54.75h-7.06v54.68c-6.17-0.05-12.35-0.11-18.53-0.17
			c-0.73-18.36-1.45-36.74-2.18-55.11c12.92,0.23,25.83,0.47,38.75,0.7v54.7h7.08v-54.57C916.56,172.88,921.77,172.99,926.98,173.08
			z"/>
		<path class="st18" d="M893.29,172.56v54.75c-2.36-0.02-4.7-0.04-7.06-0.07v-54.68H893.29z"/>
		<path class="st2" d="M893.29,227.31v0.05h-7.06v-0.12C888.59,227.27,890.93,227.29,893.29,227.31z"/>
		<path class="st18" d="M911.35,172.79v54.57h-7.08v-54.7C906.63,172.71,908.99,172.75,911.35,172.79z"/>
		<path class="st2" d="M911.35,172.56v0.23c-2.36-0.04-4.72-0.08-7.08-0.13v-0.1H911.35z"/>
	</g>
	<g>
		<path class="st3" d="M937.38,307.12v0.15c3.22,0.06,6.44,0.12,9.67,0.18v-0.34H937.38z M912.71,386.58h9.67v-0.06
			c-3.22-0.04-6.44-0.07-9.67-0.1V386.58z"/>
		<path class="st17" d="M987.73,303.02c-39.39-0.51-78.78-1.02-118.17-1.53c0.51,32.26,1,64.52,1.51,96.77
			c39.38,0.81,78.76,1.62,118.14,2.42C988.72,368.13,988.22,335.58,987.73,303.02z M968.41,386.98
			c-15.34-0.15-30.69-0.31-46.03-0.46v0.06h-9.67v-0.16c-8.43-0.08-16.87-0.17-25.3-0.25c-0.99-26.63-1.99-53.27-2.98-79.9
			c17.65,0.34,35.29,0.68,52.94,1.02v-0.15h9.67v0.34c7.12,0.13,14.25,0.27,21.36,0.41V386.98z"/>
		<path class="st3" d="M968.41,307.87v79.11c-15.34-0.15-30.69-0.31-46.03-0.46v-79.39h-9.67v79.29c-8.43-0.08-16.87-0.17-25.3-0.25
			c-0.99-26.63-1.99-53.27-2.98-79.9c17.65,0.34,35.29,0.68,52.94,1.02v79.3h9.67v-79.12C954.16,307.59,961.29,307.73,968.41,307.87
			z"/>
		<path class="st18" d="M922.38,307.12v79.39c-3.22-0.04-6.44-0.07-9.67-0.1v-79.29H922.38z"/>
		<path class="st3" d="M922.38,386.52v0.06h-9.67v-0.16C915.93,386.45,919.15,386.48,922.38,386.52z"/>
		<path class="st18" d="M947.04,307.46v79.12h-9.67v-79.3C940.6,307.34,943.82,307.4,947.04,307.46z"/>
		<path class="st3" d="M947.04,307.12v0.34c-3.22-0.06-6.44-0.12-9.67-0.18v-0.15H947.04z"/>
	</g>
	<rect x="708.96" y="290.54" class="st16" width="55.16" height="15.72"/>
	<rect x="737.84" y="306.26" class="st17" width="26.28" height="65.38"/>
	<rect x="709.13" y="307.12" class="st17" width="28.71" height="64.95"/>
	<path class="st2" d="M871.06,398.27c19.31,0.37,38.62,0.75,57.93,1.12c31.51,23.38,63.02,46.75,94.53,70.13
		c0,24.33,0,48.66,0,72.99c-5.83-13.33-11.67-26.67-17.5-40c-11.2-7.27-22.41-14.55-33.61-21.82c-12.14-3.29-24.27-6.58-36.41-9.87
		C914.35,446.64,892.71,422.46,871.06,398.27z"/>
	<path class="st5" d="M914.5,398.61c4.2,0.26,8.4,0.52,12.6,0.78c31.51,23.38,63.02,46.75,94.53,70.13c0,4.42,0,8.83,0,13.25
		C985.92,454.72,950.21,426.67,914.5,398.61z"/>
	<line class="st2" x1="945.8" y1="422.79" x2="940.99" y2="472.75"/>
	<line class="st2" x1="969.95" y1="440.69" x2="962.11" y2="476.97"/>
	<line class="st2" x1="994.11" y1="459.67" x2="989.21" y2="489.64"/>
	<line class="st2" x1="1016.13" y1="476.97" x2="1007.76" y2="497.84"/>
	<path class="st19" d="M714.56,417.62c38.34,4.92,76.67,9.84,115.01,14.76c25.91,9,51.81,18.01,77.72,27.01
		c2.8,6.58,5.6,13.16,8.4,19.74c-35.52-1.97-74.15-2.91-115.49-2.17c-25.35,0.46-49.57,1.51-72.56,2.99
		C723.28,459.18,718.92,438.4,714.56,417.62z"/>
	<path class="st20" d="M715.43,411.6c-0.82-3.4-1.63,0.64-2.45-11.43c-0.82-1.94-1.63,7.22-2.45-11.43c0.44-6.8,0.88,7.26,1.31,9.53
		c0.44-6.8,0.88,12.61,1.31,2.68c0.88-4.33,1.75,7.63,2.63-4.41c1.75,11.82,3.5,9.33,5.25,7.79c-0.06,7.58-0.12,7.98-0.18,0.96
		c-0.06-7.09-0.12-3.59-0.17-12.13c-0.12,0.07-0.23-10.44-0.35-11.17c1.28,11.7,2.57,12.52,3.85,9.09
		c0.64,11.47,1.28,3.25,1.93,10.58c0.64,6.04,1.28,1.9,1.93-1.49c0.82,5.14,1.63-5,2.45-3.63c0.82-7.5,1.63-14.87,2.45-11.96
		c0.82-18.53,1.63,0.5,2.45-8.91c0.2,5.68,0.41,5.86,0.61-0.6c0.2-4.86,0.41-1.84,0.61-8.92c0.41-5.22,0.82-5.2,1.23,2.84
		c0.12,21.98,0.23,8.28,0.35,8.15c0.06-11.29,0.12,3.07,0.18,12.05c0.06-5.8,0.12-5.01,0.18-5.91c0.12,1.06,0.23,8.12,0.35,7.41
		c0.06-2.44,0.12,2.77,0.18,8.95c0.06-1.23,0.12,2.1,0.18-2.08c0.78-3.46,2.42,2.92,4.51-4.58c1.05,6.89,2.2,3.78,3.42-0.88
		c1.21,8.52,2.49-5.46,3.76-4.3c5.1,5.4,10.28-6.96,12.11-6.35c0.45-5.11,0.67-8.58,0.71-5.51c0.04,1.79-0.11,8.99-0.4,7.37
		c-0.29,5.95-0.71,0.32-1.23-2.73c-0.52-0.38-1.13-4.54-1.79,11.42c-1.31-4.8-2.81,5.8-4.11,9.59c-1.31,0.4-2.42-0.33-2.98,2.2
		c3.38,2.64,6.77-1.21,10.15-1.56c3.38,2.85,6.77-2.53,10.15-1.56c-0.58-12.88-1.17,15.8-1.75,10.65c-0.15-0.2-0.29,22.93-0.44,9.47
		c-0.15-4.07-0.29,9.66-0.44,2.55c-0.15-1.47-0.29,12.39-0.44,5.85c-0.15,0.24-0.29-12.42-0.44-7.22c-1.52,8.25-3.03,7.17-4.55,5.35
		c-1.52,0.96-3.03,1.53-4.55-6.66c-1.52-3.57-3.03-2.29-4.55-6.46c-1.52,4.27-3.03,4.91-4.55,4.3c-3.03,12.19-6.07,4.14-9.1-1.19
		c-3.03-13.95-6.07-6.75-9.1-2.27c-3.03-11.26-6.07-0.21-9.1-1.29C721.5,410.45,718.47,407.96,715.43,411.6z"/>
	<path class="st21" d="M855.47,431.86c-8.27-3.96-16-8-23.2-12.05c-3.6-2.02-7.07-4.05-10.4-6.07c-3.34-2.02-6.55-4.03-9.63-6.03
		c-3.08,6.42-6.04,5.13-8.87-4.43c-1.42-6.16-2.8-3.82-4.15,1.65c-1.35,4.45-2.68,9.29-3.97-8.91c-0.14,14.52-0.27-3.19-0.41,5.52
		c-0.07,8.53-0.14,17.81-0.2,2.25c-0.07,1.15-0.14-25.27-0.2-12.56c-0.14-13.82-0.27-8.74-0.41-5.2c-0.07-7.49-0.14-13.08-0.2,0.23
		c-0.07,4.44-0.14,13.17-0.2,12.5c-0.14,11.15-0.27-8.86-0.41,1.52c-0.14-8.01-0.27,11.09-0.41-12.55
		c-0.27-15.37-0.54,3.33-0.82,2.58c-0.27-16.92-0.54,1.22-0.82-1.19c-0.27,0.97-0.54,1.1-0.82-6.78c-0.27-0.29-0.54-2.4-0.82-5.42
		c-0.14-1.42-0.27-4.88-0.41-4.17c-0.14-5.25-0.27,2.34-0.41,9.41c-0.07,9.87-0.14,20.11-0.2,17.14c-0.07-15.54-0.14-0.75-0.2-0.07
		c-0.14,14.23-0.27-2.17-0.41-7.66c-0.14-6.89-0.27,12.75-0.41,6.74c-0.14-1.71-0.27,11.47-0.41-11.19
		c-0.14,1.4-0.27,5.51-0.41,0.84c-0.14,8.74-0.27-8.89-0.41-11.68c-0.14,15.55-0.27,4.99-0.41,7.22c-0.14-4.78-0.27-7.32-0.41-5.64
		c-0.07-4.52-0.14-2.43-0.2-8.76c-0.07-11.34-0.14-14.24-0.2-5.96c-0.14,4.74-0.27-11.99-0.41,4.89c-0.27-14.2-0.54-13.71-0.82,1.76
		c-0.27,1.97-0.54,8.31-0.82-0.93c-0.27-6.01-0.54-1.33-0.82-0.57c-0.54,10.21-1.09,0.88-1.63,3.38c-0.27,2.15-0.54-9.98-0.82-0.69
		c-0.27,4.84-0.54,16.81-0.82-10.63c-0.01,10.42-0.02,15.88-0.03,18.65c-0.01-2.99-0.02,1.67-0.03-5.16
		c-0.02,4.28-0.03-17.62-0.05-3.93c-0.02,10.09-0.03,8.51-0.05,7.36c-0.02-10.19-0.03-10.59-0.05-6.99
		c-0.03-3.91-0.07-10.23-0.1-7.55c-0.03,3.19-0.07,19.29-0.1,10.43c-0.07-9.78-0.14,5.38-0.2,4.12c-0.07-5.6-0.14,4.05-0.2-9.64
		c-0.27-14.28-0.54-5.53-0.82-5.93c-0.14-10.69-0.27-19.8-0.41-9.89c-0.14-11.32-0.27,2.67-0.41-2.89c-0.07,9.36-0.14-5.99-0.2-7.5
		c-0.07-2.25-0.14-2.65-0.2,3.59c-0.14,1.59-0.27,8.51-0.41,9.43c0.7,9.67,1.43,11.34,2.21-8.68c0.39-5.46,0.79-5.25,1.2-3.1
		c0.41,0.18,0.83,15.2,1.25,8.5c0.43,9.98,0.86,9.94,1.31-8.22c0.44,2.28,0.9,13.5,1.36,7.31c0.23,1.24,0.46-8.62,0.7-10.51
		s0.47-0.31,0.71,10.2c0.24,3.48,0.48,8.97,0.72,12.7c0.24-6.15,0.49-16.25,0.73-13.23c0.98-9.24,1.99-8.76,3.03-6.45
		s2.1,6.42,3.18,4.45c0.54-18.66,1.09,2.53,1.64-12.55c0.55,8.18,1.11-0.49,1.67,6.54c1.12,21,2.26,0.04,3.42,6.27
		c0.78,8.14,1.51,5.69,2.21,3.6c0.7-2.09,1.37-3.81,2,5.79c0.64,1.86,1.24,2.69,1.82,4.61c0.58-1.03,1.13-4.07,1.66-7.48
		c1.06-11.46,2.05-14.07,2.98-11c0.93-5.25,1.82,5.83,2.7,10.02c1.76,11.79,3.48,7.62,5.47,5.36c1.99,12.16,4.24-0.78,7.06,0.02
		c0.82,7.78,1.61,21.63,2.36,10.02c0.75,5.52,1.47,16.65,2.17-4.69c1.39-6.75,2.68-0.4,3.91-6.9c0.31,19.29,0.61,29.77,0.91,13.5
		c0.3,4.36,0.6-4.85,0.9-5.65c0.3,0.14,0.59,3.19,0.89,4.31c0.29-7.26,0.59-20.73,0.88-10.48c0.29,13.24,0.58,0.94,0.88-11.2
		c0.29-4.39,0.59-9.72,0.88-2.06c0.59,17.68,1.18,1.23,1.78,8c0.6,15.37,1.21-3.63,1.84,3.23c0.31-9.02,0.63-19.37,0.96-16.29
		c0.32-4.05,0.65-4.29,0.98,16.21c0.67-12.96,1.35-23.53,2.07-11.54c0.72-3.71,1.46,14.47,2.24,2.65c0.78-9.65,1.59-15.76,2.44-6.67
		c0.85,3.84,1.75,8.44,2.68,7.74c0.94-9.51,1.92-4.17,2.96,4.66c1.04-5.1,2.13,22.97,3.27-7.82c1.91,3.15,3.85,8.49,5.78-4.72
		c0.24,4.88,0.48,4.64,0.72-0.59c0.24-5.06,0.48-9.72,0.72,5.43c0.48-23.36,0.96-4.22,1.44-5.62c0.48-18.66,0.96,1.35,1.44-7.81
		c0.24,5.51,0.48,4.07,0.71,3.63c0.24-0.44,0.47,0.12,0.71,9.63c0.47,4.26,0.94,30.11,1.41,17.53c0.47-14.31,0.93,17.95,1.39-7.43
		c0.46,23,0.92,2.01,1.37,12.64c0.45-13.41,0.9,6.98,1.34-20.81c1.77-3.66,3.47-2.8,5.06-0.37c0.2-3.64,0.4-6.33,0.59-10.19
		c0.2-7.64,0.39-7.54,0.58-1.65c0.38-3.84,0.76-3.89,1.13,1.72c0.73-3.79,1.44-2.25,2.1,1.56c1.33-0.75,2.52,0.73,3.52,8.64
		c2.01-8.36,3.3,25.71,3.58,7.23c0.32-15.38-0.66-15.07-2.3,8.35c-0.82,0.4-1.8-22.47-2.86-5.17c-0.53-17.63-1.08-4.08-1.64-9.59
		c-0.56-6.77-1.13-7.15-1.7,15.15c-1.14,20.5-2.27,16.38-3.33,8.2c-1.05-16.18-2.02-9.42-2.82,3.36c-1.6,4-2.54,12.23-2.16-5.25
		c0.24-24.1,0.97-3.6,2.44,6.67c1.46,19.8,3.65-6.04,6.79-5.34c3.14-2.55,7.23-9.75,12.5-1.11c2.64,3.96,5.57,14.95,8.82-1.17
		c3.26-1.61,6.83-3.68,10.76-1.64c3.52,11.88,6.93-11.47,9.73,0.5c1.4-1.03,2.65,2.95,3.68,7.28c1.03-5.39,1.85-5.67,2.38-4.01
		c0.72-5.03,0.98-8.21,0.78-7.53c-0.1,0.34-0.31,1.64-0.64,4.15c-0.33,0.61-0.78,21.27-1.34,11.42c-0.57-8.98-1.25-10.41-2.05,4.77
		c-0.8-12.91-1.72-6.45-2.77,13.22c-1.04,4.9-2.2-20.41-3.49-10.36c-1.28,23.17-2.69,0.75-4.22,0.12
		c3.44-13.03,6.89-14.8,10.33,3.34c1.72,12.74,3.44,15.85,5.17,2.45c1.72-12.38,3.44-25.59,5.17-9.08
		c3.44,20.45,6.89,11.74,10.33,0.42c3.44,13.66,6.89,4.4,10.33-3.7c1.63,1.93,3.27,20.44,4.9,12.12c1.63-20.85,3.27,27.16,4.9,0.09
		c0.82,12.18,1.63,27.7,2.45,8.1c0.82-8.87,1.63-2.86,2.45,3.56c1.63,5.77,3.27-40.97,4.9,0.54c-1.78,10.6-3.56-14.88-5.34,2.47
		c-1.78-9.14-3.56-9.15-5.34,0.99c-1.78-2.79-3.56,28.59-5.34,9.23c-1.78,8.6-3.56-4.67-5.34-1.66c-1.78,2.54-3.56,7.31-5.34-1.74
		c-1.78-8.23-3.56,2.58-5.34,1.48c-1.78-11.6-3.56-13.37-5.34,2.98c-1.78,7.08-3.56,20.51-5.34,8.32c-1.78,12.1-3.56,0.8-5.34,14.66
		c-1.78,16.69-3.56-13.97-5.34-4.52c-3.56,16.85-7.12,14.11-10.68,0.9c-3.56-37.6-7.12,4.74-10.68,5.52
		c-3.56,0.11-7.12,1.68-10.68,5.52c-6.25,8.59-12.73-25.34-19.4-7.49C869.31,456.67,862.45,435.2,855.47,431.86z"/>
	<path class="st5" d="M945.14,473.3c26.13-1.26,52.25-2.52,78.38-3.78c0,23.64,0,47.27,0,70.91c-5.83-12.64-11.67-25.28-17.5-37.92
		c-5.16-5.13-14.23-12.83-28.37-19.36C965.02,477.31,953.16,474.62,945.14,473.3z"/>
	<path class="st3" d="M569.22,219.21c30.77-26.09,61.53-52.18,92.3-78.27c18.67,16.62,37.34,33.25,56.02,49.87
		c-12.78,10.34-25.56,20.67-38.34,31.01C642.54,220.95,605.88,220.08,569.22,219.21z"/>
	<path class="st3" d="M789.84,166.81c-1.73-1.56-3.45-3.12-5.18-4.68c30.61-29.49,61.21-58.97,91.82-88.46
		c36.95,32.01,73.91,64.01,110.86,96.02C921.51,168.73,855.67,167.77,789.84,166.81z"/>
	<path class="st3" d="M672.96,255c33.06-27.97,66.12-55.95,99.19-83.92c29.21,27.04,58.43,54.09,87.64,81.13
		C797.51,253.14,735.24,254.07,672.96,255z"/>
	<path class="st22" d="M434.73,261.35c-2.71-24.64-5.42-49.27-8.13-73.91c38.28,0.43,76.55,0.87,114.83,1.3
		c3.92,4.72,7.85,9.44,11.77,14.17c-10.23,5.93-20.45,11.85-30.68,17.78c-15.17,7.62-30.34,15.24-45.51,22.86
		C462.92,249.48,448.83,255.41,434.73,261.35z"/>
	<path class="st23" d="M538.61,188.71c0.59-7.26,1.18-14.52,1.77-21.79c21.71-1.39,43.41-2.77,65.12-4.16
		c-9.17,8.19-18.34,16.38-27.52,24.57c-8.26,5.19-16.52,10.38-24.78,15.57C548.34,198.17,543.48,193.44,538.61,188.71z"/>
	<path class="st6" d="M772.15,150.81c34.66-30.39,69.32-60.78,103.99-91.17c49.13,36.97,98.25,73.94,147.38,110.91
		c0,7.27,0,14.55,0,21.82c-18.59-11.6-37.87-24.62-57.35-39.22c-36.6-27.42-66.22-54.61-90.03-79.48
		c-59.32,56.67-90.34,86.22-91.15,86.82l0,0c-0.85,0.64-1.14,0.93-1.06,1.01C780,157.94,776.08,154.37,772.15,150.81z"/>
	<path class="st21" d="M935.58,209.77c-1.03-1.49-2.97,6.09-4.5,6.26c-1.53,10.9-2.67,5.14-2.08,11.12c0.35-3.93,1.26-2.26,2.66,1.3
		c0.7-0.24,1.53,5.23,2.47,9.61c0.94-2.04,1.99,19.62,3.15,2.99c2.32-8.38,5.05-7.5,8.13-3.23c1.54,18.17,3.16-3.22,4.87,3.96
		c1.7,6.74,3.48,17.89,5.33,8.24c-0.54-1.94-1.33-13.64-2.36,7.66c-1.03,33.52-2.29-3.51-3.76-2.28c-1.47-2.6-3.15-10.04-5.01-5.38
		c-1.86,9.73-3.9-14.02-6.1-4.3c-2.2-5.17-4.55,5.48-7.03-1.31c-2.48-6.77-5.1-5.75-7.81-6.01c-5.44-10.15-11.29-7.91-17.35,8.78
		c-4.03-8.77-7.64-5.2-10.86,4.46c-3.21,8.89-6.03-6.65-8.46,3.5c-4.86-7.17-8.18-11.74-10.09,7.63c3.15,3.2,6.3,1.09,9.45-0.09
		s6.3-1.41,9.45,5.54c3.15-6.4,6.3,23.15,9.45,3.93c3.15,28.92,6.3-23.54,9.45,1.52c-0.06,3.04-0.2-7.59-0.38-0.2
		c-0.17-15.82-0.38,27.57-0.58,9.06c-0.2-17.73-0.39,23.25-0.53,9.33c-0.14,25.5-0.23-1.07-0.23-2.27c0,25.32-0.15,3.72-0.38,0.4
		c-0.23,6.21-0.53,16.57-0.84,10.9c-0.31,2.68-0.62-12.84-0.85,3.91c-0.24-18.92-0.4,24.83-0.42,7.83c2.8-9.33,5.6,8.38,8.4-6.36
		c2.8-7.72,5.6-0.43,8.4-2.21c2.8,13.5,5.6,22.31,8.4,0.52c2.8-10.74,5.6,5.81,8.4-9.09c4.24-14.82,8.47,10.96,12.71-2.82
		c4.24-7.05,8.47,11.79,12.71,1.12c4.24,15.29,8.47,20.77,12.71-0.85c4.24-3.89,8.47,17.27,12.71-0.85
		c4.78-25.05,9.57-15.45,14.35-6.36c4.78-13.37,9.57,5.89,14.35-6.36c0,1.37,0-4.9,0-9.87c0-3.65,0-6.14,0-9.87
		c-0.03-5.71-0.06-11.42-0.09-17.13c-0.03-5.71-0.06-11.42-0.09-17.13c-7.55,0.13-15.11-0.72-22.66,0.38
		c-7.55,7.95-15.11-6.03-22.66,0.38c-7.07,1.58-14.14-11.93-21.21-8.17C949.72,221.86,942.65,226.05,935.58,209.77z"/>
	<path class="st24" d="M928.26,587.26"/>
	<path class="st25" d="M107.76,470.05c3.05-4.34,33.17-45.73,83.66-45.41c27.96,0.18,48.24,13.06,56.49,19.03
		c9.12,16.81,18.23,33.62,27.35,50.43c-32.03,3.83-64.06,7.66-96.09,11.49C155.37,493.74,131.57,481.89,107.76,470.05z"/>
	<path class="st4" d="M-45.25,322.3"/>
	<path class="st11" d="M1249.53,573.11"/>
</g>
<g id="body">
	<path class="st26" d="M54.99,536.76c-0.06,9.49-0.88,17.86-1.91,24.73c-0.2,1.33-0.4,2.61-0.61,3.83c-2.91-2.8-5.83-5.6-8.75-8.4
		c-7.56-0.42-15.13-0.83-22.7-1.24c-1.01,2.07-2.01,4.15-3.02,6.22c-2.22-2.75-4.44-5.5-6.67-8.25c1.92-8.05,3.1-14.99,3.85-20.22
		c0.94-6.57,1.48-12.77,1.77-16.02c1.02-11.51,0.54-11.86,1.46-16.72c0.87-4.59,2.07-8.37,3.14-11.19c0.74-1.96,1.41-3.45,1.86-4.44
		c2.31-5.09,4.56-8.27,5.15-9.1c1.93-2.67,3.77-4.61,5.23-5.95c2.17,0.46,5.87,1.75,9.06,5.99c0.01,0.01,0.02,0.03,0.03,0.04
		c1.07,1.43,1.9,2.96,2.55,4.44c1.02,2.31,1.6,4.54,2.03,6.21c4.23,16.6,6.34,24.89,7.19,38.27C54.91,529.06,55.02,533,54.99,536.76
		z"/>
	<path class="st27" d="M56.53,444.72c-0.1,1.01-0.21,2.02-0.31,3.03c-1.98-1.52-3.96-3.03-5.94-4.55c-0.01,0.01-0.03,0.03-0.05,0.05
		c-0.04,0.05-0.09,0.1-0.15,0.17c-0.03,0.03-0.06,0.07-0.1,0.11c-0.06,0.07-0.13,0.15-0.21,0.23c-0.33,0.37-0.74,0.81-0.95,1.04
		c-0.05,0.06-0.09,0.1-0.12,0.13c-0.26,0.29-0.51,0.56-0.75,0.82c-0.16,0.17-0.31,0.34-0.46,0.5c-0.52,0.57-0.98,1.06-1.38,1.5
		c-0.11,0.12-0.22,0.24-0.33,0.36c-0.1,0.11-0.2,0.22-0.31,0.33c-0.16,0.17-0.31,0.33-0.44,0.48c-0.04,0.04-0.07,0.08-0.11,0.12
		c-0.1,0.12-0.21,0.23-0.32,0.34c-0.13,0.15-0.27,0.3-0.4,0.44c-0.22,0.24-0.44,0.48-0.66,0.72h0c-0.01,0.01-0.02,0.02-0.02,0.03
		c-0.16,0.17-0.32,0.34-0.47,0.51c-0.01,0.01-0.02,0.02-0.03,0.04c-0.38,0.52-0.76,1.06-1.16,1.65c-1.48,2.18-3.07,4.85-4.62,8.03
		c-0.06,0.13-0.13,0.27-0.19,0.4c-0.36,0.76-0.7,1.49-1.02,2.21c-0.16,0.36-0.31,0.71-0.45,1.06c-0.02,0.04-0.03,0.07-0.05,0.11
		c-0.13,0.31-0.25,0.62-0.37,0.91c-0.07,0.16-0.13,0.33-0.2,0.49c-0.06,0.16-0.12,0.31-0.18,0.47c-0.37,0.96-0.7,1.85-0.98,2.64
		c0.21-4.1,0.01-7.39-0.24-9.68c-0.43-4.04-1.05-5.82-0.78-9.33c0.1-1.35,0.31-3.8,1.41-6.3c1.41-3.22,3.44-4.55,4.37-5.14
		c3.17-2,6.09-1.19,8.36-0.58C51.35,439.26,54.6,442.4,56.53,444.72z"/>
	<path class="st28" d="M55.83,454.28c-0.02,0.79-0.06,1.54-0.11,2.26c-1.37-0.21-2.74-0.42-4.11-0.62
		c-0.36-0.39-0.73-0.78-1.09-1.17c-2.32-1.4-4.65-2.8-6.97-4.2c0.64-0.7,1.28-1.4,1.93-2.11c0.1-0.11,0.2-0.22,0.31-0.33
		c0.11-0.12,0.22-0.24,0.33-0.36c0.4-0.44,0.86-0.94,1.38-1.5c0.15-0.16,0.3-0.33,0.46-0.5c0.24-0.26,0.49-0.53,0.75-0.82
		c0.02-0.03,0.06-0.07,0.12-0.13c0.21-0.23,0.62-0.67,0.95-1.04c0.07-0.08,0.14-0.16,0.21-0.23c0.04-0.04,0.07-0.08,0.1-0.11
		c0.06-0.07,0.11-0.12,0.15-0.17c0.02-0.02,0.03-0.04,0.05-0.05c1.74,1.44,3.49,2.88,5.23,4.32
		C55.85,450.33,55.88,452.64,55.83,454.28z"/>
	<path class="st28" d="M57.31,465.01c-0.16,0.19-0.43-0.05-1.02-0.29c-0.42-0.17-0.77-0.25-1.02-0.29
		c-0.16,1.44-0.31,2.88-0.47,4.31c-0.53,0.1-0.91,0.17-1.18,0.22c-0.01,0-0.02,0-0.03,0c-0.03,0-0.08,0.01-0.15,0.03
		c-0.05,0.01-0.09,0.01-0.13,0.02c-0.05,0.01-0.09,0.02-0.13,0.03l-0.05,0.01c0,0-0.01,0-0.01,0c-0.02,0-0.05,0.01-0.07,0.01
		c-0.02,0-0.03,0-0.05,0.01c-0.01,0-0.02,0-0.03,0l-0.05,0.01c0.36,0.39,0.73,0.78,1.1,1.17c0.21,4.11-0.36,5.48-0.94,5.95
		c-1.17,0.96-3.07-1.17-3.83,0c-0.29,0.45-0.28,1.17-0.23,1.64c-1.2,0.57-2.4,1.14-3.59,1.72c-0.65-1.49-1.48-3.01-2.55-4.44
		c-0.01-0.01-0.02-0.03-0.03-0.04c-0.59-0.84-1.31-1.74-2.16-2.6c-1.52-1.54-2.97-2.47-4.09-3.03c-0.94-0.12-1.88-0.23-2.81-0.35
		c0.28-0.8,0.6-1.68,0.98-2.64c0.06-0.16,0.12-0.31,0.18-0.47c0.06-0.16,0.13-0.33,0.2-0.49c0.12-0.3,0.24-0.6,0.37-0.91
		c0.02-0.03,0.03-0.07,0.05-0.11c0.14-0.34,0.3-0.7,0.45-1.06c0.32-0.72,0.65-1.45,1.02-2.21c0.06-0.13,0.13-0.27,0.19-0.4
		c1.55-3.18,3.14-5.84,4.62-8.03c2.99,1.51,5.98,3.02,8.97,4.53c0.1,0.82,0.21,1.64,0.31,2.45c1.07,0.66,2.14,1.33,3.2,1.98
		c0.43-0.53,0.85-1.07,1.28-1.61c0.12,0.98,0.38,1.59,0.6,1.96c0.43,0.74,0.87,0.86,1.09,1.69
		C57.41,464.17,57.49,464.8,57.31,465.01z"/>
	<path class="st2" d="M177.61,389.18c-0.13,0.15-0.27,0.3-0.4,0.44C177.33,389.49,177.46,389.34,177.61,389.18z"/>
	<path class="st2" d="M45.44,479.57c-0.1,0.05-0.21,0.1-0.31,0.15c-0.57-1.27-1.14-2.54-1.72-3.81c-0.16-0.25-0.33-0.51-0.52-0.78
		C43.96,476.56,44.79,478.08,45.44,479.57z"/>
	<path class="st2" d="M55.62,460.13L55.62,460.13c-0.43,0.54-0.85,1.08-1.28,1.61c-1.07-0.66-2.14-1.32-3.2-1.98
		c-0.1-0.81-0.21-1.63-0.31-2.45c-2.99-1.51-5.98-3.02-8.97-4.53c-1.48,2.18-3.07,4.85-4.62,8.03c1.63-3.41,3.2-6.59,5.78-9.68
		c0.01-0.01,0.02-0.03,0.03-0.04c0.06-0.07,0.13-0.15,0.5-0.54c0.16-0.17,0.37-0.41,0.66-0.72c-0.22,0.24-0.44,0.48-0.66,0.72
		c2.32,1.4,4.64,2.8,6.97,4.2c0.36,0.39,0.73,0.78,1.09,1.17c1.37,0.21,2.74,0.42,4.11,0.62C55.64,457.93,55.55,459.15,55.62,460.13
		z"/>
	<path class="st29" d="M55.72,456.54c-0.03,1.2-0.07,2.39-0.1,3.6v0c-0.43,0.53-0.85,1.07-1.28,1.61c-1.07-0.66-2.14-1.32-3.2-1.98
		c-0.1-0.81-0.21-1.63-0.31-2.45c-2.99-1.51-5.98-3.02-8.97-4.53c0.55-0.74,1.11-1.47,1.66-2.2c0.01-0.01,0.02-0.02,0.02-0.03h0
		c2.32,1.4,4.64,2.8,6.97,4.2c0.36,0.39,0.73,0.78,1.09,1.17C52.98,456.12,54.35,456.33,55.72,456.54z"/>
	<path class="st2" d="M44.11,454.52c-0.26-0.03-2.08-0.17-2.81,1.4c-0.83,1.78-0.17,5.55,2.34,7.93"/>
	<path class="st2" d="M42.47,456.5c0.42,0.12,0.83,0.23,1.25,0.35c0,0.58,0,1.17,0,1.75c-0.39,0.31-0.78,0.62-1.17,0.93"/>
	<path class="st2" d="M43.49,460.35c0.4,0.3,0.67,0.74,0.62,1.05c-0.05,0.36-0.56,0.68-1.25,0.47"/>
	<path class="st2" d="M53.24,476.34c0.16,0.23,0.32,0.45,0.48,0.68"/>
	<path class="st2" d="M53.02,476.56c0.04,0.59,0.08,1.17,0.12,1.76"/>
	<path class="st2" d="M52.78,476.92c0.03,0.16,0.05,0.31,0.08,0.47"/>
	<path class="st2" d="M52.47,476.68c0,0.31,0,0.62,0,0.93"/>
	<path class="st2" d="M52,476.56c-0.03,0.64,0.06,1.29,0.25,1.86"/>
	<path class="st2" d="M53.43,475.86c0.05,0.62,0.1,1.25,0.15,1.87"/>
	<path class="st2" d="M53.41,475.98c0,0.82,0,1.63,0,2.45"/>
	<path class="st2" d="M51.9,476.84c0.45,0.43,0.85,1,1.15,1.67"/>
	<path class="st2" d="M51.55,477.03c0.12,1.06,0.68,1.99,1.38,2.25"/>
	<path class="st2" d="M53.72,475.63c-0.01,1.06-0.11,2.13-0.29,3.16"/>
	<path class="st2" d="M53.95,475.05c0,0.89,0,1.79,0,2.68"/>
	<path class="st2" d="M52.1,477.81c0.48,0.64,0.97,1.28,1.45,1.92"/>
	<path class="st2" d="M54.51,475.87c-0.41,1.12-0.76,2.28-1.04,3.48"/>
	<path class="st2" d="M53.8,474.93c0.28,0.52,0.49,1.11,0.63,1.74"/>
	<path class="st26" d="M21.56,489.05c3.8,11.74,7.59,23.48,11.39,35.22c2.78,7.6,6.74,16.62,12.34,25.67
		c2.87,4.64,5.74,8.58,8.43,11.9c0.68-1.87,1.35-3.73,2.03-5.6c0.21,0.49,1.32,2.99,3.12,3.27c2.17,0.33,4.63-2.67,5.15-7.47
		c-0.78-1.24-1.56-2.49-2.34-3.73c0-2.26,0-4.51,0-6.77c-3.57-2.02-8.6-5.83-12.18-13.3c-5.29-11.02-3.01-20.81-7.65-33.6
		c-1.97-5.43-5.67-12.71-13.28-19.13C26.24,480.02,23.9,484.53,21.56,489.05z"/>
	<path class="st28" d="M64.03,552.03c0.49,1.01,1.34,2.44,2.66,3.28c1.93,1.23,3.03,0.02,5.15,0.93c0.42,0.18,3.17,1.36,4.11,4.82
		c1.09,3.99-0.64,9.48-2.39,9.88c-1.63,0.37-2.52-3.79-5.62-4.43c-1.09-0.23-2,0.07-2.55,0.3c-1.52-2.62-3.05-5.24-4.57-7.86
		c0.56-0.47,1.74-1.61,2.53-3.81C63.78,553.96,63.95,552.83,64.03,552.03z"/>
	<path class="st30" d="M18.61,560.65c2.33,20.15,4.66,40.3,6.99,60.46c0.23,0.96,0.52,2.64,0.31,4.67c-0.46,4.36-2.88,6.63-3.28,7
		c-2.86,12.75-5.73,25.51-8.59,38.26c0.05,2.96,0.1,5.91,0.16,8.87c-1,1.72-2.92,5.52-3.75,11.2c-0.81,5.53-0.17,10.06,0.23,12.25
		c7.58-2.68,15.15-5.37,22.73-8.05c-0.7-2.45-1.41-4.9-2.11-7.35c1.64-3.5,3.28-7,4.92-10.5c0.97-11.2,2.06-22.64,3.28-34.3
		c1.46-13.92,3.03-27.45,4.69-40.6c1.09-6.53,2.19-13.07,3.28-19.6c1.02-1.4,2.03-2.8,3.05-4.2c0.21-4.9,0.42-9.81,0.62-14.71
		c-2.47-2.38-4.95-4.75-7.42-7.13c-7.57-0.89-15.15-1.77-22.72-2.66C20.2,556.39,19.41,558.52,18.61,560.65z"/>
	<path class="st29" d="M32.01,696c3.08-0.16,7.96,0.23,8.16,2.05c0.17,1.56-3.15,3.56-3.71,3.9c-3.03,1.83-5.65,1.81-8.2,1.75
		c-7.43-0.17-11.14-0.26-11.22-0.93C16.81,700.89,24.32,696.41,32.01,696z"/>
	<polygon class="st31" points="38.6,641.17 45.29,643.49 54.54,584 47.85,581.68 	"/>
	<path class="st28" d="M36.62,469.45"/>
</g>
<g id="mower">
	<path class="st32" d="M100.68,609.13c-0.57,0.68-1.3-0.2-1.93,0.47c-0.71,0.75-0.57,2.73-0.52,3.46c0.15,2.42,0.15,6.06-0.31,11.9
		c-0.16,2.49-0.32,4.98-0.47,7.47c0.24,2.6,0.47,5.21,0.7,7.81c0.12,0.27,0.49,1.18,0.81,2.52c0.02,0.05,0.03,0.11,0.04,0.18
		c0.28,1.2,0.5,2.7,0.47,4.4c0,0.11-0.01,0.23-0.01,0.35c-0.01,0.14-0.02,0.27-0.02,0.41c-0.02,0.25-0.04,0.51-0.07,0.76
		c-0.01,0.12-0.03,0.24-0.05,0.37c-0.02,0.12-0.03,0.23-0.05,0.35c-0.02,0.11-0.04,0.23-0.06,0.33c-0.02,0.1-0.04,0.2-0.06,0.31
		c-0.04,0.18-0.07,0.35-0.11,0.52c-0.01,0.05-0.02,0.1-0.03,0.14c-0.02,0.09-0.04,0.17-0.06,0.25c-0.07,0.27-0.17,0.59-0.28,0.96
		c-0.02,0.07-0.05,0.15-0.07,0.21c-0.01,0.04-0.02,0.07-0.04,0.11c-0.59,1.7-1.66,3.96-3.4,4.72c-2.61,1.15-4.39-2.12-5.73-0.93
		c-0.28,0.24-0.53,0.67-0.7,1.43c-0.29,1.24-0.36,3.34,0.04,6.94c0.15,1.35,0.37,2.91,0.67,4.7c-8.63-0.14-17.25-0.27-25.87-0.41
		c2.29-3.55,4.58-7.09,6.87-10.63c-0.21-4.35-0.42-8.71-0.62-13.06c-1.98-3.66-3.96-7.31-5.93-10.97c-2.79-1.47-5.57-2.94-8.36-4.41
		c-0.81-6.75-1.61-13.49-2.42-20.24c-0.4-2.83-0.8-5.66-1.2-8.49c1.23-6.09,2.47-12.18,3.7-18.26c1.43-0.42,2.85-0.83,4.27-1.25
		c1.49-0.83,2.99-1.66,4.48-2.49c0.51-4.14,1.03-8.27,1.55-12.41c0.58-0.16,1.77-0.37,3.15,0.3c1.73,0.84,2.72,2.55,3.08,3.25
		c-0.65,4.25-1.3,8.5-1.95,12.75c0.28,0.49,0.55,0.99,0.83,1.48c0,0.02,0,0.04,0,0.06c0.38,0.68,0.76,1.35,1.14,2.02
		c0-0.01,0.01-0.02,0.01-0.03c3.28,5.85,6.56,11.72,9.84,17.57c5.74,0.13,11.48,0.26,17.22,0.38c0.21-0.03,0.81-0.08,1.3,0.5
		C101.41,605.98,101.33,608.35,100.68,609.13z"/>
	<path class="st33" d="M66.84,657.97c-2.22,3.61-4.44,7.21-6.67,10.81c-1.15-9.67-2.31-19.34-3.47-29.01
		c-0.09-0.74-0.18-1.48-0.27-2.22c1.02-0.04,2.04-0.07,3.06-0.11c2.29,3.66,4.58,7.31,6.87,10.97
		C66.53,651.59,66.68,654.78,66.84,657.97z"/>
	<path class="st2" d="M72.16,586.47c-0.01,0.01-0.01,0.02-0.01,0.03c-0.38-0.68-0.76-1.35-1.14-2.02c0-0.02,0-0.04,0-0.06
		C71.4,585.1,71.78,585.78,72.16,586.47z"/>
	<path class="st33" d="M76.32,579.19c-0.1,0.72-0.21,1.45-0.31,2.17c-0.66,0.11-1.32,0.21-1.98,0.31c-0.62,1.6-1.24,3.2-1.86,4.8
		c-0.01,0.01-0.01,0.02-0.01,0.03c-0.38-0.68-0.76-1.35-1.14-2.02c0-0.02,0-0.04,0-0.06c0.12-3.52,0.8-4.86,1.45-5.38
		C73.77,577.99,76.23,579.17,76.32,579.19z"/>
	<path class="st2" d="M74.34,590.23c1.24-0.42,2.24-0.81,2.92-1.09c1.24-0.52,2.02-0.9,3.12-0.78c0.08,0.01,1.43,0.17,1.46,0.62
		c0.03,0.49-1.52,0.84-3.96,2.18c-0.99,0.54-1.78,1.05-2.29,1.4C75.17,591.79,74.75,591.01,74.34,590.23z"/>
	<path class="st32" d="M77.88,596.14c1.04-1.14,2.08-2.28,3.12-3.42c4.37-0.57,8.75-1.14,13.12-1.71c0.66-0.85,2.36-2.8,4.89-3.27
		c1.8-0.33,3.26,0.22,4.06,0.62c-0.03,2.49-0.07,4.98-0.1,7.47c-3.12-0.05-6.25-0.1-9.37-0.16c-3.96,0.31-7.91,0.62-11.87,0.93
		c-0.66,1.09-1.32,2.18-1.98,3.27C79.13,598.63,78.5,597.39,77.88,596.14z"/>
	<path class="st32" d="M60.28,673.92c-1.86,1.93-4.45,5.1-6.77,9.95c-3.27,6.85-4.37,13.62-4.79,17.42
		c-2.15-2.12-4.3-4.25-6.45-6.38c0.29-1.96,0.76-4.67,1.56-7.78c0.92-3.57,2.07-6.9,2.81-8.55c3.46-7.74,11.53-9.44,13.53-9.8
		C60.21,670.5,60.25,672.2,60.28,673.92z"/>
	<path class="st32" d="M48.72,701.29c-1.4,2.9-2.81,5.81-4.21,8.71c-12.39,0.7-24.78,1.4-37.17,2.1c0.52-2.72,1.04-5.45,1.56-8.17
		c5.42-0.11,10.83-0.21,16.25-0.31c2.98-0.19,5.96-0.37,8.94-0.56c1.9-1.28,3.8-2.57,5.7-3.85c0.83-1.43,1.65-2.86,2.48-4.3
		C44.42,697.04,46.57,699.17,48.72,701.29z"/>
	<path class="st32" d="M56.71,639.77c-0.85-0.65-2.59-1.76-4.86-1.63c-3.44,0.21-5.71,3.12-6.34,4c0.68-4.34,1.35-8.68,2.02-13.01
		c2.66,0.21,5.32,0.42,7.99,0.63c0.31,2.6,0.62,5.19,0.93,7.79C56.53,638.29,56.62,639.03,56.71,639.77z"/>
	<path class="st32" d="M70.43,658.2c-2.29,3.54-4.58,7.09-6.87,10.63c-1.13-0.02-2.26-0.04-3.39-0.05
		c2.22-3.61,4.44-7.21,6.67-10.81c-0.16-3.19-0.31-6.38-0.47-9.56c-2.29-3.66-4.58-7.31-6.87-10.97c-1.02,0.03-2.04,0.07-3.06,0.11
		c-0.31-2.6-0.62-5.19-0.93-7.79c2.79,1.47,5.57,2.94,8.36,4.41c1.98,3.66,3.95,7.31,5.93,10.97
		C70.02,649.5,70.22,653.85,70.43,658.2z"/>
	<path class="st2" d="M63.56,668.84c-1.09,1.69-2.19,3.39-3.28,5.08c-0.03-1.71-0.07-3.42-0.1-5.14
		C61.3,668.8,62.43,668.82,63.56,668.84z"/>
	<path class="st32" d="M162.27,659.37c-0.31,6.22-0.62,12.44-0.94,18.67h-10.78v-27.3c-7.5-0.31-14.99-0.62-22.49-0.93
		c-0.1,9.41-0.21,18.82-0.31,28.23h-5.15c-0.59-0.51-1.19-1.02-1.78-1.54c0.07-0.27,0.15-0.53,0.22-0.8v-8.4
		c-2.19-2.8-4.37-5.6-6.56-8.4c-2.81,0.23-5.62,0.47-8.43,0.7c-2.23,1.11-4.45,2.21-6.68,3.32c-0.27-3.51-0.54-7.03-0.8-10.54
		c0.01-0.04,0.02-0.07,0.04-0.11c0.02-0.06,0.05-0.14,0.07-0.21c0.09-0.27,0.19-0.59,0.28-0.96c0.02-0.08,0.04-0.16,0.06-0.25
		c0.01-0.05,0.02-0.09,0.03-0.14c0.04-0.16,0.08-0.33,0.11-0.52c0.02-0.11,0.04-0.21,0.06-0.31c0.02-0.11,0.04-0.22,0.06-0.33
		c0.02-0.12,0.04-0.23,0.05-0.35c0.02-0.12,0.03-0.25,0.05-0.37c0.03-0.26,0.06-0.51,0.07-0.76c0.01-0.13,0.02-0.27,0.02-0.41
		c0.01-0.12,0.01-0.23,0.01-0.35c0.05-1.94-0.24-3.48-0.47-4.4c-0.01-0.06-0.03-0.12-0.04-0.18c0.6-0.99,1.64-2.49,3.17-3.69
		c1.87-1.46,3.55-1.74,4.37-1.87c15.87-2.43,17.15-0.83,17.65,0.47c0.33,0.85,0.63,2.38,0,5.13c0.78-0.16,1.56-0.31,2.34-0.47
		c1.56-1.24,3.13-2.49,4.69-3.73c2.24,0.39,4.48,0.78,6.72,1.17c1.67,0.08,3.33,0.16,5,0.23c0.57,1.4,1.14,2.8,1.72,4.2
		c0.73-0.62,1.46-1.24,2.19-1.86c4.11-0.08,8.22-0.16,12.34-0.23c0.16,4.2,0.31,8.4,0.47,12.6
		C160.5,656.26,161.39,657.82,162.27,659.37z"/>
	<path class="st2" d="M117.99,670.1c-0.39,0.99-0.77,1.98-1.16,2.97c-0.79-0.68-1.57-1.35-2.36-2.03c-3.07-0.1-6.15-0.2-9.22-0.3
		c-1.77-0.05-3.54-0.11-5.31-0.17c-0.01-0.11-0.02-0.22-0.02-0.33c0.71,0.07,1.42,0.13,2.14,0.2h0
		C107.38,670.33,112.68,670.22,117.99,670.1z"/>
	<path class="st33" d="M150.56,650.74v27.3h-22.8c0.1-9.41,0.21-18.82,0.31-28.23C135.56,650.12,143.06,650.43,150.56,650.74z"/>
	<path class="st33" d="M116.83,673.07c-1.25,3.22-2.51,6.42-3.76,9.64c-1.36,1.78-2.71,3.55-4.06,5.33
		c-4.27-3.87-8.54-7.75-12.81-11.63c-2.26-2.39-4.51-4.77-6.77-7.16c1.4,0.13,2.81,0.27,4.21,0.4c2.09,0.2,4.19,0.4,6.28,0.59
		c0.01,0.11,0.02,0.22,0.02,0.33c1.77,0.05,3.54,0.11,5.31,0.17c3.07,0.1,6.15,0.2,9.22,0.3
		C115.26,671.72,116.05,672.39,116.83,673.07z"/>
	<path class="st2" d="M105.26,670.74c-1.77-0.05-3.54-0.11-5.31-0.17c-0.01-0.11-0.02-0.22-0.02-0.33c0.71,0.07,1.42,0.13,2.14,0.2
		h0C103.13,670.54,104.19,670.64,105.26,670.74z"/>
	<path class="st33" d="M207.26,692.85c-5.7-0.05-11.4-0.1-17.1-0.16c-1.88-0.01-3.75-0.03-5.62-0.05
		c-9.22-0.08-18.43-0.16-27.64-0.25c-2.89-0.03-5.78-0.05-8.67-0.08c-6.17-0.06-12.34-0.11-18.51-0.17h-16.17
		c-0.28-0.25-0.55-0.5-0.82-0.74c2.07-2.67,4.14-5.34,6.21-8.01c0.63-2.3,1.26-4.6,1.89-6.9c0.59,0.51,1.19,1.02,1.78,1.54
		c15.25,0.16,30.51,0.31,45.76,0.47c12.65-0.12,25.31-0.23,37.96-0.35C206.63,683.06,206.94,687.96,207.26,692.85z"/>
	<path class="st32" d="M121.04,667.31v8.4c-0.07,0.27-0.15,0.53-0.22,0.8c-1.33-1.15-2.66-2.29-3.99-3.44
		c0.39-0.99,0.77-1.98,1.16-2.97c-5.31,0.11-10.62,0.22-15.93,0.34h0c-0.71-0.07-1.42-0.13-2.14-0.2c-0.19-2.44-0.37-4.88-0.56-7.31
		c2.23-1.11,4.45-2.22,6.68-3.32c2.81-0.23,5.62-0.47,8.43-0.7C116.66,661.7,118.85,664.51,121.04,667.31z"/>
	<path class="st33" d="M93.65,669.65c-1.4-0.13-2.81-0.27-4.21-0.4c-0.3-1.8-0.52-3.35-0.67-4.7
		C90.4,666.25,92.02,667.95,93.65,669.65z"/>
	<path class="st32" d="M99.93,670.24c-2.09-0.2-4.19-0.4-6.28-0.59c-1.63-1.7-3.25-3.4-4.88-5.1c-0.01-2.31-0.02-4.62-0.04-6.94
		c3.19,1.95,6.39,3.9,9.58,5.84c0.35-0.17,0.7-0.35,1.06-0.53C99.55,665.36,99.74,667.8,99.93,670.24z"/>
	<path class="st32" d="M120.82,676.5c-0.63,2.3-1.26,4.6-1.89,6.9c-2.07,2.67-4.14,5.34-6.21,8.01c-1.24-1.12-2.47-2.25-3.71-3.37
		c1.36-1.78,2.71-3.55,4.06-5.33c1.25-3.21,2.51-6.42,3.76-9.64C118.16,674.21,119.49,675.36,120.82,676.5z"/>
	<path class="st32" d="M112.72,691.41c-1.91,2.47-3.83,4.93-5.74,7.39c-0.54-1.98-1.09-3.97-1.64-5.95c1.22-1.6,2.45-3.21,3.67-4.82
		C110.25,689.16,111.48,690.29,112.72,691.41z"/>
	<path class="st32" d="M168.13,708.6l-0.47-7.35c-3.36-0.35-6.72-0.7-10.08-1.05c-0.24-2.6-0.47-5.2-0.7-7.8
		c-2.89-0.03-5.78-0.05-8.67-0.08c-0.24,3.33-0.47,6.65-0.7,9.98c-4.29-0.35-8.59-0.7-12.88-1.05c-1.1,2.33-2.19,4.67-3.28,7
		c-5.05,7.1-10.1,14.21-15.15,21.31c3.17-4.3,6.36-8.6,9.53-12.91c1.22-0.46,3.09-1.06,5.39-1.4c3.97-0.58,6.56,0.03,9.14,0.35
		c9.53,1.2,10.3-2.54,17.1-0.35c2.25,0.73,5.46,1.81,8.67,5.6c3.27,3.85,4.88,8.53,5.63,11.2v-18.9
		C170.47,711.64,169.3,710.12,168.13,708.6z M144.82,710c-0.71,0-1.29-0.86-1.29-1.92c0-1.06,0.58-1.92,1.29-1.92
		c0.71,0,1.29,0.86,1.29,1.92C146.11,709.14,145.53,710,144.82,710z M150.56,710c-0.71,0-1.29-0.86-1.29-1.92
		c0-1.06,0.58-1.92,1.29-1.92s1.29,0.86,1.29,1.92C151.85,709.14,151.27,710,150.56,710z M158.76,710c-0.71,0-1.29-0.86-1.29-1.92
		c0-1.06,0.58-1.92,1.29-1.92s1.29,0.86,1.29,1.92C160.05,709.14,159.47,710,158.76,710z"/>
	<path class="st2" d="M143.53,708.08c0-1.06,0.58-1.92,1.29-1.92c0.71,0,1.29,0.86,1.29,1.92c0,1.06-0.58,1.92-1.29,1.92
		C144.11,710,143.53,709.14,143.53,708.08z"/>
	<path class="st2" d="M149.27,708.08c0-1.06,0.58-1.92,1.29-1.92s1.29,0.86,1.29,1.92c0,1.06-0.58,1.92-1.29,1.92
		S149.27,709.14,149.27,708.08z"/>
	<path class="st2" d="M157.47,708.08c0-1.06,0.58-1.92,1.29-1.92s1.29,0.86,1.29,1.92c0,1.06-0.58,1.92-1.29,1.92
		S157.47,709.14,157.47,708.08z"/>
	<path class="st2" d="M171.65,732.05c-18.74-0.47-37.49-0.93-56.23-1.4c0.24-0.33,0.48-0.67,0.72-1.01h0
		c0.02-0.03,0.04-0.05,0.06-0.08c3.17-4.3,6.36-8.6,9.53-12.91c1.22-0.46,3.09-1.06,5.39-1.4c3.97-0.58,6.56,0.03,9.14,0.35
		c9.53,1.2,10.3-2.54,17.1-0.35c2.25,0.73,5.46,1.81,8.67,5.6C169.29,724.71,170.9,729.38,171.65,732.05z"/>
	<path class="st34" d="M171.65,732.05c-18.51-0.8-37.01-1.6-55.51-2.41c0.02-0.03,0.04-0.05,0.06-0.08c3.17-4.3,6.36-8.6,9.53-12.91
		c1.22-0.46,3.09-1.06,5.39-1.4c3.97-0.58,6.56,0.03,9.14,0.35c9.53,1.2,10.3-2.54,17.1-0.35c2.25,0.73,5.46,1.81,8.67,5.6
		C169.29,724.71,170.9,729.38,171.65,732.05z"/>
	<path class="st2" d="M146.11,708.08c0,1.06-0.58,1.92-1.29,1.92c-0.71,0-1.29-0.86-1.29-1.92c0-1.06,0.58-1.92,1.29-1.92
		C145.53,706.15,146.11,707.01,146.11,708.08z"/>
	<path class="st2" d="M151.85,708.08c0,1.06-0.58,1.92-1.29,1.92s-1.29-0.86-1.29-1.92c0-1.06,0.58-1.92,1.29-1.92
		S151.85,707.01,151.85,708.08z"/>
	<path class="st2" d="M160.05,708.08c0,1.06-0.58,1.92-1.29,1.92s-1.29-0.86-1.29-1.92c0-1.06,0.58-1.92,1.29-1.92
		S160.05,707.01,160.05,708.08z"/>
	<path class="st33" d="M190.15,701.6h-6.33c0.23-2.98,0.46-5.97,0.7-8.96c1.87,0.02,3.75,0.04,5.62,0.05
		C190.15,695.67,190.15,698.64,190.15,701.6z"/>
	<path class="st33" d="M207.26,692.85c-0.08,4.9-0.16,9.8-0.23,14.7c-2.27,6.3-4.53,12.6-6.8,18.9c-1.64-2.1-3.28-4.2-4.92-6.3
		c2.03-9.12,4.06-18.24,6.09-27.35C203.35,692.82,205.3,692.84,207.26,692.85z"/>
</g>
<g id="backWheel">
	<path class="st18" d="M91.89,699.21h-8.32l6.25,5.51c-0.79,1.23-1.76,2.33-2.88,3.25l-6.66-5.86v8.91
		c-0.76,0.12-1.53,0.19-2.32,0.19c-0.79,0-1.57-0.07-2.33-0.19v-6.13l-3.76,4.94h-0.01c-0.21-0.1-0.41-0.21-0.61-0.32l-0.83-0.49
		c-0.8-0.5-1.54-1.09-2.21-1.74l6.15-8.07H64.02c-0.1-0.68-0.15-1.37-0.15-2.08c0-0.68,0.05-1.35,0.14-2.01h8.34l-6.28-5.53
		c0.77-1.24,1.74-2.34,2.86-3.27l6.7,5.9v-8.99c0.76-0.12,1.54-0.19,2.33-0.19c0.79,0,1.56,0.07,2.32,0.19v8.22l4.9-6.42
		c1.29,0.77,2.44,1.74,3.41,2.87l-5.51,7.22h8.82c0.09,0.66,0.14,1.33,0.14,2.01C92.04,697.84,91.99,698.53,91.89,699.21z"/>
	<g>
		<circle class="st35" cx="77.96" cy="697.02" r="28.17"/>
		<g>
			<path class="st36" d="M80.28,682.83v28.19c-0.76,0.12-1.53,0.19-2.32,0.19c-0.79,0-1.57-0.07-2.33-0.19v-28.19H80.28z"/>
			<path class="st36" d="M92.04,697.13c0,0.71-0.05,1.4-0.15,2.08H64.02c-0.1-0.68-0.15-1.37-0.15-2.08c0-0.68,0.05-1.35,0.14-2.01
				H91.9C91.99,695.78,92.04,696.45,92.04,697.13z"/>
			<path class="st36" d="M89.82,704.72c-0.79,1.23-1.76,2.33-2.88,3.25l-6.66-5.86l-1.51-1.33l-1.78-1.57l-1.36-1.2l-0.21-0.18
				l-3.07-2.71l-6.28-5.53c0.77-1.24,1.74-2.34,2.86-3.27l6.7,5.9l2.43,2.14l0.86,0.76l1.36,1.19l1.13,1l2.16,1.9L89.82,704.72z"/>
			<path class="st36" d="M88.59,687.9l-5.51,7.22l-1.67,2.19l-1.13,1.49l-0.32,0.41l-1.19,1.57l-3.14,4.11l-3.76,4.94h-0.01
				l-0.02,0.03l-0.59-0.35l-0.83-0.49l-2.44-1.44l0.23-0.3l6.15-8.07l1.06-1.38l0.21-0.28l1.85-2.43l0.58-0.76l2.22-2.91l4.9-6.42
				C86.47,685.8,87.62,686.77,88.59,687.9z"/>
		</g>
	</g>
</g>
<g id="frontRight">
	<g>
		<circle class="st35" cx="207.24" cy="712.21" r="19.49"/>
		<g>
			<path class="st36" d="M208.84,702.39v19.5c-0.53,0.08-1.06,0.13-1.6,0.13c-0.55,0-1.09-0.05-1.61-0.13v-19.5H208.84z"/>
			<path class="st36" d="M216.98,712.29c0,0.49-0.03,0.97-0.1,1.44h-19.28c-0.07-0.47-0.1-0.95-0.1-1.44c0-0.47,0.03-0.93,0.1-1.39
				h19.29C216.94,711.35,216.98,711.82,216.98,712.29z"/>
			<path class="st36" d="M215.44,717.54c-0.55,0.85-1.22,1.61-1.99,2.25l-4.61-4.05l-1.04-0.92l-1.23-1.09l-0.94-0.83l-0.15-0.12
				l-2.12-1.87l-4.34-3.83c0.53-0.86,1.2-1.62,1.98-2.26l4.64,4.08l1.68,1.48l0.59,0.53l0.94,0.82l0.78,0.69l1.49,1.31
				L215.44,717.54z"/>
			<path class="st36" d="M214.59,705.9l-3.81,4.99l-1.16,1.52l-0.78,1.03l-0.22,0.28l-0.82,1.09l-2.17,2.84l-2.6,3.42h-0.01
				l-0.01,0.02l-0.41-0.24l-0.57-0.34l-1.69-1l0.16-0.21l4.25-5.58l0.73-0.95l0.15-0.19l1.28-1.68l0.4-0.53l1.54-2.01l3.39-4.44
				C213.12,704.45,213.92,705.12,214.59,705.9z"/>
		</g>
	</g>
</g>
<g id="frontLeft">
	<g>
		<circle class="st35" cx="191.9" cy="701.14" r="11.33"/>
		<g>
			<path class="st36" d="M192.84,695.44v11.34c-0.31,0.05-0.62,0.08-0.93,0.08c-0.32,0-0.63-0.03-0.94-0.08v-11.34H192.84z"/>
			<path class="st36" d="M197.57,701.19c0,0.29-0.02,0.56-0.06,0.84H186.3c-0.04-0.27-0.06-0.55-0.06-0.84
				c0-0.27,0.02-0.54,0.06-0.81h11.22C197.55,700.65,197.57,700.92,197.57,701.19z"/>
			<path class="st36" d="M196.67,704.24c-0.32,0.49-0.71,0.94-1.16,1.31l-2.68-2.36l-0.61-0.53l-0.72-0.63l-0.55-0.48l-0.08-0.07
				l-1.23-1.09l-2.53-2.22c0.31-0.5,0.7-0.94,1.15-1.32l2.69,2.37l0.98,0.86l0.35,0.31l0.55,0.48l0.45,0.4l0.87,0.76L196.67,704.24z
				"/>
			<path class="st36" d="M196.18,697.48l-2.22,2.9l-0.67,0.88l-0.45,0.6l-0.13,0.16l-0.48,0.63l-1.26,1.65l-1.51,1.99h0l-0.01,0.01
				l-0.24-0.14l-0.33-0.2l-0.98-0.58l0.09-0.12l2.47-3.25l0.43-0.56l0.08-0.11l0.74-0.98l0.23-0.31l0.89-1.17l1.97-2.58
				C195.33,696.63,195.79,697.02,196.18,697.48z"/>
		</g>
	</g>
</g>
<g id="Layer_1">
	<path class="st15" d="M270.59,714.59c0.48-0.4,1.03-0.79,1.43-1.21c2.78-2.85,6.05-5.58,10.51-8.02c3.28-1.79,7.36-3.18,11.4-4.58
		c1.08-0.38,2.31-0.72,3.78-0.65c0.85,0.29,0.63,0.64,0.31,0.95c-0.51,0.5-1.2,0.97-1.69,1.47c-0.79,0.81-1.49,1.64-1.98,2.2
		c1.45,1.47,2.68,2.65,3.78,3.85c2.16,2.36,4.28,4.72,6.37,7.09c1.64,1.86,3.2,3.73,4.82,5.59c0.31,0.35,0.76,0.68,1.58,1.39
		c1.04-2.53,0.49-4.64,0.57-6.73c0.07-2.05,0.35-4.09,0.89-6.09c1.64-0.19,1.75,0.31,2.06,0.66c3.11,3.43,6.2,6.86,9.91,10.25
		c0.03-0.37,0.1-0.75,0.09-1.12c-0.04-3.16,0.1-6.33-0.18-9.49c-0.26-2.95-0.97-5.89-1.48-8.83c-0.2-1.16-0.45-2.33-0.59-3.5
		c-0.03-0.23,0.32-0.47,0.48-0.69c1.73,0.05,1.92,0.58,2.22,1.01c1.9,2.76,3.93,5.51,5.58,8.3c2.16,3.65,4.02,7.35,6.01,11.02
		c0.29,0.53,0.62,1.05,1.02,1.73c1.41-0.42,1.53-0.96,1.87-1.46c2.91-4.35,5.82-8.7,8.75-13.05c0.35-0.53,0.79-1.04,1.31-1.54
		c0.23-0.22,0.75-0.38,1.07-0.53c1.21,0.16,1.35,0.5,1.28,0.85c-0.37,1.92-0.81,3.83-1.16,5.75c-0.16,0.89-0.23,1.78-0.28,2.68
		c-0.3,4.61,0.21,9.21,0.9,13.8c0.03,0.2,0.17,0.4,0.26,0.59c1.06,0.12,0.95-0.24,1-0.46c0.41-1.78,0.76-3.55,1.16-5.33
		c0.09-0.41,0.24-0.84,1.31-1c0.75-0.12,1.61,0.3,1.91,0.97c0.68,1.55,1.26,3.11,1.97,4.66c0.3,0.66,0.82,1.3,1.17,1.85
		c1.34,0.21,1.85-0.04,2.13-0.38c0.26-0.32,0.44-0.66,0.54-1c0.12-0.41,0.13-0.82,0.15-1.23c0.16-3.3,0.29-6.59,0.84-9.89
		c0.83-4.94,0.26-9.89-0.87-14.82c-0.31-1.36-0.85-2.72-1.2-4.08c-0.04-0.14,0.4-0.4,0.72-0.44c0.32-0.04,0.95,0.07,1.14,0.2
		c0.51,0.34,0.92,0.71,1.25,1.09c4.22,4.82,7.34,9.79,9.96,14.81c0.84,1.61,1.41,3.24,2.23,4.85c0.29,0.57,0.31,1.2,1.46,1.85
		c0.83-0.83,1.12-1.55,1.37-2.27c1.05-3.05,2.06-6.11,3.1-9.17c0.14-0.41,0.27-0.83,1.74-0.92c2.13,1.03,0.76,2.43,1.9,3.85
		c2.36-5.25,6.3-10,11.63-14.53c0.25-0.22,0.87-0.35,1.23-0.49c1.15,0.17,1.21,0.51,1.19,0.86c-0.13,2.06-0.44,4.12-0.35,6.18
		c0.08,1.78,0.56,3.56,1.02,5.34c0.12,0.45,0.62,0.95,1.32,1.27c2.59,1.18,5.28,2.33,8.21,3.22c1.46-0.07,1.68-0.5,1.98-0.88
		c3.42-4.46,8.69-8.52,14.11-12.54c0.32-0.24,0.59-0.51,1.06-0.67c1.85-0.64,3.39-1.38,3.96-2.39c1.68,0.2,1.17,0.57,0.9,0.85
		c-2.05,2.08-4.15,4.15-6.28,6.27c2.7,3.43,5.66,6.81,8.72,10.2c2.82,0.12,4.49-0.38,5.27-1.4c1.18-1.56,2.28-3.13,3.31-4.71
		c1.61-2.48,4.35-4.7,7.61-6.82c0.28-0.18,0.98-0.25,1.82-0.44c1.02,1.46-0.62,2.71-0.34,3.98c0.3,1.37,0.62,2.73,0.86,4.1
		c0.23,1.29,1.13,2.52,1.28,4.03c1.71-0.51,1.87-1.07,2.36-1.53c1.94-1.8,3.81-3.61,5.79-5.41c0.46-0.41,1.22-0.76,1.77-1.1
		c1.27,0.11,1.42,0.43,1.31,0.79c-0.57,1.77-1.17,3.53-1.75,5.3c-0.72,2.16-0.32,4.32,0.23,6.53c0.56-0.62,1.11-1.25,1.69-1.87
		c2.36-2.48,5.29-4.83,8.73-7.05c3.65-2.36,8.33-4.28,13.87-5.78c1.18-0.32,2.33-0.67,3.32-0.95c1.03-1.71-1.22-3.23-0.54-4.75
		c0.98-0.22,1.34,0.02,1.53,0.27c0.38,0.52,0.59,1.07,1,1.59c1.32,1.68,2.69,3.33,4.86,4.88c1.94,1.38,3.01,3.01,4.33,4.55
		c1.87,2.18,3.61,4.39,5.44,6.63c1.03-0.21,0.55-0.59,0.58-0.86c0.09-0.69,0.02-1.37,0.06-2.06c0.19-3.36,0.4-6.73,0.6-10.07
		c0.28-0.05,0.41-0.1,0.53-0.09c0.14,0.01,0.32,0.05,0.38,0.1c0.89,0.72,1.86,1.42,2.63,2.17c2.6,2.48,5.13,4.98,7.95,7.73
		c0.37-1.15,0.19-2.08,0.22-3c0.03-1.03-0.01-2.06-0.02-3.09c-0.02-0.96-0.03-1.92-0.07-2.89c-0.03-0.96-0.04-1.93-0.14-2.89
		c-0.1-0.96-0.32-1.92-0.44-2.88c-0.12-1.03-0.14-2.06-0.29-3.09c-0.15-0.96-0.43-1.91-0.62-2.87c-0.19-0.94-0.68-1.89,0.06-3.03
		c0.64,0.27,1.16,0.41,1.39,0.61c0.35,0.3,0.53,0.64,0.72,0.98c1.57,2.65,3.12,5.3,4.69,7.95c0.71,1.19,1.66,2.35,2.62,3.51
		c1.28,1.54,1.91,3.18,2.8,4.78c0.71,1.27,1.38,2.54,2.11,3.8c0.14,0.25,0.51,0.47,0.95,0.86c0.62-0.3,1.18-0.45,1.33-0.66
		c0.76-1.12,1.36-2.26,2.11-3.38c2.83-4.21,5.7-8.42,8.54-12.6c1.46-0.04,1.33,0.34,1.27,0.65c-0.7,3.49-1.58,6.98-1.3,10.49
		c0.3,3.84,0.7,7.69,1.08,11.53c0.02,0.19,0.23,0.37,0.39,0.6c1.37-1.21,1.88-2.34,1.92-3.67c0.02-0.82,0.19-1.64,0.46-2.45
		c0.06-0.18,0.85-0.46,1.28-0.45c0.44,0.01,1.13,0.28,1.23,0.49c0.8,1.54,1.44,3.1,2.21,4.64c0.6,1.2,1.31,2.39,1.94,3.5
		c1.22,0.11,1.48-0.16,1.58-0.42c0.24-0.61,0.46-1.22,0.5-1.84c0.11-1.72,0.08-3.44,0.2-5.16c0.31-4.46,0.97-8.92,0.98-13.39
		c0.01-3.45-0.44-6.86-1.69-10.26c-0.26-0.71-0.79-1.45-0.02-2.39c0.68,0.27,1.24,0.39,1.46,0.59c0.55,0.49,0.99,1.01,1.41,1.52
		c4.87,6.03,8.66,12.2,11.43,18.48c0.38,0.86,0.86,1.7,1.33,2.62c1.61-0.32,1.36-0.88,1.5-1.29c1.14-3.33,2.17-6.66,3.27-9.99
		c0.13-0.4,0.41-0.79,0.71-1.17c0.18-0.23,1.35-0.24,1.59-0.02c0.32,0.31,0.7,0.62,0.79,0.95c0.2,0.82,0.26,1.64,0.39,2.62
		c1.11-0.42,1.01-0.9,1.25-1.32c0.26-0.47,0.61-0.93,0.82-1.4c1.72-3.88,4.96-7.51,9.32-10.96c0.49-0.38,1.24-0.7,2.27-1.28
		c0.31,0.52,0.62,0.77,0.56,0.99c-0.72,2.96-0.34,5.89,0.37,8.84c0.65,2.73,0.95,5.48,1.32,8.22c0.38,2.81,0.63,5.63,1.01,8.44
		c0.11,0.81,0.48,1.61,1.22,2.44c0.29-0.45,0.62-0.89,0.85-1.34c2.39-4.63,5.27-9.2,9.5-13.58c1.95-2.02,4.13-4.01,6.49-5.94
		c2.58-2.12,5.45-4.17,8.28-6.23c0.71-0.52,1.74-0.95,2.67-1.4c0.1-0.05,0.56,0.03,0.83,0.07c0.11,0.02,0.25,0.11,0.24,0.16
		c-0.08,0.27-0.11,0.55-0.34,0.79c-0.85,0.89-1.71,1.77-2.69,2.63c-6.43,5.66-9.59,11.75-12.18,17.91c-0.3,0.71-1.12,1.42-0.44,2.37
		c0.95-0.36,1.67-0.6,2.28-0.88c4.47-2.06,9.62-3.72,15.25-5.11c1.9-0.47,3.63-1.08,5.52-1.57c2.96-0.77,5.97-1.5,9.01-2.2
		c0.78-0.18,1.75-0.2,2.49-0.28c1.13,0.44,0.73,0.81,0.28,1.19c-1.91,1.58-3.89,3.14-5.72,4.73c-1.4,1.22-2.35,2.52-3.08,3.8
		c0.82,0.36,1.26,0.1,1.69-0.06c2.32-0.92,4.47-1.94,6.99-2.74c2.26-0.71,4.92-1.18,7.46-1.71c0.59-0.12,1.41-0.02,2.41-0.02
		c-1.9,1.69-3.86,3.17-5.26,4.75c-1.35,1.53-2.29,3.14-3.11,4.75c-0.85,1.64-2.29,3.27-1.81,5.01c1.58,0.05,1.63-0.49,1.99-0.81
		c2.02-1.8,4.54-3.45,7.38-5.01c2.85-1.57,6.21-2.91,9.83-4.12c1.48-0.5,3.17-0.88,4.84-1.25c0.55-0.12,1.36-0.01,2.56,0
		c-0.76,0.54-1.27,0.87-1.7,1.22c-0.97,0.78-1.95,1.56-2.83,2.37c-0.64,0.58-0.6,1.18-0.05,1.8c5.02,5.63,10.02,11.26,15.03,16.89
		c0.16,0.18,0.47,0.34,0.72,0.51c1.24-0.05,0.96-0.46,0.97-0.75c0.04-3.44,0.03-6.88,0.07-10.31c0.01-0.66-0.32-1.36,0.62-1.93
		c1.44-0.02,1.57,0.42,1.91,0.79c3,3.31,6.03,6.61,9.07,9.95c1.16-0.28,0.78-0.65,0.78-0.94c-0.03-3.57,0.06-7.15-0.23-10.72
		c-0.23-2.74-0.98-5.48-1.46-8.21c-0.21-1.21-0.73-2.42-0.17-3.61c1.61-0.12,1.88,0.32,2.15,0.7c1.31,1.84,2.61,3.67,3.85,5.52
		c3.31,4.95,6.11,9.95,8.46,15c0.12,0.26,0.29,0.52,0.48,0.84c1.54-0.17,1.47-0.71,1.76-1.13c2.91-4.35,5.8-8.7,8.73-13.05
		c0.4-0.59,0.9-1.17,1.46-1.74c0.22-0.22,0.74-0.38,1.05-0.54c1.21,0.14,1.38,0.49,1.33,0.83c-0.32,2.12-0.62,4.25-1.07,6.37
		c-0.73,3.5-0.67,7-0.06,10.5c0.24,1.37,0.27,2.75,0.43,4.12c0.06,0.53,0.21,1.05,0.32,1.58c1.22-0.05,1.02-0.4,1.04-0.63
		c0.05-0.82,0.05-1.65,0.01-2.47c-0.18-3.31,0.71-6.58,1.56-9.86c0.25-0.95,0.31-1.92,0.5-2.88c0.07-0.34,0.23-0.67,0.44-1
		c0.07-0.11,0.43-0.25,0.66-0.25c0.42,0,1.02,0.03,1.22,0.15c0.63,0.39,1.15,0.81,1.63,1.24c1.11,0.99,2.15,1.99,3.26,2.97
		c0.32,0.28,0.78,0.54,1.65,1.12c0.18-0.68,0.34-1,0.34-1.31c0.01-3.09,0.2-6.19-0.09-9.28c-0.21-2.26-1.06-4.5-1.62-6.75
		c-0.16-0.65-0.63-1.32-0.05-1.89c1.13-0.19,1.55,0.09,1.77,0.31c0.89,0.88,1.74,1.76,2.48,2.67c4.9,5.96,8.23,12.11,11.06,18.31
		c0.15,0.33,0.31,0.66,0.46,0.97c1.34,0.05,1.44-0.38,1.56-0.67c0.8-1.96,1.58-3.92,2.24-5.89c0.47-1.43,0.74-2.87,1.11-4.3
		c0.05-0.2,0.06-0.44,0.31-0.59c0.32-0.2,0.82-0.38,1.33-0.45c0.23-0.03,0.86,0.21,0.97,0.37c0.3,0.46,0.43,0.93,0.6,1.41
		c0.12,0.32,0.2,0.64,0.29,0.95c1.14-0.04,1.04-0.37,1.19-0.6c1.23-1.92,2.25-3.86,3.7-5.75c1.4-1.82,3.16-3.59,4.91-5.35
		c0.68-0.68,1.71-1.3,2.67-1.93c0.2-0.13,0.84-0.22,1.18-0.18c0.34,0.04,0.67,0.26,0.79,0.43c0.14,0.19,0.09,0.41,0.03,0.61
		c-0.93,2.74-0.79,5.47,0.02,8.22c0.26,0.88,0.29,1.78,0.39,2.67c0.07,0.64,0.42,1.23,1.52,1.68c2.75,1.11,5.55,2.2,8.22,3.26
		c1.64-0.12,1.64-0.68,2.01-1.1c3.17-3.67,6.79-7.25,11.48-10.6c2.13-1.52,4.44-3,6.69-4.48c0.25-0.16,0.68-0.28,1.05-0.4
		c0.1-0.03,0.33-0.03,0.44,0c0.23,0.07,0.63,0.19,0.6,0.25c-0.18,0.4-0.36,0.8-0.72,1.17c-1.43,1.45-2.88,2.9-4.4,4.33
		c-0.99,0.93-0.99,1.77-0.08,2.75c2.05,2.23,3.73,4.52,5.58,6.78c0.32,0.39,0.64,0.78,1.05,1.15c1.12,1,3.77,1.08,5.19,0.13
		c0.5-0.34,0.84-0.75,1.01-1.14c1.21-2.73,3.92-5.22,6.39-7.74c1.05-1.07,2.52-2.05,3.89-3.05c0.37-0.27,1.05-0.46,1.89-0.82
		c0.35,0.38,0.73,0.61,0.73,0.83c-0.01,0.62-0.13,1.24-0.29,1.85c-0.8,3.19,0.82,6.27,1.96,9.6c1.54-0.58,1.69-1.21,2.25-1.72
		c2.02-1.86,3.94-3.74,5.96-5.6c0.32-0.29,0.93-0.54,1.48-0.77c0.16-0.07,0.62-0.05,0.87,0c0.24,0.05,0.56,0.19,0.55,0.29
		c-0.05,0.41-0.16,0.81-0.33,1.21c-1.27,2.98-2.16,5.97-2.02,9.01c0.01,0.32,0.35,0.64,0.57,0.95c0.03,0.04,0.27,0.04,0.73,0.11
		c0.52-0.44,1.17-0.89,1.6-1.38c1.8-1.99,4.19-3.84,6.82-5.63c2.57-1.75,5.75-3.26,9.19-4.67c0.79-0.32,1.66-0.68,2.65-0.83
		c2.78-0.43,4.7-1.32,6.67-2.12c1.29-1.59-1.29-3.13-0.13-4.67c1.21,0.01,1.52,0.34,1.75,0.66c0.42,0.59,0.7,1.2,1.09,1.79
		c0.73,1.12,1.66,2.19,3.07,3.21c1.45,1.05,2.53,2.21,3.55,3.36c2.49,2.82,4.85,5.65,7.39,8.63c0.66-0.41,0.39-0.8,0.4-1.13
		c0.05-3.44,0.03-6.88,0.09-10.31c0.01-0.81-0.14-1.64,0.46-2.41c1.21-0.09,1.48,0.24,1.78,0.56c3.03,3.24,6.06,6.48,9.12,9.71
		c0.09,0.1,0.43,0.16,0.91,0.32c0.05-0.47,0.14-0.86,0.13-1.25c-0.07-3.78,0-7.56-0.31-11.34c-0.2-2.54-0.93-5.06-1.45-7.59
		c-0.22-1.08-0.51-2.16-0.42-3.17c1.3-0.33,1.91-0.06,2.12,0.26c0.63,0.99,1.23,1.98,1.6,2.99c0.28,0.75,0.54,1.47,1.49,2.14
		c0.57,0.4,0.89,0.88,1.2,1.33c3.28,4.8,6.36,9.63,8.37,14.58c0.16,0.39,0.42,0.78,0.86,1.57c0.66-0.86,1.07-1.34,1.4-1.83
		c3.09-4.54,6.16-9.09,9.24-13.63c0.44-0.65,0.76-1.32,1.87-1.9c0.5,0.14,1.13,0.22,1.17,0.34c0.15,0.4,0.16,0.81,0.09,1.22
		c-0.79,4.18-1.57,8.35-1.41,12.55c0.01,0.38-0.31,0.85,0.85,1.1c1.55-0.3,1.26-1.04,1.88-1.56c0.64-0.54,0.93-1.17,2.58-1.56
		c0.62,0.24,1.55,0.44,1.88,0.75c0.84,0.81,1.52,1.66,2.06,2.51c0.92,1.45,1.68,2.92,2.54,4.44c0.37-0.11,0.72-0.16,0.73-0.22
		c0.96-5.83,1.36-11.67,0.91-17.51c-0.19-2.4-0.99-4.78-1.55-7.17c-0.19-0.81-0.68-1.61-0.31-2.37c1.12-0.31,1.69-0.07,2.06,0.24
		c0.5,0.42,0.9,0.88,1.27,1.33c5.44,6.75,9.77,13.63,12.42,20.7c0.07,0.19,0.33,0.36,0.65,0.7c1.57-1.43,1.76-2.86,2.27-4.23
		c0.91-2.44,1.5-4.9,2.23-7.35c0.06-0.2,0.05-0.44,0.29-0.6c0.32-0.19,0.83-0.37,1.33-0.43c0.25-0.03,0.86,0.2,0.97,0.36
		c0.28,0.39,0.38,0.8,0.52,1.21c0.13,0.38,0.22,0.77,0.43,1.53c1.32-0.88,1.49-1.53,1.87-2.17c2.2-3.66,4.71-7.27,8.82-10.62
		c0.67-0.55,1-1.57,2.97-1.26c1.42,0.23,0.63,1.11,0.49,1.69c-0.57,2.34-0.44,4.65,0.17,6.99c0.66,2.52,0.97,5.06,1.34,7.6
		c0.62,4.25,1.16,8.5,1.75,12.84c1.05-0.43,1.08-0.91,1.28-1.35c2.18-4.8,5.29-9.48,9.57-14c4.22-4.45,9.52-8.66,15.72-12.65
		c0.58-0.37,0.92-0.91,2.34-0.9c0.94,0.5,0.01,0.89-0.39,1.3c-2.24,2.34-4.65,4.66-6.7,7.03c-3.56,4.12-5.89,8.4-7.49,12.75
		c-0.22,0.59-0.15,1.21-0.24,2.01c0.92-0.15,1.53-0.19,1.94-0.33c1.11-0.38,2.16-0.79,3.18-1.22c5.33-2.23,12.03-3.39,18.65-4.61
		c0.86-0.16,1.78-0.25,2.69-0.34c0.59-0.06,1.2-0.07,2.42-0.13c-0.74,0.38-1.09,0.59-1.49,0.77c-7.42,3.46-12.63,7.51-16.25,11.95
		c-3.38,4.15-5.97,8.39-7.02,12.79c-0.13,0.54-0.46,1.07-0.72,1.65c-1.03,0.09-1.93,0.21-2.84,0.23c-1.72,0.04-3.44,0.02-5.17,0.02
		c-82.85,0-165.7,0.01-248.55-0.01c-18.46,0-36.92,0.03-55.37,0.01c-18.64-0.02-37.27,0-55.91,0c-18.48,0-36.96,0-55.44,0
		s-36.96,0-55.44,0c-18.64,0-37.27,0-55.91,0c-18.48,0-36.96,0-55.44,0s-36.96,0-55.44,0c-18.64,0-37.27,0-55.91,0
		c-18.48,0-36.96,0.01-55.44-0.01c-3.27,0-6.56,0.12-10.1-0.19c-0.4-0.7-0.87-1.41-1.2-2.14c-3.66-7.96-10.35-15.4-19.96-22.33
		c-0.54-0.39-1.04-0.8-2.09-1.61c1.33,0.38,1.83,0.49,2.24,0.65c6.3,2.38,12.26,4.91,17.74,7.66c1.22,0.61,2.71,1.12,3.99,1.72
		c1.38,0.64,2.67,1.32,4.33,2.14c0.26-0.41,0.55-0.64,0.53-0.87c-0.08-1.23-0.23-2.47-0.38-3.7c-0.06-0.48-0.27-0.96-0.28-1.44
		c-0.09-3.3-0.92-6.58-1.67-9.86c-0.1-0.46-0.4-1,1.58-1.12c1.77,1.17,2.29,2.62,3.47,3.94c1.2,1.34,2.32,2.7,3.52,4.04
		c1.19,1.32,2.23,2.68,3.6,3.92c1.47-0.12,1.41-0.5,1.53-0.82c1.36-3.47,3.53-6.84,6.77-10.05c1.45-1.44,3.33-2.8,5.12-4.17
		c0.41-0.31,1.26-0.52,2.29-0.92c1.04,1.58-0.34,2.91-0.2,4.23c0.14,1.3,0.34,2.61,0.73,3.9c0.4,1.33,0.74,2.68,1.9,4.37
		c0.71-0.67,1.03-0.95,1.33-1.25c1.99-1.94,3.92-3.9,6-5.82c1.05-0.97,2.22-1.34,2.88-1.09c1.2,0.46,0.44,1.02,0.21,1.53
		c-1.34,2.9-2.05,5.84-2.01,8.8c0,0.4,0.12,0.81,0.18,1.21C270,714.49,270.29,714.54,270.59,714.59z M496.32,716.85
		c0.6-1.28,0.43-2.36,0.04-3.39c-1.39-3.79-1.95-7.61-2.89-11.41c-0.04-0.18-0.34-0.35-0.53-0.53c-2.19,0.7-2.38,0.76-3.32,1.87
		c-1.42,1.67-2.64,3.38-2.15,5.2c0.23,0.87,2.67,2.81,4.73,3.91c0.83,0.05,1.49-0.61,2.57-0.04
		C494.6,713.82,493.58,715.34,496.32,716.85z M424.96,704.42c-2.16,1.76-6.24,8.39-6.06,9.95c0.05,0.45,0.45,0.94,1.01,1.32
		c1.17,0.8,2.49,0.82,4.31,0.22c1.91-0.62,2.66-1.41,2.71-2.46c0.15-2.88-0.66-5.73-1.2-8.58
		C425.7,704.76,425.38,704.67,424.96,704.42z M800.65,711.1c-0.33,0.21-0.79,0.4-0.96,0.63c-0.58,0.78-1.1,1.57-1.56,2.36
		c-1.08,1.85-2.2,3.7-3.14,5.57c-0.63,1.24-0.03,2.3,3.11,2.85c2.57-0.58,4.78-1.23,4.78-2.72
		C802.89,716.92,802.15,714.08,800.65,711.1z M869.34,707.5c-0.3-0.05-0.6-0.09-0.9-0.14c-0.67,0.44-1.57,0.84-1.98,1.33
		c-1.03,1.21-2.03,2.45-2.71,3.7c-1.29,2.36,0.39,4.37,4.82,6.14c2.12-0.66,2.92-1.51,2.33-2.67c-0.37-0.73-0.3-1.5-0.43-2.25
		C870.09,711.58,869.71,709.54,869.34,707.5z M402.95,711.57c-0.29,0.05-0.58,0.11-0.88,0.16c0.34,3.34,0.66,6.68,1.04,10.02
		c0.06,0.52,0.41,1.03,0.62,1.55c1.7-2.18,2.95-4.36,4.07-6.55c0.19-0.38,0.06-0.84-0.28-1.2
		C406.22,714.17,404.66,712.85,402.95,711.57z M778,717.08c0.55,4.47,1.03,8.41,1.52,12.41c0.44-0.1,0.66-0.12,0.68-0.16
		c1.2-2.05,2.41-4.09,3.53-6.15c0.37-0.67,0.25-1.35-0.44-2C781.93,719.91,780.5,718.64,778,717.08z M665.93,723.95
		c2.17-1.26,4.14-2.29,5.52-3.49c0.46-0.4,0.59-0.93,0.46-1.39c-0.43-1.62-1.02-3.24-1.6-4.85c-0.08-0.23-0.01-0.59-0.97-0.56
		C668.03,715.83,665.82,722.22,665.93,723.95z M289.65,718.08c2.08-1.27,3.63-2.2,5.16-3.15c0.93-0.58,1.41-1.21,1.16-1.93
		c-0.54-1.55-1.08-3.1-1.64-4.64c-0.09-0.24-0.13-0.56-1.05-0.45C292.32,709.28,289.64,716.53,289.65,718.08z M673.39,726.79
		c-0.27-0.02-0.53-0.05-0.8-0.07c-0.3,1.01-0.64,2.01-0.88,3.02c-0.06,0.25,0.15,0.53,0.35,0.78c0.06,0.08,0.49,0.11,0.77,0.14
		c0.12,0.01,0.36-0.04,0.4-0.08c0.23-0.24,0.61-0.5,0.59-0.75C673.75,728.81,673.55,727.8,673.39,726.79z M296.83,720.43
		c-0.92,1.43-1.46,2.76-0.87,4.14c0.03,0.07,0.47,0.12,0.72,0.17C298.09,723.78,298.09,723.78,296.83,720.43z M924.78,715.21
		c-0.52,1.55-0.41,3.09,0,4.63C924.78,718.3,924.78,716.75,924.78,715.21z M484.9,714.89c-1.11,2.03-1.11,2.03-0.18,2.85
		C485.31,716.85,485.16,716.05,484.9,714.89z M860.75,721.73c-0.26,0.68-1.25,1.32-0.71,2.4
		C861.25,723.16,861.19,722.46,860.75,721.73z M871.27,719.89c-0.8,0.65-0.8,0.65,0,1.11C871.27,720.62,871.27,720.3,871.27,719.89z
		"/>
</g>
<g id="cloud">
	<g>
		<path class="st6" d="M242.32,63.11c0,9.69-4.12,18.42-10.7,24.53c-6.94,1.29-14.65,2.01-22.78,2.01c-8.13,0-15.84-0.72-22.78-2.01
			c-6.58-6.11-10.7-14.84-10.7-24.53c0-5.16,1.16-10.05,3.25-14.41c5.38-11.28,16.89-19.07,30.22-19.07
			c13.33,0,24.84,7.79,30.22,19.07C241.16,53.07,242.32,57.96,242.32,63.11z"/>
		<path class="st6" d="M186.06,87.64c-18.95-3.51-32.11-11.28-32.11-20.31c0-7.78,9.8-14.64,24.67-18.64
			c-2.09,4.36-3.25,9.26-3.25,14.41C175.36,72.8,179.48,81.53,186.06,87.64z"/>
		<path class="st6" d="M263.74,67.34c0,9.03-13.17,16.79-32.11,20.31c6.58-6.11,10.7-14.84,10.7-24.53c0-5.16-1.16-10.05-3.25-14.41
			C253.93,52.69,263.74,59.55,263.74,67.34z"/>
	</g>
	<g>
		<path class="st6" d="M480.79,79.5c0,7.25-3.08,13.79-8.01,18.37c-5.2,0.96-10.97,1.5-17.06,1.5c-6.09,0-11.86-0.54-17.06-1.5
			c-4.93-4.58-8.01-11.12-8.01-18.37c0-3.86,0.87-7.52,2.44-10.79c4.03-8.44,12.65-14.28,22.63-14.28c9.98,0,18.6,5.83,22.63,14.28
			C479.92,71.97,480.79,75.63,480.79,79.5z"/>
		<path class="st6" d="M438.66,97.86c-14.19-2.63-24.05-8.45-24.05-15.21c0-5.83,7.34-10.96,18.48-13.95
			c-1.57,3.27-2.44,6.93-2.44,10.79C430.65,86.75,433.74,93.29,438.66,97.86z"/>
		<path class="st6" d="M496.83,82.66c0,6.76-9.86,12.57-24.05,15.21c4.93-4.58,8.01-11.12,8.01-18.37c0-3.86-0.87-7.52-2.44-10.79
			C489.49,71.69,496.83,76.83,496.83,82.66z"/>
	</g>
	<g>
		<path class="st6" d="M813,49.82c0,8.2-3.49,15.59-9.06,20.77c-5.88,1.09-12.4,1.7-19.28,1.7s-13.41-0.61-19.29-1.7
			c-5.57-5.17-9.05-12.57-9.05-20.77c0-4.36,0.98-8.5,2.76-12.2c4.55-9.55,14.3-16.14,25.59-16.14s21.03,6.6,25.59,16.14
			C812.02,41.31,813,45.45,813,49.82z"/>
		<path class="st6" d="M765.38,70.58c-16.04-2.98-27.18-9.55-27.18-17.19c0-6.59,8.3-12.39,20.89-15.77
			c-1.77,3.7-2.76,7.83-2.76,12.2C756.32,58.02,759.81,65.41,765.38,70.58z"/>
		<path class="st6" d="M831.13,53.39c0,7.64-11.14,14.22-27.18,17.19c5.57-5.17,9.06-12.57,9.06-20.77c0-4.36-0.99-8.5-2.76-12.2
			C822.83,41,831.13,46.8,831.13,53.39z"/>
	</g>
</g>
</svg>
