<?xml version="1.0" encoding="utf-8"?>
<!-- Generator: Adobe Illustrator 24.0.1, SVG Export Plug-In . SVG Version: 6.00 Build 0)  -->
<svg version="1.0" xmlns="http://www.w3.org/2000/svg" xmlns:xlink="http://www.w3.org/1999/xlink" x="0px" y="0px"
	 viewBox="0 0 1366 768" style="enable-background:new 0 0 1366 768;" xml:space="preserve">
<style type="text/css">
	.st0{fill:#7DE9F4;stroke:#000000;stroke-width:0.25;stroke-miterlimit:10;}
	.st1{fill:#FCF0CA;}
	.st2{fill:none;stroke:#000000;stroke-width:0.25;stroke-miterlimit:10;}
	.st3{fill:#A78265;stroke:#000000;stroke-width:0.25;stroke-miterlimit:10;}
	.st4{fill:#A78265;}
	.st5{fill:#5D615E;}
	.st6{fill:#FFFFFF;}
	.st7{fill:#A2BC52;stroke:#000000;stroke-width:0.25;stroke-miterlimit:10;}
	.st8{fill:#60714F;stroke:#000000;stroke-width:0.25;stroke-miterlimit:10;}
	.st9{fill:#97AB99;stroke:#000000;stroke-width:0.25;stroke-miterlimit:10;}
	.st10{fill:#A6B660;}
	.st11{fill:#C4AA8E;}
	.st12{fill:#F6EED7;}
	.st13{fill:#DAC5A4;}
	.st14{fill:#EBDAB0;}
	.st15{fill:#607C48;}
	.st16{fill:#FFFFFF;stroke:#000000;stroke-miterlimit:10;}
	.st17{fill:#96948C;stroke:#000000;stroke-width:0.25;stroke-miterlimit:10;}
	.st18{fill:#FFFFFF;stroke:#000000;stroke-width:0.25;stroke-miterlimit:10;}
	.st19{fill:#889F49;stroke:#000000;stroke-width:0.25;stroke-miterlimit:10;}
	.st20{fill:#BDD777;stroke:#000000;stroke-width:0.25;stroke-miterlimit:10;}
	.st21{fill:#BDD777;}
	.st22{fill:#ABA18D;}
	.st23{opacity:0.86;fill:#ABA18D;}
	.st24{stroke:#000000;stroke-miterlimit:10;}
	.st25{opacity:0.62;stroke:#000000;stroke-miterlimit:10;}
	.st26{fill:#1A2A36;stroke:#000000;stroke-width:0.25;stroke-miterlimit:10;}
	.st27{opacity:0.76;fill:#705849;}
	.st28{fill:#F3A578;stroke:#000000;stroke-width:0.25;stroke-miterlimit:10;}
	.st29{stroke:#000000;stroke-width:0.25;stroke-miterlimit:10;}
	.st30{opacity:0.76;fill:#BEA783;}
	.st31{opacity:0.76;fill:#DBB08A;}
	.st32{fill:#070000;stroke:#000000;stroke-width:0.25;stroke-miterlimit:10;}
	.st33{fill:#9E0A0A;stroke:#000000;stroke-width:0.25;stroke-miterlimit:10;}
	.st34{fill:#606060;}
	.st35{fill:#0A0909;stroke:#000000;stroke-width:0.25;stroke-miterlimit:10;}
	.st36{fill:#840814;stroke:#000000;stroke-width:0.25;stroke-miterlimit:10;}
</style>
<g id="Layer_1">
</g>
<g id="cloud">
	<g>
		<rect x="1.58" y="1.84" class="st0" width="1363.19" height="767.6"/>
		<path class="st1" d="M933.48,372.21c-1.86-27.69-3.73-55.38-5.59-83.08c5.28-3.46,10.56-6.92,15.85-10.38
			c37.46-0.69,74.92-1.38,112.37-2.07c9.15,0.69,18.3,1.38,27.44,2.07c-1.55,29.77-3.11,59.54-4.66,89.31
			c-13.36,1.22-27.19,2.25-41.47,3.04C1000.29,373.15,965.49,373.29,933.48,372.21z"/>
		<path class="st2" d="M1517.49,422.56"/>
		<path class="st1" d="M1053.04,168.56c103.69,1.25,207.39,2.5,311.08,3.75c0,123.92,0,247.84,0,371.77
			c-7.77-13.33-15.54-26.65-23.3-39.98c-12.59-6.45-25.17-12.9-37.76-19.35c-18.48-4.11-36.97-8.21-55.45-12.32
			c-42.88-34.79-85.76-69.58-128.63-104.36c-0.31-25.1-0.62-50.19-0.93-75.29c16.47-1.38,32.93-2.77,49.4-4.15
			c2.2-5.5,4.39-11,6.59-16.5c2.83-5.22,5.66-10.45,8.49-15.67C1139.36,227.15,1096.2,197.85,1053.04,168.56z"/>
		<rect x="1117.16" y="413.17" class="st3" width="246.96" height="17.43"/>
		<polygon class="st3" points="1223.69,446.14 1364.28,440.73 1364.76,444.61 1224.18,450.03 		"/>
		<polygon class="st3" points="1224.44,457.9 1359.39,452.7 1359.13,450.54 1224.18,455.74 		"/>
		<polygon class="st3" points="1226.37,465.69 1360.81,460.5 1362.08,470.78 1227.65,475.96 		"/>
		<path class="st4" d="M1159.37,238.25c24.51-0.61,49.8-0.97,75.81-1.04c45.12-0.12,88.17,0.65,128.94,2.08c0,15.46,0,30.92,0,46.38
			c-65.56,0.98-131.12,1.96-196.68,2.94C1164.75,271.83,1162.06,255.04,1159.37,238.25z"/>
		<path class="st5" d="M905.39,373.07c71.93-1.08,143.85-2.15,215.78-3.23c12.01,25.19,24.01,50.39,36.02,75.58
			c-78.92,0.87-157.84,1.73-236.76,2.6C915.42,423.04,910.41,398.05,905.39,373.07z"/>
		<path class="st5" d="M1220.58,480.73c9.95-1.87,19.9-3.74,29.85-5.61c-29.75-25.07-59.51-50.14-89.26-75.21
			c-69.45,6.45-138.9,12.89-208.34,19.34c5.8,20.77,11.6,41.53,17.41,62.3C1053.68,481.27,1137.13,481,1220.58,480.73z"/>
		<path class="st1" d="M536.83,379.58c2.44-35,4.88-70.01,7.32-105.01c44.34-12.04,79.39-23.55,104.77-32.52
			c13.17-4.66,24.85-9.1,48.2-17.99c42.77-16.28,55.99-22.17,67.66-27.89c12.93-6.34,22.03-11.53,28.3-15.12
			c23.17-13.27,34.1-21.85,52.19-34.05c11.58-7.81,29.04-19.09,52.35-32.32c34.56,21.73,69.13,43.46,103.69,65.18
			c-51.34,28.73-102.68,57.46-154.02,86.19c8.05,6.11,16.11,12.21,24.16,18.32c4.63,2.56,9.26,5.12,13.89,7.68
			c5.44,3.01,10.87,6.01,16.31,9.02c-2.68,28.19-5.37,56.38-8.05,84.58C774.67,383.62,655.75,381.6,536.83,379.58z"/>
		<path class="st6" d="M560.52,268.79c12.24-3.46,28.09-8.11,46.25-13.93c21.08-6.75,51.45-17.06,86.33-31.08
			c23.94-9.62,50.32-21.12,77.91-34.71c38.93-24.8,77.86-49.6,116.79-74.4c32,20.94,64.01,41.88,96.01,62.83
			c-9.01,5.02-18.02,10.04-27.03,15.06c-24.86-16.62-49.71-33.23-74.57-49.85c-43.5,27.69-87,55.38-130.5,83.08
			c-32.62,12.98-65.25,25.96-97.87,38.94c-31.33,4.66-62.66,9.32-93.99,13.98C560.08,275.41,560.3,272.1,560.52,268.79z"/>
		<path class="st7" d="M221.14,325.52c13.54-14.74,27.23-26.23,36.55-24.97c17.3,2.35,13.43,47.79,15.05,47.77
			c0.95-0.02-1.64-15.69,7.95-33.92c4.98-9.47,14.9-22.77,21.75-22.15c1.14,0.1,3.84,0.73,5.9,6.23
			c8.03,21.41,4.83,112.77-2.17,112.15c-7.78-0.68,10.95-111.98,27.96-112.15c3.29-0.03,5.94,4.09,7.77,7.27
			c23.38,40.76,13.65,107.26,9.01,106.96c-5.9-0.39-0.32-108.8,29.83-111.11c11.94-0.92,29.05,14.72,33.56,29.08
			c6,19.14-12.39,25.18-14.91,46.73c-3.33,28.43,26.11,39.72,16.78,49.85c-9.64,10.46-56.02,14.64-205.07-7.27
			C214.44,388.49,217.79,357.01,221.14,325.52z"/>
		<path class="st4" d="M5.09,594.18c41.66-2.64,106.39-10.32,169.18-35.05c30.61-12.06,68.66-26.9,67.11-44.39
			c-2.35-26.55-94.42-42.88-100.47-43.91c-14.39-2.47-24.94-3.14-46.03-4.49c-50.17-3.2-81.43-5.2-92.72,7.06
			c-3.97,4.31-1.42,5.98-0.58,36.18c0.53,19.1-0.49,18.63,0,37C1.89,558.25,2.73,574.5,5.09,594.18z"/>
		<path class="st8" d="M2.16,8.26c4.43-8.71,8.86-9.36,13.28-3.12c4.43,6.59,8.86,8.45,13.28,3.12c4.43-0.11,8.86,2.88,13.28,3.3
			c4.43,9.33,8.86,2.49,13.28-3.3c4.43-0.02,8.86-3.37,13.28,4.17c4.43-0.56,8.86-9.93,13.28-4.17c1.86,0.94,3.73,1.19,5.59,4.11
			c1.86,7.32,3.73,4.07,5.59,7.27c1.86-5.33,3.73,2.1,5.59,3.86c1.86,5.03,3.73,10.52,5.59,7.52c-2.33,8.83-4.66,6.4-6.99,8.06
			c-2.33,3.12-4.66,5.22-6.99,4.4c-2.33,8.21-4.66,7.52-6.99,8.56c-2.33,9.52-4.66,0.05-6.99,3.9c4.31-8.43,8.62-12.07,12.93-6.64
			c4.31-8.42,8.62-3.82,12.93-3.49c4.31,3.25,8.62-4.4,12.93-2.58c4.31,0.1,8.62-10.8,12.93-7.55c-2.33-6.05-4.66,5.48-6.99,5.13
			c-2.33-8.63-4.66,12.55-6.99,10.44c-2.33,7.94-4.66,10.65-6.99,8.83c-2.33,2.46-4.66,3.3-6.99,6.75
			c3.38-1.69,6.76-5.49,10.14-9.06c3.38-1.75,6.76-6.06,10.14-1.06c3.38,3.02,6.76-12.32,10.14-4.93c3.38,0.44,6.76-4.58,10.14-5.19
			c-2.16-1.11-4.31-0.4-6.47,5.75c-2.16,5.89-4.31,7.55-6.47,10.21c-12.93,15.97-25.87,31.93-38.8,47.9
			c58.16-49.2,79.1-66.42,79.7-66.2c1.24,0.45-89.18,74.89-74.1,81.78c9.79,4.47,60.18-21.33,64.32-18.69
			c1.97,1.26-9.25,7.28-23.16,17.93c-6.96,5.33-14.59,11.82-21.58,19.45c-4.68-1.89-10.87,7.14-14.88,19.38
			c-4.02-8.46-5.87,14.19-1.89,14.11c4.44-3.78,15.16,0.11,27.71-7.97c12.55-6.03,26.93-9,38.71-19.84
			c11.78-6.13,20.94-10.55,23.06-9.57c1.72,0.79-2,4.76-8.91,10.68c-6.91,3.24-17.02,6.73-28.08,22.38
			c-5.53,0.35-11.31,3.45-17.04,8.25c-5.73,4.8-11.43,11.3-16.8,18.44c-5.37,1.84-10.43,11.14-14.88,14.15
			c-4.45-5.82-8.31,0.07-11.28,9.48c-2.98-1.05-5.07,5.6-6.01,9.04c-0.94-1.39-0.72-5.33,0.94,4.16c2.67,4.89,9.45,11.67,18.19-0.46
			c4.37,8.27,9.23,1.71,14.31-2.37c5.08-4.16,10.38-0.87,15.63-6.94c5.25-13.56,10.45-17.87,15.34-8.69
			c4.88,0.21,9.45-13.8,13.43-8.02c3.26-11.7,5.92-3.51,8.15-8.36c2.23,0.03,4.03-8.53,5.57-7.36c1.54-2.86,2.82-6.54,4.01-9.2
			c1.19-2.66,2.3-4.29,3.49-3.06c2.38-0.8,5.1-7.92,9.53-5.52c5.35,2.52,12.06,2.08,17.75,5.18c5.69,3.5,10.35,8.38,11.62,13.52
			c0.84,3.4,0.07,6.44-2.35,9.64c-2.42,3.33-6.49,3.78-12.26,10.59c-2.88,4.25-6.19,6.44-9.93,6.67c-3.74,1.15-7.9,19.34-12.5,8.02
			c-4.6,18.73-9.64,13.76-15.11,9.86c-5.48-2.46-11.39-0.06-17.75,12.07c-6.25,6.54-15.74,11.7-23.29,16.69
			c-7.55,0.95-13.16,13.83-11.67,11.35c1.29-0.13,7.63,0.11,16.5-5.8c8.87-6.62,20.27-14.79,31.67-15.25
			c11.4-16.01,22.81-0.44,31.7-15.24c8.89-1.27,15.27-2.55,16.6-5.77c1.32,3.86-2.59-5.28-9.13,9.36
			c-6.54,2.91-15.7,17.09-24.88,18.05c-9.18,5.83-18.38,4.88-25,17.98c-6.62,6.64-10.65,0.61-9.5,9.13
			c1.19-3.97,7.41-5.37,16.21-6.62c8.8,9.14,20.18-17.99,31.71-16.64c11.53,2.45,23.2-8.95,32.57-16.31
			c9.37-1.06,16.45-8.05,18.78-5.61c1.57,0.04,1.16-2.14-1.01,6.58c-2.17,7.87-6.11,18.07-11.63,13.44
			c-5.51,14.82-12.59,8.04-21.04,17.25c-8.45,6.05-18.26,12.22-29.25,18.02c-23.15,12.22-45.12,19.38-56.46,23.85
			c-5.67,2.23-8.68,3.79-7.86,4.97c1.18,9.3,9.38,1.96,21.18,0.05c11.8-5.75,27.21-6.42,42.82-5.64
			c15.61-2.95,31.42,2.34,44.03-4.79c12.61-0.73,22.01-0.23,24.8,2.59c2.57,2.59-0.74,6.19-7.66,12.02
			c-6.92-0.06-17.44,9.8-29.31,17.49c-11.87,8.74-25.08,4.27-37.37,18.41c-12.29,8.69-23.65,11.46-31.82,14.78
			c-8.17,6.04-13.15,2.29-12.68,6.61c0.56-1.25,8.09-1.7,19.21-6.86c11.12-10.57,25.82,0.95,40.72-16.25
			c14.9-10.48,29.98-12.89,41.86-15.6c11.88-5.54,20.56-13.36,22.64-4.91c1.76,7.96-1.41-6.07-7.55,9.28
			c-6.13,8.47-15.22,1.03-25.29,17.72c-10.07,9.87-21.12,17.97-31.17,20.55c-10.05,1.81-19.1,11.74-25.17,17.79
			c-6.07,4.85-9.16,8.3-7.3,9.43c2.17,1.31,10.42-0.95,21.76-4.97c11.34-12.84,25.78-10.8,40.35-15.52
			c14.57-12.88,29.26-10.48,41.1-15.21c19.5-7.79,22.91-5,24.03-4.02c5.1,4.43-19.27,26.33-34.71,40.2
			c-12.5,11.24-8.75,6.61-32.18,26.31c-22.78,19.16-28.33,25.22-37.73,24.75c-9.23-0.46-14.67-6.85-29.61-6.38
			c-3.57,0.11-4.69,0.52-9.47,0.54c-9.56,0.04-15.79-1.56-21.5-2.63c-4.33-0.81-14.42-1.29-34.59-2.26
			c-8.68-0.41-18.23-0.87-23.92-0.97c-12.85-0.22-33,0.94-60.13,8.42c0-138.73,0-277.45,0-416.18c0-4.08,0-8.16,0-12.24
			s0-8.16,0-12.24c0-1.19,0,0,0-11.08C2.16,17.07,2.16,10.2,2.16,8.26z"/>
		<path class="st9" d="M436.29,423.07c-6.26-1.09-22.17-4.56-31.86-15.38c-13.1-14.62-5.7-32.5-2.66-39.86
			c11.39-27.54,33.91-26.16,39.56-44.69c9.76-32.04-41.25-61.94-30.76-66.2c5.69-2.31,18.75,7.25,29.36,4.67
			c14.15-3.44,2.08-23.15,12.58-49.85c9.38-23.84,32.54-42.52,40.55-41.28c7.07,1.09,1.11,17.49,11.19,19.47
			c10.55,2.08,26.94-13.96,32.16-12.46c8.41,2.41-27.73,46-18.18,49.07c7.81,2.51,43.05-23.13,46.14-21.81
			c3.27,1.4-37.43,29.51-25.17,38.16c6.23,4.4,21.99,0.84,26.57,5.45c5.99,6.04-15.03,18.23-13.98,18.69
			c1.41,0.62,37-22.14,37.75-21.81c0.76,0.34-38.07,23.09-29.36,30.37c6.49,5.42,36.57-0.04,37.75,2.34
			c1.36,2.73-39.19,8.43-39.15,16.36c0.03,6.59,28.1,8.89,27.96,14.8c-0.2,8.41-57.48,15.28-57.33,15.58
			c0.15,0.29,50.59-10.42,58.72-3.89c9.7,7.79-49.94,32.76-39.15,45.95c7.25,8.86,42.94,8.38,68.51,7.01
			c-2.56,5.03-7.3,12.44-16.22,19.4c-2.28,1.78-11.99,9.11-30.72,14.52C546.49,414.64,498.64,420.99,436.29,423.07z"/>
		<path class="st10" d="M1.91,771.37c-0.53-33.17-0.86-66.33-1.01-99.5c-0.11-25.52-0.11-51.04,0-76.56
			c34.32-2.71,62.17-7,81.54-10.51c6.11-1.11,71.14-11.74,130.61-43.04c16.23-8.54,27.2-16.17,28.36-26.21
			c1.3-11.26-10.35-20.19-12.61-21.86c-16.98-12.54-39.45-11.11-43.3-17.21c-3.86-6.12,11.72-18.68,97.43-47
			c43.01,2.45,86.02,4.9,129.03,7.36c28.9,20.25,57.79,40.5,86.69,60.75c29.95,13.31,59.91,26.61,89.86,39.92
			c39.49,7.72,78.98,15.45,118.47,23.17c46.91,3.78,94.93,7.18,144.01,10.12c182.07,10.94,353.83,14.24,513.13,12.46
			c0.03,62.96,0.05,125.92,0.08,188.89C910.1,771.9,456,771.64,1.91,771.37z"/>
		<path class="st11" d="M961.45,482.81c38.68-1.56,77.37-3.12,116.05-4.67c51.27,0.19,102.54,0.39,153.81,0.58
			c2.3-0.81,4.91-1.6,7.81-2.31c4.88-1.19,9.36-1.83,13.15-2.16c10.54,0.68,26.24,2.53,43.81,8.05c12.42,3.9,30.05,9.43,45.35,22.95
			c18.83,16.64,22.26,34.87,23.34,41.17c1.7,9.99,0.64,18.41-0.64,24.15c-194.19-4.5-388.38-9-582.58-13.5
			C841.51,532.31,901.48,507.56,961.45,482.81z"/>
		<path class="st12" d="M967.03,561.35c33.24,0.77,66.48,1.54,99.72,2.31c4.36-2.2,8.72-4.41,13.08-6.61
			c-4.66-8.48-9.32-16.96-13.98-25.44c-27.34-4.85-54.68-9.69-82.03-14.54c-15.09,0.57-22.15,4.43-24.24,5.71
			c-13.5,8.26-5.59,22.11-2.8,27C959.78,555.03,964.04,558.95,967.03,561.35z"/>
		<path class="st12" d="M986.61,511.36c0-7.44,0-14.88,0-22.33c20.82-1.21,41.63-2.42,62.45-3.63c5.92-2.28,11.84-4.56,17.77-6.84
			c12.12,0.16,24.25,0.32,36.37,0.47c1.53,8.53,3.06,17.05,4.59,25.58c0.77,1.21,5.89,9.72-2.8,17.65
			c-7.74,7.07-23.29,10.82-39.15,9.35c-15.37-1.37-36.71-4.46-58.72-11.94C999.19,516.98,992.39,514.12,986.61,511.36z"/>
		<path class="st12" d="M1107.79,504.61c26.72,0.35,53.44,0.69,80.16,1.04c3.11,5.02,6.21,10.04,9.32,15.06
			c-6.84,4.15-13.67,8.31-20.51,12.46c-23.92-3.63-47.85-7.27-71.77-10.9c1.5-0.59,6.68-2.77,8.39-6.75
			C1115.94,509.55,1108.4,504.97,1107.79,504.61z"/>
		<path class="st2" d="M1324.97,535.77"/>
		<path class="st12" d="M1187.95,505.65c9.01-1.04,18.02-2.08,27.03-3.12c13.98-1.04,27.96-2.08,41.95-3.12
			c2.17,3.29,4.35,6.58,6.52,9.87c17.09-0.87,34.18-1.73,51.27-2.6c7.46,5.54,14.91,11.08,22.37,16.62
			c-8.7,4.33-17.4,8.65-26.1,12.98c-15.22-3.63-30.45-7.27-45.67-10.9c-4.35,2.6-8.7,5.19-13.05,7.79
			c-22.5-1.62-44.99-3.24-67.49-4.87c3.65-3.36,7.31-6.72,10.96-10.07C1193.14,514.04,1190.55,509.84,1187.95,505.65z"/>
		<path class="st12" d="M1109.65,484.36c11.08-0.88,19.85-2.1,26.1-3.12c5.82-0.95,9.33-1.7,12.13-0.64
			c4.71,1.77,5.21,6.68,3.71,9.99c-2.72,6.01-14.75,13.48-27.96,11.42C1112.36,500.26,1104.55,492.23,1109.65,484.36z"/>
		<path class="st12" d="M1222.57,483.23c2.25,6.08,4.51,12.16,6.76,18.24c9.2-0.68,18.4-1.37,27.6-2.05
			c2.17,3.29,4.35,6.58,6.52,9.87c15.54-2.08,31.07-4.15,46.61-6.23c-3.4-6.5-6.81-12.99-10.21-19.49
			C1274.09,483.45,1248.33,483.34,1222.57,483.23z"/>
		<path class="st13" d="M526.77,460.82c13.26,3.35,26.51,6.69,39.77,10.04c13.05,8.88,26.1,17.77,39.15,26.65
			c30.86-1.96,61.73-3.92,92.59-5.88c27.14,7.04,54.27,14.08,81.41,21.12c16.57-1.62,33.14-3.23,49.71-4.85
			c8.08,3.58,16.16,7.15,24.24,10.73c3.94,1.04,7.87,2.08,11.81,3.12c-27.96,11.77-55.93,23.54-83.89,35.31
			c-42.05-6.35-84.1-12.69-126.15-19.04c-15.33-7.04-30.66-14.08-45.98-21.12c-32.93-8.88-65.87-17.77-98.8-26.65
			C516,480.44,521.38,470.63,526.77,460.82z"/>
		<path class="st14" d="M510.61,490.25c-2.28,3.23-4.56,6.46-6.84,9.69c21.75,10.73,43.5,21.46,65.25,32.19
			c16.77,4.64,33.53,9.27,50.3,13.91c29.22,4.88,58.44,9.77,87.65,14.65c39.34,2.84,78.68,5.68,118.02,8.51
			c54.76,2.86,109.52,5.72,164.29,8.57c15.97,0.83,80.46,3.22,166.1,4.83c23.39,0.44,43.11,0.71,57.57,0.88
			c21.37,0.51,43.29,0.81,65.71,0.85c29.37,0.06,57.87-0.33,85.46-1.07c0-4.24,0-8.48,0-12.72c-36.64-0.85-73.28-1.7-109.92-2.55
			c-67.75-1.57-135.49-3.14-203.24-4.71c-89.81-2.08-179.61-4.16-269.42-6.24c-42.05-6.35-84.1-12.69-126.15-19.04
			c-15.33-7.04-30.66-14.08-45.98-21.12C576.48,508.02,543.54,499.13,510.61,490.25z"/>
		<path class="st15" d="M527.01,464.07c6.93,2.15,13.86,4.3,20.8,6.45c3.47,1.07,6.93,4.83,10.4,7.25c1.73,20.23,3.47-4.55,5.2,5.34
			c1.73-7.57,3.47-15.17,5.2-6.14c3.41,15.59,6.82-3.06,10.24,7.91c1.71,14.9,3.41,9.83,5.12,13.85c1.71,0.71,3.41-16.18,5.12-4.64
			c1.71-15.87,3.41-1.11,5.12-3.4c1.71-1.11,3.41,13.12,5.12,12.66c3.41,9.84,6.82-6.34,10.24,7.86c5.38-6.3,10.76-5.65,16.14-3.14
			c5.38,3.33,10.76-20.9,16.14,0.62c2.69-9.41,5.38-1.17,8.07,0.99c2.69-8.14,5.38-3.17,8.07-1.72c5.38,5.43,10.76-9.56,16.14-1.79
			c2.69,1.77,5.38-2.85,8.07,4.9c2.69-10.14,5.38,2.52,8.07-5.3c1.34,9.93,2.69,3.52,4.03,6.09c1.34,1.73,2.69,3.85,4.03-11.53
			c2.69-9.36,5.38-22.13,8.07,3.31c4.73,2.12,9.46,8.88,14.19,4.23c2.36-1.7,4.73-12.64,7.09-7.42c2.36,19.82,4.73,4.2,7.09,12.23
			c4.73,21.97,9.46,5.27,14.19,4.52c2.36-2.61,4.73-1.98,7.09-5.85c2.36-2.62,4.73,6.12,7.09,10.37c4.73,0.72,9.46-0.48,14.19,4.52
			c4.73-0.8,9.46,1.8,14.19,4.52c2.17-7.47,4.33,1.82,6.5,11.4c2.17,1.04,4.33-1.08,6.5-12.56c2.17-4.87,4.33-2.06,6.5-6.12
			c2.17,6,4.33,3.14,6.5,4.16c4.33,13.18,8.67,1.88,13,2.77c4.33,5.29,8.67,0.81,13-5.88c5.42-5.59,10.83,9.56,16.25,8.05
			c2.71-7.28,5.42,13.27,8.12,5.89c2.71-7.36,5.42,24.45,8.12,2.16c2.01-8.73,4.11-4.43,6.28-10.35c2.17-12.03,4.42-6.36,6.73,4.47
			c2.31-2.95,4.68-2.79,7.11-8.34c2.43,4.25,4.9,9.25,7.42,4.67c5.04-13.88,10.24-0.43,15.51-7.24c1.32-10.79,2.64,1.93,3.97-9.69
			c0.66,14,1.33,12.15,1.99,10.34c0.66,4.13,1.33-21.71,1.99-8.55c0.67-2.47,1.33-0.57,2-11.35c0.67,4.17,1.33-23.47,2-1.04
			c0.33-11.5,0.67-23.33,1-13.23c0.33,1.98,0.67,7.28,1,14.82c0.33,5.46,0.67-0.69,1-1.56c0.33,5.2,0.67,8.26,1,13.52
			c2.66,15.59,5.32,0.91,7.97-1.07c2.64,4.78,5.27,5.12,7.87-7.71c1.3,10.27,2.59-0.41,3.88,0.71c1.28-12.24,2.56-2.74,3.83-0.3
			c1.27-3.95,2.52,8.36,3.77,4.67c1.25,1.11,2.48-17.38,3.7-15.13c1.49,4.74,2.91-21.51,4.25,7.32c0.67-2.14,1.32,1.79,1.95-1.45
			c0.63,3.49,1.25-4.17,1.85-15.66c0.3,0.89,0.59,16.34,0.88,5.48c0.29-3.56,0.58,3.27,0.86-15.49c0.56-9.92,1.11,3.29,1.64-0.69
			c1.06,33.36,2.07,10.32,3.01,8.25c1.89-19.15,3.55,8.44,5.03-0.42c0.37-19.11,0.73,9.6,1.07-9.28c0.09,23.34,0.17,2.94,0.26,6.92
			c0.09,3.09,0.17,14.07,0.25-12.9c0.17-0.43,0.33-14.97,0.5-2.68c0.65,5.27,1.27-18.93,1.84,6.59c0.5,12.14,0.96,7.24,1.39,7.24
			c0.43,12.5,0.83-6.22,1.2-1.69c0.37-9.17,0.71-15.46,1.02-7.5c0.16,16.2,0.3,13.87,0.44,7.89c0.14-1.52,0.28-7.72,0.4-14.03
			c0.26-0.25,0.49,8.85,0.69,8.38c0.1,8.88,0.2,24.8,0.29,4.29c0.09-19.5,0.18-9.61,0.26-13.55c0.32-24.01,0.55,3.43,0.71-10.51
			c0.08,6.05,0.14,2.56,0.19,7.09c0.05-17.22,0.07-7.34,0.09-8.91c0.03,3.99,0-8.63-0.06-10.48c-0.03-15.02-0.08,7.68-0.13-13.28
			c-0.05-2.58-0.11,6.19-0.18,3.89c-0.13,2.84-0.29,7.83-0.46,7.14c-1.26-20.91-2.52,14.83-3.78,8.39
			c-1.26-4.32-2.52-24.5-3.78-6.86c-1.26,3.25-2.52,2-3.78,2.55c-0.63-1.49-1.26-8.22-1.89-12.84c-0.31-0.91-0.63-1.92-0.94-7.77
			c-0.31-4.05-0.63,7.85-0.94,7.53c-1.26,12.43-2.52,0.8-3.78-3.83c-1.26,6.17-2.52-16.96-3.78-8.2
			c-1.26,0.53-2.52,16.19-3.78,10.53c-0.31-13.55-0.63,6.25-0.94,2.58c-0.31-14.18-0.63,4.68-0.94,1.39
			c-0.16,2.27-0.31-7.13-0.47-4.8c-0.16-6.86-0.31,8.23-0.47,7.2c-0.16,0.98-0.31,3.62-0.47,2.96c-0.08-0.33-0.16-1.1-0.24-3.51
			c-0.08,2.24-0.16,0.79-0.24-13.32c0-9.03,0-13.9,0-1.96c0,11.93,0,11.26,0-9.04c0-7.76,0-10.05,0-11.01
			c-2.25-2.53-4.5,0.35-6.74,6.07c-2.25-1.34-4.5,5.23-6.74-10.48c-2.25-4.8-4.5,0.09-6.74-12.2c-2.25-1.73-4.5,3.32-6.74,1.5
			c-4.5,3.04-8.99,3-13.49-8.18c-2.25-5.31-4.5-12.24-6.74-10.18c-2.25,3.5-4.5,7.09-6.74,3.24c-2.25-1.84-4.5,2.86-6.74,4.89
			c-2.25-5.43-4.5,3.36-6.74-9.87c-4.5-15.8-8.99,0.07-13.49-10.15c-1.34,5.51-2.68,32.83-4.02,12.86
			c-1.34-6.96-2.68,2.99-4.02-0.78c-2.68,1.43-5.36-0.8-8.04-10.5c-2.68-8.13-5.36,4.54-8.04,6.92c-2.68-12.01-5.36,5.52-8.04-7.66
			c-5.36,12.66-10.72,3.67-16.08,1.58c-5.36-0.25-10.72-0.89-16.08-0.75c-21.45,0.56-42.89,1.11-64.34,1.67
			c-4.44-0.22-8.88,0.09-13.32,0.14c-4.44-13.52-8.88-2.11-13.32-1.47c-2.22-6.13-4.44-5.59-6.66,6.37
			c-2.22-9.9-4.44-3.84-6.66-6.41c-2.22-2.5-4.44,18.2-6.66,5.83c-2.22-2.59-4.44,0.1-6.66-7.13c-2.22,0.59-4.44,6.28-6.66,3.01
			c-1.11,5.21-2.22,10.09-3.33,8.12c-1.11,8.72-2.22,6.53-3.33-6.89c-4.44-0.12-8.88,11.89-13.32-5.58
			c-4.62,13.55-9.3,11.69-14.05,7.47c-2.37,10.04-4.76,9.2-7.17,9.7c-2.41,6.37-4.83,11.63-7.26-5.18c-2.44-3.2-4.89-1.67-7.36-2.38
			c-2.47,7.73-4.95-0.62-7.45,11.04c-5-0.01-10.07,12.94-15.19,3.35c-5.08,2.06-10.13,6.99-15.15,8.15
			c-2.51,7.04-5.01,9.3-7.51,9.63c-2.49-17.92-4.98-11.73-7.46-6.34c-2.48,2.59-4.95,3.11-7.41,11.05
			c-2.46,3.58-4.92,5.53-7.36-4.14c-4.89,5.8-9.75-1.53-14.57,3.66c-3.01,3-6.01,6-9.02,9.01c-3.01,3-6.01,6-9.02,9.01
			c-6.01,6-12.02,12.01-18.03,18.01C523.33,445.54,525.17,454.81,527.01,464.07z"/>
		<path class="st10" d="M385.73,435.36c14.82,0.29,21.05-2,23.99-4.12c6.36-4.59,2.07-11.74,6.91-12.74
			c2.72-0.56,5.62,1.39,9.3,2.78c7.57,2.87,15.86,2.43,39.47,0.23c29.8-2.78,44.71-4.17,48.91-5.26
			c17.63-4.57,27.97-11.16,36.36-8.75c2.88,0.83,4.43,2.41,5.3,3.65c-10.57,8.6-21.15,17.19-31.72,25.79
			c0.84,7.96,1.68,15.92,2.51,23.89c-7.66,13.04-15.33,26.08-22.99,39.12C464.43,478.41,425.08,456.89,385.73,435.36z"/>
		<ellipse class="st12" cx="1179.33" cy="548.71" rx="28.2" ry="8.34"/>
		<ellipse class="st12" cx="1299.01" cy="548.71" rx="38.08" ry="8.34"/>
		<ellipse class="st12" cx="1117.6" cy="543.78" rx="12.61" ry="7.02"/>
		<ellipse class="st12" cx="911.11" cy="541.48" rx="45.67" ry="8.31"/>
		<ellipse class="st12" cx="945.37" cy="513.06" rx="11.42" ry="13.64"/>
		<path class="st6" d="M841.2,260.58c62.76-36,125.53-72,188.29-108c54.06,36.69,108.13,73.38,162.19,110.08c0,6.92,0,13.85,0,20.77
			c-27.07-17.22-54.46-35.21-82.03-54c-28.11-19.16-54.81-38.05-80.16-56.6c-55.31,35.13-110.61,70.27-165.92,105.4
			C856.12,272.35,848.66,266.46,841.2,260.58z"/>
		<path class="st16" d="M884.27,373.72c16.4-0.5,32.81-1.01,49.21-1.51c-1.86-27.69-3.73-55.38-5.59-83.08
			c5.28-3.46,10.56-6.92,15.85-10.38c35.11-0.87,70.22-1.73,105.33-2.6c11.5,0.87,22.99,1.73,34.49,2.6
			c-1.55,29.77-3.11,59.54-4.66,89.31c13.36,0,26.72,0,40.08,0c-0.31-25.1-0.62-50.19-0.93-75.29c16.47-1.38,32.93-2.77,49.4-4.15
			c2.2-5.5,4.39-11,6.59-16.5c-9.29-6.07-18.58-12.13-27.87-18.2c-82.9,0.93-165.81,1.86-248.71,2.79
			c-11.29,7.17-22.59,14.35-33.88,21.52c9.32,5.37,18.64,10.73,27.96,16.1c-0.86,9.35-1.71,18.7-2.57,28.04
			C887.41,339.49,885.84,356.6,884.27,373.72z"/>
		<g>
			<path class="st2" d="M720.04,345.24v0.11h16.43v-0.05C731,345.28,725.52,345.26,720.04,345.24z M761.99,290.57v0.1
				c5.49,0.05,10.97,0.09,16.45,0.13v-0.23H761.99z"/>
			<path class="st17" d="M847.64,287.76c-67.01-0.36-134.02-0.7-201.01-1.06c0.86,22.24,1.7,44.48,2.56,66.71
				c66.99,0.55,133.98,1.11,200.98,1.67C849.32,332.64,848.48,310.2,847.64,287.76z M814.76,345.61c-26.1-0.1-52.19-0.2-78.29-0.32
				v0.05h-16.43v-0.11c-14.35-0.06-28.71-0.11-43.06-0.17c-1.68-18.36-3.36-36.73-5.06-55.09c30.03,0.23,60.06,0.47,90.07,0.7v-0.1
				h16.45v0.23c12.12,0.09,24.22,0.19,36.33,0.28V345.61z"/>
			<path class="st3" d="M814.76,291.09v54.52c-26.1-0.1-52.19-0.2-78.29-0.32v-54.73h-16.43v54.66
				c-14.35-0.06-28.71-0.11-43.06-0.17c-1.68-18.36-3.36-36.73-5.06-55.09c30.03,0.23,60.06,0.47,90.07,0.7v54.67h16.45v-54.54
				C790.56,290.9,802.66,291,814.76,291.09z"/>
			<path class="st18" d="M736.47,290.57v54.73c-5.48-0.02-10.95-0.04-16.43-0.06v-54.66H736.47z"/>
			<path class="st2" d="M736.47,345.3v0.05h-16.43v-0.11C725.52,345.26,731,345.28,736.47,345.3z"/>
			<path class="st18" d="M778.44,290.81v54.54h-16.45v-54.67C767.49,290.73,772.96,290.77,778.44,290.81z"/>
			<path class="st2" d="M778.44,290.57v0.23c-5.48-0.04-10.95-0.08-16.45-0.13v-0.1H778.44z"/>
		</g>
		<g>
			<path class="st2" d="M1181.36,228.96v0.12h9.4v-0.05C1187.62,229.01,1184.5,228.99,1181.36,228.96z M1205.38,174.31v0.1
				c3.14,0.05,6.28,0.09,9.42,0.13v-0.23H1205.38z"/>
			<path class="st17" d="M1254.43,171.48c-38.37-0.35-76.76-0.7-115.13-1.05c0.49,22.23,0.99,44.47,1.46,66.7
				c38.37,0.56,76.74,1.12,115.11,1.67C1255.4,216.37,1254.92,193.92,1254.43,171.48z M1235.61,229.35
				c-14.95-0.1-29.9-0.2-44.85-0.32v0.05h-9.4v-0.12c-8.21-0.05-16.45-0.11-24.66-0.17c-0.97-18.35-1.93-36.72-2.9-55.08
				c17.2,0.23,34.39,0.47,51.59,0.7v-0.1h9.42v0.23c6.94,0.09,13.87,0.19,20.81,0.28V229.35z"/>
			<path class="st3" d="M1235.61,174.83v54.52c-14.95-0.1-29.9-0.2-44.85-0.32v-54.73h-9.4v54.65c-8.21-0.05-16.45-0.11-24.66-0.17
				c-0.97-18.35-1.93-36.72-2.9-55.08c17.2,0.23,34.39,0.47,51.59,0.7v54.67h9.42v-54.54
				C1221.74,174.64,1228.68,174.74,1235.61,174.83z"/>
			<path class="st18" d="M1190.76,174.31v54.73c-3.14-0.02-6.26-0.04-9.4-0.07v-54.65H1190.76z"/>
			<path class="st2" d="M1190.76,229.03v0.05h-9.4v-0.12C1184.5,228.99,1187.62,229.01,1190.76,229.03z"/>
			<path class="st18" d="M1214.8,174.54v54.54h-9.42v-54.67C1208.52,174.46,1211.66,174.5,1214.8,174.54z"/>
			<path class="st2" d="M1214.8,174.31v0.23c-3.14-0.04-6.28-0.08-9.42-0.13v-0.1H1214.8z"/>
		</g>
		<g>
			<path class="st3" d="M1249.45,308.8v0.15c4.29,0.06,8.58,0.12,12.87,0.18v-0.34H1249.45z M1216.61,388.22h12.87v-0.06
				c-4.29-0.04-8.58-0.07-12.87-0.1V388.22z"/>
			<path class="st17" d="M1316.48,304.71c-52.44-0.51-104.87-1.02-157.31-1.53c0.68,32.24,1.33,64.49,2.01,96.72
				c52.43,0.81,104.85,1.62,157.28,2.42C1317.79,369.78,1317.13,337.25,1316.48,304.71z M1290.76,388.61
				c-20.43-0.15-40.85-0.31-61.28-0.46v0.06h-12.87v-0.16c-11.23-0.08-22.45-0.17-33.68-0.25c-1.31-26.62-2.65-53.24-3.96-79.86
				c23.49,0.34,46.99,0.68,70.48,1.02v-0.15h12.87v0.34c9.47,0.13,18.97,0.27,28.44,0.41V388.61z"/>
			<path class="st3" d="M1290.76,309.55v79.07c-20.43-0.15-40.85-0.31-61.28-0.46V308.8h-12.87v79.25
				c-11.23-0.08-22.45-0.17-33.68-0.25c-1.31-26.62-2.65-53.24-3.96-79.86c23.49,0.34,46.99,0.68,70.48,1.02v79.26h12.87v-79.08
				C1271.79,309.27,1281.28,309.41,1290.76,309.55z"/>
			<path class="st18" d="M1229.48,308.8v79.35c-4.29-0.04-8.58-0.07-12.87-0.1V308.8H1229.48z"/>
			<path class="st3" d="M1229.48,388.16v0.06h-12.87v-0.16C1220.9,388.09,1225.19,388.12,1229.48,388.16z"/>
			<path class="st18" d="M1262.32,309.14v79.08h-12.87v-79.26C1253.74,309.02,1258.03,309.08,1262.32,309.14z"/>
			<path class="st3" d="M1262.32,308.8v0.34c-4.29-0.06-8.58-0.12-12.87-0.18v-0.15H1262.32z"/>
		</g>
		<rect x="945.37" y="292.23" class="st16" width="73.43" height="15.71"/>
		<rect x="983.82" y="307.94" class="st17" width="34.98" height="65.34"/>
		<rect x="945.6" y="308.8" class="st17" width="38.22" height="64.92"/>
		<path class="st2" d="M1161.17,399.9c25.71,0.37,51.41,0.75,77.12,1.12c41.95,23.37,83.89,46.73,125.84,70.1
			c0,24.32,0,48.63,0,72.95c-7.77-13.33-15.54-26.65-23.3-39.98c-14.91-7.27-29.83-14.54-44.74-21.81
			c-16.16-3.29-32.31-6.58-48.47-9.87C1218.79,448.25,1189.98,424.08,1161.17,399.9z"/>
		<path class="st5" d="M1219,400.25c5.59,0.26,11.19,0.52,16.78,0.78c41.95,23.37,83.89,46.73,125.84,70.1c0,4.41,0,8.83,0,13.24
			C1314.07,456.32,1266.54,428.29,1219,400.25z"/>
		<line class="st2" x1="1260.65" y1="424.41" x2="1254.26" y2="474.34"/>
		<line class="st2" x1="1292.81" y1="442.31" x2="1282.38" y2="478.56"/>
		<line class="st2" x1="1324.97" y1="461.27" x2="1318.45" y2="491.23"/>
		<line class="st2" x1="1354.29" y1="478.56" x2="1343.15" y2="499.42"/>
		<path class="st19" d="M952.82,419.25c51.03,4.92,102.07,9.83,153.1,14.75c34.49,9,68.98,18,103.47,27
			c3.73,6.58,7.46,13.15,11.19,19.73c-47.28-1.97-98.72-2.91-153.74-2.17c-33.75,0.46-65.99,1.51-96.6,2.98
			C964.43,460.78,958.63,440.01,952.82,419.25z"/>
		<path class="st20" d="M953.99,413.23c-1.09-3.4-2.17,0.64-3.26-11.42c-1.09-1.94-2.17,7.21-3.26-11.42
			c0.58-6.8,1.17,7.26,1.75,9.52c0.58-6.79,1.17,12.61,1.75,2.67c1.17-4.32,2.33,7.63,3.5-4.41c2.33,11.81,4.66,9.32,6.99,7.79
			c-0.08,7.57-0.16,7.98-0.23,0.96c-0.08-7.09-0.16-3.58-0.23-12.12c-0.16,0.07-0.31-10.43-0.47-11.16
			c1.71,11.7,3.42,12.52,5.13,9.09c0.85,11.46,1.71,3.25,2.56,10.58c0.85,6.04,1.71,1.9,2.56-1.49c1.09,5.14,2.17-5,3.26-3.63
			c1.09-7.5,2.17-14.86,3.26-11.95c1.09-18.52,2.17,0.5,3.26-8.9c0.27,5.68,0.54,5.86,0.82-0.6c0.27-4.86,0.54-1.84,0.82-8.91
			c0.54-5.21,1.09-5.2,1.63,2.84c0.16,21.97,0.31,8.28,0.47,8.14c0.08-11.28,0.16,3.07,0.23,12.04c0.08-5.8,0.16-5,0.23-5.9
			c0.16,1.06,0.31,8.12,0.47,7.41c0.08-2.44,0.16,2.77,0.23,8.95c0.08-1.23,0.16,2.1,0.23-2.08c1.03-3.46,3.23,2.92,6.01-4.57
			c1.39,6.89,2.93,3.78,4.55-0.88c1.62,8.51,3.31-5.46,5.01-4.3c6.79,5.4,13.68-6.96,16.13-6.35c0.6-5.11,0.9-8.57,0.94-5.51
			c0.05,1.79-0.15,8.99-0.53,7.37c-0.38,5.95-0.95,0.32-1.64-2.73c-0.69-0.37-1.5-4.53-2.38,11.42c-1.75-4.79-3.74,5.8-5.48,9.58
			c-1.74,0.4-3.23-0.33-3.96,2.2c4.51,2.64,9.01-1.21,13.52-1.56c4.51,2.85,9.01-2.53,13.52-1.56c-0.78-12.87-1.55,15.79-2.33,10.64
			c-0.19-0.2-0.39,22.92-0.58,9.46c-0.19-4.07-0.39,9.65-0.58,2.55c-0.19-1.47-0.39,12.39-0.58,5.85
			c-0.19,0.24-0.39-12.41-0.58-7.22c-2.02,8.24-4.04,7.17-6.06,5.35c-2.02,0.96-4.04,1.53-6.06-6.65c-2.02-3.57-4.04-2.29-6.06-6.45
			c-2.02,4.27-4.04,4.91-6.06,4.3c-4.04,12.18-8.08,4.14-12.12-1.19c-4.04-13.95-8.08-6.75-12.12-2.27
			c-4.04-11.25-8.08-0.21-12.12-1.29C962.07,412.08,958.03,409.59,953.99,413.23z"/>
		<path class="st21" d="M1140.41,433.48c-11.01-3.96-21.3-8-30.88-12.04c-4.79-2.02-9.41-4.05-13.85-6.07s-8.72-4.03-12.82-6.02
			c-4.1,6.41-8.04,5.13-11.8-4.43c-1.88-6.16-3.73-3.82-5.53,1.65c-1.8,4.45-3.56,9.28-5.28-8.91c-0.18,14.52-0.36-3.19-0.54,5.52
			c-0.09,8.52-0.18,17.8-0.27,2.25c-0.09,1.15-0.18-25.26-0.27-12.55c-0.18-13.81-0.36-8.73-0.54-5.19
			c-0.09-7.48-0.18-13.08-0.27,0.23c-0.09,4.44-0.18,13.16-0.27,12.49c-0.18,11.15-0.36-8.85-0.54,1.52
			c-0.18-8-0.36,11.09-0.54-12.54c-0.36-15.37-0.72,3.32-1.09,2.58c-0.36-16.91-0.72,1.22-1.09-1.19c-0.36,0.97-0.72,1.1-1.09-6.77
			c-0.36-0.29-0.72-2.4-1.09-5.41c-0.18-1.42-0.36-4.88-0.54-4.17c-0.18-5.25-0.36,2.34-0.54,9.4c-0.09,9.87-0.18,20.1-0.27,17.13
			c-0.09-15.53-0.18-0.75-0.27-0.07c-0.18,14.23-0.36-2.17-0.54-7.65c-0.18-6.89-0.36,12.75-0.54,6.74
			c-0.18-1.71-0.36,11.46-0.54-11.18c-0.18,1.4-0.36,5.51-0.54,0.84c-0.18,8.73-0.36-8.89-0.54-11.67
			c-0.18,15.54-0.36,4.99-0.54,7.22c-0.18-4.78-0.36-7.32-0.54-5.64c-0.09-4.52-0.18-2.43-0.27-8.75
			c-0.09-11.34-0.18-14.23-0.27-5.95c-0.18,4.74-0.36-11.98-0.54,4.89c-0.36-14.19-0.72-13.7-1.09,1.76
			c-0.36,1.97-0.72,8.31-1.09-0.93c-0.36-6.01-0.72-1.33-1.09-0.57c-0.72,10.21-1.45,0.88-2.17,3.38c-0.36,2.15-0.72-9.97-1.09-0.69
			c-0.36,4.84-0.72,16.8-1.09-10.63c-0.01,10.42-0.02,15.87-0.03,18.64c-0.01-2.99-0.02,1.67-0.03-5.15
			c-0.02,4.28-0.05-17.61-0.07-3.93c-0.02,10.08-0.05,8.5-0.07,7.35c-0.02-10.18-0.05-10.59-0.07-6.98
			c-0.05-3.91-0.09-10.23-0.14-7.55c-0.05,3.19-0.09,19.28-0.14,10.42c-0.09-9.77-0.18,5.38-0.27,4.12
			c-0.09-5.59-0.18,4.05-0.27-9.63c-0.36-14.27-0.72-5.52-1.09-5.93c-0.18-10.69-0.36-19.79-0.54-9.89
			c-0.18-11.32-0.36,2.67-0.54-2.89c-0.09,9.35-0.18-5.98-0.27-7.5c-0.09-2.25-0.18-2.65-0.27,3.59c-0.18,1.59-0.36,8.51-0.54,9.42
			c0.93,9.67,1.91,11.34,2.94-8.67c0.52-5.46,1.05-5.24,1.59-3.1c0.54,0.18,1.1,15.19,1.67,8.5c0.57,9.97,1.15,9.93,1.74-8.21
			c0.59,2.28,1.19,13.49,1.81,7.31c0.31,1.24,0.62-8.62,0.93-10.5c0.31-1.88,0.63-0.31,0.94,10.19c0.32,3.48,0.64,8.96,0.96,12.69
			c0.32-6.15,0.65-16.24,0.97-13.23c1.31-9.24,2.65-8.75,4.03-6.45c1.38,2.3,2.79,6.42,4.23,4.45c0.72-18.65,1.45,2.53,2.18-12.54
			c0.73,8.18,1.47-0.49,2.22,6.54c1.49,20.99,3.01,0.04,4.55,6.27c1.03,8.14,2.01,5.68,2.95,3.59c0.93-2.09,1.82-3.81,2.67,5.79
			c0.85,1.86,1.65,2.69,2.42,4.61c0.77-1.03,1.51-4.07,2.22-7.48c1.42-11.45,2.72-14.06,3.97-11c1.24-5.25,2.42,5.83,3.59,10.01
			c2.34,11.78,4.63,7.61,7.28,5.36c2.65,12.16,5.65-0.78,9.4,0.02c1.09,7.78,2.14,21.62,3.14,10.02c1,5.52,1.96,16.64,2.89-4.69
			c1.85-6.75,3.57-0.4,5.21-6.9c0.41,19.28,0.82,29.76,1.22,13.49c0.4,4.36,0.8-4.85,1.2-5.64c0.4,0.14,0.79,3.19,1.18,4.31
			c0.39-7.25,0.78-20.72,1.17-10.48c0.39,13.23,0.78,0.94,1.17-11.19c0.39-4.39,0.78-9.71,1.17-2.06c0.78,17.67,1.57,1.22,2.37,8
			c0.8,15.36,1.62-3.62,2.45,3.23c0.42-9.02,0.84-19.36,1.27-16.28c0.43-4.05,0.87-4.28,1.31,16.2c0.89-12.96,1.8-23.52,2.76-11.54
			c0.95-3.7,1.95,14.46,2.98,2.64c1.04-9.65,2.12-15.75,3.25-6.66c1.14,3.84,2.32,8.43,3.57,7.73c1.25-9.5,2.56-4.17,3.94,4.66
			c1.38-5.09,2.83,22.96,4.36-7.82c2.54,3.14,5.12,8.49,7.69-4.72c0.32,4.87,0.64,4.64,0.96-0.59c0.32-5.06,0.64-9.72,0.96,5.43
			c0.64-23.35,1.28-4.21,1.92-5.61c0.64-18.65,1.28,1.35,1.91-7.81c0.32,5.51,0.63,4.07,0.95,3.63c0.32-0.44,0.63,0.12,0.95,9.63
			c0.63,4.25,1.25,30.09,1.88,17.52c0.62-14.3,1.24,17.94,1.85-7.43c0.61,22.99,1.22,2.01,1.82,12.63c0.6-13.4,1.2,6.98,1.79-20.8
			c2.36-3.65,4.62-2.8,6.74-0.37c0.26-3.64,0.53-6.32,0.79-10.18c0.26-7.64,0.52-7.54,0.77-1.65c0.51-3.84,1.01-3.89,1.5,1.72
			c0.98-3.79,1.91-2.25,2.8,1.56c1.77-0.75,3.35,0.73,4.69,8.64c2.68-8.35,4.39,25.69,4.77,7.22c0.43-15.37-0.88-15.06-3.06,8.35
			c-1.09,0.4-2.39-22.46-3.8-5.16c-0.71-17.62-1.44-4.08-2.18-9.58c-0.75-6.77-1.5-7.15-2.26,15.15c-1.52,20.49-3.03,16.37-4.43,8.2
			c-1.4-16.18-2.69-9.41-3.76,3.36c-2.14,4-3.39,12.23-2.88-5.25c0.32-24.08,1.3-3.6,3.24,6.67c1.94,19.79,4.86-6.04,9.03-5.34
			c4.18-2.55,9.63-9.75,16.64-1.11c3.51,3.96,7.41,14.94,11.74-1.17c4.33-1.61,9.1-3.68,14.33-1.64c4.68,11.87,9.23-11.46,12.96,0.5
			c1.87-1.02,3.53,2.94,4.9,7.27c1.37-5.38,2.46-5.67,3.17-4.01c0.95-5.03,1.31-8.2,1.04-7.53c-0.13,0.34-0.42,1.64-0.86,4.15
			c-0.44,0.61-1.04,21.26-1.79,11.41c-0.75-8.98-1.66-10.41-2.73,4.77c-1.07-12.9-2.29-6.44-3.68,13.21
			c-1.39,4.9-2.93-20.4-4.64-10.35c-1.71,23.16-3.58,0.75-5.61,0.12c4.59-13.02,9.17-14.8,13.76,3.34
			c2.29,12.73,4.59,15.84,6.88,2.45c2.29-12.37,4.59-25.58,6.88-9.07c4.59,20.44,9.17,11.74,13.76,0.42
			c4.59,13.66,9.17,4.4,13.76-3.7c2.18,1.93,4.35,20.43,6.52,12.11c2.17-20.84,4.35,27.15,6.52,0.09c1.09,12.17,2.17,27.68,3.26,8.1
			c1.09-8.86,2.17-2.86,3.26,3.56c2.18,5.77,4.35-40.95,6.52,0.54c-2.37,10.59-4.74-14.87-7.11,2.47c-2.37-9.13-4.74-9.14-7.11,0.99
			c-2.37-2.79-4.74,28.57-7.11,9.23c-2.37,8.6-4.74-4.67-7.11-1.65c-2.37,2.53-4.74,7.3-7.11-1.74c-2.37-8.22-4.74,2.58-7.11,1.48
			c-2.37-11.6-4.74-13.36-7.11,2.98c-2.37,7.08-4.74,20.5-7.11,8.31c-2.37,12.09-4.74,0.8-7.11,14.65
			c-2.37,16.69-4.74-13.97-7.11-4.51c-4.74,16.84-9.48,14.11-14.21,0.9c-4.74-37.58-9.48,4.74-14.21,5.52
			c-4.74,0.11-9.48,1.68-14.21,5.52c-8.31,8.59-16.95-25.32-25.83-7.48C1158.83,458.27,1149.7,436.82,1140.41,433.48z"/>
		<path class="st5" d="M1259.78,474.9c34.78-1.26,69.56-2.52,104.35-3.78c0,23.62,0,47.25,0,70.87
			c-7.77-12.63-15.54-25.27-23.3-37.9c-6.87-5.13-18.95-12.82-37.76-19.35C1286.25,478.91,1270.46,476.22,1259.78,474.9z"/>
		<path class="st3" d="M759.34,220.94c40.96-26.07,81.92-52.15,122.88-78.22c24.86,16.62,49.71,33.23,74.57,49.85
			c-17.01,10.33-34.02,20.66-51.04,31C856.95,222.68,808.14,221.81,759.34,220.94z"/>
		<path class="st3" d="M1053.04,168.56c-2.3-1.56-4.6-3.12-6.89-4.68c40.74-29.47,81.49-58.94,122.23-88.41
			c49.2,31.99,98.39,63.98,147.59,95.97C1228.32,170.48,1140.68,169.52,1053.04,168.56z"/>
		<path class="st3" d="M897.45,256.71c44.01-27.96,88.03-55.92,132.04-83.88c38.89,27.03,77.78,54.06,116.67,81.09
			C1063.26,254.85,980.35,255.78,897.45,256.71z"/>
		<path class="st22" d="M580.31,263.05c-3.61-24.62-7.21-49.25-10.82-73.87c50.96,0.43,101.91,0.87,152.87,1.3
			c5.22,4.72,10.45,9.44,15.67,14.16c-13.61,5.92-27.23,11.85-40.84,17.77c-20.2,7.62-40.39,15.23-60.59,22.85
			C617.84,251.19,599.07,257.12,580.31,263.05z"/>
		<path class="st23" d="M718.6,190.45c0.79-7.26,1.57-14.52,2.36-21.78c28.9-1.38,57.79-2.77,86.69-4.15
			c-12.21,8.19-24.42,16.37-36.63,24.56c-11,5.19-21.99,10.38-32.99,15.56C731.55,199.91,725.08,195.18,718.6,190.45z"/>
		<path class="st6" d="M1029.49,152.58c46.14-30.37,92.29-60.75,138.43-91.12c65.4,36.95,130.8,73.9,196.2,110.86
			c0,7.27,0,14.54,0,21.81c-24.74-11.59-50.41-24.61-76.35-39.2c-48.72-27.41-88.15-54.58-119.85-79.44
			c-78.97,56.64-120.27,86.18-121.34,86.77l0,0c-1.14,0.64-1.52,0.93-1.41,1.01C1039.94,159.69,1034.72,156.14,1029.49,152.58z"/>
		<path class="st21" d="M1247.05,211.5c-1.37-1.49-3.95,6.08-5.99,6.26c-2.04,10.89-3.55,5.14-2.77,11.11
			c0.46-3.92,1.68-2.26,3.55,1.29c0.94-0.24,2.04,5.23,3.29,9.6c1.25-2.04,2.65,19.61,4.2,2.99c3.08-8.37,6.72-7.49,10.82-3.23
			c2.05,18.16,4.21-3.22,6.48,3.96c2.27,6.74,4.63,17.88,7.09,8.23c-0.72-1.94-1.78-13.64-3.15,7.66c-1.37,33.5-3.05-3.51-5.01-2.28
			c-1.96-2.6-4.19-10.04-6.67-5.38c-2.48,9.73-5.19-14.01-8.12-4.3c-2.92-5.17-6.06,5.48-9.36-1.31c-3.31-6.77-6.78-5.74-10.4-6.01
			c-7.24-10.15-15.03-7.9-23.1,8.78c-5.36-8.77-10.18-5.2-14.45,4.46c-4.28,8.89-8.03-6.64-11.26,3.49
			c-6.47-7.17-10.89-11.74-13.43,7.62c4.19,3.2,8.39,1.09,12.58-0.09c4.19-1.17,8.39-1.41,12.58,5.54
			c4.19-6.4,8.39,23.13,12.58,3.93c4.19,28.9,8.39-23.53,12.58,1.52c-0.09,3.03-0.27-7.59-0.5-0.2c-0.23-15.81-0.51,27.56-0.77,9.05
			c-0.26-17.72-0.52,23.24-0.71,9.33c-0.19,25.48-0.31-1.07-0.31-2.27c0,25.31-0.2,3.72-0.51,0.4c-0.3,6.21-0.71,16.56-1.12,10.9
			c-0.41,2.68-0.82-12.83-1.13,3.91c-0.31-18.91-0.53,24.81-0.55,7.83c3.73-9.32,7.46,8.37,11.19-6.36
			c3.73-7.72,7.46-0.43,11.19-2.21c3.73,13.49,7.46,22.3,11.19,0.52c3.73-10.74,7.46,5.81,11.19-9.09
			c5.64-14.82,11.28,10.95,16.92-2.82c5.64-7.05,11.28,11.78,16.92,1.12c5.64,15.28,11.28,20.76,16.92-0.85
			c5.64-3.89,11.28,17.26,16.92-0.85c6.37-25.04,12.74-15.45,19.11-6.36c6.37-13.36,12.74,5.89,19.11-6.36c0,1.37,0-4.9,0-9.87
			c0-3.65,0-6.14,0-9.87c-0.04-5.71-0.08-11.42-0.12-17.12c-0.04-5.71-0.08-11.42-0.12-17.12c-10.06,0.13-20.11-0.72-30.17,0.38
			c-10.06,7.95-20.11-6.02-30.17,0.38c-9.41,1.58-18.83-11.92-28.24-8.17C1265.88,223.58,1256.46,227.77,1247.05,211.5z"/>
		<path class="st24" d="M1237.31,588.79"/>
		<path class="st25" d="M145.03,471.64c4.06-4.33,44.16-45.71,111.38-45.38c37.22,0.18,64.22,13.05,75.2,19.02
			c12.14,16.8,24.27,33.6,36.41,50.4c-42.64,3.83-85.27,7.65-127.91,11.48C208.42,495.32,176.72,483.48,145.03,471.64z"/>
		<path class="st11" d="M1665,574.65"/>
		<path class="st26" d="M74.79,538.32c-0.07,9.48-1.17,17.85-2.54,24.72c-0.26,1.33-0.54,2.61-0.82,3.83
			c-3.88-2.8-7.76-5.6-11.65-8.4c-10.07-0.42-20.14-0.83-30.22-1.24c-1.34,2.07-2.68,4.15-4.02,6.22c-2.96-2.75-5.92-5.49-8.87-8.24
			c2.56-8.05,4.13-14.98,5.13-20.21c1.25-6.57,1.97-12.76,2.35-16.02c1.36-11.51,0.72-11.86,1.94-16.71
			c1.16-4.59,2.76-8.37,4.18-11.18c0.98-1.95,1.88-3.45,2.48-4.44c3.07-5.08,6.07-8.27,6.86-9.1c2.57-2.67,5.02-4.6,6.97-5.95
			c2.88,0.46,7.81,1.75,12.06,5.98c0.01,0.01,0.02,0.03,0.04,0.04c1.43,1.43,2.53,2.95,3.4,4.44c1.35,2.31,2.13,4.53,2.7,6.21
			c5.63,16.59,8.45,24.88,9.56,38.25C74.68,530.62,74.82,534.56,74.79,538.32z"/>
		<path class="st27" d="M76.84,446.33c-0.14,1.01-0.28,2.02-0.42,3.03c-2.63-1.52-5.27-3.03-7.9-4.55
			c-0.02,0.01-0.04,0.03-0.06,0.05c-0.05,0.05-0.12,0.1-0.2,0.17c-0.04,0.03-0.09,0.07-0.13,0.11c-0.09,0.07-0.18,0.15-0.28,0.23
			c-0.44,0.37-0.99,0.81-1.27,1.04c-0.07,0.06-0.12,0.1-0.15,0.13c-0.35,0.29-0.68,0.56-1,0.82c-0.21,0.17-0.42,0.34-0.61,0.5
			c-0.69,0.57-1.3,1.06-1.84,1.5c-0.15,0.12-0.29,0.24-0.44,0.36c-0.13,0.11-0.27,0.22-0.41,0.33c-0.21,0.17-0.41,0.33-0.59,0.48
			c-0.05,0.04-0.1,0.08-0.15,0.12c-0.14,0.12-0.28,0.23-0.42,0.34c-0.18,0.15-0.35,0.3-0.53,0.44c-0.29,0.24-0.58,0.48-0.88,0.72h0
			c-0.01,0.01-0.02,0.02-0.03,0.03c-0.21,0.17-0.42,0.34-0.63,0.51c-0.01,0.01-0.02,0.02-0.04,0.04c-0.5,0.52-1.02,1.06-1.54,1.65
			c-1.97,2.18-4.09,4.85-6.15,8.02c-0.09,0.13-0.17,0.26-0.25,0.4c-0.48,0.76-0.93,1.49-1.35,2.21c-0.21,0.36-0.41,0.71-0.6,1.05
			c-0.02,0.04-0.04,0.07-0.06,0.11c-0.17,0.31-0.34,0.62-0.5,0.91c-0.09,0.16-0.18,0.33-0.26,0.49c-0.08,0.16-0.16,0.31-0.24,0.47
			c-0.5,0.96-0.93,1.85-1.3,2.64c0.29-4.1,0.01-7.38-0.31-9.68c-0.57-4.04-1.39-5.81-1.04-9.33c0.13-1.35,0.41-3.8,1.87-6.29
			c1.88-3.22,4.58-4.54,5.82-5.13c4.22-2,8.11-1.19,11.12-0.58C69.94,440.87,74.26,444.01,76.84,446.33z"/>
		<path class="st28" d="M75.9,455.88c-0.03,0.79-0.09,1.54-0.14,2.26c-1.82-0.21-3.65-0.42-5.47-0.62
			c-0.48-0.39-0.97-0.78-1.45-1.16c-3.09-1.4-6.19-2.8-9.28-4.2c0.86-0.7,1.71-1.4,2.57-2.11c0.13-0.11,0.27-0.22,0.41-0.33
			c0.15-0.12,0.29-0.24,0.44-0.36c0.54-0.44,1.14-0.94,1.84-1.5c0.2-0.16,0.4-0.33,0.61-0.5c0.32-0.26,0.65-0.53,1-0.82
			c0.03-0.03,0.09-0.07,0.15-0.13c0.28-0.23,0.82-0.67,1.27-1.04c0.1-0.08,0.19-0.16,0.28-0.23c0.05-0.04,0.09-0.08,0.13-0.11
			c0.08-0.07,0.15-0.12,0.2-0.17c0.02-0.02,0.04-0.04,0.06-0.05c2.32,1.44,4.65,2.88,6.97,4.32
			C75.93,451.94,75.96,454.24,75.9,455.88z"/>
		<path class="st28" d="M77.87,466.61c-0.21,0.19-0.57-0.05-1.35-0.29c-0.56-0.17-1.03-0.25-1.35-0.29
			c-0.21,1.44-0.42,2.88-0.62,4.31c-0.7,0.1-1.21,0.17-1.58,0.22c-0.01,0-0.02,0-0.04,0c-0.04,0-0.11,0.01-0.2,0.03
			c-0.06,0.01-0.12,0.01-0.17,0.02c-0.07,0.01-0.13,0.02-0.18,0.03l-0.06,0.01c0,0-0.01,0-0.01,0c-0.03,0-0.06,0.01-0.09,0.01
			c-0.02,0-0.04,0-0.07,0.01c-0.02,0-0.03,0-0.04,0l-0.07,0.01c0.48,0.39,0.97,0.78,1.46,1.16c0.28,4.11-0.48,5.48-1.25,5.95
			c-1.56,0.96-4.08-1.17-5.09,0c-0.39,0.45-0.37,1.17-0.31,1.63c-1.6,0.57-3.19,1.14-4.78,1.72c-0.87-1.48-1.97-3-3.4-4.44
			c-0.01-0.01-0.02-0.03-0.04-0.04c-0.79-0.84-1.74-1.74-2.87-2.6c-2.02-1.54-3.95-2.47-5.44-3.03c-1.25-0.12-2.5-0.23-3.74-0.35
			c0.37-0.79,0.8-1.68,1.3-2.64c0.08-0.16,0.16-0.31,0.24-0.47c0.09-0.16,0.18-0.33,0.26-0.49c0.16-0.3,0.33-0.6,0.5-0.91
			c0.02-0.03,0.04-0.07,0.06-0.11c0.19-0.34,0.39-0.7,0.6-1.05c0.42-0.72,0.87-1.45,1.35-2.21c0.09-0.13,0.17-0.26,0.25-0.4
			c2.06-3.18,4.18-5.84,6.15-8.02c3.98,1.51,7.96,3.02,11.94,4.53c0.14,0.82,0.28,1.63,0.42,2.45c1.42,0.66,2.84,1.32,4.26,1.98
			c0.57-0.53,1.13-1.07,1.7-1.61c0.16,0.98,0.51,1.59,0.8,1.96c0.57,0.74,1.16,0.86,1.45,1.69
			C78.01,465.77,78.11,466.39,77.87,466.61z"/>
		<path class="st2" d="M238.02,390.82c-0.18,0.15-0.35,0.3-0.53,0.44C237.64,391.13,237.82,390.98,238.02,390.82z"/>
		<path class="st2" d="M62.07,481.16c-0.14,0.05-0.28,0.1-0.42,0.15c-0.76-1.27-1.52-2.54-2.29-3.81c-0.22-0.25-0.44-0.51-0.69-0.78
			C60.1,478.15,61.2,479.67,62.07,481.16z"/>
		<path class="st2" d="M75.62,461.73L75.62,461.73c-0.57,0.54-1.13,1.08-1.7,1.61c-1.42-0.66-2.84-1.32-4.26-1.98
			c-0.14-0.81-0.28-1.63-0.42-2.45c-3.98-1.51-7.96-3.02-11.94-4.53c-1.97,2.18-4.09,4.85-6.15,8.02c2.17-3.41,4.26-6.59,7.7-9.68
			c0.02-0.01,0.03-0.03,0.04-0.04c0.08-0.07,0.18-0.15,0.66-0.54c0.21-0.17,0.49-0.41,0.88-0.72c-0.29,0.24-0.58,0.48-0.88,0.72
			c3.09,1.4,6.18,2.79,9.28,4.2c0.48,0.39,0.97,0.78,1.45,1.16c1.82,0.21,3.65,0.42,5.47,0.62
			C75.65,459.53,75.53,460.75,75.62,461.73z"/>
		<path class="st29" d="M75.76,458.14c-0.04,1.2-0.09,2.39-0.13,3.59v0c-0.57,0.53-1.13,1.07-1.7,1.61
			c-1.42-0.66-2.84-1.32-4.26-1.98c-0.14-0.81-0.28-1.63-0.42-2.45c-3.98-1.51-7.96-3.02-11.94-4.53c0.73-0.74,1.47-1.47,2.21-2.2
			c0.01-0.01,0.02-0.02,0.03-0.03h0c3.09,1.4,6.18,2.79,9.28,4.2c0.48,0.39,0.97,0.78,1.45,1.16
			C72.11,457.72,73.93,457.93,75.76,458.14z"/>
		<path class="st2" d="M60.3,456.12c-0.35-0.03-2.77-0.17-3.74,1.4c-1.1,1.78-0.23,5.55,3.12,7.93"/>
		<path class="st2" d="M58.12,458.1c0.55,0.12,1.11,0.23,1.66,0.35c0,0.58,0,1.17,0,1.75c-0.52,0.31-1.04,0.62-1.56,0.93"/>
		<path class="st2" d="M59.47,461.95c0.53,0.3,0.89,0.74,0.83,1.05c-0.07,0.36-0.75,0.68-1.66,0.47"/>
		<path class="st2" d="M72.46,477.94c0.21,0.23,0.43,0.45,0.64,0.68"/>
		<path class="st2" d="M72.16,478.16c0.05,0.58,0.11,1.17,0.16,1.75"/>
		<path class="st2" d="M71.84,478.51c0.03,0.16,0.07,0.31,0.1,0.47"/>
		<path class="st2" d="M71.43,478.27c0,0.31,0,0.62,0,0.93"/>
		<path class="st2" d="M70.8,478.16c-0.03,0.64,0.08,1.28,0.33,1.86"/>
		<path class="st2" d="M72.71,477.45c0.07,0.62,0.13,1.24,0.2,1.87"/>
		<path class="st2" d="M72.68,477.57c0,0.82,0,1.63,0,2.45"/>
		<path class="st2" d="M70.67,478.44c0.6,0.43,1.13,1,1.53,1.67"/>
		<path class="st2" d="M70.2,478.62c0.16,1.06,0.91,1.99,1.84,2.25"/>
		<path class="st2" d="M73.09,477.22c-0.02,1.06-0.15,2.13-0.39,3.16"/>
		<path class="st2" d="M73.4,476.64c0,0.89,0,1.79,0,2.68"/>
		<path class="st2" d="M70.94,479.4c0.64,0.64,1.29,1.28,1.93,1.92"/>
		<path class="st2" d="M74.15,477.47c-0.54,1.12-1.01,2.28-1.38,3.48"/>
		<path class="st2" d="M73.19,476.53c0.37,0.52,0.65,1.11,0.84,1.74"/>
		<path class="st26" d="M30.28,490.63c5.05,11.73,10.11,23.47,15.16,35.2c3.7,7.59,8.97,16.61,16.43,25.65
			c3.83,4.64,7.64,8.58,11.23,11.89c0.9-1.87,1.8-3.73,2.7-5.6c0.28,0.49,1.76,2.99,4.16,3.26c2.89,0.33,6.16-2.67,6.86-7.46
			c-1.04-1.24-2.08-2.49-3.12-3.73c0-2.25,0-4.51,0-6.76c-4.75-2.02-11.45-5.82-16.22-13.29c-7.04-11.02-4-20.8-10.19-33.58
			c-2.63-5.42-7.55-12.71-17.67-19.12C36.5,481.61,33.39,486.12,30.28,490.63z"/>
		<path class="st28" d="M86.81,553.59c0.66,1.01,1.79,2.44,3.53,3.27c2.57,1.23,4.04,0.02,6.86,0.93c0.56,0.18,4.22,1.36,5.48,4.82
			c1.45,3.99-0.85,9.47-3.19,9.87c-2.16,0.37-3.36-3.78-7.49-4.43c-1.44-0.23-2.67,0.07-3.39,0.3c-2.03-2.62-4.06-5.23-6.08-7.85
			c0.75-0.47,2.32-1.61,3.37-3.8C86.48,555.51,86.71,554.38,86.81,553.59z"/>
		<path class="st30" d="M26.35,562.2c3.1,20.14,6.21,40.28,9.31,60.43c0.3,0.96,0.7,2.64,0.42,4.66c-0.61,4.36-3.83,6.63-4.37,7
			c-3.81,12.75-7.62,25.5-11.44,38.24c0.07,2.95,0.14,5.91,0.21,8.86c-1.33,1.72-3.89,5.51-4.99,11.19
			c-1.08,5.53-0.23,10.06,0.31,12.24c10.08-2.68,20.17-5.36,30.25-8.05c-0.94-2.45-1.87-4.9-2.81-7.35c2.18-3.5,4.37-7,6.55-10.49
			c1.29-11.2,2.74-22.63,4.37-34.28c1.94-13.91,4.03-27.44,6.24-40.58c1.46-6.53,2.91-13.06,4.37-19.59c1.35-1.4,2.7-2.8,4.05-4.2
			c0.28-4.9,0.55-9.8,0.83-14.7c-3.29-2.37-6.58-4.75-9.88-7.12c-10.08-0.89-20.17-1.77-30.25-2.66
			C28.47,557.94,27.41,560.07,26.35,562.2z"/>
		<path class="st29" d="M44.19,697.48c4.11-0.16,10.6,0.23,10.87,2.05c0.23,1.56-4.2,3.56-4.94,3.9c-4.04,1.83-7.52,1.81-10.92,1.75
			c-9.89-0.17-14.83-0.26-14.94-0.93C23.95,702.36,33.95,697.89,44.19,697.48z"/>
		<polygon class="st31" points="52.97,642.68 61.87,645 74.19,585.53 65.28,583.21 		"/>
		<path class="st28" d="M50.32,471.05"/>
		<path class="st32" d="M135.61,610.65c-0.76,0.68-1.73-0.2-2.57,0.47c-0.94,0.75-0.75,2.73-0.69,3.46c0.2,2.42,0.2,6.06-0.42,11.9
			c-0.21,2.48-0.42,4.97-0.63,7.46c0.31,2.6,0.63,5.21,0.94,7.81c0.15,0.27,0.66,1.18,1.08,2.52c0.02,0.05,0.04,0.11,0.06,0.18
			c0.37,1.2,0.67,2.7,0.62,4.4c0,0.11-0.01,0.23-0.02,0.35c-0.01,0.14-0.02,0.27-0.03,0.41c-0.02,0.25-0.05,0.51-0.09,0.76
			c-0.02,0.12-0.04,0.24-0.06,0.37c-0.02,0.12-0.04,0.23-0.07,0.35c-0.02,0.11-0.05,0.23-0.07,0.33c-0.02,0.1-0.05,0.2-0.08,0.31
			c-0.05,0.18-0.1,0.35-0.15,0.52c-0.02,0.05-0.03,0.1-0.04,0.14c-0.03,0.09-0.06,0.17-0.09,0.25c-0.1,0.26-0.22,0.59-0.38,0.95
			c-0.03,0.07-0.06,0.15-0.09,0.21c-0.02,0.04-0.03,0.07-0.05,0.11c-0.78,1.7-2.22,3.96-4.53,4.72c-3.47,1.15-5.84-2.12-7.62-0.93
			c-0.37,0.24-0.7,0.67-0.94,1.42c-0.38,1.24-0.48,3.34,0.05,6.93c0.2,1.35,0.49,2.9,0.89,4.7c-11.48-0.14-22.96-0.27-34.44-0.41
			c3.05-3.54,6.1-7.09,9.15-10.63c-0.28-4.35-0.55-8.7-0.83-13.06c-2.63-3.65-5.27-7.31-7.9-10.96c-3.71-1.47-7.42-2.94-11.13-4.41
			c-1.07-6.75-2.15-13.49-3.22-20.23c-0.53-2.83-1.06-5.66-1.6-8.49c1.64-6.09,3.28-12.17,4.92-18.25c1.9-0.42,3.79-0.83,5.68-1.25
			c1.99-0.83,3.97-1.66,5.96-2.48c0.68-4.13,1.37-8.27,2.06-12.4c0.78-0.16,2.36-0.37,4.2,0.3c2.3,0.84,3.62,2.55,4.1,3.25
			c-0.86,4.25-1.73,8.49-2.59,12.75c0.37,0.49,0.74,0.99,1.11,1.48c0,0.02,0,0.04,0,0.06c0.5,0.68,1.01,1.35,1.52,2.02
			c0-0.01,0.01-0.02,0.02-0.03c4.37,5.85,8.73,11.71,13.1,17.56c7.64,0.13,15.28,0.26,22.92,0.38c0.29-0.03,1.08-0.08,1.73,0.5
			C136.58,607.5,136.46,609.88,135.61,610.65z"/>
		<path class="st33" d="M90.56,659.47c-2.96,3.6-5.92,7.2-8.87,10.81c-1.54-9.67-3.07-19.33-4.61-29c-0.12-0.74-0.24-1.48-0.35-2.22
			c1.36-0.04,2.71-0.07,4.07-0.11c3.05,3.65,6.1,7.31,9.15,10.96C90.14,653.09,90.35,656.28,90.56,659.47z"/>
		<path class="st2" d="M97.64,588.01c-0.01,0.01-0.01,0.02-0.02,0.03c-0.51-0.68-1.02-1.35-1.52-2.02c0-0.02,0-0.04,0-0.06
			C96.62,586.63,97.13,587.32,97.64,588.01z"/>
		<path class="st33" d="M103.17,580.73c-0.14,0.72-0.28,1.45-0.42,2.17c-0.88,0.11-1.76,0.21-2.63,0.31c-0.83,1.6-1.66,3.2-2.48,4.8
			c-0.01,0.01-0.01,0.02-0.02,0.03c-0.51-0.68-1.02-1.35-1.52-2.02c0-0.02,0-0.04,0-0.06c0.16-3.52,1.06-4.85,1.93-5.38
			C99.78,579.53,103.05,580.71,103.17,580.73z"/>
		<path class="st2" d="M100.54,591.76c1.65-0.41,2.98-0.81,3.88-1.09c1.66-0.52,2.68-0.9,4.16-0.78c0.11,0.01,1.91,0.17,1.94,0.62
			c0.03,0.49-2.02,0.84-5.27,2.18c-1.32,0.54-2.37,1.05-3.05,1.4C101.65,593.32,101.09,592.54,100.54,591.76z"/>
		<path class="st32" d="M105.25,597.67c1.39-1.14,2.77-2.28,4.16-3.42c5.82-0.57,11.64-1.14,17.47-1.71
			c0.88-0.85,3.14-2.8,6.52-3.26c2.4-0.33,4.33,0.22,5.41,0.62c-0.05,2.49-0.09,4.97-0.14,7.46c-4.16-0.05-8.32-0.1-12.48-0.16
			c-5.27,0.31-10.54,0.62-15.8,0.93c-0.88,1.09-1.76,2.18-2.63,3.26C106.91,600.16,106.08,598.92,105.25,597.67z"/>
		<path class="st32" d="M81.82,675.41c-2.48,1.93-5.92,5.1-9.01,9.95c-4.35,6.85-5.82,13.61-6.38,17.41
			c-2.86-2.12-5.73-4.25-8.59-6.38c0.38-1.96,1.01-4.67,2.08-7.77c1.23-3.57,2.76-6.9,3.75-8.55c4.6-7.74,15.34-9.44,18.02-9.8
			C81.73,671.99,81.78,673.7,81.82,675.41z"/>
		<path class="st32" d="M66.44,702.77c-1.87,2.9-3.74,5.8-5.61,8.7c-16.5,0.7-32.99,1.4-49.49,2.1c0.69-2.72,1.38-5.44,2.08-8.16
			c7.21-0.11,14.42-0.21,21.63-0.31c3.97-0.19,7.94-0.37,11.91-0.56c2.53-1.28,5.06-2.57,7.59-3.85c1.1-1.43,2.2-2.86,3.3-4.3
			C60.71,698.52,63.57,700.64,66.44,702.77z"/>
		<path class="st32" d="M77.07,641.28c-1.13-0.65-3.45-1.76-6.47-1.63c-4.58,0.21-7.6,3.12-8.45,4c0.9-4.33,1.8-8.67,2.7-13.01
			c3.54,0.21,7.09,0.42,10.63,0.63c0.41,2.59,0.83,5.19,1.24,7.78C76.84,639.8,76.95,640.54,77.07,641.28z"/>
		<path class="st32" d="M95.34,659.7c-3.05,3.54-6.1,7.08-9.15,10.63c-1.5-0.02-3.01-0.04-4.51-0.05c2.96-3.6,5.92-7.2,8.87-10.81
			c-0.21-3.19-0.42-6.38-0.62-9.56c-3.05-3.65-6.1-7.31-9.15-10.96c-1.36,0.03-2.71,0.07-4.07,0.11c-0.41-2.59-0.83-5.19-1.24-7.78
			c3.71,1.47,7.42,2.94,11.13,4.41c2.63,3.65,5.26,7.31,7.9,10.96C94.78,651,95.06,655.35,95.34,659.7z"/>
		<path class="st2" d="M86.19,670.33c-1.45,1.69-2.91,3.38-4.37,5.08c-0.04-1.71-0.09-3.42-0.14-5.13
			C83.19,670.29,84.69,670.31,86.19,670.33z"/>
		<path class="st32" d="M217.6,660.87c-0.42,6.22-0.83,12.44-1.25,18.66h-14.35v-27.29c-9.98-0.31-19.96-0.62-29.94-0.93
			c-0.14,9.41-0.28,18.81-0.42,28.22h-6.86c-0.79-0.51-1.58-1.02-2.37-1.53c0.1-0.26,0.2-0.53,0.29-0.8v-8.39
			c-2.91-2.8-5.82-5.6-8.73-8.4c-3.74,0.23-7.48,0.47-11.23,0.7c-2.96,1.11-5.92,2.21-8.89,3.32c-0.36-3.51-0.71-7.02-1.07-10.53
			c0.02-0.04,0.03-0.07,0.05-0.11c0.03-0.06,0.07-0.14,0.09-0.21c0.13-0.27,0.26-0.59,0.38-0.95c0.03-0.08,0.06-0.16,0.09-0.25
			c0.02-0.05,0.03-0.09,0.04-0.14c0.05-0.16,0.1-0.33,0.15-0.52c0.03-0.11,0.05-0.21,0.08-0.31c0.02-0.11,0.05-0.22,0.07-0.33
			c0.03-0.12,0.05-0.23,0.07-0.35c0.02-0.12,0.04-0.25,0.06-0.37c0.04-0.26,0.07-0.51,0.09-0.76c0.01-0.13,0.02-0.27,0.03-0.41
			c0.01-0.12,0.01-0.23,0.02-0.35c0.07-1.94-0.32-3.48-0.62-4.4c-0.02-0.06-0.04-0.12-0.06-0.18c0.8-0.99,2.18-2.49,4.22-3.69
			c2.49-1.46,4.72-1.74,5.82-1.87c21.13-2.43,22.84-0.83,23.49,0.47c0.44,0.85,0.83,2.38,0,5.13c1.04-0.16,2.08-0.31,3.12-0.47
			c2.08-1.24,4.16-2.49,6.24-3.73c2.98,0.39,5.96,0.78,8.94,1.16c2.22,0.08,4.43,0.16,6.65,0.23c0.76,1.4,1.52,2.8,2.29,4.2
			c0.97-0.62,1.94-1.24,2.91-1.86c5.47-0.08,10.95-0.16,16.43-0.23c0.21,4.2,0.42,8.39,0.62,12.59
			C215.24,657.76,216.42,659.31,217.6,660.87z"/>
		<path class="st2" d="M158.65,671.59c-0.51,0.99-1.03,1.98-1.54,2.96c-1.05-0.68-2.09-1.35-3.14-2.03c-4.09-0.1-8.18-0.2-12.27-0.3
			c-2.35-0.05-4.71-0.11-7.06-0.17c-0.01-0.11-0.02-0.22-0.03-0.33c0.95,0.07,1.89,0.13,2.84,0.2h0
			C144.52,671.82,151.58,671.71,158.65,671.59z"/>
		<path class="st33" d="M202.01,652.24v27.29h-30.36c0.14-9.41,0.28-18.81,0.42-28.22C182.05,651.62,192.03,651.93,202.01,652.24z"
			/>
		<path class="st33" d="M157.11,674.56c-1.67,3.22-3.33,6.42-5,9.63c-1.8,1.78-3.6,3.55-5.41,5.33
			c-5.68-3.87-11.37-7.75-17.05-11.63c-3.01-2.38-6.01-4.77-9.01-7.15c1.87,0.13,3.74,0.26,5.61,0.4c2.79,0.2,5.57,0.4,8.36,0.59
			c0.01,0.11,0.02,0.22,0.03,0.33c2.35,0.05,4.71,0.11,7.06,0.17c4.09,0.1,8.18,0.2,12.27,0.3
			C155.02,673.21,156.06,673.88,157.11,674.56z"/>
		<path class="st2" d="M141.7,672.23c-2.35-0.05-4.71-0.11-7.06-0.17c-0.01-0.11-0.02-0.22-0.03-0.33c0.95,0.07,1.89,0.13,2.84,0.2
			h0C138.87,672.03,140.28,672.13,141.7,672.23z"/>
		<path class="st33" d="M277.48,694.33c-7.59-0.05-15.18-0.1-22.77-0.16c-2.5-0.01-4.99-0.03-7.48-0.05
			c-12.27-0.08-24.53-0.16-36.8-0.25c-3.84-0.03-7.69-0.05-11.54-0.08c-8.21-0.06-16.43-0.11-24.64-0.17h-21.52
			c-0.37-0.25-0.73-0.5-1.1-0.74c2.76-2.67,5.51-5.33,8.27-8c0.83-2.3,1.67-4.59,2.51-6.9c0.79,0.51,1.58,1.02,2.37,1.53
			c20.31,0.16,40.61,0.31,60.92,0.47c16.85-0.12,33.69-0.23,50.53-0.35C276.65,684.54,277.07,689.44,277.48,694.33z"/>
		<path class="st32" d="M162.71,668.8v8.39c-0.1,0.26-0.2,0.53-0.29,0.8c-1.77-1.15-3.54-2.29-5.31-3.43
			c0.52-0.99,1.03-1.98,1.54-2.96c-7.07,0.11-14.13,0.22-21.2,0.34h0c-0.95-0.07-1.89-0.13-2.84-0.2c-0.25-2.44-0.5-4.87-0.75-7.31
			c2.96-1.11,5.92-2.21,8.89-3.32c3.74-0.23,7.48-0.47,11.23-0.7C156.88,663.2,159.8,666,162.71,668.8z"/>
		<path class="st33" d="M126.24,671.14c-1.87-0.13-3.74-0.26-5.61-0.4c-0.39-1.79-0.69-3.35-0.89-4.7
			C121.92,667.74,124.08,669.44,126.24,671.14z"/>
		<path class="st32" d="M134.6,671.73c-2.79-0.2-5.57-0.4-8.36-0.59c-2.17-1.7-4.33-3.4-6.49-5.1c-0.02-2.31-0.03-4.62-0.05-6.93
			c4.25,1.95,8.5,3.9,12.75,5.84c0.47-0.17,0.94-0.35,1.4-0.53C134.11,666.86,134.36,669.29,134.6,671.73z"/>
		<path class="st32" d="M162.41,677.99c-0.84,2.3-1.68,4.59-2.51,6.9c-2.76,2.67-5.51,5.33-8.27,8c-1.65-1.12-3.29-2.25-4.94-3.37
			c1.8-1.78,3.6-3.55,5.41-5.33c1.67-3.21,3.34-6.42,5-9.63C158.88,675.7,160.65,676.85,162.41,677.99z"/>
		<path class="st32" d="M151.63,692.89c-2.54,2.47-5.09,4.93-7.64,7.39c-0.72-1.98-1.45-3.96-2.18-5.95
			c1.63-1.6,3.26-3.21,4.89-4.81C148.34,690.64,149.99,691.77,151.63,692.89z"/>
		<path class="st32" d="M225.4,710.08l-0.62-7.34c-4.47-0.35-8.94-0.7-13.41-1.05c-0.31-2.6-0.62-5.2-0.94-7.8
			c-3.84-0.03-7.69-0.05-11.54-0.08c-0.31,3.32-0.62,6.65-0.94,9.97c-5.72-0.35-11.43-0.7-17.15-1.05
			c-1.46,2.33-2.91,4.66-4.37,6.99c-6.72,7.1-13.45,14.2-20.17,21.3c4.23-4.3,8.46-8.6,12.69-12.9c1.63-0.46,4.11-1.06,7.17-1.4
			c5.29-0.58,8.73,0.03,12.16,0.35c12.68,1.2,13.72-2.54,22.77-0.35c2.99,0.73,7.26,1.81,11.54,5.6c4.35,3.85,6.49,8.53,7.49,11.19
			v-18.89C228.52,713.11,226.96,711.59,225.4,710.08z M194.36,711.47c-0.94,0-1.71-0.86-1.71-1.92c0-1.06,0.77-1.92,1.71-1.92
			c0.95,0,1.72,0.86,1.72,1.92C196.08,710.61,195.31,711.47,194.36,711.47z M202.01,711.47c-0.95,0-1.71-0.86-1.71-1.92
			c0-1.06,0.77-1.92,1.71-1.92c0.95,0,1.71,0.86,1.71,1.92C203.72,710.61,202.95,711.47,202.01,711.47z M212.92,711.47
			c-0.95,0-1.71-0.86-1.71-1.92c0-1.06,0.77-1.92,1.71-1.92s1.71,0.86,1.71,1.92C214.64,710.61,213.87,711.47,212.92,711.47z"/>
		<path class="st2" d="M192.65,709.55c0-1.06,0.77-1.92,1.71-1.92c0.95,0,1.72,0.86,1.72,1.92c0,1.06-0.77,1.92-1.72,1.92
			C193.42,711.47,192.65,710.61,192.65,709.55z"/>
		<path class="st2" d="M200.29,709.55c0-1.06,0.77-1.92,1.71-1.92c0.95,0,1.71,0.86,1.71,1.92c0,1.06-0.77,1.92-1.71,1.92
			C201.06,711.47,200.29,710.61,200.29,709.55z"/>
		<path class="st2" d="M211.21,709.55c0-1.06,0.77-1.92,1.71-1.92s1.71,0.86,1.71,1.92c0,1.06-0.77,1.92-1.71,1.92
			S211.21,710.61,211.21,709.55z"/>
		<path class="st2" d="M230.08,733.51c-24.95-0.47-49.91-0.93-74.85-1.4c0.32-0.33,0.64-0.67,0.95-1.01h0
			c0.02-0.03,0.05-0.05,0.08-0.08c4.23-4.3,8.46-8.6,12.69-12.9c1.63-0.46,4.11-1.06,7.17-1.4c5.29-0.58,8.73,0.03,12.16,0.35
			c12.68,1.2,13.72-2.54,22.77-0.35c2.99,0.73,7.26,1.81,11.54,5.6C226.94,726.17,229.08,730.85,230.08,733.51z"/>
		<path class="st34" d="M230.08,733.51c-24.64-0.8-49.27-1.6-73.9-2.41c0.02-0.03,0.05-0.05,0.08-0.08c4.23-4.3,8.46-8.6,12.69-12.9
			c1.63-0.46,4.11-1.06,7.17-1.4c5.29-0.58,8.73,0.03,12.16,0.35c12.68,1.2,13.72-2.54,22.77-0.35c2.99,0.73,7.26,1.81,11.54,5.6
			C226.94,726.17,229.08,730.85,230.08,733.51z"/>
		<path class="st2" d="M196.08,709.55c0,1.06-0.77,1.92-1.72,1.92c-0.94,0-1.71-0.86-1.71-1.92c0-1.06,0.77-1.92,1.71-1.92
			C195.31,707.63,196.08,708.49,196.08,709.55z"/>
		<path class="st2" d="M203.72,709.55c0,1.06-0.77,1.92-1.71,1.92c-0.95,0-1.71-0.86-1.71-1.92c0-1.06,0.77-1.92,1.71-1.92
			C202.95,707.63,203.72,708.49,203.72,709.55z"/>
		<path class="st2" d="M214.64,709.55c0,1.06-0.77,1.92-1.71,1.92s-1.71-0.86-1.71-1.92c0-1.06,0.77-1.92,1.71-1.92
			S214.64,708.49,214.64,709.55z"/>
		<path class="st33" d="M254.72,703.08h-8.42c0.31-2.98,0.62-5.96,0.93-8.95c2.49,0.02,4.99,0.04,7.48,0.05
			C254.71,697.15,254.71,700.11,254.72,703.08z"/>
		<path class="st33" d="M277.48,694.33c-0.1,4.9-0.21,9.8-0.31,14.69c-3.02,6.3-6.03,12.6-9.05,18.89c-2.18-2.1-4.37-4.2-6.55-6.29
			c2.7-9.12,5.4-18.23,8.11-27.34C272.28,694.3,274.89,694.31,277.48,694.33z"/>
		<path class="st18" d="M123.9,700.69h-11.08l8.32,5.51c-1.05,1.23-2.34,2.33-3.83,3.25l-8.87-5.86v8.91
			c-1.01,0.12-2.04,0.19-3.09,0.19c-1.05,0-2.09-0.07-3.1-0.19v-6.13l-5.01,4.94h-0.01c-0.28-0.1-0.55-0.21-0.81-0.32l-1.1-0.49
			c-1.06-0.5-2.05-1.09-2.94-1.74l8.19-8.07H86.8c-0.13-0.68-0.2-1.37-0.2-2.08c0-0.68,0.07-1.35,0.19-2.01h11.1l-8.36-5.53
			c1.03-1.24,2.32-2.34,3.81-3.27l8.92,5.9v-8.99c1.01-0.12,2.05-0.19,3.1-0.19c1.05,0,2.08,0.07,3.09,0.19v8.22l6.52-6.42
			c1.72,0.77,3.25,1.74,4.54,2.87l-7.34,7.22h11.74c0.12,0.66,0.19,1.33,0.19,2.01C124.1,699.32,124.04,700.01,123.9,700.69z"/>
		<g>
			<ellipse class="st35" cx="105.36" cy="698.5" rx="37.5" ry="28.16"/>
			<g>
				<path class="st36" d="M108.45,684.32v28.18c-1.01,0.12-2.04,0.19-3.09,0.19c-1.05,0-2.09-0.07-3.1-0.19v-28.18H108.45z"/>
				<path class="st36" d="M124.1,698.61c0,0.71-0.07,1.4-0.2,2.08H86.8c-0.13-0.68-0.2-1.37-0.2-2.08c0-0.68,0.07-1.35,0.19-2.01
					h37.13C124.04,697.26,124.1,697.93,124.1,698.61z"/>
				<path class="st36" d="M121.15,706.19c-1.05,1.23-2.34,2.33-3.83,3.25l-8.87-5.86l-2.01-1.33l-2.37-1.57l-1.81-1.2l-0.28-0.18
					l-4.09-2.71l-8.36-5.53c1.03-1.24,2.32-2.34,3.81-3.27l8.92,5.9l3.23,2.14l1.14,0.76l1.81,1.19l1.5,1l2.88,1.9L121.15,706.19z"
					/>
				<path class="st36" d="M119.51,689.38l-7.34,7.22l-2.22,2.19l-1.5,1.49l-0.43,0.41l-1.58,1.57l-4.18,4.11l-5.01,4.94h-0.01
					l-0.03,0.03l-0.79-0.35l-1.1-0.49l-3.25-1.44l0.31-0.3l8.19-8.07l1.41-1.38l0.28-0.28l2.46-2.43l0.77-0.76l2.96-2.91l6.52-6.42
					C116.69,687.28,118.22,688.25,119.51,689.38z"/>
			</g>
		</g>
		<g>
			<ellipse class="st35" cx="277.46" cy="713.68" rx="25.94" ry="19.48"/>
			<g>
				<path class="st36" d="M279.6,703.87v19.49c-0.7,0.08-1.41,0.13-2.14,0.13c-0.73,0-1.45-0.05-2.15-0.13v-19.49H279.6z"/>
				<path class="st36" d="M290.43,713.76c0,0.49-0.05,0.97-0.14,1.44h-25.67c-0.09-0.47-0.14-0.95-0.14-1.44
					c0-0.47,0.05-0.93,0.13-1.39h25.69C290.38,712.82,290.43,713.29,290.43,713.76z"/>
				<path class="st36" d="M288.38,719.01c-0.73,0.85-1.62,1.61-2.65,2.25l-6.13-4.05l-1.39-0.92l-1.64-1.09l-1.25-0.83l-0.19-0.12
					l-2.83-1.87l-5.78-3.82c0.71-0.86,1.6-1.62,2.63-2.26l6.17,4.08l2.24,1.48l0.79,0.53l1.25,0.82l1.04,0.69l1.99,1.31
					L288.38,719.01z"/>
				<path class="st36" d="M287.25,707.38l-5.07,4.99l-1.54,1.51l-1.04,1.03l-0.29,0.28l-1.1,1.09l-2.89,2.84l-3.46,3.42h-0.01
					l-0.02,0.02l-0.54-0.24l-0.76-0.34l-2.25-1l0.21-0.21l5.66-5.58l0.98-0.95l0.19-0.19l1.7-1.68l0.53-0.53l2.04-2.01l4.51-4.44
					C285.3,705.92,286.35,706.59,287.25,707.38z"/>
			</g>
		</g>
		<g>
			<ellipse class="st35" cx="257.05" cy="702.62" rx="15.08" ry="11.32"/>
			<g>
				<path class="st36" d="M258.29,696.92v11.33c-0.41,0.05-0.82,0.08-1.24,0.08c-0.42,0-0.84-0.03-1.25-0.08v-11.33H258.29z"/>
				<path class="st36" d="M264.59,702.66c0,0.29-0.03,0.56-0.08,0.84h-14.92c-0.05-0.27-0.08-0.55-0.08-0.84
					c0-0.27,0.03-0.54,0.07-0.81h14.93C264.56,702.12,264.59,702.39,264.59,702.66z"/>
				<path class="st36" d="M263.4,705.72c-0.42,0.49-0.94,0.94-1.54,1.31l-3.57-2.36l-0.81-0.53l-0.95-0.63l-0.73-0.48l-0.11-0.07
					l-1.64-1.09l-3.36-2.22c0.41-0.5,0.93-0.94,1.53-1.31l3.59,2.37l1.3,0.86l0.46,0.31l0.73,0.48l0.61,0.4l1.16,0.76L263.4,705.72z
					"/>
				<path class="st36" d="M262.74,698.95l-2.95,2.9l-0.89,0.88l-0.61,0.6l-0.17,0.16l-0.64,0.63l-1.68,1.65l-2.01,1.99h-0.01
					l-0.01,0.01l-0.32-0.14l-0.44-0.2l-1.31-0.58l0.12-0.12l3.29-3.24l0.57-0.55l0.11-0.11l0.99-0.98l0.31-0.31l1.19-1.17l2.62-2.58
					C261.6,698.11,262.22,698.5,262.74,698.95z"/>
			</g>
		</g>
		<path class="st15" d="M361.79,716.06c0.64-0.4,1.37-0.79,1.91-1.2c3.71-2.85,8.05-5.58,13.99-8.01c4.36-1.79,9.8-3.17,15.18-4.58
			c1.44-0.38,3.07-0.72,5.03-0.65c1.14,0.29,0.84,0.64,0.42,0.95c-0.68,0.5-1.59,0.97-2.25,1.47c-1.05,0.81-1.98,1.64-2.64,2.2
			c1.93,1.47,3.56,2.64,5.03,3.84c2.88,2.36,5.7,4.72,8.48,7.09c2.18,1.86,4.25,3.73,6.42,5.59c0.41,0.35,1.01,0.68,2.1,1.39
			c1.38-2.53,0.66-4.63,0.75-6.72c0.09-2.05,0.47-4.09,1.19-6.09c2.18-0.19,2.33,0.31,2.74,0.66c4.14,3.43,8.25,6.86,13.19,10.24
			c0.04-0.37,0.13-0.75,0.12-1.12c-0.05-3.16,0.13-6.32-0.24-9.48c-0.35-2.95-1.29-5.89-1.97-8.83c-0.27-1.16-0.59-2.33-0.78-3.49
			c-0.04-0.23,0.42-0.47,0.63-0.69c2.3,0.05,2.55,0.58,2.95,1.01c2.54,2.76,5.23,5.51,7.43,8.3c2.88,3.65,5.35,7.34,8,11.01
			c0.38,0.53,0.82,1.05,1.36,1.73c1.88-0.42,2.04-0.96,2.48-1.46c3.87-4.35,7.75-8.7,11.65-13.04c0.47-0.52,1.05-1.04,1.74-1.54
			c0.3-0.22,1-0.38,1.42-0.53c1.61,0.16,1.79,0.5,1.7,0.85c-0.49,1.92-1.07,3.83-1.55,5.74c-0.22,0.89-0.3,1.78-0.38,2.67
			c-0.4,4.61,0.28,9.2,1.2,13.79c0.04,0.2,0.23,0.4,0.35,0.59c1.41,0.12,1.26-0.24,1.33-0.46c0.54-1.78,1.01-3.55,1.55-5.33
			c0.12-0.41,0.32-0.84,1.74-1c1-0.12,2.15,0.3,2.54,0.97c0.9,1.55,1.68,3.11,2.62,4.66c0.4,0.66,1.09,1.3,1.56,1.85
			c1.79,0.21,2.46-0.04,2.83-0.38c0.34-0.32,0.58-0.66,0.71-1c0.16-0.41,0.18-0.82,0.2-1.23c0.21-3.3,0.39-6.59,1.12-9.88
			c1.1-4.94,0.34-9.89-1.16-14.82c-0.42-1.36-1.13-2.72-1.6-4.08c-0.05-0.14,0.53-0.4,0.96-0.44c0.43-0.04,1.26,0.07,1.52,0.2
			c0.68,0.34,1.22,0.71,1.67,1.09c5.61,4.82,9.77,9.78,13.27,14.81c1.12,1.6,1.88,3.24,2.96,4.84c0.38,0.57,0.42,1.2,1.94,1.85
			c1.1-0.82,1.5-1.55,1.83-2.27c1.4-3.05,2.75-6.11,4.12-9.16c0.18-0.41,0.36-0.83,2.31-0.92c2.84,1.02,1.01,2.43,2.53,3.85
			c3.15-5.24,8.39-9.99,15.48-14.52c0.34-0.22,1.15-0.35,1.64-0.49c1.53,0.17,1.62,0.51,1.59,0.86c-0.17,2.06-0.59,4.12-0.46,6.17
			c0.11,1.78,0.74,3.56,1.36,5.33c0.15,0.44,0.82,0.95,1.75,1.27c3.45,1.18,7.03,2.33,10.93,3.22c1.95-0.07,2.24-0.5,2.63-0.88
			c4.55-4.46,11.57-8.51,18.79-12.54c0.42-0.24,0.79-0.51,1.41-0.67c2.47-0.64,4.51-1.38,5.27-2.39c2.23,0.2,1.56,0.57,1.19,0.85
			c-2.73,2.08-5.52,4.15-8.36,6.27c3.59,3.43,7.54,6.81,11.61,10.19c3.76,0.12,5.98-0.38,7.01-1.4c1.57-1.56,3.04-3.13,4.4-4.71
			c2.14-2.48,5.8-4.7,10.14-6.81c0.38-0.18,1.31-0.25,2.42-0.44c1.36,1.46-0.83,2.71-0.46,3.98c0.4,1.37,0.82,2.73,1.15,4.1
			c0.31,1.29,1.51,2.52,1.71,4.03c2.28-0.51,2.48-1.07,3.15-1.53c2.58-1.8,5.08-3.61,7.71-5.4c0.61-0.41,1.62-0.76,2.36-1.1
			c1.69,0.11,1.89,0.43,1.74,0.79c-0.76,1.77-1.55,3.53-2.33,5.3c-0.95,2.16-0.42,4.32,0.31,6.52c0.75-0.62,1.47-1.25,2.25-1.86
			c3.14-2.48,7.04-4.83,11.62-7.05c4.86-2.36,11.09-4.27,18.46-5.78c1.58-0.32,3.1-0.67,4.42-0.95c1.37-1.71-1.62-3.23-0.73-4.75
			c1.3-0.22,1.78,0.02,2.03,0.27c0.51,0.52,0.79,1.07,1.33,1.59c1.75,1.68,3.58,3.33,6.47,4.88c2.58,1.38,4.01,3.01,5.77,4.55
			c2.48,2.18,4.8,4.39,7.24,6.63c1.37-0.21,0.73-0.59,0.78-0.86c0.12-0.68,0.03-1.37,0.08-2.06c0.25-3.36,0.53-6.73,0.79-10.06
			c0.37-0.05,0.55-0.1,0.71-0.09c0.18,0.01,0.42,0.05,0.51,0.1c1.19,0.72,2.47,1.42,3.51,2.17c3.46,2.48,6.83,4.98,10.58,7.73
			c0.49-1.15,0.26-2.08,0.29-3c0.04-1.03-0.01-2.06-0.03-3.09c-0.02-0.96-0.05-1.92-0.09-2.89c-0.04-0.96-0.06-1.92-0.19-2.89
			c-0.13-0.96-0.43-1.92-0.58-2.88c-0.17-1.03-0.18-2.06-0.39-3.09c-0.19-0.96-0.58-1.91-0.83-2.87c-0.25-0.94-0.91-1.89,0.08-3.03
			c0.85,0.27,1.54,0.41,1.86,0.61c0.46,0.3,0.7,0.64,0.96,0.98c2.09,2.65,4.16,5.3,6.24,7.94c0.94,1.19,2.2,2.35,3.49,3.51
			c1.71,1.54,2.54,3.18,3.73,4.78c0.94,1.27,1.84,2.54,2.82,3.8c0.19,0.25,0.68,0.47,1.27,0.86c0.82-0.3,1.58-0.45,1.77-0.66
			c1.01-1.12,1.81-2.26,2.81-3.38c3.77-4.21,7.59-8.42,11.37-12.59c1.95-0.04,1.77,0.34,1.69,0.65c-0.94,3.49-2.1,6.98-1.74,10.49
			c0.4,3.84,0.93,7.68,1.43,11.53c0.02,0.19,0.31,0.37,0.52,0.6c1.82-1.21,2.51-2.34,2.56-3.67c0.03-0.82,0.25-1.64,0.62-2.45
			c0.08-0.18,1.14-0.45,1.71-0.45c0.59,0.01,1.5,0.28,1.64,0.49c1.06,1.54,1.92,3.09,2.94,4.64c0.8,1.2,1.75,2.38,2.58,3.5
			c1.62,0.11,1.97-0.16,2.1-0.42c0.31-0.61,0.62-1.22,0.67-1.83c0.15-1.72,0.1-3.44,0.26-5.15c0.42-4.46,1.3-8.91,1.31-13.38
			c0.01-3.45-0.59-6.86-2.25-10.26c-0.35-0.71-1.06-1.45-0.03-2.39c0.9,0.27,1.64,0.39,1.94,0.59c0.74,0.49,1.32,1.01,1.87,1.52
			c6.48,6.03,11.53,12.19,15.21,18.47c0.5,0.86,1.14,1.7,1.77,2.62c2.14-0.32,1.81-0.88,2-1.29c1.51-3.33,2.89-6.66,4.35-9.99
			c0.17-0.4,0.55-0.79,0.95-1.17c0.24-0.23,1.8-0.24,2.11-0.02c0.43,0.31,0.94,0.62,1.05,0.95c0.27,0.82,0.34,1.64,0.52,2.62
			c1.48-0.42,1.35-0.9,1.67-1.32c0.35-0.47,0.81-0.92,1.09-1.4c2.29-3.88,6.6-7.51,12.41-10.95c0.65-0.38,1.65-0.7,3.03-1.28
			c0.41,0.52,0.82,0.76,0.75,0.99c-0.96,2.95-0.45,5.89,0.49,8.84c0.87,2.73,1.26,5.47,1.76,8.22c0.51,2.81,0.83,5.62,1.34,8.43
			c0.15,0.81,0.64,1.61,1.62,2.44c0.38-0.45,0.82-0.89,1.13-1.34c3.18-4.63,7.02-9.19,12.65-13.57c2.6-2.02,5.5-4.01,8.64-5.94
			c3.44-2.12,7.25-4.17,11.02-6.23c0.94-0.52,2.31-0.95,3.55-1.4c0.13-0.05,0.74,0.03,1.11,0.07c0.15,0.02,0.34,0.11,0.32,0.16
			c-0.11,0.27-0.14,0.55-0.45,0.79c-1.13,0.89-2.28,1.77-3.58,2.63c-8.56,5.66-12.77,11.74-16.21,17.9c-0.39,0.7-1.5,1.41-0.58,2.37
			c1.26-0.36,2.22-0.6,3.03-0.88c5.95-2.06,12.8-3.72,20.3-5.11c2.54-0.47,4.83-1.08,7.34-1.57c3.94-0.76,7.94-1.5,11.99-2.2
			c1.04-0.18,2.34-0.2,3.32-0.28c1.51,0.44,0.98,0.81,0.37,1.19c-2.54,1.58-5.18,3.14-7.62,4.73c-1.87,1.22-3.13,2.52-4.1,3.8
			c1.1,0.36,1.68,0.1,2.25-0.06c3.09-0.92,5.95-1.94,9.31-2.73c3.01-0.71,6.54-1.18,9.93-1.7c0.78-0.12,1.88-0.02,3.21-0.02
			c-2.53,1.69-5.14,3.17-7,4.74c-1.8,1.53-3.04,3.14-4.14,4.74c-1.13,1.64-3.05,3.27-2.41,5.01c2.1,0.05,2.17-0.49,2.64-0.81
			c2.69-1.8,6.05-3.45,9.83-5.01c3.79-1.57,8.27-2.91,13.08-4.12c1.97-0.5,4.22-0.88,6.45-1.25c0.73-0.12,1.81-0.01,3.41,0
			c-1.01,0.54-1.69,0.87-2.27,1.22c-1.29,0.78-2.6,1.56-3.77,2.37c-0.85,0.58-0.8,1.18-0.07,1.8c6.68,5.63,13.33,11.26,20.01,16.88
			c0.22,0.18,0.63,0.34,0.95,0.51c1.65-0.05,1.28-0.46,1.29-0.75c0.05-3.44,0.03-6.87,0.1-10.31c0.01-0.66-0.43-1.35,0.82-1.93
			c1.92-0.02,2.09,0.42,2.55,0.79c4,3.31,8.02,6.61,12.08,9.94c1.55-0.28,1.04-0.65,1.04-0.94c-0.04-3.57,0.08-7.15-0.31-10.72
			c-0.3-2.74-1.31-5.47-1.95-8.21c-0.28-1.21-0.98-2.42-0.23-3.6c2.14-0.12,2.5,0.32,2.86,0.7c1.74,1.83,3.48,3.67,5.12,5.52
			c4.41,4.94,8.14,9.94,11.26,14.99c0.16,0.26,0.39,0.52,0.64,0.84c2.05-0.17,1.96-0.71,2.34-1.13c3.88-4.35,7.72-8.7,11.62-13.04
			c0.53-0.59,1.2-1.17,1.95-1.74c0.29-0.22,0.99-0.38,1.4-0.54c1.61,0.14,1.84,0.49,1.77,0.83c-0.43,2.12-0.83,4.25-1.42,6.37
			c-0.97,3.5-0.89,6.99-0.08,10.49c0.32,1.37,0.36,2.74,0.57,4.12c0.08,0.53,0.28,1.05,0.42,1.57c1.62-0.05,1.36-0.4,1.38-0.63
			c0.07-0.82,0.07-1.65,0.01-2.47c-0.23-3.31,0.94-6.58,2.08-9.85c0.33-0.95,0.41-1.92,0.67-2.88c0.09-0.34,0.31-0.67,0.59-1
			c0.09-0.11,0.57-0.25,0.88-0.25c0.55,0,1.36,0.03,1.62,0.15c0.83,0.39,1.53,0.81,2.17,1.24c1.48,0.99,2.86,1.98,4.34,2.97
			c0.43,0.28,1.04,0.54,2.19,1.12c0.24-0.68,0.45-0.99,0.45-1.31c0.01-3.09,0.26-6.19-0.12-9.27c-0.28-2.26-1.42-4.5-2.16-6.75
			c-0.21-0.65-0.84-1.32-0.06-1.89c1.51-0.19,2.06,0.09,2.36,0.31c1.19,0.88,2.32,1.76,3.3,2.66c6.52,5.96,10.96,12.1,14.72,18.3
			c0.2,0.33,0.41,0.66,0.61,0.97c1.79,0.05,1.92-0.38,2.07-0.67c1.07-1.96,2.11-3.92,2.98-5.89c0.63-1.43,0.98-2.86,1.47-4.3
			c0.07-0.2,0.09-0.44,0.42-0.59c0.43-0.2,1.1-0.38,1.77-0.45c0.31-0.03,1.15,0.21,1.29,0.37c0.39,0.46,0.57,0.93,0.8,1.41
			c0.16,0.32,0.26,0.64,0.39,0.95c1.51-0.04,1.38-0.37,1.59-0.6c1.63-1.92,3-3.86,4.93-5.75c1.86-1.82,4.21-3.59,6.54-5.35
			c0.9-0.68,2.28-1.3,3.56-1.93c0.26-0.13,1.12-0.22,1.57-0.18c0.45,0.04,0.89,0.26,1.06,0.43c0.18,0.19,0.13,0.41,0.03,0.61
			c-1.24,2.74-1.05,5.47,0.03,8.21c0.35,0.88,0.39,1.78,0.53,2.67c0.1,0.64,0.56,1.23,2.03,1.68c3.67,1.11,7.38,2.2,10.95,3.26
			c2.18-0.12,2.18-0.68,2.68-1.1c4.23-3.67,9.03-7.25,15.28-10.59c2.84-1.52,5.91-2.99,8.91-4.48c0.33-0.16,0.9-0.28,1.39-0.4
			c0.13-0.03,0.45-0.03,0.58,0c0.31,0.07,0.83,0.19,0.79,0.25c-0.24,0.4-0.48,0.8-0.96,1.17c-1.9,1.45-3.83,2.9-5.86,4.33
			c-1.31,0.93-1.32,1.77-0.11,2.75c2.73,2.23,4.97,4.52,7.43,6.78c0.42,0.39,0.85,0.78,1.4,1.15c1.49,1,5.02,1.08,6.91,0.13
			c0.67-0.34,1.11-0.75,1.35-1.14c1.62-2.72,5.22-5.21,8.51-7.73c1.39-1.07,3.36-2.05,5.18-3.05c0.49-0.27,1.4-0.46,2.52-0.82
			c0.46,0.38,0.97,0.6,0.97,0.83c-0.01,0.62-0.18,1.23-0.38,1.85c-1.06,3.19,1.09,6.26,2.61,9.6c2.04-0.58,2.25-1.21,2.99-1.72
			c2.68-1.86,5.25-3.74,7.94-5.59c0.43-0.29,1.24-0.54,1.97-0.77c0.21-0.07,0.83-0.05,1.16,0c0.32,0.05,0.74,0.19,0.73,0.29
			c-0.06,0.4-0.21,0.81-0.43,1.21c-1.69,2.98-2.88,5.97-2.69,9c0.02,0.32,0.46,0.64,0.75,0.95c0.03,0.04,0.35,0.04,0.97,0.11
			c0.7-0.44,1.55-0.89,2.13-1.38c2.39-1.99,5.57-3.83,9.08-5.63c3.42-1.75,7.66-3.25,12.23-4.67c1.05-0.32,2.21-0.68,3.53-0.83
			c3.69-0.43,6.26-1.32,8.88-2.12c1.71-1.59-1.71-3.13-0.18-4.67c1.61,0.01,2.03,0.34,2.33,0.66c0.56,0.59,0.93,1.2,1.45,1.79
			c0.97,1.12,2.21,2.19,4.08,3.21c1.93,1.05,3.37,2.21,4.72,3.35c3.32,2.81,6.46,5.65,9.84,8.63c0.88-0.41,0.52-0.8,0.53-1.13
			c0.06-3.44,0.05-6.87,0.12-10.31c0.02-0.81-0.18-1.64,0.61-2.4c1.61-0.09,1.97,0.24,2.37,0.56c4.03,3.24,8.07,6.48,12.14,9.71
			c0.13,0.1,0.57,0.16,1.22,0.32c0.07-0.47,0.18-0.86,0.17-1.25c-0.1-3.78,0-7.56-0.41-11.34c-0.27-2.53-1.23-5.06-1.93-7.59
			c-0.3-1.08-0.68-2.16-0.56-3.16c1.73-0.33,2.54-0.06,2.82,0.26c0.84,0.99,1.63,1.98,2.14,2.99c0.38,0.75,0.72,1.47,1.99,2.14
			c0.76,0.4,1.18,0.88,1.6,1.33c4.37,4.8,8.47,9.63,11.14,14.57c0.21,0.39,0.56,0.78,1.15,1.57c0.88-0.86,1.42-1.34,1.86-1.82
			c4.11-4.54,8.19-9.08,12.3-13.62c0.58-0.65,1.01-1.32,2.5-1.9c0.67,0.14,1.5,0.22,1.56,0.34c0.2,0.4,0.22,0.81,0.12,1.22
			c-1.05,4.17-2.08,8.35-1.88,12.54c0.02,0.38-0.41,0.84,1.13,1.1c2.06-0.3,1.68-1.04,2.5-1.56c0.85-0.54,1.24-1.17,3.43-1.56
			c0.83,0.24,2.06,0.44,2.5,0.75c1.12,0.81,2.02,1.65,2.75,2.51c1.22,1.45,2.24,2.92,3.38,4.43c0.49-0.11,0.96-0.16,0.97-0.22
			c1.28-5.83,1.81-11.66,1.21-17.5c-0.25-2.39-1.31-4.78-2.06-7.17c-0.25-0.81-0.9-1.61-0.41-2.37c1.49-0.31,2.26-0.07,2.74,0.24
			c0.67,0.42,1.2,0.88,1.69,1.33c7.25,6.75,13,13.62,16.53,20.69c0.09,0.19,0.44,0.36,0.87,0.7c2.08-1.43,2.34-2.85,3.02-4.22
			c1.21-2.44,1.99-4.9,2.96-7.35c0.08-0.2,0.06-0.44,0.39-0.6c0.42-0.19,1.1-0.37,1.77-0.43c0.33-0.03,1.14,0.2,1.29,0.36
			c0.37,0.39,0.5,0.8,0.69,1.2c0.17,0.38,0.29,0.77,0.57,1.53c1.76-0.88,1.98-1.53,2.48-2.16c2.93-3.66,6.27-7.27,11.75-10.62
			c0.89-0.55,1.34-1.57,3.96-1.26c1.9,0.23,0.84,1.11,0.65,1.69c-0.76,2.33-0.59,4.65,0.23,6.99c0.88,2.52,1.29,5.06,1.79,7.6
			c0.82,4.25,1.55,8.49,2.33,12.84c1.39-0.43,1.44-0.91,1.71-1.35c2.9-4.8,7.04-9.48,12.74-13.99c5.62-4.45,12.67-8.66,20.93-12.64
			c0.77-0.37,1.22-0.91,3.11-0.9c1.26,0.5,0.01,0.89-0.52,1.3c-2.99,2.34-6.19,4.66-8.92,7.03c-4.74,4.12-7.84,8.4-9.97,12.74
			c-0.29,0.59-0.2,1.21-0.32,2.01c1.23-0.15,2.04-0.19,2.59-0.33c1.47-0.38,2.88-0.79,4.24-1.22c7.1-2.23,16.02-3.39,24.83-4.61
			c1.14-0.16,2.37-0.25,3.59-0.34c0.78-0.06,1.59-0.07,3.22-0.13c-0.99,0.38-1.45,0.59-1.98,0.77c-9.88,3.46-16.81,7.51-21.63,11.95
			c-4.5,4.14-7.95,8.39-9.35,12.78c-0.17,0.54-0.62,1.07-0.96,1.65c-1.37,0.09-2.57,0.21-3.78,0.23c-2.29,0.04-4.58,0.02-6.88,0.02
			c-110.29,0-220.58,0.01-330.88-0.01c-24.57,0-49.14,0.03-73.72,0.01c-24.81-0.02-49.62,0-74.43,0c-24.6,0-49.2,0-73.81,0
			s-49.2,0-73.81,0c-24.81,0-49.62,0-74.43,0c-24.6,0-49.2,0-73.81,0s-49.2,0-73.81,0c-24.81,0-49.62,0-74.43,0
			c-24.6,0-49.2,0.01-73.81-0.01c-4.35,0-8.73,0.12-13.45-0.19c-0.53-0.7-1.15-1.41-1.6-2.14c-4.87-7.96-13.77-15.39-26.58-22.32
			c-0.72-0.39-1.38-0.8-2.79-1.61c1.77,0.38,2.43,0.49,2.98,0.65c8.39,2.38,16.33,4.9,23.61,7.65c1.63,0.61,3.61,1.12,5.32,1.71
			c1.84,0.64,3.56,1.32,5.76,2.14c0.35-0.41,0.73-0.64,0.71-0.87c-0.11-1.23-0.31-2.47-0.51-3.7c-0.08-0.48-0.35-0.96-0.37-1.44
			c-0.12-3.3-1.23-6.58-2.22-9.86c-0.14-0.46-0.53-1,2.11-1.12c2.36,1.17,3.05,2.62,4.62,3.93c1.6,1.34,3.08,2.7,4.69,4.04
			c1.59,1.32,2.97,2.68,4.79,3.91c1.96-0.12,1.88-0.5,2.04-0.82c1.81-3.47,4.7-6.83,9.02-10.05c1.93-1.44,4.43-2.8,6.81-4.17
			c0.55-0.31,1.68-0.52,3.05-0.92c1.39,1.58-0.45,2.9-0.26,4.22c0.18,1.3,0.45,2.61,0.97,3.9c0.54,1.33,0.99,2.68,2.53,4.37
			c0.95-0.67,1.37-0.95,1.77-1.24c2.65-1.94,5.22-3.89,7.99-5.82c1.4-0.97,2.96-1.34,3.83-1.09c1.59,0.46,0.59,1.02,0.27,1.53
			c-1.79,2.9-2.72,5.83-2.68,8.79c0.01,0.4,0.15,0.81,0.24,1.21C361.01,715.96,361.4,716.01,361.79,716.06z M662.29,718.31
			c0.8-1.28,0.57-2.35,0.06-3.39c-1.86-3.78-2.59-7.6-3.84-11.41c-0.06-0.18-0.46-0.35-0.71-0.53c-2.92,0.7-3.17,0.75-4.42,1.86
			c-1.89,1.67-3.51,3.37-2.87,5.2c0.31,0.87,3.56,2.81,6.29,3.9c1.11,0.05,1.98-0.61,3.42-0.04
			C660.01,715.29,658.64,716.81,662.29,718.31z M567.29,705.89c-2.88,1.76-8.31,8.39-8.07,9.95c0.07,0.45,0.6,0.94,1.34,1.32
			c1.56,0.8,3.32,0.81,5.73,0.22c2.54-0.62,3.54-1.41,3.61-2.46c0.2-2.88-0.88-5.72-1.6-8.58
			C568.28,706.24,567.86,706.14,567.29,705.89z M1067.43,712.57c-0.44,0.21-1.05,0.4-1.28,0.63c-0.77,0.78-1.46,1.57-2.08,2.36
			c-1.44,1.85-2.93,3.7-4.18,5.57c-0.83,1.24-0.03,2.3,4.15,2.85c3.43-0.58,6.36-1.23,6.37-2.72
			C1070.41,718.39,1069.43,715.55,1067.43,712.57z M1158.87,708.97c-0.4-0.05-0.8-0.09-1.2-0.14c-0.9,0.44-2.09,0.84-2.63,1.33
			c-1.38,1.21-2.7,2.44-3.61,3.7c-1.71,2.36,0.51,4.37,6.41,6.14c2.83-0.66,3.88-1.51,3.1-2.66c-0.49-0.73-0.39-1.5-0.58-2.25
			C1159.87,713.05,1159.37,711.01,1158.87,708.97z M538,713.04c-0.39,0.05-0.78,0.11-1.17,0.16c0.45,3.34,0.87,6.68,1.38,10.01
			c0.08,0.52,0.54,1.03,0.83,1.54c2.27-2.18,3.92-4.36,5.42-6.55c0.26-0.38,0.08-0.84-0.37-1.2
			C542.35,715.64,540.27,714.32,538,713.04z M1037.28,718.55c0.73,4.47,1.38,8.41,2.03,12.41c0.59-0.1,0.88-0.12,0.91-0.16
			c1.59-2.05,3.21-4.09,4.71-6.14c0.49-0.67,0.34-1.35-0.59-2C1042.5,721.37,1040.6,720.1,1037.28,718.55z M888.09,725.41
			c2.89-1.26,5.51-2.29,7.35-3.49c0.61-0.4,0.78-0.93,0.62-1.39c-0.58-1.62-1.36-3.24-2.13-4.85c-0.11-0.23-0.01-0.59-1.29-0.56
			C890.88,717.3,887.95,723.69,888.09,725.41z M387.17,719.54c2.77-1.27,4.83-2.2,6.86-3.14c1.24-0.58,1.88-1.21,1.54-1.93
			c-0.72-1.55-1.43-3.1-2.19-4.64c-0.12-0.24-0.18-0.56-1.4-0.45C390.72,710.75,387.15,718,387.17,719.54z M898.02,728.25
			c-0.35-0.02-0.71-0.05-1.06-0.07c-0.4,1.01-0.85,2.01-1.17,3.02c-0.08,0.25,0.2,0.53,0.46,0.78c0.08,0.08,0.65,0.11,1.02,0.14
			c0.16,0.01,0.48-0.04,0.54-0.08c0.31-0.24,0.82-0.5,0.79-0.75C898.5,730.28,898.23,729.26,898.02,728.25z M396.73,721.9
			c-1.22,1.43-1.94,2.76-1.16,4.14c0.04,0.07,0.62,0.12,0.96,0.17C398.4,725.24,398.4,725.24,396.73,721.9z M1232.68,716.68
			c-0.69,1.55-0.54,3.09,0,4.63C1232.68,719.76,1232.68,718.22,1232.68,716.68z M647.09,716.36c-1.48,2.03-1.48,2.03-0.25,2.85
			C647.64,718.32,647.44,717.52,647.09,716.36z M1147.44,723.19c-0.35,0.68-1.66,1.32-0.95,2.4
			C1148.1,724.63,1148.03,723.92,1147.44,723.19z M1161.45,721.35c-1.07,0.65-1.07,0.65,0,1.11
			C1161.45,722.09,1161.45,721.77,1161.45,721.35z"/>
		<g>
			<path class="st6" d="M324.16,64.92c0,9.68-5.48,18.41-14.24,24.52c-9.24,1.29-19.51,2.01-30.33,2.01
				c-10.82,0-21.09-0.72-30.33-2.01c-8.76-6.11-14.24-14.84-14.24-24.52c0-5.15,1.55-10.04,4.33-14.4
				c7.16-11.27,22.49-19.06,40.23-19.06c17.75,0,33.07,7.79,40.24,19.06C322.61,54.88,324.16,59.77,324.16,64.92z"/>
			<path class="st6" d="M249.27,89.44c-25.22-3.51-42.75-11.28-42.75-20.3c0-7.78,13.05-14.63,32.84-18.63
				c-2.78,4.36-4.33,9.25-4.33,14.4C235.03,74.6,240.51,83.33,249.27,89.44z"/>
			<path class="st6" d="M352.67,69.14c0,9.02-17.53,16.78-42.75,20.3c8.76-6.11,14.24-14.84,14.24-24.52
				c0-5.15-1.55-10.04-4.33-14.4C339.62,54.51,352.67,61.36,352.67,69.14z"/>
		</g>
		<g>
			<path class="st6" d="M641.63,81.3c0,7.25-4.1,13.78-10.66,18.36c-6.92,0.96-14.61,1.5-22.71,1.5c-8.1,0-15.79-0.54-22.71-1.5
				c-6.56-4.58-10.66-11.11-10.66-18.36c0-3.86,1.16-7.52,3.24-10.79c5.36-8.44,16.84-14.27,30.13-14.27
				c13.29,0,24.77,5.83,30.13,14.27C640.47,73.78,641.63,77.44,641.63,81.3z"/>
			<path class="st6" d="M585.54,99.65c-18.89-2.63-32.01-8.44-32.01-15.2c0-5.83,9.77-10.96,24.59-13.95
				c-2.08,3.27-3.24,6.93-3.24,10.79C574.88,88.55,578.98,95.08,585.54,99.65z"/>
			<path class="st6" d="M662.98,84.46c0,6.75-13.12,12.57-32.01,15.2c6.56-4.58,10.66-11.11,10.66-18.36
				c0-3.86-1.16-7.52-3.24-10.79C653.2,73.5,662.98,78.63,662.98,84.46z"/>
		</g>
		<g>
			<path class="st6" d="M1083.88,51.63c0,8.2-4.64,15.58-12.05,20.75c-7.82,1.09-16.51,1.7-25.67,1.7c-9.16,0-17.85-0.61-25.67-1.7
				c-7.41-5.17-12.05-12.56-12.05-20.75c0-4.36,1.31-8.5,3.67-12.19c6.06-9.54,19.04-16.13,34.06-16.13c15.02,0,28,6.59,34.06,16.13
				C1082.56,43.13,1083.88,47.27,1083.88,51.63z"/>
			<path class="st6" d="M1020.47,72.39c-21.35-2.97-36.19-9.55-36.19-17.18c0-6.59,11.05-12.39,27.8-15.77
				c-2.36,3.69-3.67,7.83-3.67,12.19C1008.42,59.83,1013.06,67.22,1020.47,72.39z"/>
			<path class="st6" d="M1108.01,55.21c0,7.64-14.84,14.21-36.19,17.18c7.42-5.17,12.05-12.56,12.05-20.75
				c0-4.36-1.31-8.5-3.67-12.19C1096.96,42.82,1108.01,48.62,1108.01,55.21z"/>
		</g>
	</g>
</g>
</svg>
