<?xml version="1.0" encoding="utf-8"?>
<!-- Generator: Adobe Illustrator 24.0.1, SVG Export Plug-In . SVG Version: 6.00 Build 0)  -->
<svg version="1.0" xmlns="http://www.w3.org/2000/svg" xmlns:xlink="http://www.w3.org/1999/xlink" x="0px" y="0px"
	 viewBox="0 0 1366 768" style="enable-background:new 0 0 1366 768;" xml:space="preserve">
<style type="text/css">
	.st0{fill:#B8F0FF;}
	.st1{fill:#61704F;}
	.st2{fill:#D9F8FF;}
	.st3{fill:#1F1B1B;}
	.st4{fill:#34455C;}
	.st5{fill:#997F5D;}
	.st6{fill:#C6A474;}
	.st7{fill:#5B3D18;}
	.st8{fill:#D7B682;}
	.st9{fill:#952E15;}
	.st10{opacity:0.4;fill:#34455C;}
	.st11{fill:#101923;}
	.st12{fill:#956922;}
	.st13{fill:#2A413D;}
	.st14{fill:#3B6863;}
	.st15{opacity:0.5;fill:#64837F;}
	.st16{fill:#64837F;}
	.st17{fill:#DFAB38;}
	.st18{fill:#CEAD39;}
	.st19{opacity:0.2;}
	.st20{fill:#7C5718;}
	.st21{fill:#AF8830;}
	.st22{fill:#782311;}
	.st23{fill:#7A2210;}
	.st24{opacity:0.5;fill:#5E1A0E;}
	.st25{fill:#5E1A0E;}
</style>
<g id="Layer_1">
</g>
<g id="l1">
	<rect class="st0" width="1366" height="767.47"/>
	<ellipse class="st1" cx="873.7" cy="411.47" rx="458.38" ry="112.53"/>
	<rect y="416" class="st1" width="1366" height="350.94"/>
	<path class="st1" d="M676.96,408.02c0,33.97-151.55,61.52-338.48,61.52C151.54,469.54,0,441.99,0,408.02
		c0-33.97,151.54-61.51,338.48-61.51C525.41,346.51,676.96,374.05,676.96,408.02z"/>
	<path class="st1" d="M1248.94,620.57c-58.43,9.47-131.96,33.84-191.93,35.8c77.07-49.11,187.93-70.07,278.45-108.75
		c-140.44,10.18-285.89,26.59-425.11,46.6c-102.46,14.72-204.06,32.44-305.25,50.71c-79.93,14.43-168.57,38.5-250.53,44.88
		c49.16-33.24,147.66-58.17,212.58-80.69c89.79-31.16,191.25-51.28,287.66-74.02c-136.36-0.22-283.89,6.73-417.04,23.84
		C287.09,578.3,147.04,614.8,0,638.97V768h1366V604C1326.78,607.33,1287.33,614.35,1248.94,620.57z"/>
	<path class="st2" d="M884.36,97.78c38.19-25.64-46.91-47.42-73.87-13.87c-13.11-4.14-26.44-2.88-35.72,4.04
		c9.15-33.12-76.2-30.41-89.45-4.15c-33.37-2.69-56.47,16.91-52.52,34.11c-23.26-2.2-34.87,8.29-32.38,20.57
		c-12.06-3.82-25.51-6.24-39.16-6.98c-18.34-27.28-111.43,4.88-106.55,22.46c-16.2-11.06-53.31-13.66-52.7,4.93
		c-20.64-6.89-111.59,3.5-100.77,20.88c10.39,16.68,84.18,3.11,105.68,3.94c27.23,1.06,58.83,10.37,92.3,9.92
		c5.04,25.27,72.5,20.98,97.74,9.05c17.7,16.24,71.47,19.84,96.44,7.27c6.14,29.22,97.62,21.26,118.99,1.71
		c39.43,15.61,96.68,3.15,117.58-20.4c20.66,10.44,148.39,8.57,160.7-2.85c34.72,19.71,131.05-2.5,93.48-19.5
		c52.54-10.01,21.24-29.36-20.13-28.37c23.35-23.35-60.61-19.84-80.53-13.41c4.91-20.76-49.06-20.41-73.27-14.97
		c22.07-17.92-42.13-29.93-66.27-19.25c-17.64-4.05-44.59-2.27-51.51,4.88H884.36z"/>
	<g>
		<path class="st3" d="M904.58,271.09c-8.98-3.56-10.25-11.15-11.19-17.08c-0.81-5.07,4.41-11.35-5.63-12.82
			c-17.66-2.59-14.35,13.09-13.8,20.37c0.38,5.1,3.85,11.13,11.21,13.89c6.43,2.41,20.73,2.75,21.13-3.81L904.58,271.09z"/>
		<rect x="892.47" y="272.18" class="st3" width="69.04" height="36.23"/>
		<rect x="913.64" y="292.79" class="st3" width="75.44" height="37.14"/>
		<g>
			<path class="st4" d="M935.41,263.51l-0.05-0.03c0,0,27.87,1.34,32.19,3.32c6.05,2.77,17.75,38.41,17.75,38.41l-16.64,1.55
				c0,0-11.39-27.86-13.95-30.15c-0.62-0.55-1.82-2.1-2.99-2.03c-12.99,0.78-45.03,4.26-50.86-1.03c-9.2-8.36-7.11-11.96-7.14-12.28
				l0.58-1.22L935.41,263.51z"/>
			<path class="st5" d="M935.88,237.81c3.5,0.73,4.68,4.2,7.28,5.65c1.44,0.82,3.6,1.42,5.57,2c5.18,1.5,10.73,2.67,15.95,4.18
				c2.29,0.67,4.44,1.44,6.69,2.15c1.48,0.48,5.5,2.24,7.04,2.28c1.23,0.03,10.64-2.83,9.68,0.31c-3,0.66-5.73,0.62-8.57,1.69
				c-3.13,1.17-3.69,0.78-7.29-0.26c-8.23-2.4-16.99-4.3-25.67-6.04c-1.86-0.38-5.28-0.6-6.72-1.38c-1.58-0.87-2.38-3.08-3.2-4.24
				c-1.47-2.06-2.77-4.14-0.77-6.18V237.81z"/>
			<polygon class="st6" points="908.64,218.93 925.79,219.43 926.83,207.78 909.69,207.28 			"/>
			<path class="st7" d="M936.55,199.72c1.44,0.38,0.04,2.69-0.15,3.36c-1.22,0.03-2.53,0.12-3.76,0.18
				c-0.07-0.32-0.07-0.65-0.15-0.96c-0.36,0.23-0.49,0.56-0.7,0.85c-0.66-0.08-1.36-0.05-1.97-0.25c0.47-0.39,0.21-1.18,0.11-1.66
				c-0.13-0.55-0.84-1.13-0.32-1.64c1.68-1.63,6.1-0.8,7.39,0.44L936.55,199.72z"/>
			<path class="st8" d="M935.08,215.37c-8,0.25-18.36-1.91-21.95-6.15c-3.7-4.39-0.92-10.03,5.63-13.09
				c5.7-2.67,15.56-0.39,17.91,3.29c1.22,1.93,0.5,3.37,0.11,5.27c-0.32,1.57,2.14,2.57,1.88,4.15c-1.23,0.33-1.73,0.54-2.1,1.23
				c-0.17,0.3,0.3,0.72,0.13,1.02c-0.15,0.24-0.86,0.41-0.97,0.62c-0.6,1.14,0.74,2.84-1.03,3.78L935.08,215.37z"/>
			<path class="st6" d="M918.29,204.54c0.02-0.65-1.73-1.39-2.87-1.09c-1.11,0.3-1.01,1.47-0.9,2c0.28,1.28,1.63,2.57,3.04,3.54
				c-1.79-1.07-4.05-2.88-4.05-4.38c0-0.82,0.63-1.46,2.13-1.61c2.01-0.2,2.69,1.37,2.79,1.37L918.29,204.54z"/>
			<path class="st9" d="M892.47,261.6c1.32-9.92,6.87-31.26,8.78-38.41c0.62-2.3,5.25-4.95,5.25-4.95s10.2-0.77,16.79,1.02l2.5,0.17
				c11.75,5,8.2,16.88,8.76,19.1c1.35,5.33,3.05,18.33,4.86,25.17C925.7,263.88,906.14,262.18,892.47,261.6z"/>
			<path class="st9" d="M925.07,220.08c2.06,1.06,3.62,2.36,4.8,3.79c1.43,1.72,2.74,3.79,3.21,5.66c0.43,1.7,0.76,3.47-0.43,5.1
				c-1.54,2.1-3.46,4.35-6.66,5.84c-3.15,1.49-8.56,1.43-12.34,0.69c-4.67-0.91-9.47-2.72-10.54-5.36
				c-1.41-3.46-2.11-7.73-0.5-11.22c0.92-2,5.25-5.34,9.7-5.58c2.36-0.13,5.52-0.18,7.83,0
				C921.79,219.14,923.75,219.43,925.07,220.08L925.07,220.08z"/>
			<path class="st6" d="M902.35,229.19l23.48-7.37l13.77,24.4c0,0,12.11,1.94,20.67,4.81c4.97,1.67,16.2,5.01,16.2,5.01l-1.13,3.26
				c0,0-13.01-1.17-18.43-1.92c-6.71-0.92-19.76-3.63-19.76-3.63s-5.75-0.76-6.62-1.63C924.69,246.32,902.35,229.19,902.35,229.19z"
				/>
			<path class="st6" d="M976.11,255.8c3.64-0.28,7.16-2.2,11.18-1.84c4.02,0.35,4.32,2.69,4.15,4.59c-1.69,0.04-2.64-0.83-4.43-0.75
				c-1.94,0.09-2.76,1-4.17,1.57c-3.34,1.36-5.98,0.31-9.48-0.21c-0.03-0.85,1.12-3.19,2.19-3.2L976.11,255.8z"/>
			<path class="st9" d="M923.98,220.7c2.68,0.62,4.27,2.21,5.54,3.59c0.91,0.98,1.84,1.49,0.42,2.28
				c-1.17,0.65-22.9,6.94-24.01,7.03c-0.86-1.66-3.63-2.8-3.94-4.59c-0.3-1.7-0.15-3.58,0.92-5.12c2.75-3.89,11.15-4.34,17.71-3.61
				c1.46,0.16,2.71,0.31,4.1,0.64L923.98,220.7z"/>
			<path class="st10" d="M910.19,220.39c-2.71,4.06,7.62,7.03,13.4,7.6c-2.3,1.12-5.9,2.22-8.75,2.85c-1.9,0.42-6.35,2.28-7.76,1.75
				c-2.72-1.02-2.89-4.39-3.04-5.94c-0.19-1.92-0.15-4.24,2.8-5.54c1.03-0.46,2.56-0.76,3.72-0.92L910.19,220.39z"/>
			<path class="st11" d="M928.82,195.3c3.02-0.15,7.36,2.5,7.8,3.98c0.68,2.4-4.42-0.27-6.14-0.52c-0.37,0.6,0.49,1.7-0.79,2.02
				c-1.33,0.33-2.98-0.69-4.35-0.7c0.26,0.81,0.94,1.59,1.07,2.45c0.15,0.9,0.25,3.19-1.66,3.68c-1.27,0.33-2.9-1.52-3.92-2.07
				c-1.58-0.84-5.05-1.51-6.58-0.31c-1.67,1.32,1.06,2.4-0.14,3.46c-0.74,0.66-1.88,0.38-2.52,1.01c-0.81,0.8-0.31,1.84-1.6,2.6
				c-0.24,0.14-0.34,0.33-0.59,0.45c-0.7-0.8-2.02-1.25-2.94-1.99c-0.97-0.79-1.91-1.66-2.8-2.48c-2.06-1.92-3.15-4.18-1.84-6.36
				c1.36-2.29,3.59-4.88,7.58-6.15c4.07-1.29,9.91-1.54,14.41-0.87c1.48,0.22,2.79,0.56,4.02,1.03c0.91,0.35,2.28,1.32,3.37,1.29
				L928.82,195.3z"/>
			<path class="st4" d="M906.8,209.61c-3.82-1.76-5.54-5.42-5.54-8.39c0-5.31,8.15-9.85,17.71-9.85c7.84,0,14.45,2.89,16.59,6.84
				C925.68,200.55,914.84,205.62,906.8,209.61z"/>
			<path class="st4" d="M949.49,196.15c-1.98,0.03-4.17,0.82-6.01,1.21c-2.03,0.43-4.08,0.82-6.11,1.25
				c-3.87,0.81-7.63,1.5-11.21,2.69c-4.01,1.33-7.86,2.88-11.42,4.54c-2.13,0.99-4.47,1.52-6.85,2.22c0.21-0.97,3.58-2.31,4.77-3.06
				c1.87-1.2,4.05-2.17,5.99-3.31c2.83-1.65,5.95-3.4,9.51-4.53c1.2-0.38,2.26-0.85,3.43-1.25c1.21-0.41-3.59,0.62-2.16,0.81
				c2.5,0.33,0.74,0.39,3.1,0c1.77-0.29,14.02-1.77,15.86-1.82c0.71-0.02,0.42-0.08,0.94,0.2c0.4,0.22,0.51,1.1,0.03,0.83
				L949.49,196.15z"/>
			<path class="st12" d="M912.54,199.61c-1.45,0.18-3.01,1.26-3.83,1.88c-0.87,0.67-1.41,1.44-2.25,2.1
				c-0.3-0.25-1.33-0.59-1.4-0.83c-0.05-0.15,0.5-0.62,0.65-0.77c0.55-0.57,1.19-1.14,1.99-1.61c0.66-0.39,1.4-0.78,2.17-1.13
				c1.06-0.48,1.42,0.12,2.45,0.36H912.54z"/>
		</g>
		<rect x="917.95" y="316.4" class="st13" width="82.21" height="21.06"/>
		<path class="st14" d="M973.36,337.46c9.06,0,165.11,0,165.11,0s0-10.73,0-10.89v-47.22c-20.33,0-134.95,0-134.95,0
			c-8.77,9.59-21.11,21.92-28.09,28.15L973.36,337.46z"/>
		<path class="st15" d="M1109.57,299.28c3.02,0,5.91,0.3,8.57,0.84l-2.66,25.07c-2.66,0.54-0.52,1.12-3.53,1.12
			c-13.45,0-26.72-6.69-26.72-13.92C1085.23,305.14,1096.12,299.28,1109.57,299.28z"/>
		<g>
			<path class="st3" d="M1032.09,339.58c0,13.16,19,23.84,42.43,23.84c23.44,0,42.43-10.67,42.43-23.84
				c0-13.17-19-23.85-42.43-23.85C1051.08,315.74,1032.09,326.41,1032.09,339.58z"/>
			<path class="st16" d="M1052.12,339.58c0,6.73,10.03,12.18,22.41,12.18c12.37,0,22.4-5.45,22.4-12.18
				c0-6.73-10.03-12.19-22.4-12.19C1062.15,327.4,1052.12,332.85,1052.12,339.58z"/>
			<path class="st3" d="M1067.25,339.58c0,2.24,3.25,4.06,7.27,4.06c4.01,0,7.26-1.82,7.26-4.06c0-2.25-3.25-4.07-7.26-4.07
				C1070.51,335.52,1067.25,337.34,1067.25,339.58z"/>
		</g>
		<g>
			<path class="st3" d="M794.54,322.3c0,22.65,32.69,41.01,72.99,41.01c40.31,0,72.99-18.36,72.99-41.01
				c0-22.65-32.68-41.01-72.99-41.01C827.22,281.3,794.54,299.66,794.54,322.3z"/>
			<path class="st14" d="M829.01,322.3c0,11.58,17.24,20.96,38.53,20.96c21.28,0,38.52-9.38,38.52-20.96
				c0-11.58-17.24-20.96-38.52-20.96C846.25,301.35,829.01,310.73,829.01,322.3z"/>
			<path class="st3" d="M855.04,322.3c0,3.86,5.58,6.99,12.49,6.99c6.9,0,12.49-3.12,12.49-6.99c0-3.86-5.59-6.99-12.49-6.99
				C860.63,315.31,855.04,318.44,855.04,322.3z"/>
		</g>
		<path class="st14" d="M793.89,309.91c0,22.28,4.39-23.69,69.72-23.69c72.87,0,76.95,45.96,76.95,23.69
			c0-22.28-32.83-40.34-73.35-40.34C826.72,269.57,793.89,287.63,793.89,309.91z"/>
		<path class="st14" d="M986.25,260.71c0.95-0.37,2.08-0.33,2.5,0.11l22.35,22.89c-1.26,0.38-2.34,0.88-3.37,1.48l-22.46-23.01
			C984.84,261.74,985.29,261.09,986.25,260.71z"/>
		<path class="st3" d="M968.67,266.75c0.47,0.51,1.52,0.69,2.34,0.39l37.87-13.81c0.81-0.3,1.1-0.96,0.62-1.48l0,0
			c-0.47-0.52-1.52-0.69-2.34-0.4l-37.88,13.81C968.48,265.57,968.2,266.23,968.67,266.75L968.67,266.75z"/>
		<path class="st3" d="M1112.57,312.38c0,7.69-1.97,13.92,1.12,13.92s10.04-6.23,10.04-13.92c0-7.69-4.82-12.66-7.9-12.66
			C1112.75,299.71,1112.57,304.69,1112.57,312.38z"/>
		<path class="st17" d="M1120.16,304.46c2.58,1.53,1.72,5.43,1.72,7.49c0,0.86-1.32,7.45-4.05,5.46c-0.88-0.65-0.64-3.07-0.71-3.92
			c-0.1-1.35-0.1-2.77,0.01-4.12c0.13-1.58-0.13-4.09,2.8-4.63L1120.16,304.46z"/>
		<rect x="1101.69" y="253.49" class="st14" width="7.37" height="28.15"/>
		<g>
			<rect x="998.1" y="291.86" class="st13" width="82.62" height="21.15"/>
			<path class="st14" d="M1075.98,309.77c0.84,0,1.51-0.71,1.51-1.59l0,0c0-0.88-0.67-1.59-1.51-1.59h-73.38
				c-0.84,0-1.52,0.71-1.52,1.59l0,0c0,0.88,0.69,1.59,1.52,1.59H1075.98z"/>
			<path class="st14" d="M1075.98,304.03c0.84,0,1.51-0.71,1.51-1.59l0,0c0-0.88-0.67-1.59-1.51-1.59h-73.38
				c-0.84,0-1.52,0.72-1.52,1.59l0,0c0,0.88,0.69,1.59,1.52,1.59H1075.98z"/>
			<path class="st14" d="M1075.98,298.01c0.84,0,1.51-0.72,1.51-1.59l0,0c0-0.88-0.67-1.6-1.51-1.6h-73.38
				c-0.84,0-1.52,0.72-1.52,1.6l0,0c0,0.88,0.69,1.59,1.52,1.59H1075.98z"/>
		</g>
	</g>
	<g>
		<g>
			<g>
				<path class="st18" d="M751.38,387.69c0.33,0.1,0.75,0.19,1.15,0.29c0.21,0,0.43,0,0.63,0L751.38,387.69z"/>
				<path class="st17" d="M1033.57,447.84c0.5-0.76,3.5-1.85,4.45-2.4c-1.2-1.58-7.4-2.84-7.71-3.84c-0.56-1.83,5.3-2.48,5.8-3.84
					c1.06-2.87-3.82-1.96-5.23-3.46c-1.89-2.03,1.76-1.48,3.41-3.38c3.58-4.15-7.84-4.67-3.51-8.18c2.32-1.9,6.01-0.48,4.52-3.52
					c-0.98-2.02-5.82-2.19-5.77-4.39c12-1.03,3.01-5.27-2.1-8.17v-2.7c2.14-0.57,4.83-0.69,6.9-1.01c-1.16-1.91-4.45-3.01-7.07-4.24
					c-0.13-0.55-0.36-1.09-0.63-1.6c3.56-0.69,8.47-1.01,7.45-3.31c-1.22-2.71-11.67-4.45-15.23-5.01
					c-7.07-1.12-14.88-0.83-22.24-0.81c-0.02,0.01-0.06,0.02-0.09,0.02H756.49c-1.14,0-2.28,0.05-3.39,0.12
					c-0.2-0.04-0.38-0.1-0.56-0.14c-7.36-0.02-15.16-0.31-22.24,0.81c-3.53,0.56-13.99,2.3-15.21,5.01
					c-1.19,2.65,5.64,2.67,9.03,3.67c-2.54,1.85-7.77,2.96-9.3,5.48c3,0.48,7.32,0.49,9.39,2.11c-2.92,2.58-19.09,8.53-4.6,9.77
					c0.06,2.2-4.78,2.37-5.76,4.39c-1.5,3.04,2.19,1.62,4.53,3.52c4.31,3.51-7.11,4.03-3.51,8.18c1.63,1.91,5.29,1.35,3.39,3.38
					c-1.39,1.5-6.27,0.59-5.22,3.46c0.5,1.36,6.36,2.01,5.8,3.84c-0.3,0.99-6.53,2.26-7.71,3.84c0.95,0.55,3.95,1.64,4.43,2.4
					c1.55,2.39-1.78,2.25-3.06,4.15c-1.68,2.49-0.35,1.65,2.17,3.75c2.61,2.17,1.87,1.16,0.53,3.17c-0.89,1.35-3.07,1.1-1.83,3.01
					c0.97,1.46,4.64,0.97,4.47,2.94c-0.1,1.11-5.5,2.33-4.9,4.12c0.39,1.2,3.78,1.31,5.34,2.04c-1.16,1.91-4.77,2.76-5.25,4.96
					c1.58,0.3,3.14,0.43,4.79,0.7c-0.26,1.72-3.21,2.63-2.45,4.63c1.57,0.01,3.16,0.05,4.71,0.08c-0.94,0.84-0.8,1.54-0.78,2.56
					c3.21,0.62,5.7,2.12,8.96,2.63c3.55,0.56,7.4,0.83,11.07,0.95c4.55,0.15,9.01-0.08,13.38-0.61c1.24,0.08,2.49,0.14,3.78,0.14
					h241.08c4,0.44,8.1,0.61,12.24,0.47c3.68-0.12,7.52-0.39,11.08-0.95c3.25-0.51,5.75-2.01,8.96-2.63
					c0.02-1.02,0.16-1.72-0.78-2.56c1.55-0.03,3.14-0.06,4.7-0.08c0.77-2-2.19-2.91-2.43-4.63c1.64-0.27,3.2-0.4,4.78-0.7
					c-0.49-2.2-4.1-3.06-5.26-4.96c1.57-0.74,4.94-0.84,5.35-2.04c0.59-1.79-4.8-3.01-4.9-4.12c-0.18-1.97,3.5-1.48,4.46-2.94
					c1.25-1.91-0.92-1.66-1.83-3.01c-1.33-2.01-2.08-1,0.54-3.17c2.51-2.1,3.84-1.26,2.16-3.75
					C1035.36,450.1,1032.04,450.23,1033.57,447.84z"/>
				<path class="st18" d="M995.96,387.99c0.22,0,0.42,0,0.64,0c0.39-0.1,0.82-0.19,1.16-0.29L995.96,387.99z"/>
			</g>
			<g class="st19">
				<path class="st18" d="M1033.57,447.97c0.5-0.76,3.5-1.86,4.45-2.41c-1.2-1.58-7.4-2.84-7.71-3.84c-0.56-1.83,5.3-2.48,5.8-3.84
					c1.06-2.87-3.82-1.95-5.23-3.45c-1.89-2.04,1.76-1.48,3.41-3.38c3.58-4.16-7.84-4.67-3.51-8.19c2.32-1.89,6.01-0.48,4.52-3.51
					c-0.98-2.02-5.82-2.19-5.77-4.4c12-1.02,3.01-5.27-2.1-8.17v-2.7c2.14-0.56,4.83-0.69,6.9-1.01c-1.16-1.92-4.45-3.02-7.07-4.25
					c-0.13-0.55-0.36-1.08-0.63-1.6c3.56-0.69,8.47-1.01,7.45-3.3c-1.22-2.71-11.67-4.46-15.23-5.02
					c-7.07-1.11-14.88-0.83-22.24-0.81c-0.02,0.01-0.06,0.02-0.09,0.02l-64.21-0.43c-20.34,11.82-149.13,87.63-179.59,99.25
					l244.86,0.27c4,0.44,8.1,0.6,12.24,0.46c3.68-0.12,7.52-0.39,11.08-0.95c3.25-0.51,5.75-2.01,8.96-2.63
					c0.02-1.02,0.16-1.72-0.78-2.56c1.55-0.03,3.14-0.06,4.7-0.08c0.77-2.01-2.19-2.91-2.43-4.63c1.64-0.27,3.2-0.4,4.78-0.7
					c-0.49-2.21-4.1-3.05-5.26-4.97c1.57-0.73,4.94-0.84,5.35-2.04c0.59-1.8-4.8-3.02-4.9-4.12c-0.18-1.98,3.5-1.48,4.46-2.95
					c1.25-1.9-0.92-1.66-1.83-3.01c-1.33-2.01-2.08-0.99,0.54-3.17c2.51-2.11,3.84-1.27,2.16-3.75
					C1035.36,450.22,1032.04,450.36,1033.57,447.97z"/>
				<path class="st18" d="M995.96,388.11c0.22,0,0.42-0.01,0.64-0.01c0.39-0.1,0.82-0.18,1.16-0.29L995.96,388.11z"/>
			</g>
			<path class="st20" d="M795.74,487.66c0,1.15-1.43,2.09-3.18,2.09l0,0c-1.76,0-3.18-0.93-3.18-2.09V387.32
				c0-1.15,1.42-2.08,3.18-2.08l0,0c1.76,0,3.18,0.93,3.18,2.08V487.66z"/>
			<path class="st20" d="M968.86,487.66c0,1.15-1.42,2.09-3.18,2.09l0,0c-1.75,0-3.17-0.93-3.17-2.09V387.32
				c0-1.15,1.42-2.08,3.17-2.08l0,0c1.76,0,3.18,0.93,3.18,2.08V487.66z"/>
		</g>
		<rect x="646.56" y="521.74" class="st3" width="56.83" height="7.56"/>
		<g>
			<polygon class="st6" points="479.03,338.89 451.76,339.74 450.1,319.69 477.37,318.82 			"/>
			<path class="st7" d="M434.63,305.81c-2.27,0.66-0.07,4.64,0.25,5.8c1.96,0.05,4.03,0.21,5.97,0.31c0.13-0.54,0.13-1.1,0.24-1.64
				c0.58,0.39,0.78,0.98,1.11,1.46c1.06-0.14,2.18-0.08,3.15-0.44c-0.76-0.66-0.36-2.03-0.18-2.86c0.19-0.95,1.33-1.95,0.5-2.83
				c-2.69-2.81-9.71-1.37-11.76,0.76L434.63,305.81z"/>
			<path class="st8" d="M436.96,332.74c12.74,0.42,29.25-3.3,34.94-10.57c5.9-7.56,1.46-17.29-8.95-22.55
				c-9.08-4.6-24.78-0.67-28.51,5.68c-1.94,3.32-0.79,5.8-0.19,9.06c0.52,2.71-3.38,4.43-2.95,7.15c1.96,0.57,2.73,0.92,3.33,2.11
				c0.26,0.53-0.49,1.25-0.19,1.77c0.23,0.42,1.36,0.7,1.54,1.08c0.95,1.97-1.18,4.9,1.62,6.5L436.96,332.74z"/>
			<path class="st6" d="M463.69,314.11c-0.04-1.11,2.74-2.39,4.55-1.87c1.81,0.51,1.62,2.53,1.43,3.45c-0.45,2.2-2.6,4.42-4.83,6.09
				c2.86-1.84,6.46-4.95,6.45-7.54c-0.01-1.41-1.01-2.51-3.41-2.78c-3.17-0.35-4.28,2.36-4.42,2.36L463.69,314.11z"/>
			<path class="st3" d="M433.14,299.56c-4.67,3-9.4,7.7-2.51,11.1c0.86-0.95,1.9-1.89,2.99-2.76c0.21,1.14,0.04,2.46,1.27,3.36
				c0.94-0.42,1.74-1.86,2.79-2.12c1.47-0.37,1.26,0.33,1.89,0.29c1.34-0.06,0.98,0.52,2.74-0.1c0.88-0.3,1.54-1.35,2.24-1.84
				c0.82,2.09,5.45,1.79,7.7,3.21c2.83,1.8,3.81,3.81,4.42,6.18c0.09-0.01,0.81,0.02,0.88,0.02c1.77-1.58,3.58-3.74,6.68-4.5
				c3.21-0.78,6.9-0.12,7.73,2.09c0.36,0.97-0.77,2.19-0.34,3.15c0.38,0.87,1.94,1.7,2.78,2.43c2.07,1.86,2.69,3.71,3.61,5.76
				c5.13-6.19,11.89-12.17,10.21-19.63c-1.57-7.13-14.29-11.29-24.92-12.83c-5.9-0.85-12.57-0.97-18.09,0.56
				c-4.04,1.1-11.44,3.61-12.41,6.37c0.76,0.02,0.35-0.26,0.68-0.55L433.14,299.56z"/>
			<path class="st21" d="M464.84,294.12c-3.27-0.98-11.48-0.68-12.95,1.79c-0.81,1.34,3.02,0.86,4.72,0.85c1.92,0,10.2-1.07,11.42,0
				c1.11,0.97-2.41,2.63-3.22,3.3c-0.95,0.76-5.32,5.12-2.35,5.71c1.55,0.3,4.93-2.51,5.95-3.05c1.51-0.8,3.16-1.69,5.3-1.57
				c0.15,1.12-0.58,2.05-0.64,3.16c-0.11,1.55,0.28,1.37,1.94,0.56c3.36-1.64,4.57-2.58,5.45,0.76c0.31,1.17,0.25,6.5,3.56,4.01
				c1.48-1.13,2.01-3.31,1.34-4.67c-1.97-3.96-10.17-7.83-16.12-9.62c-1.59-0.49-3.36-0.91-5.06-1.22H464.84z"/>
			<path class="st3" d="M445.74,304.15c-1.2,1.57-0.82,4.03-0.68,5.71c0.23,2.63,1.03,5.35,2.07,7.91c0.74,1.85,1.81,3.69,2.89,5.46
				c0.37,0.61,1.39,3.08,2.32,3.41c1.35,0.47,4.87-1,6.7-0.93c1.1,0.04,1.88,0.42,2.93,0.53c1.37,0.15,1.82-0.15,3.13-0.24
				c1.52-0.11,1.35,0.01,2.66,0.33c0.39,0.1,0.5,0.52,1.1,0.58c0.8,0.08,1.27-0.42,1.96-0.41c2.19,0.03,3.18,2.01,5.15,2.52
				c1.91,0.5,5.31,1.29,7.36,1.32c3.11,0.04,4-2.24,5.28-3.61c4.43-4.73,4.51-10.18,4.49-15.45c0-3.79-1.03-7.71-4.43-10.95
				c-3.87-3.67-8.85-5.09-15.37-6.68c-6.23-1.52-16.42-2.97-22.89-0.99c-2.72,0.84-5.45,2.47-6,4.29c-0.34,1.06,2.14,6.88,1.1,7.06
				L445.74,304.15z"/>
			<path class="st3" d="M457.75,291.71c-12.95,0-24.77,2.01-32.29,8.73c-2,1.79-2.51,4.05-1.52,6.1c0.42,0.88,5.37,5.54,6.91,3.74
				c0.08,0.25,0.42,0.46,0.48,0.73c0.42-0.12,1.13-0.13,1.54-0.37c0.02,0.17,0.24,0.41,0.24,0.64c0.43-0.16,1.26-0.25,1.71-0.5
				c0.08,0.22,0.44,0.44,0.52,0.63c0.31-0.2,1.03-0.36,1.3-0.66c0.4,0.72,1.3,0.57,2,0.01c0.51,0.81,1.53,0.74,2.18,0.03
				c-0.12,1.22,1.27,0.58,1.99,0c1.21,2.08,4.79-0.74,5.79-1.49c3.2-2.44,6.14-5.49,6.71-8.57c0.37-2.07,0-3.72-0.21-5.69
				c-0.2-1.81,1.12-2.39,3.78-2.82c-0.23,0.06-0.43,0.06-0.66,0.04L457.75,291.71z"/>
		</g>
		<path class="st9" d="M362.24,413.4c-2.35,3.48-6.47-0.16-13.47-1.8c-7.01-1.64-7.01-1.64-11.91-4.12
			c-4.83-2.45,9.93-4.99,16.93-3.35C360.81,405.76,364.58,409.92,362.24,413.4z"/>
		<path class="st3" d="M480.76,429.27c14.98-6.06,17.08-18.96,18.65-29.05c1.35-8.62-7.35-19.29,9.38-21.79
			c29.44-4.4,23.93,22.25,23.01,34.64c-0.66,8.68-6.41,18.92-18.68,23.61c-10.73,4.1-34.55,4.68-35.23-6.48L480.76,429.27z"/>
		<rect x="385.88" y="431.12" class="st3" width="115.07" height="61.6"/>
		<rect x="339.89" y="466.16" class="st3" width="125.79" height="63.13"/>
		<path class="st4" d="M452.37,411.2l-11.19-0.72c0,0-58.17,8.13-65.38,11.49c-10.09,4.71-29.61,65.28-29.61,65.28l39.68,3.98
			c0,0,9.81-46.74,14.07-50.64c1.04-0.94,5.14-3.11,7.1-2.98c21.66,1.33,70.2,4.82,79.94-4.17c15.33-14.21,11.84-20.35,11.89-20.88
			l-0.97-2.08L452.37,411.2z"/>
		<path class="st5" d="M434.1,363.98c-2.57,4.05-13.32,15.87-17.64,18.34c-2.4,1.38-6.01,2.41-9.29,3.39
			c-8.63,2.56-17.89,4.55-26.58,7.12c-3.84,1.13-7.42,2.44-11.15,3.66c-2.48,0.81-9.18,3.79-11.76,3.86
			c-2.05,0.06-17.73-4.81-16.13,0.52c5,1.13,9.54,1.05,14.28,2.87c5.21,2,6.15,1.33,12.15-0.45c13.72-4.07,28.33-7.3,42.79-10.27
			c3.1-0.64,8.81-1.02,11.22-2.35c2.62-1.47,3.96-5.24,5.32-7.21c2.45-3.5,8.62-8.69,5.27-12.16L434.1,363.98z"/>
		<path class="st4" d="M499.18,414.51c-2.18-16.86-9.68-54.53-12.87-66.67c-1.02-3.92-7.28-10.18-7.28-10.18s-15.15-1.87-26.13,1.19
			l-7.48,2.61c-15.1,18.44-15.81,37.26-14.62,32.46c2.25-9.06-5.09,31.16-8.1,42.8C445.56,417.01,476.42,415.5,499.18,414.51z"/>
		<path class="st9" d="M446.6,342.55c-3.43,1.81-6.02,4.02-8,6.44c-2.39,2.92-4.58,6.44-5.35,9.62c-0.72,2.9-1.27,5.91,0.71,8.68
			c2.57,3.56,5.77,7.38,11.09,9.93c5.26,2.52,14.29,2.42,20.59,1.17c7.78-1.55,15.79-4.62,17.57-9.11
			c2.35-5.88,3.52-13.14,0.84-19.08c-1.53-3.4-8.75-9.09-16.16-9.49c-3.94-0.22-9.22-0.32-13.05,0
			C452.07,340.96,448.82,341.45,446.6,342.55L446.6,342.55z"/>
		<path class="st6" d="M484.47,358.04l-28-8.97l-34.09,37.91c0,0-20.19,3.31-34.46,8.18c-8.29,2.83-27,8.53-27,8.53l1.88,5.53
			c0,0,21.68-1.99,30.71-3.25c11.18-1.58,32.95-6.18,32.95-6.18s9.58-1.29,11.03-2.77C447.24,387.16,484.47,358.04,484.47,358.04z"
			/>
		<path class="st6" d="M361.52,403.27c-6.07-0.49-11.95-3.74-18.63-3.13c-6.71,0.6-7.2,4.58-6.92,7.8c2.83,0.08,4.41-1.41,7.39-1.27
			c3.22,0.15,4.61,1.71,6.95,2.68c5.57,2.32,9.95,0.52,15.79-0.37c0.05-1.45-1.87-5.42-3.65-5.44L361.52,403.27z"/>
		<path class="st9" d="M448.43,343.6c-4.48,1.05-7.13,3.75-9.23,6.09c-1.52,1.67-3.08,2.54-0.72,3.88
			c1.96,1.1,38.18,11.8,40.03,11.95c1.43-2.83,6.04-4.76,6.58-7.81c0.49-2.88,0.25-6.09-1.56-8.72c-4.57-6.62-18.57-7.38-29.5-6.14
			c-2.46,0.27-4.53,0.53-6.84,1.08L448.43,343.6z"/>
		<path class="st10" d="M471.41,343.08c4.52,6.9-12.69,11.96-22.33,12.92c3.82,1.9,9.84,3.77,14.59,4.84
			c3.17,0.72,10.58,3.88,12.95,2.97c4.52-1.74,4.81-7.47,5.06-10.1c0.31-3.26,0.25-7.21-4.67-9.42c-1.71-0.78-4.26-1.31-6.2-1.57
			L471.41,343.08z"/>
		<rect x="321.44" y="506.3" class="st22" width="137.03" height="35.81"/>
		<g>
			<path class="st3" d="M666.25,517.43c0,38.38-55.4,69.51-123.72,69.51c-68.34,0-123.71-31.12-123.71-69.51
				s55.37-69.51,123.71-69.51C610.85,447.92,666.25,479.04,666.25,517.43z"/>
			<path class="st17" d="M607.82,517.43c0,19.62-29.22,35.52-65.29,35.52c-36.07,0-65.31-15.9-65.31-35.52
				c0-19.62,29.23-35.53,65.31-35.53C578.6,481.9,607.82,497.81,607.82,517.43z"/>
			<path class="st3" d="M563.69,517.43c0,6.54-9.47,11.84-21.17,11.84c-11.7,0-21.18-5.3-21.18-11.84s9.47-11.84,21.18-11.84
				C554.22,505.58,563.69,510.89,563.69,517.43z"/>
		</g>
		<path class="st9" d="M666.41,496.41c0,40.88-7.42-43.46-117.73-43.46c-123.06,0-129.95,84.34-129.95,43.46
			c0-40.88,55.45-74.01,123.85-74.01C610.97,422.4,666.41,455.53,666.41,496.41z"/>
		<path class="st3" d="M344.62,411.63c-1.6-0.63-3.47-0.55-4.17,0.18l-37.26,38.92c2.1,0.64,3.91,1.5,5.63,2.51l37.43-39.12
			C346.97,413.38,346.23,412.27,344.62,411.63z"/>
		<path class="st3" d="M373.93,421.9c-0.8,0.87-2.44,1.21-3.67,0.75l-56.96-21.39c-1.22-0.46-1.58-1.55-0.8-2.43l0,0
			c0.8-0.87,2.43-1.21,3.66-0.75l56.96,21.38C374.36,419.93,374.71,421.02,373.93,421.9L373.93,421.9z"/>
		<path class="st4" d="M458.46,339.05c-6.82-1.06-12.51,2.23-16.58,4.97c-2.8,1.9-5.12,4.11-8.45,5.78
			c-2.51,1.25-7.17,2.01-8.72,3.78c-2.57,2.92,0.62,7.97,2.29,10.74c2.02,3.36,3,6.22,3.37,9.78c0.05,0.58,0.46,1.21,0.33,1.91
			c3.51-2.91,8.51-7.83,8.57-11.28c0.04-4.62-0.75-9.05,1.68-13.54c1.63-3.02,4.65-5.54,8.47-7.71c1.61-0.92,11.55-3.44,8.72-4.44
			H458.46z"/>
		<path class="st9" d="M1051.17,542.69c0,3.7-14.66,6.7-32.75,6.7H730.7c-18.08,0-32.73-3-32.73-6.7v-47.75
			c0-3.71,14.66-6.71,32.73-6.71h287.73c18.09,0,32.75,3,32.75,6.71V542.69z"/>
		<polygon class="st23" points="1060.14,502 682.89,502.62 675.98,483.3 1073.15,483.3 		"/>
		<g>
			<path class="st3" d="M837.77,551.68c0,19.63-28.33,35.56-63.3,35.56c-34.95,0-63.29-15.93-63.29-35.56
				c0-19.64,28.34-35.56,63.29-35.56C809.43,516.12,837.77,532.04,837.77,551.68z"/>
			<path class="st17" d="M807.88,551.68c0,10.04-14.94,18.18-33.41,18.18c-18.45,0-33.41-8.14-33.41-18.18
				c0-10.04,14.96-18.18,33.41-18.18C792.94,533.5,807.88,541.64,807.88,551.68z"/>
			<path class="st3" d="M785.3,551.68c0,3.35-4.84,6.07-10.84,6.07c-5.96,0-10.83-2.72-10.83-6.07c0-3.35,4.87-6.06,10.83-6.06
				C780.46,545.62,785.3,548.33,785.3,551.68z"/>
		</g>
		<g>
			<path class="st3" d="M1046.16,551.68c0,19.63-28.33,35.56-63.3,35.56c-34.96,0-63.3-15.93-63.3-35.56
				c0-19.64,28.34-35.56,63.3-35.56C1017.84,516.12,1046.16,532.04,1046.16,551.68z"/>
			<path class="st17" d="M1016.28,551.68c0,10.04-14.95,18.18-33.41,18.18c-18.45,0-33.42-8.14-33.42-18.18
				c0-10.04,14.97-18.18,33.42-18.18C1001.33,533.5,1016.28,541.64,1016.28,551.68z"/>
			<path class="st3" d="M993.7,551.68c0,3.35-4.84,6.07-10.83,6.07c-5.98,0-10.84-2.72-10.84-6.07c0-3.35,4.86-6.06,10.84-6.06
				C988.86,545.62,993.7,548.33,993.7,551.68z"/>
		</g>
		<path class="st9" d="M355.11,542.3c-15.34,0-279.87,0-279.87,0s0-18.19,0-18.47V443.8c34.47,0,228.75,0,228.75,0
			c14.86,16.26,35.77,37.16,47.61,47.72L355.11,542.3z"/>
		<path class="st24" d="M124.24,477.58c-5.11,0-10.03,0.5-14.53,1.42l4.51,42.49c4.52,0.92,0.88,1.89,5.99,1.89
			c22.8,0,45.29-11.33,45.29-23.6C165.5,487.52,147.03,477.58,124.24,477.58z"/>
		<g>
			<path class="st3" d="M255.59,545.9c0,22.31-32.21,40.41-71.93,40.41c-39.72,0-71.92-18.09-71.92-40.41
				c0-22.32,32.2-40.42,71.92-40.42C223.39,505.48,255.59,523.57,255.59,545.9z"/>
			<path class="st17" d="M221.63,545.9c0,11.4-17,20.65-37.97,20.65c-20.96,0-37.97-9.24-37.97-20.65c0-11.42,17-20.66,37.97-20.66
				C204.63,525.24,221.63,534.48,221.63,545.9z"/>
			<path class="st3" d="M195.97,545.89c0,3.8-5.51,6.88-12.31,6.88c-6.79,0-12.31-3.08-12.31-6.88c0-3.8,5.51-6.89,12.31-6.89
				C190.46,539.01,195.97,542.09,195.97,545.89z"/>
		</g>
		<path class="st3" d="M119.16,499.78c0,13.04,3.34,23.6-1.89,23.6c-5.24,0-17.04-10.56-17.04-23.6c0-13.03,8.18-21.46,13.41-21.46
			C118.86,478.31,119.16,486.74,119.16,499.78z"/>
		<path class="st17" d="M106.31,486.35c-4.39,2.59-2.92,9.2-2.92,12.69c0,1.45,2.22,12.63,6.85,9.25c1.51-1.1,1.09-5.21,1.2-6.65
			c0.17-2.29,0.17-4.7-0.02-6.99c-0.21-2.68,0.21-6.94-4.75-7.84L106.31,486.35z"/>
		<rect x="137.61" y="398.54" class="st9" width="12.5" height="47.71"/>
		<g>
			<rect x="173.15" y="465" class="st25" width="140.04" height="35.84"/>
			<path class="st9" d="M181.18,495.36c-1.41,0-2.56-1.21-2.56-2.7l0,0c0-1.49,1.15-2.7,2.56-2.7h124.39c1.42,0,2.57,1.21,2.57,2.7
				l0,0c0,1.49-1.15,2.7-2.57,2.7H181.18z"/>
			<path class="st9" d="M181.18,485.63c-1.41,0-2.56-1.21-2.56-2.7l0,0c0-1.49,1.15-2.7,2.56-2.7h124.39c1.42,0,2.57,1.21,2.57,2.7
				l0,0c0,1.49-1.15,2.7-2.57,2.7H181.18z"/>
			<path class="st9" d="M181.18,475.42c-1.41,0-2.56-1.21-2.56-2.7l0,0c0-1.49,1.15-2.7,2.56-2.7h124.39c1.42,0,2.57,1.21,2.57,2.7
				l0,0c0,1.49-1.15,2.7-2.57,2.7H181.18z"/>
		</g>
	</g>
</g>
</svg>
